<?xml version="1.0" encoding="utf-8" standalone="no"?>
<!DOCTYPE svg PUBLIC "-//W3C//DTD SVG 1.1//EN"
  "http://www.w3.org/Graphics/SVG/1.1/DTD/svg11.dtd">
<svg xmlns:xlink="http://www.w3.org/1999/xlink" width="460.8pt" height="345.6pt" viewBox="0 0 460.8 345.6" xmlns="http://www.w3.org/2000/svg" version="1.1">
 <metadata>
  <rdf:RDF xmlns:dc="http://purl.org/dc/elements/1.1/" xmlns:cc="http://creativecommons.org/ns#" xmlns:rdf="http://www.w3.org/1999/02/22-rdf-syntax-ns#">
   <cc:Work>
    <dc:type rdf:resource="http://purl.org/dc/dcmitype/StillImage"/>
    <dc:date>2026-05-17T17:12:26.350950</dc:date>
    <dc:format>image/svg+xml</dc:format>
    <dc:creator>
     <cc:Agent>
      <dc:title>Matplotlib v3.10.9, https://matplotlib.org/</dc:title>
     </cc:Agent>
    </dc:creator>
   </cc:Work>
  </rdf:RDF>
 </metadata>
 <defs>
  <style type="text/css">*{stroke-linejoin: round; stroke-linecap: butt}</style>
 </defs>
 <g id="figure_1">
  <g id="patch_1">
   <path d="M 0 345.6 
L 460.8 345.6 
L 460.8 0 
L 0 0 
z
" style="fill: #ffffff"/>
  </g>
  <g id="axes_1">
   <g id="patch_2">
    <path d="M 57.6 307.584 
L 414.72 307.584 
L 414.72 41.472 
L 57.6 41.472 
z
" style="fill: #ffffff"/>
   </g>
   <g id="matplotlib.axis_1">
    <g id="xtick_1">
     <g id="line2d_1">
      <path d="M 73.832727 307.584 
L 73.832727 41.472 
" clip-path="url(#p65e6486cc6)" style="fill: none; stroke: #b0b0b0; stroke-width: 0.8; stroke-linecap: square"/>
     </g>
     <g id="line2d_2">
      <defs>
       <path id="ma64e081174" d="M 0 0 
L 0 3.5 
" style="stroke: #000000; stroke-width: 0.8"/>
      </defs>
      <g>
       <use xlink:href="#ma64e081174" x="73.832727" y="307.584" style="stroke: #000000; stroke-width: 0.8"/>
      </g>
     </g>
     <g id="text_1">
      <!-- 00 -->
      <g transform="translate(67.470227 322.182437) scale(0.1 -0.1)">
       <defs>
        <path id="DejaVuSans-30" d="M 2034 4250 
Q 1547 4250 1301 3770 
Q 1056 3291 1056 2328 
Q 1056 1369 1301 889 
Q 1547 409 2034 409 
Q 2525 409 2770 889 
Q 3016 1369 3016 2328 
Q 3016 3291 2770 3770 
Q 2525 4250 2034 4250 
z
M 2034 4750 
Q 2819 4750 3233 4129 
Q 3647 3509 3647 2328 
Q 3647 1150 3233 529 
Q 2819 -91 2034 -91 
Q 1250 -91 836 529 
Q 422 1150 422 2328 
Q 422 3509 836 4129 
Q 1250 4750 2034 4750 
z
" transform="scale(0.015625)"/>
       </defs>
       <use xlink:href="#DejaVuSans-30"/>
       <use xlink:href="#DejaVuSans-30" transform="translate(63.623047 0)"/>
      </g>
      <!-- 2016-09-14 -->
      <g transform="translate(44.774915 333.38025) scale(0.1 -0.1)">
       <defs>
        <path id="DejaVuSans-32" d="M 1228 531 
L 3431 531 
L 3431 0 
L 469 0 
L 469 531 
Q 828 903 1448 1529 
Q 2069 2156 2228 2338 
Q 2531 2678 2651 2914 
Q 2772 3150 2772 3378 
Q 2772 3750 2511 3984 
Q 2250 4219 1831 4219 
Q 1534 4219 1204 4116 
Q 875 4013 500 3803 
L 500 4441 
Q 881 4594 1212 4672 
Q 1544 4750 1819 4750 
Q 2544 4750 2975 4387 
Q 3406 4025 3406 3419 
Q 3406 3131 3298 2873 
Q 3191 2616 2906 2266 
Q 2828 2175 2409 1742 
Q 1991 1309 1228 531 
z
" transform="scale(0.015625)"/>
        <path id="DejaVuSans-31" d="M 794 531 
L 1825 531 
L 1825 4091 
L 703 3866 
L 703 4441 
L 1819 4666 
L 2450 4666 
L 2450 531 
L 3481 531 
L 3481 0 
L 794 0 
L 794 531 
z
" transform="scale(0.015625)"/>
        <path id="DejaVuSans-36" d="M 2113 2584 
Q 1688 2584 1439 2293 
Q 1191 2003 1191 1497 
Q 1191 994 1439 701 
Q 1688 409 2113 409 
Q 2538 409 2786 701 
Q 3034 994 3034 1497 
Q 3034 2003 2786 2293 
Q 2538 2584 2113 2584 
z
M 3366 4563 
L 3366 3988 
Q 3128 4100 2886 4159 
Q 2644 4219 2406 4219 
Q 1781 4219 1451 3797 
Q 1122 3375 1075 2522 
Q 1259 2794 1537 2939 
Q 1816 3084 2150 3084 
Q 2853 3084 3261 2657 
Q 3669 2231 3669 1497 
Q 3669 778 3244 343 
Q 2819 -91 2113 -91 
Q 1303 -91 875 529 
Q 447 1150 447 2328 
Q 447 3434 972 4092 
Q 1497 4750 2381 4750 
Q 2619 4750 2861 4703 
Q 3103 4656 3366 4563 
z
" transform="scale(0.015625)"/>
        <path id="DejaVuSans-2d" d="M 313 2009 
L 1997 2009 
L 1997 1497 
L 313 1497 
L 313 2009 
z
" transform="scale(0.015625)"/>
        <path id="DejaVuSans-39" d="M 703 97 
L 703 672 
Q 941 559 1184 500 
Q 1428 441 1663 441 
Q 2288 441 2617 861 
Q 2947 1281 2994 2138 
Q 2813 1869 2534 1725 
Q 2256 1581 1919 1581 
Q 1219 1581 811 2004 
Q 403 2428 403 3163 
Q 403 3881 828 4315 
Q 1253 4750 1959 4750 
Q 2769 4750 3195 4129 
Q 3622 3509 3622 2328 
Q 3622 1225 3098 567 
Q 2575 -91 1691 -91 
Q 1453 -91 1209 -44 
Q 966 3 703 97 
z
M 1959 2075 
Q 2384 2075 2632 2365 
Q 2881 2656 2881 3163 
Q 2881 3666 2632 3958 
Q 2384 4250 1959 4250 
Q 1534 4250 1286 3958 
Q 1038 3666 1038 3163 
Q 1038 2656 1286 2365 
Q 1534 2075 1959 2075 
z
" transform="scale(0.015625)"/>
        <path id="DejaVuSans-34" d="M 2419 4116 
L 825 1625 
L 2419 1625 
L 2419 4116 
z
M 2253 4666 
L 3047 4666 
L 3047 1625 
L 3713 1625 
L 3713 1100 
L 3047 1100 
L 3047 0 
L 2419 0 
L 2419 1100 
L 313 1100 
L 313 1709 
L 2253 4666 
z
" transform="scale(0.015625)"/>
       </defs>
       <use xlink:href="#DejaVuSans-32"/>
       <use xlink:href="#DejaVuSans-30" transform="translate(63.623047 0)"/>
       <use xlink:href="#DejaVuSans-31" transform="translate(127.246094 0)"/>
       <use xlink:href="#DejaVuSans-36" transform="translate(190.869141 0)"/>
       <use xlink:href="#DejaVuSans-2d" transform="translate(254.492188 0)"/>
       <use xlink:href="#DejaVuSans-30" transform="translate(290.576172 0)"/>
       <use xlink:href="#DejaVuSans-39" transform="translate(354.199219 0)"/>
       <use xlink:href="#DejaVuSans-2d" transform="translate(417.822266 0)"/>
       <use xlink:href="#DejaVuSans-31" transform="translate(453.90625 0)"/>
       <use xlink:href="#DejaVuSans-34" transform="translate(517.529297 0)"/>
      </g>
     </g>
    </g>
    <g id="xtick_2">
     <g id="line2d_3">
      <path d="M 100.891971 307.584 
L 100.891971 41.472 
" clip-path="url(#p65e6486cc6)" style="fill: none; stroke: #b0b0b0; stroke-width: 0.8; stroke-linecap: square"/>
     </g>
     <g id="line2d_4">
      <g>
       <use xlink:href="#ma64e081174" x="100.891971" y="307.584" style="stroke: #000000; stroke-width: 0.8"/>
      </g>
     </g>
     <g id="text_2">
      <!-- 04 -->
      <g transform="translate(94.529471 322.182437) scale(0.1 -0.1)">
       <use xlink:href="#DejaVuSans-30"/>
       <use xlink:href="#DejaVuSans-34" transform="translate(63.623047 0)"/>
      </g>
     </g>
    </g>
    <g id="xtick_3">
     <g id="line2d_5">
      <path d="M 127.951214 307.584 
L 127.951214 41.472 
" clip-path="url(#p65e6486cc6)" style="fill: none; stroke: #b0b0b0; stroke-width: 0.8; stroke-linecap: square"/>
     </g>
     <g id="line2d_6">
      <g>
       <use xlink:href="#ma64e081174" x="127.951214" y="307.584" style="stroke: #000000; stroke-width: 0.8"/>
      </g>
     </g>
     <g id="text_3">
      <!-- 08 -->
      <g transform="translate(121.588714 322.182437) scale(0.1 -0.1)">
       <defs>
        <path id="DejaVuSans-38" d="M 2034 2216 
Q 1584 2216 1326 1975 
Q 1069 1734 1069 1313 
Q 1069 891 1326 650 
Q 1584 409 2034 409 
Q 2484 409 2743 651 
Q 3003 894 3003 1313 
Q 3003 1734 2745 1975 
Q 2488 2216 2034 2216 
z
M 1403 2484 
Q 997 2584 770 2862 
Q 544 3141 544 3541 
Q 544 4100 942 4425 
Q 1341 4750 2034 4750 
Q 2731 4750 3128 4425 
Q 3525 4100 3525 3541 
Q 3525 3141 3298 2862 
Q 3072 2584 2669 2484 
Q 3125 2378 3379 2068 
Q 3634 1759 3634 1313 
Q 3634 634 3220 271 
Q 2806 -91 2034 -91 
Q 1263 -91 848 271 
Q 434 634 434 1313 
Q 434 1759 690 2068 
Q 947 2378 1403 2484 
z
M 1172 3481 
Q 1172 3119 1398 2916 
Q 1625 2713 2034 2713 
Q 2441 2713 2670 2916 
Q 2900 3119 2900 3481 
Q 2900 3844 2670 4047 
Q 2441 4250 2034 4250 
Q 1625 4250 1398 4047 
Q 1172 3844 1172 3481 
z
" transform="scale(0.015625)"/>
       </defs>
       <use xlink:href="#DejaVuSans-30"/>
       <use xlink:href="#DejaVuSans-38" transform="translate(63.623047 0)"/>
      </g>
     </g>
    </g>
    <g id="xtick_4">
     <g id="line2d_7">
      <path d="M 155.010457 307.584 
L 155.010457 41.472 
" clip-path="url(#p65e6486cc6)" style="fill: none; stroke: #b0b0b0; stroke-width: 0.8; stroke-linecap: square"/>
     </g>
     <g id="line2d_8">
      <g>
       <use xlink:href="#ma64e081174" x="155.010457" y="307.584" style="stroke: #000000; stroke-width: 0.8"/>
      </g>
     </g>
     <g id="text_4">
      <!-- 12 -->
      <g transform="translate(148.647957 322.182437) scale(0.1 -0.1)">
       <use xlink:href="#DejaVuSans-31"/>
       <use xlink:href="#DejaVuSans-32" transform="translate(63.623047 0)"/>
      </g>
     </g>
    </g>
    <g id="xtick_5">
     <g id="line2d_9">
      <path d="M 182.0697 307.584 
L 182.0697 41.472 
" clip-path="url(#p65e6486cc6)" style="fill: none; stroke: #b0b0b0; stroke-width: 0.8; stroke-linecap: square"/>
     </g>
     <g id="line2d_10">
      <g>
       <use xlink:href="#ma64e081174" x="182.0697" y="307.584" style="stroke: #000000; stroke-width: 0.8"/>
      </g>
     </g>
     <g id="text_5">
      <!-- 16 -->
      <g transform="translate(175.7072 322.182437) scale(0.1 -0.1)">
       <use xlink:href="#DejaVuSans-31"/>
       <use xlink:href="#DejaVuSans-36" transform="translate(63.623047 0)"/>
      </g>
     </g>
    </g>
    <g id="xtick_6">
     <g id="line2d_11">
      <path d="M 209.128943 307.584 
L 209.128943 41.472 
" clip-path="url(#p65e6486cc6)" style="fill: none; stroke: #b0b0b0; stroke-width: 0.8; stroke-linecap: square"/>
     </g>
     <g id="line2d_12">
      <g>
       <use xlink:href="#ma64e081174" x="209.128943" y="307.584" style="stroke: #000000; stroke-width: 0.8"/>
      </g>
     </g>
     <g id="text_6">
      <!-- 20 -->
      <g transform="translate(202.766443 322.182437) scale(0.1 -0.1)">
       <use xlink:href="#DejaVuSans-32"/>
       <use xlink:href="#DejaVuSans-30" transform="translate(63.623047 0)"/>
      </g>
     </g>
    </g>
    <g id="xtick_7">
     <g id="line2d_13">
      <path d="M 236.188187 307.584 
L 236.188187 41.472 
" clip-path="url(#p65e6486cc6)" style="fill: none; stroke: #b0b0b0; stroke-width: 0.8; stroke-linecap: square"/>
     </g>
     <g id="line2d_14">
      <g>
       <use xlink:href="#ma64e081174" x="236.188187" y="307.584" style="stroke: #000000; stroke-width: 0.8"/>
      </g>
     </g>
     <g id="text_7">
      <!-- 00 -->
      <g transform="translate(229.825687 322.182437) scale(0.1 -0.1)">
       <use xlink:href="#DejaVuSans-30"/>
       <use xlink:href="#DejaVuSans-30" transform="translate(63.623047 0)"/>
      </g>
      <!-- 2016-09-15 -->
      <g transform="translate(207.130374 333.38025) scale(0.1 -0.1)">
       <defs>
        <path id="DejaVuSans-35" d="M 691 4666 
L 3169 4666 
L 3169 4134 
L 1269 4134 
L 1269 2991 
Q 1406 3038 1543 3061 
Q 1681 3084 1819 3084 
Q 2600 3084 3056 2656 
Q 3513 2228 3513 1497 
Q 3513 744 3044 326 
Q 2575 -91 1722 -91 
Q 1428 -91 1123 -41 
Q 819 9 494 109 
L 494 744 
Q 775 591 1075 516 
Q 1375 441 1709 441 
Q 2250 441 2565 725 
Q 2881 1009 2881 1497 
Q 2881 1984 2565 2268 
Q 2250 2553 1709 2553 
Q 1456 2553 1204 2497 
Q 953 2441 691 2322 
L 691 4666 
z
" transform="scale(0.015625)"/>
       </defs>
       <use xlink:href="#DejaVuSans-32"/>
       <use xlink:href="#DejaVuSans-30" transform="translate(63.623047 0)"/>
       <use xlink:href="#DejaVuSans-31" transform="translate(127.246094 0)"/>
       <use xlink:href="#DejaVuSans-36" transform="translate(190.869141 0)"/>
       <use xlink:href="#DejaVuSans-2d" transform="translate(254.492188 0)"/>
       <use xlink:href="#DejaVuSans-30" transform="translate(290.576172 0)"/>
       <use xlink:href="#DejaVuSans-39" transform="translate(354.199219 0)"/>
       <use xlink:href="#DejaVuSans-2d" transform="translate(417.822266 0)"/>
       <use xlink:href="#DejaVuSans-31" transform="translate(453.90625 0)"/>
       <use xlink:href="#DejaVuSans-35" transform="translate(517.529297 0)"/>
      </g>
     </g>
    </g>
    <g id="xtick_8">
     <g id="line2d_15">
      <path d="M 263.24743 307.584 
L 263.24743 41.472 
" clip-path="url(#p65e6486cc6)" style="fill: none; stroke: #b0b0b0; stroke-width: 0.8; stroke-linecap: square"/>
     </g>
     <g id="line2d_16">
      <g>
       <use xlink:href="#ma64e081174" x="263.24743" y="307.584" style="stroke: #000000; stroke-width: 0.8"/>
      </g>
     </g>
     <g id="text_8">
      <!-- 04 -->
      <g transform="translate(256.88493 322.182437) scale(0.1 -0.1)">
       <use xlink:href="#DejaVuSans-30"/>
       <use xlink:href="#DejaVuSans-34" transform="translate(63.623047 0)"/>
      </g>
     </g>
    </g>
    <g id="xtick_9">
     <g id="line2d_17">
      <path d="M 290.306673 307.584 
L 290.306673 41.472 
" clip-path="url(#p65e6486cc6)" style="fill: none; stroke: #b0b0b0; stroke-width: 0.8; stroke-linecap: square"/>
     </g>
     <g id="line2d_18">
      <g>
       <use xlink:href="#ma64e081174" x="290.306673" y="307.584" style="stroke: #000000; stroke-width: 0.8"/>
      </g>
     </g>
     <g id="text_9">
      <!-- 08 -->
      <g transform="translate(283.944173 322.182437) scale(0.1 -0.1)">
       <use xlink:href="#DejaVuSans-30"/>
       <use xlink:href="#DejaVuSans-38" transform="translate(63.623047 0)"/>
      </g>
     </g>
    </g>
    <g id="xtick_10">
     <g id="line2d_19">
      <path d="M 317.365916 307.584 
L 317.365916 41.472 
" clip-path="url(#p65e6486cc6)" style="fill: none; stroke: #b0b0b0; stroke-width: 0.8; stroke-linecap: square"/>
     </g>
     <g id="line2d_20">
      <g>
       <use xlink:href="#ma64e081174" x="317.365916" y="307.584" style="stroke: #000000; stroke-width: 0.8"/>
      </g>
     </g>
     <g id="text_10">
      <!-- 12 -->
      <g transform="translate(311.003416 322.182437) scale(0.1 -0.1)">
       <use xlink:href="#DejaVuSans-31"/>
       <use xlink:href="#DejaVuSans-32" transform="translate(63.623047 0)"/>
      </g>
     </g>
    </g>
    <g id="xtick_11">
     <g id="line2d_21">
      <path d="M 344.42516 307.584 
L 344.42516 41.472 
" clip-path="url(#p65e6486cc6)" style="fill: none; stroke: #b0b0b0; stroke-width: 0.8; stroke-linecap: square"/>
     </g>
     <g id="line2d_22">
      <g>
       <use xlink:href="#ma64e081174" x="344.42516" y="307.584" style="stroke: #000000; stroke-width: 0.8"/>
      </g>
     </g>
     <g id="text_11">
      <!-- 16 -->
      <g transform="translate(338.06266 322.182437) scale(0.1 -0.1)">
       <use xlink:href="#DejaVuSans-31"/>
       <use xlink:href="#DejaVuSans-36" transform="translate(63.623047 0)"/>
      </g>
     </g>
    </g>
    <g id="xtick_12">
     <g id="line2d_23">
      <path d="M 371.484403 307.584 
L 371.484403 41.472 
" clip-path="url(#p65e6486cc6)" style="fill: none; stroke: #b0b0b0; stroke-width: 0.8; stroke-linecap: square"/>
     </g>
     <g id="line2d_24">
      <g>
       <use xlink:href="#ma64e081174" x="371.484403" y="307.584" style="stroke: #000000; stroke-width: 0.8"/>
      </g>
     </g>
     <g id="text_12">
      <!-- 20 -->
      <g transform="translate(365.121903 322.182437) scale(0.1 -0.1)">
       <use xlink:href="#DejaVuSans-32"/>
       <use xlink:href="#DejaVuSans-30" transform="translate(63.623047 0)"/>
      </g>
     </g>
    </g>
    <g id="xtick_13">
     <g id="line2d_25">
      <path d="M 398.543646 307.584 
L 398.543646 41.472 
" clip-path="url(#p65e6486cc6)" style="fill: none; stroke: #b0b0b0; stroke-width: 0.8; stroke-linecap: square"/>
     </g>
     <g id="line2d_26">
      <g>
       <use xlink:href="#ma64e081174" x="398.543646" y="307.584" style="stroke: #000000; stroke-width: 0.8"/>
      </g>
     </g>
     <g id="text_13">
      <!-- 00 -->
      <g transform="translate(392.181146 322.182437) scale(0.1 -0.1)">
       <use xlink:href="#DejaVuSans-30"/>
       <use xlink:href="#DejaVuSans-30" transform="translate(63.623047 0)"/>
      </g>
      <!-- 2016-09-16 -->
      <g transform="translate(369.485834 333.38025) scale(0.1 -0.1)">
       <use xlink:href="#DejaVuSans-32"/>
       <use xlink:href="#DejaVuSans-30" transform="translate(63.623047 0)"/>
       <use xlink:href="#DejaVuSans-31" transform="translate(127.246094 0)"/>
       <use xlink:href="#DejaVuSans-36" transform="translate(190.869141 0)"/>
       <use xlink:href="#DejaVuSans-2d" transform="translate(254.492188 0)"/>
       <use xlink:href="#DejaVuSans-30" transform="translate(290.576172 0)"/>
       <use xlink:href="#DejaVuSans-39" transform="translate(354.199219 0)"/>
       <use xlink:href="#DejaVuSans-2d" transform="translate(417.822266 0)"/>
       <use xlink:href="#DejaVuSans-31" transform="translate(453.90625 0)"/>
       <use xlink:href="#DejaVuSans-36" transform="translate(517.529297 0)"/>
      </g>
     </g>
    </g>
    <g id="xtick_14">
     <g id="line2d_27">
      <defs>
       <path id="m4df01eba6c" d="M 0 0 
L 0 2 
" style="stroke: #000000; stroke-width: 0.6"/>
      </defs>
      <g>
       <use xlink:href="#m4df01eba6c" x="60.303106" y="307.584" style="stroke: #000000; stroke-width: 0.6"/>
      </g>
     </g>
    </g>
    <g id="xtick_15">
     <g id="line2d_28">
      <g>
       <use xlink:href="#m4df01eba6c" x="87.362349" y="307.584" style="stroke: #000000; stroke-width: 0.6"/>
      </g>
     </g>
    </g>
    <g id="xtick_16">
     <g id="line2d_29">
      <g>
       <use xlink:href="#m4df01eba6c" x="114.421592" y="307.584" style="stroke: #000000; stroke-width: 0.6"/>
      </g>
     </g>
    </g>
    <g id="xtick_17">
     <g id="line2d_30">
      <g>
       <use xlink:href="#m4df01eba6c" x="141.480835" y="307.584" style="stroke: #000000; stroke-width: 0.6"/>
      </g>
     </g>
    </g>
    <g id="xtick_18">
     <g id="line2d_31">
      <g>
       <use xlink:href="#m4df01eba6c" x="168.540079" y="307.584" style="stroke: #000000; stroke-width: 0.6"/>
      </g>
     </g>
    </g>
    <g id="xtick_19">
     <g id="line2d_32">
      <g>
       <use xlink:href="#m4df01eba6c" x="195.599322" y="307.584" style="stroke: #000000; stroke-width: 0.6"/>
      </g>
     </g>
    </g>
    <g id="xtick_20">
     <g id="line2d_33">
      <g>
       <use xlink:href="#m4df01eba6c" x="222.658565" y="307.584" style="stroke: #000000; stroke-width: 0.6"/>
      </g>
     </g>
    </g>
    <g id="xtick_21">
     <g id="line2d_34">
      <g>
       <use xlink:href="#m4df01eba6c" x="249.717808" y="307.584" style="stroke: #000000; stroke-width: 0.6"/>
      </g>
     </g>
    </g>
    <g id="xtick_22">
     <g id="line2d_35">
      <g>
       <use xlink:href="#m4df01eba6c" x="276.777052" y="307.584" style="stroke: #000000; stroke-width: 0.6"/>
      </g>
     </g>
    </g>
    <g id="xtick_23">
     <g id="line2d_36">
      <g>
       <use xlink:href="#m4df01eba6c" x="303.836295" y="307.584" style="stroke: #000000; stroke-width: 0.6"/>
      </g>
     </g>
    </g>
    <g id="xtick_24">
     <g id="line2d_37">
      <g>
       <use xlink:href="#m4df01eba6c" x="330.895538" y="307.584" style="stroke: #000000; stroke-width: 0.6"/>
      </g>
     </g>
    </g>
    <g id="xtick_25">
     <g id="line2d_38">
      <g>
       <use xlink:href="#m4df01eba6c" x="357.954781" y="307.584" style="stroke: #000000; stroke-width: 0.6"/>
      </g>
     </g>
    </g>
    <g id="xtick_26">
     <g id="line2d_39">
      <g>
       <use xlink:href="#m4df01eba6c" x="385.014025" y="307.584" style="stroke: #000000; stroke-width: 0.6"/>
      </g>
     </g>
    </g>
    <g id="xtick_27">
     <g id="line2d_40">
      <g>
       <use xlink:href="#m4df01eba6c" x="412.073268" y="307.584" style="stroke: #000000; stroke-width: 0.6"/>
      </g>
     </g>
    </g>
   </g>
   <g id="matplotlib.axis_2">
    <g id="ytick_1">
     <g id="line2d_41">
      <path d="M 57.6 303.860862 
L 414.72 303.860862 
" clip-path="url(#p65e6486cc6)" style="fill: none; stroke: #b0b0b0; stroke-width: 0.8; stroke-linecap: square"/>
     </g>
     <g id="line2d_42">
      <defs>
       <path id="m6232d2edca" d="M 0 0 
L -3.5 0 
" style="stroke: #000000; stroke-width: 0.8"/>
      </defs>
      <g>
       <use xlink:href="#m6232d2edca" x="57.6" y="303.860862" style="stroke: #000000; stroke-width: 0.8"/>
      </g>
     </g>
     <g id="text_14">
      <!-- 0 -->
      <g transform="translate(44.2375 307.660081) scale(0.1 -0.1)">
       <use xlink:href="#DejaVuSans-30"/>
      </g>
     </g>
    </g>
    <g id="ytick_2">
     <g id="line2d_43">
      <path d="M 57.6 265.904716 
L 414.72 265.904716 
" clip-path="url(#p65e6486cc6)" style="fill: none; stroke: #b0b0b0; stroke-width: 0.8; stroke-linecap: square"/>
     </g>
     <g id="line2d_44">
      <g>
       <use xlink:href="#m6232d2edca" x="57.6" y="265.904716" style="stroke: #000000; stroke-width: 0.8"/>
      </g>
     </g>
     <g id="text_15">
      <!-- 10 -->
      <g transform="translate(37.875 269.703935) scale(0.1 -0.1)">
       <use xlink:href="#DejaVuSans-31"/>
       <use xlink:href="#DejaVuSans-30" transform="translate(63.623047 0)"/>
      </g>
     </g>
    </g>
    <g id="ytick_3">
     <g id="line2d_45">
      <path d="M 57.6 227.948571 
L 414.72 227.948571 
" clip-path="url(#p65e6486cc6)" style="fill: none; stroke: #b0b0b0; stroke-width: 0.8; stroke-linecap: square"/>
     </g>
     <g id="line2d_46">
      <g>
       <use xlink:href="#m6232d2edca" x="57.6" y="227.948571" style="stroke: #000000; stroke-width: 0.8"/>
      </g>
     </g>
     <g id="text_16">
      <!-- 20 -->
      <g transform="translate(37.875 231.747789) scale(0.1 -0.1)">
       <use xlink:href="#DejaVuSans-32"/>
       <use xlink:href="#DejaVuSans-30" transform="translate(63.623047 0)"/>
      </g>
     </g>
    </g>
    <g id="ytick_4">
     <g id="line2d_47">
      <path d="M 57.6 189.992425 
L 414.72 189.992425 
" clip-path="url(#p65e6486cc6)" style="fill: none; stroke: #b0b0b0; stroke-width: 0.8; stroke-linecap: square"/>
     </g>
     <g id="line2d_48">
      <g>
       <use xlink:href="#m6232d2edca" x="57.6" y="189.992425" style="stroke: #000000; stroke-width: 0.8"/>
      </g>
     </g>
     <g id="text_17">
      <!-- 30 -->
      <g transform="translate(37.875 193.791644) scale(0.1 -0.1)">
       <defs>
        <path id="DejaVuSans-33" d="M 2597 2516 
Q 3050 2419 3304 2112 
Q 3559 1806 3559 1356 
Q 3559 666 3084 287 
Q 2609 -91 1734 -91 
Q 1441 -91 1130 -33 
Q 819 25 488 141 
L 488 750 
Q 750 597 1062 519 
Q 1375 441 1716 441 
Q 2309 441 2620 675 
Q 2931 909 2931 1356 
Q 2931 1769 2642 2001 
Q 2353 2234 1838 2234 
L 1294 2234 
L 1294 2753 
L 1863 2753 
Q 2328 2753 2575 2939 
Q 2822 3125 2822 3475 
Q 2822 3834 2567 4026 
Q 2313 4219 1838 4219 
Q 1578 4219 1281 4162 
Q 984 4106 628 3988 
L 628 4550 
Q 988 4650 1302 4700 
Q 1616 4750 1894 4750 
Q 2613 4750 3031 4423 
Q 3450 4097 3450 3541 
Q 3450 3153 3228 2886 
Q 3006 2619 2597 2516 
z
" transform="scale(0.015625)"/>
       </defs>
       <use xlink:href="#DejaVuSans-33"/>
       <use xlink:href="#DejaVuSans-30" transform="translate(63.623047 0)"/>
      </g>
     </g>
    </g>
    <g id="ytick_5">
     <g id="line2d_49">
      <path d="M 57.6 152.036279 
L 414.72 152.036279 
" clip-path="url(#p65e6486cc6)" style="fill: none; stroke: #b0b0b0; stroke-width: 0.8; stroke-linecap: square"/>
     </g>
     <g id="line2d_50">
      <g>
       <use xlink:href="#m6232d2edca" x="57.6" y="152.036279" style="stroke: #000000; stroke-width: 0.8"/>
      </g>
     </g>
     <g id="text_18">
      <!-- 40 -->
      <g transform="translate(37.875 155.835498) scale(0.1 -0.1)">
       <use xlink:href="#DejaVuSans-34"/>
       <use xlink:href="#DejaVuSans-30" transform="translate(63.623047 0)"/>
      </g>
     </g>
    </g>
    <g id="ytick_6">
     <g id="line2d_51">
      <path d="M 57.6 114.080134 
L 414.72 114.080134 
" clip-path="url(#p65e6486cc6)" style="fill: none; stroke: #b0b0b0; stroke-width: 0.8; stroke-linecap: square"/>
     </g>
     <g id="line2d_52">
      <g>
       <use xlink:href="#m6232d2edca" x="57.6" y="114.080134" style="stroke: #000000; stroke-width: 0.8"/>
      </g>
     </g>
     <g id="text_19">
      <!-- 50 -->
      <g transform="translate(37.875 117.879353) scale(0.1 -0.1)">
       <use xlink:href="#DejaVuSans-35"/>
       <use xlink:href="#DejaVuSans-30" transform="translate(63.623047 0)"/>
      </g>
     </g>
    </g>
    <g id="ytick_7">
     <g id="line2d_53">
      <path d="M 57.6 76.123988 
L 414.72 76.123988 
" clip-path="url(#p65e6486cc6)" style="fill: none; stroke: #b0b0b0; stroke-width: 0.8; stroke-linecap: square"/>
     </g>
     <g id="line2d_54">
      <g>
       <use xlink:href="#m6232d2edca" x="57.6" y="76.123988" style="stroke: #000000; stroke-width: 0.8"/>
      </g>
     </g>
     <g id="text_20">
      <!-- 60 -->
      <g transform="translate(37.875 79.923207) scale(0.1 -0.1)">
       <use xlink:href="#DejaVuSans-36"/>
       <use xlink:href="#DejaVuSans-30" transform="translate(63.623047 0)"/>
      </g>
     </g>
    </g>
    <g id="text_21">
     <!-- Separation Distance (km) -->
     <g transform="translate(31.795312 238.42175) rotate(-90) scale(0.1 -0.1)">
      <defs>
       <path id="DejaVuSans-53" d="M 3425 4513 
L 3425 3897 
Q 3066 4069 2747 4153 
Q 2428 4238 2131 4238 
Q 1616 4238 1336 4038 
Q 1056 3838 1056 3469 
Q 1056 3159 1242 3001 
Q 1428 2844 1947 2747 
L 2328 2669 
Q 3034 2534 3370 2195 
Q 3706 1856 3706 1288 
Q 3706 609 3251 259 
Q 2797 -91 1919 -91 
Q 1588 -91 1214 -16 
Q 841 59 441 206 
L 441 856 
Q 825 641 1194 531 
Q 1563 422 1919 422 
Q 2459 422 2753 634 
Q 3047 847 3047 1241 
Q 3047 1584 2836 1778 
Q 2625 1972 2144 2069 
L 1759 2144 
Q 1053 2284 737 2584 
Q 422 2884 422 3419 
Q 422 4038 858 4394 
Q 1294 4750 2059 4750 
Q 2388 4750 2728 4690 
Q 3069 4631 3425 4513 
z
" transform="scale(0.015625)"/>
       <path id="DejaVuSans-65" d="M 3597 1894 
L 3597 1613 
L 953 1613 
Q 991 1019 1311 708 
Q 1631 397 2203 397 
Q 2534 397 2845 478 
Q 3156 559 3463 722 
L 3463 178 
Q 3153 47 2828 -22 
Q 2503 -91 2169 -91 
Q 1331 -91 842 396 
Q 353 884 353 1716 
Q 353 2575 817 3079 
Q 1281 3584 2069 3584 
Q 2775 3584 3186 3129 
Q 3597 2675 3597 1894 
z
M 3022 2063 
Q 3016 2534 2758 2815 
Q 2500 3097 2075 3097 
Q 1594 3097 1305 2825 
Q 1016 2553 972 2059 
L 3022 2063 
z
" transform="scale(0.015625)"/>
       <path id="DejaVuSans-70" d="M 1159 525 
L 1159 -1331 
L 581 -1331 
L 581 3500 
L 1159 3500 
L 1159 2969 
Q 1341 3281 1617 3432 
Q 1894 3584 2278 3584 
Q 2916 3584 3314 3078 
Q 3713 2572 3713 1747 
Q 3713 922 3314 415 
Q 2916 -91 2278 -91 
Q 1894 -91 1617 61 
Q 1341 213 1159 525 
z
M 3116 1747 
Q 3116 2381 2855 2742 
Q 2594 3103 2138 3103 
Q 1681 3103 1420 2742 
Q 1159 2381 1159 1747 
Q 1159 1113 1420 752 
Q 1681 391 2138 391 
Q 2594 391 2855 752 
Q 3116 1113 3116 1747 
z
" transform="scale(0.015625)"/>
       <path id="DejaVuSans-61" d="M 2194 1759 
Q 1497 1759 1228 1600 
Q 959 1441 959 1056 
Q 959 750 1161 570 
Q 1363 391 1709 391 
Q 2188 391 2477 730 
Q 2766 1069 2766 1631 
L 2766 1759 
L 2194 1759 
z
M 3341 1997 
L 3341 0 
L 2766 0 
L 2766 531 
Q 2569 213 2275 61 
Q 1981 -91 1556 -91 
Q 1019 -91 701 211 
Q 384 513 384 1019 
Q 384 1609 779 1909 
Q 1175 2209 1959 2209 
L 2766 2209 
L 2766 2266 
Q 2766 2663 2505 2880 
Q 2244 3097 1772 3097 
Q 1472 3097 1187 3025 
Q 903 2953 641 2809 
L 641 3341 
Q 956 3463 1253 3523 
Q 1550 3584 1831 3584 
Q 2591 3584 2966 3190 
Q 3341 2797 3341 1997 
z
" transform="scale(0.015625)"/>
       <path id="DejaVuSans-72" d="M 2631 2963 
Q 2534 3019 2420 3045 
Q 2306 3072 2169 3072 
Q 1681 3072 1420 2755 
Q 1159 2438 1159 1844 
L 1159 0 
L 581 0 
L 581 3500 
L 1159 3500 
L 1159 2956 
Q 1341 3275 1631 3429 
Q 1922 3584 2338 3584 
Q 2397 3584 2469 3576 
Q 2541 3569 2628 3553 
L 2631 2963 
z
" transform="scale(0.015625)"/>
       <path id="DejaVuSans-74" d="M 1172 4494 
L 1172 3500 
L 2356 3500 
L 2356 3053 
L 1172 3053 
L 1172 1153 
Q 1172 725 1289 603 
Q 1406 481 1766 481 
L 2356 481 
L 2356 0 
L 1766 0 
Q 1100 0 847 248 
Q 594 497 594 1153 
L 594 3053 
L 172 3053 
L 172 3500 
L 594 3500 
L 594 4494 
L 1172 4494 
z
" transform="scale(0.015625)"/>
       <path id="DejaVuSans-69" d="M 603 3500 
L 1178 3500 
L 1178 0 
L 603 0 
L 603 3500 
z
M 603 4863 
L 1178 4863 
L 1178 4134 
L 603 4134 
L 603 4863 
z
" transform="scale(0.015625)"/>
       <path id="DejaVuSans-6f" d="M 1959 3097 
Q 1497 3097 1228 2736 
Q 959 2375 959 1747 
Q 959 1119 1226 758 
Q 1494 397 1959 397 
Q 2419 397 2687 759 
Q 2956 1122 2956 1747 
Q 2956 2369 2687 2733 
Q 2419 3097 1959 3097 
z
M 1959 3584 
Q 2709 3584 3137 3096 
Q 3566 2609 3566 1747 
Q 3566 888 3137 398 
Q 2709 -91 1959 -91 
Q 1206 -91 779 398 
Q 353 888 353 1747 
Q 353 2609 779 3096 
Q 1206 3584 1959 3584 
z
" transform="scale(0.015625)"/>
       <path id="DejaVuSans-6e" d="M 3513 2113 
L 3513 0 
L 2938 0 
L 2938 2094 
Q 2938 2591 2744 2837 
Q 2550 3084 2163 3084 
Q 1697 3084 1428 2787 
Q 1159 2491 1159 1978 
L 1159 0 
L 581 0 
L 581 3500 
L 1159 3500 
L 1159 2956 
Q 1366 3272 1645 3428 
Q 1925 3584 2291 3584 
Q 2894 3584 3203 3211 
Q 3513 2838 3513 2113 
z
" transform="scale(0.015625)"/>
       <path id="DejaVuSans-20" transform="scale(0.015625)"/>
       <path id="DejaVuSans-44" d="M 1259 4147 
L 1259 519 
L 2022 519 
Q 2988 519 3436 956 
Q 3884 1394 3884 2338 
Q 3884 3275 3436 3711 
Q 2988 4147 2022 4147 
L 1259 4147 
z
M 628 4666 
L 1925 4666 
Q 3281 4666 3915 4102 
Q 4550 3538 4550 2338 
Q 4550 1131 3912 565 
Q 3275 0 1925 0 
L 628 0 
L 628 4666 
z
" transform="scale(0.015625)"/>
       <path id="DejaVuSans-73" d="M 2834 3397 
L 2834 2853 
Q 2591 2978 2328 3040 
Q 2066 3103 1784 3103 
Q 1356 3103 1142 2972 
Q 928 2841 928 2578 
Q 928 2378 1081 2264 
Q 1234 2150 1697 2047 
L 1894 2003 
Q 2506 1872 2764 1633 
Q 3022 1394 3022 966 
Q 3022 478 2636 193 
Q 2250 -91 1575 -91 
Q 1294 -91 989 -36 
Q 684 19 347 128 
L 347 722 
Q 666 556 975 473 
Q 1284 391 1588 391 
Q 1994 391 2212 530 
Q 2431 669 2431 922 
Q 2431 1156 2273 1281 
Q 2116 1406 1581 1522 
L 1381 1569 
Q 847 1681 609 1914 
Q 372 2147 372 2553 
Q 372 3047 722 3315 
Q 1072 3584 1716 3584 
Q 2034 3584 2315 3537 
Q 2597 3491 2834 3397 
z
" transform="scale(0.015625)"/>
       <path id="DejaVuSans-63" d="M 3122 3366 
L 3122 2828 
Q 2878 2963 2633 3030 
Q 2388 3097 2138 3097 
Q 1578 3097 1268 2742 
Q 959 2388 959 1747 
Q 959 1106 1268 751 
Q 1578 397 2138 397 
Q 2388 397 2633 464 
Q 2878 531 3122 666 
L 3122 134 
Q 2881 22 2623 -34 
Q 2366 -91 2075 -91 
Q 1284 -91 818 406 
Q 353 903 353 1747 
Q 353 2603 823 3093 
Q 1294 3584 2113 3584 
Q 2378 3584 2631 3529 
Q 2884 3475 3122 3366 
z
" transform="scale(0.015625)"/>
       <path id="DejaVuSans-28" d="M 1984 4856 
Q 1566 4138 1362 3434 
Q 1159 2731 1159 2009 
Q 1159 1288 1364 580 
Q 1569 -128 1984 -844 
L 1484 -844 
Q 1016 -109 783 600 
Q 550 1309 550 2009 
Q 550 2706 781 3412 
Q 1013 4119 1484 4856 
L 1984 4856 
z
" transform="scale(0.015625)"/>
       <path id="DejaVuSans-6b" d="M 581 4863 
L 1159 4863 
L 1159 1991 
L 2875 3500 
L 3609 3500 
L 1753 1863 
L 3688 0 
L 2938 0 
L 1159 1709 
L 1159 0 
L 581 0 
L 581 4863 
z
" transform="scale(0.015625)"/>
       <path id="DejaVuSans-6d" d="M 3328 2828 
Q 3544 3216 3844 3400 
Q 4144 3584 4550 3584 
Q 5097 3584 5394 3201 
Q 5691 2819 5691 2113 
L 5691 0 
L 5113 0 
L 5113 2094 
Q 5113 2597 4934 2840 
Q 4756 3084 4391 3084 
Q 3944 3084 3684 2787 
Q 3425 2491 3425 1978 
L 3425 0 
L 2847 0 
L 2847 2094 
Q 2847 2600 2669 2842 
Q 2491 3084 2119 3084 
Q 1678 3084 1418 2786 
Q 1159 2488 1159 1978 
L 1159 0 
L 581 0 
L 581 3500 
L 1159 3500 
L 1159 2956 
Q 1356 3278 1631 3431 
Q 1906 3584 2284 3584 
Q 2666 3584 2933 3390 
Q 3200 3197 3328 2828 
z
" transform="scale(0.015625)"/>
       <path id="DejaVuSans-29" d="M 513 4856 
L 1013 4856 
Q 1481 4119 1714 3412 
Q 1947 2706 1947 2009 
Q 1947 1309 1714 600 
Q 1481 -109 1013 -844 
L 513 -844 
Q 928 -128 1133 580 
Q 1338 1288 1338 2009 
Q 1338 2731 1133 3434 
Q 928 4138 513 4856 
z
" transform="scale(0.015625)"/>
      </defs>
      <use xlink:href="#DejaVuSans-53"/>
      <use xlink:href="#DejaVuSans-65" transform="translate(63.476562 0)"/>
      <use xlink:href="#DejaVuSans-70" transform="translate(125 0)"/>
      <use xlink:href="#DejaVuSans-61" transform="translate(188.476562 0)"/>
      <use xlink:href="#DejaVuSans-72" transform="translate(249.755859 0)"/>
      <use xlink:href="#DejaVuSans-61" transform="translate(290.869141 0)"/>
      <use xlink:href="#DejaVuSans-74" transform="translate(352.148438 0)"/>
      <use xlink:href="#DejaVuSans-69" transform="translate(391.357422 0)"/>
      <use xlink:href="#DejaVuSans-6f" transform="translate(419.140625 0)"/>
      <use xlink:href="#DejaVuSans-6e" transform="translate(480.322266 0)"/>
      <use xlink:href="#DejaVuSans-20" transform="translate(543.701172 0)"/>
      <use xlink:href="#DejaVuSans-44" transform="translate(575.488281 0)"/>
      <use xlink:href="#DejaVuSans-69" transform="translate(652.490234 0)"/>
      <use xlink:href="#DejaVuSans-73" transform="translate(680.273438 0)"/>
      <use xlink:href="#DejaVuSans-74" transform="translate(732.373047 0)"/>
      <use xlink:href="#DejaVuSans-61" transform="translate(771.582031 0)"/>
      <use xlink:href="#DejaVuSans-6e" transform="translate(832.861328 0)"/>
      <use xlink:href="#DejaVuSans-63" transform="translate(896.240234 0)"/>
      <use xlink:href="#DejaVuSans-65" transform="translate(951.220703 0)"/>
      <use xlink:href="#DejaVuSans-20" transform="translate(1012.744141 0)"/>
      <use xlink:href="#DejaVuSans-28" transform="translate(1044.53125 0)"/>
      <use xlink:href="#DejaVuSans-6b" transform="translate(1083.544922 0)"/>
      <use xlink:href="#DejaVuSans-6d" transform="translate(1141.455078 0)"/>
      <use xlink:href="#DejaVuSans-29" transform="translate(1238.867188 0)"/>
     </g>
    </g>
   </g>
   <g id="line2d_55">
    <path d="M 73.832727 261.283404 
L 78.680842 260.585134 
L 83.190716 260.163545 
L 87.136855 259.993431 
L 91.477609 260.052475 
L 95.423748 260.351308 
L 98.975274 260.838969 
L 102.414053 261.526711 
L 105.683712 262.384998 
L 109.235237 263.548032 
L 113.23775 265.124126 
L 121.411897 268.482011 
L 123.046726 268.844338 
L 124.286941 268.903231 
L 125.358036 268.734071 
L 126.260011 268.37335 
L 127.105612 267.803395 
L 127.89484 267.012649 
L 128.684068 265.914241 
L 129.52967 264.311689 
L 130.375271 262.161582 
L 131.164499 259.535832 
L 132.0101 255.8887 
L 132.855702 251.132655 
L 133.64493 245.407298 
L 134.434157 238.083277 
L 135.279759 228.011898 
L 136.238107 213.59356 
L 137.591069 193.142623 
L 138.042057 189.448849 
L 138.323924 188.420317 
L 138.493044 188.257271 
L 138.662164 188.396986 
L 138.887658 189.001148 
L 139.225898 190.584294 
L 139.90238 195.166772 
L 142.270063 212.018146 
L 143.453905 218.594294 
L 144.806867 224.790242 
L 146.103456 229.750156 
L 147.569165 234.504235 
L 149.091248 238.730319 
L 150.726077 242.660438 
L 152.530026 246.432219 
L 154.446723 249.928393 
L 156.307046 252.919494 
L 158.449236 255.954966 
L 160.760546 258.81645 
L 162.902736 261.137234 
L 165.214047 263.321745 
L 167.525357 265.206192 
L 170.005788 266.920446 
L 172.373471 268.280495 
L 174.966649 269.479919 
L 177.334333 270.328735 
L 179.814763 270.982871 
L 182.238821 271.408965 
L 185.001118 271.659566 
L 187.876163 271.685798 
L 190.976701 271.483182 
L 194.302733 271.044936 
L 198.136126 270.317321 
L 202.871493 269.184182 
L 209.185317 267.442368 
L 225.364489 262.932344 
L 232.016553 261.420954 
L 236.921041 260.538383 
L 241.543662 259.919327 
L 246.053536 259.547359 
L 249.774182 259.438506 
L 253.776695 259.540559 
L 257.553714 259.869135 
L 261.161613 260.415176 
L 263.303803 260.718964 
L 265.55874 261.007891 
L 267.926424 261.423224 
L 272.154431 262.507277 
L 275.311343 263.595679 
L 278.750121 265.035097 
L 285.740426 268.112592 
L 287.037015 268.38022 
L 288.051736 268.392478 
L 289.010084 268.156607 
L 289.855686 267.680544 
L 290.644914 266.930783 
L 291.321395 265.984784 
L 292.054249 264.556876 
L 292.787104 262.601984 
L 293.519958 259.984191 
L 294.252813 256.524828 
L 294.985667 251.994123 
L 295.718522 246.098091 
L 296.451376 238.478409 
L 297.240604 227.946682 
L 298.311699 210.205489 
L 299.213674 196.309865 
L 299.664661 192.037207 
L 300.002902 190.418961 
L 300.228396 190.051031 
L 300.397516 190.09558 
L 300.62301 190.514091 
L 300.96125 191.731038 
L 301.524984 194.703829 
L 304.569149 212.045182 
L 305.922111 217.870075 
L 307.331447 222.934993 
L 308.966276 227.88282 
L 310.601106 232.11693 
L 312.517802 236.42623 
L 314.434498 240.216374 
L 316.914929 244.551332 
L 319.39536 248.403336 
L 322.044911 252.110686 
L 325.314569 256.229307 
L 328.640601 259.99847 
L 332.361247 263.79326 
L 335.687279 266.850373 
L 339.069684 269.657609 
L 342.45209 272.170777 
L 345.439881 274.144257 
L 348.427673 275.884212 
L 351.753705 277.539118 
L 354.685123 278.744748 
L 357.616541 279.708833 
L 360.604332 280.443032 
L 363.53575 280.921488 
L 365.114206 280.999886 
L 371.93539 281.017732 
L 376.727131 280.76298 
L 380.222284 280.46324 
L 387.381708 279.709784 
L 398.487273 278.440764 
L 398.487273 278.440764 
" clip-path="url(#p65e6486cc6)" style="fill: none; stroke: #1f77b4; stroke-width: 1.5; stroke-linecap: square"/>
   </g>
   <g id="line2d_56">
    <path d="M 73.832727 268.186894 
L 76.651398 267.209579 
L 79.47007 265.972552 
L 82.063247 264.591646 
L 84.769171 262.898283 
L 87.531469 260.894038 
L 90.293767 258.596263 
L 93.056065 255.99939 
L 95.649242 253.275726 
L 98.637034 249.768687 
L 101.117464 246.552658 
L 103.823389 242.683823 
L 106.529313 238.420301 
L 109.12249 233.904813 
L 111.715668 228.892245 
L 114.026978 223.940555 
L 116.338289 218.456181 
L 118.367732 213.083726 
L 120.453548 206.903289 
L 122.257498 200.876696 
L 123.948701 194.49661 
L 125.58353 187.465124 
L 127.161986 179.627819 
L 128.571321 171.461402 
L 129.811537 163.060365 
L 130.995379 153.618387 
L 132.122847 142.89207 
L 133.193942 130.590616 
L 134.265037 115.607116 
L 135.448879 95.614305 
L 136.745468 74.083588 
L 137.140082 70.49552 
L 137.365575 69.776252 
L 137.478322 69.849326 
L 137.647443 70.532042 
L 137.872936 72.546765 
L 138.211177 77.822283 
L 138.718538 89.697781 
L 141.255342 155.539002 
L 142.21369 172.607356 
L 143.228411 186.787148 
L 144.299507 198.600033 
L 145.370602 208.066774 
L 146.554443 216.526163 
L 147.738285 223.418058 
L 148.978501 229.360992 
L 150.275089 234.493065 
L 151.571678 238.756505 
L 152.92464 242.467663 
L 154.277602 245.571819 
L 155.743311 248.377329 
L 157.209021 250.71211 
L 158.731103 252.731049 
L 160.253185 254.412701 
L 161.888015 255.912725 
L 163.804711 257.347339 
L 165.721407 258.508654 
L 167.919971 259.581803 
L 170.400402 260.546251 
L 173.388193 261.465633 
L 177.165212 262.390136 
L 182.802555 263.529766 
L 210.538279 268.640341 
L 216.119248 269.376315 
L 220.403628 269.701348 
L 224.237021 269.744048 
L 227.563053 269.54403 
L 230.494471 269.153917 
L 233.425889 268.535008 
L 236.131813 267.73894 
L 238.837738 266.713551 
L 241.543662 265.446889 
L 244.193213 263.958075 
L 246.730017 262.295971 
L 249.379568 260.301154 
L 251.972745 258.088828 
L 254.791416 255.382647 
L 257.610088 252.345372 
L 260.428759 248.958432 
L 262.852816 245.74936 
L 265.615114 241.738916 
L 268.321038 237.380665 
L 270.745095 233.080198 
L 273.112779 228.452665 
L 276.946172 219.738714 
L 279.257482 213.64289 
L 281.005058 208.521823 
L 282.865381 202.444998 
L 284.782078 195.319935 
L 286.47328 188.095849 
L 287.995363 180.616231 
L 289.461072 172.256556 
L 290.870407 162.768004 
L 292.110623 152.823227 
L 293.238091 142.019843 
L 294.309186 129.649281 
L 295.380281 114.527098 
L 296.451376 95.954523 
L 298.64994 55.584618 
L 298.931807 53.773831 
L 299.100927 53.587719 
L 299.213674 53.86524 
L 299.439168 55.427832 
L 299.777408 60.178259 
L 300.284769 71.61596 
L 303.216187 146.47097 
L 304.230909 163.582749 
L 305.302004 177.856545 
L 306.429472 189.870791 
L 307.613314 200.09624 
L 308.853529 208.899025 
L 310.150118 216.552601 
L 311.50308 223.263659 
L 312.912416 229.187905 
L 314.434498 234.636418 
L 316.012954 239.465219 
L 317.59141 243.627107 
L 319.282613 247.486797 
L 321.086562 251.050001 
L 322.834139 254.052016 
L 324.750835 256.927821 
L 326.893025 259.71218 
L 329.035215 262.126446 
L 331.402899 264.437798 
L 333.883329 266.532297 
L 336.589254 268.503873 
L 339.351552 270.247031 
L 342.339343 271.878443 
L 345.496255 273.374274 
L 349.104154 274.846725 
L 352.99392 276.202482 
L 357.052807 277.386375 
L 361.22444 278.374999 
L 365.452447 279.140524 
L 369.342213 279.61064 
L 372.780992 279.818956 
L 375.768783 280.009231 
L 378.361961 280.187839 
L 381.293379 280.384278 
L 385.634132 280.643768 
L 390.031259 280.811087 
L 395.837722 280.754584 
L 398.487273 280.597158 
L 398.487273 280.597158 
" clip-path="url(#p65e6486cc6)" style="fill: none; stroke: #ff7f0e; stroke-width: 1.5; stroke-linecap: square"/>
   </g>
   <g id="line2d_57">
    <path d="M 73.832727 267.595009 
L 78.624468 268.73339 
L 83.472583 270.126755 
L 88.095203 271.687705 
L 92.548704 273.416304 
L 97.284071 275.507025 
L 101.737572 277.723909 
L 106.134699 280.166814 
L 110.362706 282.768081 
L 114.534339 285.583526 
L 119.382453 289.131336 
L 125.75265 293.810398 
L 127.669347 294.882304 
L 128.909562 295.333841 
L 129.980657 295.487091 
L 130.882632 295.394862 
L 131.67186 295.127279 
L 132.517461 294.627595 
L 133.475809 293.790402 
L 134.490531 292.593542 
L 135.78712 290.68271 
L 136.914588 289.136189 
L 137.365575 288.822341 
L 137.760189 288.809737 
L 138.154803 289.067932 
L 138.662164 289.738199 
L 139.733259 291.693755 
L 140.804354 293.440559 
L 141.593582 294.33947 
L 142.326437 294.852069 
L 143.002918 295.06736 
L 143.735772 295.057543 
L 144.525 294.818392 
L 145.596095 294.218967 
L 146.949057 293.186455 
L 149.429488 290.963553 
L 154.89771 286.048427 
L 158.392862 283.229753 
L 161.888015 280.693027 
L 165.495914 278.347991 
L 169.160186 276.224493 
L 172.993579 274.256629 
L 176.996092 272.453649 
L 181.111352 270.844985 
L 185.282985 269.449556 
L 189.567366 268.245294 
L 194.077239 267.213438 
L 198.643487 266.402622 
L 203.209734 265.817694 
L 207.832355 265.445555 
L 212.511349 265.289998 
L 217.13397 265.34908 
L 221.869337 265.626389 
L 226.661078 266.129623 
L 231.340072 266.837776 
L 235.962693 267.74856 
L 240.698061 268.904192 
L 245.264308 270.2394 
L 249.886929 271.816178 
L 252.029119 272.485554 
L 259.13217 273.769671 
L 262.627322 274.638235 
L 266.517089 275.806835 
L 270.745095 277.339257 
L 274.071127 278.751589 
L 277.960893 280.631432 
L 281.456046 282.555152 
L 290.58854 287.70429 
L 291.828756 288.034055 
L 292.73073 288.074584 
L 293.519958 287.916618 
L 294.252813 287.56011 
L 294.985667 286.951563 
L 295.718522 286.033155 
L 296.564123 284.524957 
L 297.466098 282.384234 
L 298.875434 278.968584 
L 299.270048 278.512881 
L 299.551915 278.432884 
L 299.833782 278.559085 
L 300.228396 279.040345 
L 300.848503 280.252524 
L 303.159814 285.268627 
L 304.400029 287.330493 
L 305.640244 289.005292 
L 307.04958 290.548774 
L 308.515289 291.833244 
L 310.037371 292.874853 
L 311.559454 293.647195 
L 313.081536 294.168517 
L 314.603619 294.454093 
L 316.182075 294.523786 
L 317.873277 294.374771 
L 319.789974 293.979017 
L 322.101284 293.26551 
L 325.314569 292.001573 
L 329.993563 289.893937 
L 342.057476 284.383139 
L 348.54042 281.707544 
L 354.403256 279.524572 
L 355.756218 279.165024 
L 358.913129 278.627842 
L 361.56268 278.246468 
L 363.479377 277.985517 
L 373.006485 277.075816 
L 379.82767 276.795164 
L 386.08512 276.813299 
L 392.455316 277.105619 
L 397.585298 277.53735 
L 398.487273 277.632785 
L 398.487273 277.632785 
" clip-path="url(#p65e6486cc6)" style="fill: none; stroke: #2ca02c; stroke-width: 1.5; stroke-linecap: square"/>
   </g>
   <g id="line2d_58">
    <path d="M 73.832727 259.693179 
L 80.992152 251.913382 
L 88.658938 243.184549 
L 95.987483 234.584882 
L 104.274376 224.608607 
L 114.026978 212.382187 
L 117.860371 207.275071 
L 120.791789 203.119872 
L 124.117821 197.961633 
L 126.485505 193.814347 
L 128.289454 190.222165 
L 129.924284 186.481775 
L 131.502739 182.246226 
L 132.855702 177.97363 
L 134.772398 171.051306 
L 135.561626 168.635935 
L 135.95624 167.981115 
L 136.181734 167.911985 
L 136.350854 168.057639 
L 136.576348 168.58839 
L 136.858215 169.913592 
L 137.196455 172.699296 
L 137.647443 178.729967 
L 138.26755 190.947815 
L 140.127873 230.401549 
L 140.917101 241.473859 
L 141.649956 248.815127 
L 142.38281 254.00739 
L 143.115665 257.613483 
L 143.792146 259.909088 
L 144.468627 261.48104 
L 145.145108 262.527852 
L 145.877962 263.236546 
L 146.610817 263.636852 
L 147.456418 263.843072 
L 148.527513 263.864024 
L 150.162343 263.65201 
L 154.503096 263.035253 
L 156.814407 262.998965 
L 159.238464 263.226607 
L 161.549774 263.678876 
L 164.030205 264.38877 
L 166.792502 265.415199 
L 169.498427 266.614944 
L 173.613687 268.719981 
L 178.236307 271.349102 
L 189.454619 277.778322 
L 192.780651 279.352631 
L 195.486575 280.393102 
L 197.967006 281.101173 
L 200.221943 281.502502 
L 202.307759 281.643718 
L 204.393576 281.548508 
L 206.366646 281.234696 
L 208.452462 280.668887 
L 210.594652 279.847138 
L 212.793216 278.767599 
L 215.217273 277.326033 
L 217.810451 275.527364 
L 220.685495 273.271983 
L 224.011527 270.382313 
L 228.070414 266.529259 
L 232.862155 261.629141 
L 237.541149 256.57113 
L 243.234865 250.139082 
L 249.943302 242.274936 
L 258.512062 231.89673 
L 263.867538 225.01725 
L 270.970589 214.957034 
L 278.411881 203.968556 
L 281.399672 199.120119 
L 284.33109 193.882386 
L 286.47328 189.596965 
L 288.27723 185.546879 
L 289.855686 181.537553 
L 291.321395 177.238419 
L 292.73073 172.407902 
L 294.027319 167.139385 
L 295.380281 160.613905 
L 297.522471 150.005541 
L 297.860712 149.296125 
L 298.029832 149.234046 
L 298.198952 149.421009 
L 298.424446 150.142631 
L 298.706313 151.945556 
L 299.044554 155.641029 
L 299.495541 163.243521 
L 300.228396 180.299118 
L 301.581358 211.855311 
L 302.426959 226.248727 
L 303.216187 236.118621 
L 304.005415 243.363848 
L 304.794643 248.659533 
L 305.583871 252.518603 
L 306.373099 255.317706 
L 307.162327 257.334347 
L 307.951555 258.775667 
L 308.797156 259.852698 
L 309.642757 260.58479 
L 310.601106 261.122099 
L 311.728574 261.492296 
L 313.194283 261.729394 
L 315.61834 261.866139 
L 319.620853 262.095942 
L 322.326778 262.473042 
L 325.145449 263.102457 
L 327.851373 263.923215 
L 330.782791 265.030043 
L 333.939703 266.446862 
L 337.322108 268.177964 
L 341.719235 270.69136 
L 348.145806 274.724575 
L 360.547959 282.563573 
L 363.873991 284.337706 
L 365.057833 284.671586 
L 367.030902 285.074152 
L 368.609358 285.301119 
L 371.202536 285.461383 
L 373.73934 285.558918 
L 375.148675 285.859512 
L 378.531081 286.321256 
L 380.842391 286.418105 
L 384.675784 286.220041 
L 387.381708 285.780085 
L 393.808279 283.921944 
L 395.668602 283.20751 
L 398.487273 282.009886 
L 398.487273 282.009886 
" clip-path="url(#p65e6486cc6)" style="fill: none; stroke: #d62728; stroke-width: 1.5; stroke-linecap: square"/>
   </g>
   <g id="patch_3">
    <path d="M 57.6 307.584 
L 57.6 41.472 
" style="fill: none; stroke: #000000; stroke-width: 0.8; stroke-linejoin: miter; stroke-linecap: square"/>
   </g>
   <g id="patch_4">
    <path d="M 414.72 307.584 
L 414.72 41.472 
" style="fill: none; stroke: #000000; stroke-width: 0.8; stroke-linejoin: miter; stroke-linecap: square"/>
   </g>
   <g id="patch_5">
    <path d="M 57.6 307.584 
L 414.72 307.584 
" style="fill: none; stroke: #000000; stroke-width: 0.8; stroke-linejoin: miter; stroke-linecap: square"/>
   </g>
   <g id="patch_6">
    <path d="M 57.6 41.472 
L 414.72 41.472 
" style="fill: none; stroke: #000000; stroke-width: 0.8; stroke-linejoin: miter; stroke-linecap: square"/>
   </g>
   <g id="text_22">
    <!-- CDAWeb GSE (MMSi_MEC_SRVY_L2_EPHT89D) -->
    <g transform="translate(98.44875 35.472) scale(0.12 -0.12)">
     <defs>
      <path id="DejaVuSans-43" d="M 4122 4306 
L 4122 3641 
Q 3803 3938 3442 4084 
Q 3081 4231 2675 4231 
Q 1875 4231 1450 3742 
Q 1025 3253 1025 2328 
Q 1025 1406 1450 917 
Q 1875 428 2675 428 
Q 3081 428 3442 575 
Q 3803 722 4122 1019 
L 4122 359 
Q 3791 134 3420 21 
Q 3050 -91 2638 -91 
Q 1578 -91 968 557 
Q 359 1206 359 2328 
Q 359 3453 968 4101 
Q 1578 4750 2638 4750 
Q 3056 4750 3426 4639 
Q 3797 4528 4122 4306 
z
" transform="scale(0.015625)"/>
      <path id="DejaVuSans-41" d="M 2188 4044 
L 1331 1722 
L 3047 1722 
L 2188 4044 
z
M 1831 4666 
L 2547 4666 
L 4325 0 
L 3669 0 
L 3244 1197 
L 1141 1197 
L 716 0 
L 50 0 
L 1831 4666 
z
" transform="scale(0.015625)"/>
      <path id="DejaVuSans-57" d="M 213 4666 
L 850 4666 
L 1831 722 
L 2809 4666 
L 3519 4666 
L 4500 722 
L 5478 4666 
L 6119 4666 
L 4947 0 
L 4153 0 
L 3169 4050 
L 2175 0 
L 1381 0 
L 213 4666 
z
" transform="scale(0.015625)"/>
      <path id="DejaVuSans-62" d="M 3116 1747 
Q 3116 2381 2855 2742 
Q 2594 3103 2138 3103 
Q 1681 3103 1420 2742 
Q 1159 2381 1159 1747 
Q 1159 1113 1420 752 
Q 1681 391 2138 391 
Q 2594 391 2855 752 
Q 3116 1113 3116 1747 
z
M 1159 2969 
Q 1341 3281 1617 3432 
Q 1894 3584 2278 3584 
Q 2916 3584 3314 3078 
Q 3713 2572 3713 1747 
Q 3713 922 3314 415 
Q 2916 -91 2278 -91 
Q 1894 -91 1617 61 
Q 1341 213 1159 525 
L 1159 0 
L 581 0 
L 581 4863 
L 1159 4863 
L 1159 2969 
z
" transform="scale(0.015625)"/>
      <path id="DejaVuSans-47" d="M 3809 666 
L 3809 1919 
L 2778 1919 
L 2778 2438 
L 4434 2438 
L 4434 434 
Q 4069 175 3628 42 
Q 3188 -91 2688 -91 
Q 1594 -91 976 548 
Q 359 1188 359 2328 
Q 359 3472 976 4111 
Q 1594 4750 2688 4750 
Q 3144 4750 3555 4637 
Q 3966 4525 4313 4306 
L 4313 3634 
Q 3963 3931 3569 4081 
Q 3175 4231 2741 4231 
Q 1884 4231 1454 3753 
Q 1025 3275 1025 2328 
Q 1025 1384 1454 906 
Q 1884 428 2741 428 
Q 3075 428 3337 486 
Q 3600 544 3809 666 
z
" transform="scale(0.015625)"/>
      <path id="DejaVuSans-45" d="M 628 4666 
L 3578 4666 
L 3578 4134 
L 1259 4134 
L 1259 2753 
L 3481 2753 
L 3481 2222 
L 1259 2222 
L 1259 531 
L 3634 531 
L 3634 0 
L 628 0 
L 628 4666 
z
" transform="scale(0.015625)"/>
      <path id="DejaVuSans-4d" d="M 628 4666 
L 1569 4666 
L 2759 1491 
L 3956 4666 
L 4897 4666 
L 4897 0 
L 4281 0 
L 4281 4097 
L 3078 897 
L 2444 897 
L 1241 4097 
L 1241 0 
L 628 0 
L 628 4666 
z
" transform="scale(0.015625)"/>
      <path id="DejaVuSans-5f" d="M 3263 -1063 
L 3263 -1509 
L -63 -1509 
L -63 -1063 
L 3263 -1063 
z
" transform="scale(0.015625)"/>
      <path id="DejaVuSans-52" d="M 2841 2188 
Q 3044 2119 3236 1894 
Q 3428 1669 3622 1275 
L 4263 0 
L 3584 0 
L 2988 1197 
Q 2756 1666 2539 1819 
Q 2322 1972 1947 1972 
L 1259 1972 
L 1259 0 
L 628 0 
L 628 4666 
L 2053 4666 
Q 2853 4666 3247 4331 
Q 3641 3997 3641 3322 
Q 3641 2881 3436 2590 
Q 3231 2300 2841 2188 
z
M 1259 4147 
L 1259 2491 
L 2053 2491 
Q 2509 2491 2742 2702 
Q 2975 2913 2975 3322 
Q 2975 3731 2742 3939 
Q 2509 4147 2053 4147 
L 1259 4147 
z
" transform="scale(0.015625)"/>
      <path id="DejaVuSans-56" d="M 1831 0 
L 50 4666 
L 709 4666 
L 2188 738 
L 3669 4666 
L 4325 4666 
L 2547 0 
L 1831 0 
z
" transform="scale(0.015625)"/>
      <path id="DejaVuSans-59" d="M -13 4666 
L 666 4666 
L 1959 2747 
L 3244 4666 
L 3922 4666 
L 2272 2222 
L 2272 0 
L 1638 0 
L 1638 2222 
L -13 4666 
z
" transform="scale(0.015625)"/>
      <path id="DejaVuSans-4c" d="M 628 4666 
L 1259 4666 
L 1259 531 
L 3531 531 
L 3531 0 
L 628 0 
L 628 4666 
z
" transform="scale(0.015625)"/>
      <path id="DejaVuSans-50" d="M 1259 4147 
L 1259 2394 
L 2053 2394 
Q 2494 2394 2734 2622 
Q 2975 2850 2975 3272 
Q 2975 3691 2734 3919 
Q 2494 4147 2053 4147 
L 1259 4147 
z
M 628 4666 
L 2053 4666 
Q 2838 4666 3239 4311 
Q 3641 3956 3641 3272 
Q 3641 2581 3239 2228 
Q 2838 1875 2053 1875 
L 1259 1875 
L 1259 0 
L 628 0 
L 628 4666 
z
" transform="scale(0.015625)"/>
      <path id="DejaVuSans-48" d="M 628 4666 
L 1259 4666 
L 1259 2753 
L 3553 2753 
L 3553 4666 
L 4184 4666 
L 4184 0 
L 3553 0 
L 3553 2222 
L 1259 2222 
L 1259 0 
L 628 0 
L 628 4666 
z
" transform="scale(0.015625)"/>
      <path id="DejaVuSans-54" d="M -19 4666 
L 3928 4666 
L 3928 4134 
L 2272 4134 
L 2272 0 
L 1638 0 
L 1638 4134 
L -19 4134 
L -19 4666 
z
" transform="scale(0.015625)"/>
     </defs>
     <use xlink:href="#DejaVuSans-43"/>
     <use xlink:href="#DejaVuSans-44" transform="translate(69.824219 0)"/>
     <use xlink:href="#DejaVuSans-41" transform="translate(145.076172 0)"/>
     <use xlink:href="#DejaVuSans-57" transform="translate(207.984375 0)"/>
     <use xlink:href="#DejaVuSans-65" transform="translate(300.986328 0)"/>
     <use xlink:href="#DejaVuSans-62" transform="translate(362.509766 0)"/>
     <use xlink:href="#DejaVuSans-20" transform="translate(425.986328 0)"/>
     <use xlink:href="#DejaVuSans-47" transform="translate(457.773438 0)"/>
     <use xlink:href="#DejaVuSans-53" transform="translate(535.263672 0)"/>
     <use xlink:href="#DejaVuSans-45" transform="translate(598.740234 0)"/>
     <use xlink:href="#DejaVuSans-20" transform="translate(661.923828 0)"/>
     <use xlink:href="#DejaVuSans-28" transform="translate(693.710938 0)"/>
     <use xlink:href="#DejaVuSans-4d" transform="translate(732.724609 0)"/>
     <use xlink:href="#DejaVuSans-4d" transform="translate(819.003906 0)"/>
     <use xlink:href="#DejaVuSans-53" transform="translate(905.283203 0)"/>
     <use xlink:href="#DejaVuSans-69" transform="translate(968.759766 0)"/>
     <use xlink:href="#DejaVuSans-5f" transform="translate(996.542969 0)"/>
     <use xlink:href="#DejaVuSans-4d" transform="translate(1046.542969 0)"/>
     <use xlink:href="#DejaVuSans-45" transform="translate(1132.822266 0)"/>
     <use xlink:href="#DejaVuSans-43" transform="translate(1196.005859 0)"/>
     <use xlink:href="#DejaVuSans-5f" transform="translate(1265.830078 0)"/>
     <use xlink:href="#DejaVuSans-53" transform="translate(1315.830078 0)"/>
     <use xlink:href="#DejaVuSans-52" transform="translate(1379.306641 0)"/>
     <use xlink:href="#DejaVuSans-56" transform="translate(1443.289062 0)"/>
     <use xlink:href="#DejaVuSans-59" transform="translate(1511.697266 0)"/>
     <use xlink:href="#DejaVuSans-5f" transform="translate(1572.78125 0)"/>
     <use xlink:href="#DejaVuSans-4c" transform="translate(1622.78125 0)"/>
     <use xlink:href="#DejaVuSans-32" transform="translate(1678.494141 0)"/>
     <use xlink:href="#DejaVuSans-5f" transform="translate(1742.117188 0)"/>
     <use xlink:href="#DejaVuSans-45" transform="translate(1792.117188 0)"/>
     <use xlink:href="#DejaVuSans-50" transform="translate(1855.300781 0)"/>
     <use xlink:href="#DejaVuSans-48" transform="translate(1915.603516 0)"/>
     <use xlink:href="#DejaVuSans-54" transform="translate(1990.798828 0)"/>
     <use xlink:href="#DejaVuSans-38" transform="translate(2051.882812 0)"/>
     <use xlink:href="#DejaVuSans-39" transform="translate(2115.505859 0)"/>
     <use xlink:href="#DejaVuSans-44" transform="translate(2179.128906 0)"/>
     <use xlink:href="#DejaVuSans-29" transform="translate(2256.130859 0)"/>
    </g>
   </g>
   <g id="legend_1">
    <g id="patch_7">
     <path d="M 312.177813 108.1845 
L 407.72 108.1845 
Q 409.72 108.1845 409.72 106.1845 
L 409.72 48.472 
Q 409.72 46.472 407.72 46.472 
L 312.177813 46.472 
Q 310.177813 46.472 310.177813 48.472 
L 310.177813 106.1845 
Q 310.177813 108.1845 312.177813 108.1845 
z
" style="fill: #ffffff; opacity: 0.8; stroke: #cccccc; stroke-linejoin: miter"/>
    </g>
    <g id="line2d_59">
     <path d="M 314.177813 54.570438 
L 324.177813 54.570438 
L 334.177813 54.570438 
" style="fill: none; stroke: #1f77b4; stroke-width: 1.5; stroke-linecap: square"/>
    </g>
    <g id="text_23">
     <!-- MMS1-MMS2 -->
     <g transform="translate(342.177813 58.070438) scale(0.1 -0.1)">
      <use xlink:href="#DejaVuSans-4d"/>
      <use xlink:href="#DejaVuSans-4d" transform="translate(86.279297 0)"/>
      <use xlink:href="#DejaVuSans-53" transform="translate(172.558594 0)"/>
      <use xlink:href="#DejaVuSans-31" transform="translate(236.035156 0)"/>
      <use xlink:href="#DejaVuSans-2d" transform="translate(299.658203 0)"/>
      <use xlink:href="#DejaVuSans-4d" transform="translate(335.742188 0)"/>
      <use xlink:href="#DejaVuSans-4d" transform="translate(422.021484 0)"/>
      <use xlink:href="#DejaVuSans-53" transform="translate(508.300781 0)"/>
      <use xlink:href="#DejaVuSans-32" transform="translate(571.777344 0)"/>
     </g>
    </g>
    <g id="line2d_60">
     <path d="M 314.177813 69.248563 
L 324.177813 69.248563 
L 334.177813 69.248563 
" style="fill: none; stroke: #ff7f0e; stroke-width: 1.5; stroke-linecap: square"/>
    </g>
    <g id="text_24">
     <!-- MMS1-MMS3 -->
     <g transform="translate(342.177813 72.748563) scale(0.1 -0.1)">
      <use xlink:href="#DejaVuSans-4d"/>
      <use xlink:href="#DejaVuSans-4d" transform="translate(86.279297 0)"/>
      <use xlink:href="#DejaVuSans-53" transform="translate(172.558594 0)"/>
      <use xlink:href="#DejaVuSans-31" transform="translate(236.035156 0)"/>
      <use xlink:href="#DejaVuSans-2d" transform="translate(299.658203 0)"/>
      <use xlink:href="#DejaVuSans-4d" transform="translate(335.742188 0)"/>
      <use xlink:href="#DejaVuSans-4d" transform="translate(422.021484 0)"/>
      <use xlink:href="#DejaVuSans-53" transform="translate(508.300781 0)"/>
      <use xlink:href="#DejaVuSans-33" transform="translate(571.777344 0)"/>
     </g>
    </g>
    <g id="line2d_61">
     <path d="M 314.177813 83.926688 
L 324.177813 83.926688 
L 334.177813 83.926688 
" style="fill: none; stroke: #2ca02c; stroke-width: 1.5; stroke-linecap: square"/>
    </g>
    <g id="text_25">
     <!-- MMS1-MMS4 -->
     <g transform="translate(342.177813 87.426688) scale(0.1 -0.1)">
      <use xlink:href="#DejaVuSans-4d"/>
      <use xlink:href="#DejaVuSans-4d" transform="translate(86.279297 0)"/>
      <use xlink:href="#DejaVuSans-53" transform="translate(172.558594 0)"/>
      <use xlink:href="#DejaVuSans-31" transform="translate(236.035156 0)"/>
      <use xlink:href="#DejaVuSans-2d" transform="translate(299.658203 0)"/>
      <use xlink:href="#DejaVuSans-4d" transform="translate(335.742188 0)"/>
      <use xlink:href="#DejaVuSans-4d" transform="translate(422.021484 0)"/>
      <use xlink:href="#DejaVuSans-53" transform="translate(508.300781 0)"/>
      <use xlink:href="#DejaVuSans-34" transform="translate(571.777344 0)"/>
     </g>
    </g>
    <g id="line2d_62">
     <path d="M 314.177813 98.604813 
L 324.177813 98.604813 
L 334.177813 98.604813 
" style="fill: none; stroke: #d62728; stroke-width: 1.5; stroke-linecap: square"/>
    </g>
    <g id="text_26">
     <!-- MMS2-MMS3 -->
     <g transform="translate(342.177813 102.104813) scale(0.1 -0.1)">
      <use xlink:href="#DejaVuSans-4d"/>
      <use xlink:href="#DejaVuSans-4d" transform="translate(86.279297 0)"/>
      <use xlink:href="#DejaVuSans-53" transform="translate(172.558594 0)"/>
      <use xlink:href="#DejaVuSans-32" transform="translate(236.035156 0)"/>
      <use xlink:href="#DejaVuSans-2d" transform="translate(299.658203 0)"/>
      <use xlink:href="#DejaVuSans-4d" transform="translate(335.742188 0)"/>
      <use xlink:href="#DejaVuSans-4d" transform="translate(422.021484 0)"/>
      <use xlink:href="#DejaVuSans-53" transform="translate(508.300781 0)"/>
      <use xlink:href="#DejaVuSans-33" transform="translate(571.777344 0)"/>
     </g>
    </g>
   </g>
  </g>
 </g>
 <defs>
  <clipPath id="p65e6486cc6">
   <rect x="57.6" y="41.472" width="357.12" height="266.112"/>
  </clipPath>
 </defs>
</svg>
