<?xml version="1.0" encoding="utf-8" standalone="no"?>
<!DOCTYPE svg PUBLIC "-//W3C//DTD SVG 1.1//EN"
  "http://www.w3.org/Graphics/SVG/1.1/DTD/svg11.dtd">
<svg xmlns:xlink="http://www.w3.org/1999/xlink" width="481.889764pt" height="646.299213pt" viewBox="0 0 481.889764 646.299213" xmlns="http://www.w3.org/2000/svg" version="1.1">
 <metadata>
  <rdf:RDF xmlns:dc="http://purl.org/dc/elements/1.1/" xmlns:cc="http://creativecommons.org/ns#" xmlns:rdf="http://www.w3.org/1999/02/22-rdf-syntax-ns#">
   <cc:Work>
    <dc:type rdf:resource="http://purl.org/dc/dcmitype/StillImage"/>
    <dc:date>2026-05-17T14:28:39.592112</dc:date>
    <dc:format>image/svg+xml</dc:format>
    <dc:creator>
     <cc:Agent>
      <dc:title>Matplotlib v3.10.9, https://matplotlib.org/</dc:title>
     </cc:Agent>
    </dc:creator>
   </cc:Work>
  </rdf:RDF>
 </metadata>
 <defs>
  <style type="text/css">*{stroke-linejoin: round; stroke-linecap: butt}</style>
 </defs>
 <g id="figure_1">
  <g id="patch_1">
   <path d="M 0 646.299213 
L 481.889764 646.299213 
L 481.889764 0 
L 0 0 
z
" style="fill: #ffffff"/>
  </g>
  <g id="axes_1">
   <g id="patch_2">
    <path d="M 55.178365 294.832606 
L 478.889524 294.832606 
L 478.889524 22.424921 
L 55.178365 22.424921 
z
" style="fill: #ffffff"/>
   </g>
   <g id="matplotlib.axis_1">
    <g id="xtick_1">
     <g id="line2d_1">
      <path d="M 62.835796 294.832606 
L 62.835796 22.424921 
" clip-path="url(#pe71fd91902)" style="fill: none; stroke: #b0b0b0; stroke-width: 0.8; stroke-linecap: square"/>
     </g>
     <g id="line2d_2"/>
    </g>
    <g id="xtick_2">
     <g id="line2d_3">
      <path d="M 130.901845 294.832606 
L 130.901845 22.424921 
" clip-path="url(#pe71fd91902)" style="fill: none; stroke: #b0b0b0; stroke-width: 0.8; stroke-linecap: square"/>
     </g>
     <g id="line2d_4"/>
    </g>
    <g id="xtick_3">
     <g id="line2d_5">
      <path d="M 198.967895 294.832606 
L 198.967895 22.424921 
" clip-path="url(#pe71fd91902)" style="fill: none; stroke: #b0b0b0; stroke-width: 0.8; stroke-linecap: square"/>
     </g>
     <g id="line2d_6"/>
    </g>
    <g id="xtick_4">
     <g id="line2d_7">
      <path d="M 267.033944 294.832606 
L 267.033944 22.424921 
" clip-path="url(#pe71fd91902)" style="fill: none; stroke: #b0b0b0; stroke-width: 0.8; stroke-linecap: square"/>
     </g>
     <g id="line2d_8"/>
    </g>
    <g id="xtick_5">
     <g id="line2d_9">
      <path d="M 335.099994 294.832606 
L 335.099994 22.424921 
" clip-path="url(#pe71fd91902)" style="fill: none; stroke: #b0b0b0; stroke-width: 0.8; stroke-linecap: square"/>
     </g>
     <g id="line2d_10"/>
    </g>
    <g id="xtick_6">
     <g id="line2d_11">
      <path d="M 403.166044 294.832606 
L 403.166044 22.424921 
" clip-path="url(#pe71fd91902)" style="fill: none; stroke: #b0b0b0; stroke-width: 0.8; stroke-linecap: square"/>
     </g>
     <g id="line2d_12"/>
    </g>
    <g id="xtick_7">
     <g id="line2d_13">
      <path d="M 471.232093 294.832606 
L 471.232093 22.424921 
" clip-path="url(#pe71fd91902)" style="fill: none; stroke: #b0b0b0; stroke-width: 0.8; stroke-linecap: square"/>
     </g>
     <g id="line2d_14"/>
    </g>
    <g id="xtick_8">
     <g id="line2d_15">
      <path d="M 96.86882 294.832606 
L 96.86882 22.424921 
" clip-path="url(#pe71fd91902)" style="fill: none; stroke-dasharray: 0.5,0.825; stroke-dashoffset: 0; stroke: #bfbfbf; stroke-width: 0.5"/>
     </g>
     <g id="line2d_16"/>
    </g>
    <g id="xtick_9">
     <g id="line2d_17">
      <path d="M 164.93487 294.832606 
L 164.93487 22.424921 
" clip-path="url(#pe71fd91902)" style="fill: none; stroke-dasharray: 0.5,0.825; stroke-dashoffset: 0; stroke: #bfbfbf; stroke-width: 0.5"/>
     </g>
     <g id="line2d_18"/>
    </g>
    <g id="xtick_10">
     <g id="line2d_19">
      <path d="M 233.00092 294.832606 
L 233.00092 22.424921 
" clip-path="url(#pe71fd91902)" style="fill: none; stroke-dasharray: 0.5,0.825; stroke-dashoffset: 0; stroke: #bfbfbf; stroke-width: 0.5"/>
     </g>
     <g id="line2d_20"/>
    </g>
    <g id="xtick_11">
     <g id="line2d_21">
      <path d="M 301.066969 294.832606 
L 301.066969 22.424921 
" clip-path="url(#pe71fd91902)" style="fill: none; stroke-dasharray: 0.5,0.825; stroke-dashoffset: 0; stroke: #bfbfbf; stroke-width: 0.5"/>
     </g>
     <g id="line2d_22"/>
    </g>
    <g id="xtick_12">
     <g id="line2d_23">
      <path d="M 369.133019 294.832606 
L 369.133019 22.424921 
" clip-path="url(#pe71fd91902)" style="fill: none; stroke-dasharray: 0.5,0.825; stroke-dashoffset: 0; stroke: #bfbfbf; stroke-width: 0.5"/>
     </g>
     <g id="line2d_24"/>
    </g>
    <g id="xtick_13">
     <g id="line2d_25">
      <path d="M 437.199068 294.832606 
L 437.199068 22.424921 
" clip-path="url(#pe71fd91902)" style="fill: none; stroke-dasharray: 0.5,0.825; stroke-dashoffset: 0; stroke: #bfbfbf; stroke-width: 0.5"/>
     </g>
     <g id="line2d_26"/>
    </g>
   </g>
   <g id="matplotlib.axis_2">
    <g id="ytick_1">
     <g id="line2d_27">
      <path d="M 55.178365 287.122954 
L 478.889524 287.122954 
" clip-path="url(#pe71fd91902)" style="fill: none; stroke: #b0b0b0; stroke-width: 0.8; stroke-linecap: square"/>
     </g>
     <g id="line2d_28"/>
     <g id="text_1">
      <!-- −10 -->
      <g transform="translate(20.40024 294.066704) scale(0.2 -0.2)">
       <defs>
        <path id="TimesNewRomanPSMT-2212" d="M 3484 2000 
L 116 2000 
L 116 2256 
L 3484 2256 
L 3484 2000 
z
" transform="scale(0.015625)"/>
        <path id="TimesNewRomanPSMT-31" d="M 750 3822 
L 1781 4325 
L 1884 4325 
L 1884 747 
Q 1884 391 1914 303 
Q 1944 216 2037 169 
Q 2131 122 2419 116 
L 2419 0 
L 825 0 
L 825 116 
Q 1125 122 1212 167 
Q 1300 213 1334 289 
Q 1369 366 1369 747 
L 1369 3034 
Q 1369 3497 1338 3628 
Q 1316 3728 1258 3775 
Q 1200 3822 1119 3822 
Q 1003 3822 797 3725 
L 750 3822 
z
" transform="scale(0.015625)"/>
        <path id="TimesNewRomanPSMT-30" d="M 231 2094 
Q 231 2819 450 3342 
Q 669 3866 1031 4122 
Q 1313 4325 1613 4325 
Q 2100 4325 2488 3828 
Q 2972 3213 2972 2159 
Q 2972 1422 2759 906 
Q 2547 391 2217 158 
Q 1888 -75 1581 -75 
Q 975 -75 572 641 
Q 231 1244 231 2094 
z
M 844 2016 
Q 844 1141 1059 588 
Q 1238 122 1591 122 
Q 1759 122 1940 273 
Q 2122 425 2216 781 
Q 2359 1319 2359 2297 
Q 2359 3022 2209 3506 
Q 2097 3866 1919 4016 
Q 1791 4119 1609 4119 
Q 1397 4119 1231 3928 
Q 1006 3669 925 3112 
Q 844 2556 844 2016 
z
" transform="scale(0.015625)"/>
       </defs>
       <use xlink:href="#TimesNewRomanPSMT-2212"/>
       <use xlink:href="#TimesNewRomanPSMT-31" transform="translate(56.396484 0)"/>
       <use xlink:href="#TimesNewRomanPSMT-30" transform="translate(106.396484 0)"/>
      </g>
     </g>
    </g>
    <g id="ytick_2">
     <g id="line2d_29">
      <path d="M 55.178365 235.725278 
L 478.889524 235.725278 
" clip-path="url(#pe71fd91902)" style="fill: none; stroke: #b0b0b0; stroke-width: 0.8; stroke-linecap: square"/>
     </g>
     <g id="line2d_30"/>
     <g id="text_2">
      <!-- −5 -->
      <g transform="translate(30.40024 242.669028) scale(0.2 -0.2)">
       <defs>
        <path id="TimesNewRomanPSMT-35" d="M 2778 4238 
L 2534 3706 
L 1259 3706 
L 981 3138 
Q 1809 3016 2294 2522 
Q 2709 2097 2709 1522 
Q 2709 1188 2573 903 
Q 2438 619 2231 419 
Q 2025 219 1772 97 
Q 1413 -75 1034 -75 
Q 653 -75 479 54 
Q 306 184 306 341 
Q 306 428 378 495 
Q 450 563 559 563 
Q 641 563 702 538 
Q 763 513 909 409 
Q 1144 247 1384 247 
Q 1750 247 2026 523 
Q 2303 800 2303 1197 
Q 2303 1581 2056 1914 
Q 1809 2247 1375 2428 
Q 1034 2569 447 2591 
L 1259 4238 
L 2778 4238 
z
" transform="scale(0.015625)"/>
       </defs>
       <use xlink:href="#TimesNewRomanPSMT-2212"/>
       <use xlink:href="#TimesNewRomanPSMT-35" transform="translate(56.396484 0)"/>
      </g>
     </g>
    </g>
    <g id="ytick_3">
     <g id="line2d_31">
      <path d="M 55.178365 184.327601 
L 478.889524 184.327601 
" clip-path="url(#pe71fd91902)" style="fill: none; stroke: #b0b0b0; stroke-width: 0.8; stroke-linecap: square"/>
     </g>
     <g id="line2d_32"/>
     <g id="text_3">
      <!-- 0 -->
      <g transform="translate(41.678365 191.271351) scale(0.2 -0.2)">
       <use xlink:href="#TimesNewRomanPSMT-30"/>
      </g>
     </g>
    </g>
    <g id="ytick_4">
     <g id="line2d_33">
      <path d="M 55.178365 132.929925 
L 478.889524 132.929925 
" clip-path="url(#pe71fd91902)" style="fill: none; stroke: #b0b0b0; stroke-width: 0.8; stroke-linecap: square"/>
     </g>
     <g id="line2d_34"/>
     <g id="text_4">
      <!-- 5 -->
      <g transform="translate(41.678365 139.873675) scale(0.2 -0.2)">
       <use xlink:href="#TimesNewRomanPSMT-35"/>
      </g>
     </g>
    </g>
    <g id="ytick_5">
     <g id="line2d_35">
      <path d="M 55.178365 81.532249 
L 478.889524 81.532249 
" clip-path="url(#pe71fd91902)" style="fill: none; stroke: #b0b0b0; stroke-width: 0.8; stroke-linecap: square"/>
     </g>
     <g id="line2d_36"/>
     <g id="text_5">
      <!-- 10 -->
      <g transform="translate(31.678365 88.475999) scale(0.2 -0.2)">
       <use xlink:href="#TimesNewRomanPSMT-31"/>
       <use xlink:href="#TimesNewRomanPSMT-30" transform="translate(50 0)"/>
      </g>
     </g>
    </g>
    <g id="ytick_6">
     <g id="line2d_37">
      <path d="M 55.178365 30.134572 
L 478.889524 30.134572 
" clip-path="url(#pe71fd91902)" style="fill: none; stroke: #b0b0b0; stroke-width: 0.8; stroke-linecap: square"/>
     </g>
     <g id="line2d_38"/>
     <g id="text_6">
      <!-- 15 -->
      <g transform="translate(31.678365 37.078322) scale(0.2 -0.2)">
       <use xlink:href="#TimesNewRomanPSMT-31"/>
       <use xlink:href="#TimesNewRomanPSMT-35" transform="translate(50 0)"/>
      </g>
     </g>
    </g>
    <g id="ytick_7">
     <g id="line2d_39">
      <path d="M 55.178365 276.843419 
L 478.889524 276.843419 
" clip-path="url(#pe71fd91902)" style="fill: none; stroke-dasharray: 0.5,0.825; stroke-dashoffset: 0; stroke: #bfbfbf; stroke-width: 0.5"/>
     </g>
     <g id="line2d_40"/>
    </g>
    <g id="ytick_8">
     <g id="line2d_41">
      <path d="M 55.178365 266.563884 
L 478.889524 266.563884 
" clip-path="url(#pe71fd91902)" style="fill: none; stroke-dasharray: 0.5,0.825; stroke-dashoffset: 0; stroke: #bfbfbf; stroke-width: 0.5"/>
     </g>
     <g id="line2d_42"/>
    </g>
    <g id="ytick_9">
     <g id="line2d_43">
      <path d="M 55.178365 256.284348 
L 478.889524 256.284348 
" clip-path="url(#pe71fd91902)" style="fill: none; stroke-dasharray: 0.5,0.825; stroke-dashoffset: 0; stroke: #bfbfbf; stroke-width: 0.5"/>
     </g>
     <g id="line2d_44"/>
    </g>
    <g id="ytick_10">
     <g id="line2d_45">
      <path d="M 55.178365 246.004813 
L 478.889524 246.004813 
" clip-path="url(#pe71fd91902)" style="fill: none; stroke-dasharray: 0.5,0.825; stroke-dashoffset: 0; stroke: #bfbfbf; stroke-width: 0.5"/>
     </g>
     <g id="line2d_46"/>
    </g>
    <g id="ytick_11">
     <g id="line2d_47">
      <path d="M 55.178365 225.445742 
L 478.889524 225.445742 
" clip-path="url(#pe71fd91902)" style="fill: none; stroke-dasharray: 0.5,0.825; stroke-dashoffset: 0; stroke: #bfbfbf; stroke-width: 0.5"/>
     </g>
     <g id="line2d_48"/>
    </g>
    <g id="ytick_12">
     <g id="line2d_49">
      <path d="M 55.178365 215.166207 
L 478.889524 215.166207 
" clip-path="url(#pe71fd91902)" style="fill: none; stroke-dasharray: 0.5,0.825; stroke-dashoffset: 0; stroke: #bfbfbf; stroke-width: 0.5"/>
     </g>
     <g id="line2d_50"/>
    </g>
    <g id="ytick_13">
     <g id="line2d_51">
      <path d="M 55.178365 204.886672 
L 478.889524 204.886672 
" clip-path="url(#pe71fd91902)" style="fill: none; stroke-dasharray: 0.5,0.825; stroke-dashoffset: 0; stroke: #bfbfbf; stroke-width: 0.5"/>
     </g>
     <g id="line2d_52"/>
    </g>
    <g id="ytick_14">
     <g id="line2d_53">
      <path d="M 55.178365 194.607137 
L 478.889524 194.607137 
" clip-path="url(#pe71fd91902)" style="fill: none; stroke-dasharray: 0.5,0.825; stroke-dashoffset: 0; stroke: #bfbfbf; stroke-width: 0.5"/>
     </g>
     <g id="line2d_54"/>
    </g>
    <g id="ytick_15">
     <g id="line2d_55">
      <path d="M 55.178365 174.048066 
L 478.889524 174.048066 
" clip-path="url(#pe71fd91902)" style="fill: none; stroke-dasharray: 0.5,0.825; stroke-dashoffset: 0; stroke: #bfbfbf; stroke-width: 0.5"/>
     </g>
     <g id="line2d_56"/>
    </g>
    <g id="ytick_16">
     <g id="line2d_57">
      <path d="M 55.178365 163.768531 
L 478.889524 163.768531 
" clip-path="url(#pe71fd91902)" style="fill: none; stroke-dasharray: 0.5,0.825; stroke-dashoffset: 0; stroke: #bfbfbf; stroke-width: 0.5"/>
     </g>
     <g id="line2d_58"/>
    </g>
    <g id="ytick_17">
     <g id="line2d_59">
      <path d="M 55.178365 153.488996 
L 478.889524 153.488996 
" clip-path="url(#pe71fd91902)" style="fill: none; stroke-dasharray: 0.5,0.825; stroke-dashoffset: 0; stroke: #bfbfbf; stroke-width: 0.5"/>
     </g>
     <g id="line2d_60"/>
    </g>
    <g id="ytick_18">
     <g id="line2d_61">
      <path d="M 55.178365 143.20946 
L 478.889524 143.20946 
" clip-path="url(#pe71fd91902)" style="fill: none; stroke-dasharray: 0.5,0.825; stroke-dashoffset: 0; stroke: #bfbfbf; stroke-width: 0.5"/>
     </g>
     <g id="line2d_62"/>
    </g>
    <g id="ytick_19">
     <g id="line2d_63">
      <path d="M 55.178365 122.65039 
L 478.889524 122.65039 
" clip-path="url(#pe71fd91902)" style="fill: none; stroke-dasharray: 0.5,0.825; stroke-dashoffset: 0; stroke: #bfbfbf; stroke-width: 0.5"/>
     </g>
     <g id="line2d_64"/>
    </g>
    <g id="ytick_20">
     <g id="line2d_65">
      <path d="M 55.178365 112.370854 
L 478.889524 112.370854 
" clip-path="url(#pe71fd91902)" style="fill: none; stroke-dasharray: 0.5,0.825; stroke-dashoffset: 0; stroke: #bfbfbf; stroke-width: 0.5"/>
     </g>
     <g id="line2d_66"/>
    </g>
    <g id="ytick_21">
     <g id="line2d_67">
      <path d="M 55.178365 102.091319 
L 478.889524 102.091319 
" clip-path="url(#pe71fd91902)" style="fill: none; stroke-dasharray: 0.5,0.825; stroke-dashoffset: 0; stroke: #bfbfbf; stroke-width: 0.5"/>
     </g>
     <g id="line2d_68"/>
    </g>
    <g id="ytick_22">
     <g id="line2d_69">
      <path d="M 55.178365 91.811784 
L 478.889524 91.811784 
" clip-path="url(#pe71fd91902)" style="fill: none; stroke-dasharray: 0.5,0.825; stroke-dashoffset: 0; stroke: #bfbfbf; stroke-width: 0.5"/>
     </g>
     <g id="line2d_70"/>
    </g>
    <g id="ytick_23">
     <g id="line2d_71">
      <path d="M 55.178365 71.252713 
L 478.889524 71.252713 
" clip-path="url(#pe71fd91902)" style="fill: none; stroke-dasharray: 0.5,0.825; stroke-dashoffset: 0; stroke: #bfbfbf; stroke-width: 0.5"/>
     </g>
     <g id="line2d_72"/>
    </g>
    <g id="ytick_24">
     <g id="line2d_73">
      <path d="M 55.178365 60.973178 
L 478.889524 60.973178 
" clip-path="url(#pe71fd91902)" style="fill: none; stroke-dasharray: 0.5,0.825; stroke-dashoffset: 0; stroke: #bfbfbf; stroke-width: 0.5"/>
     </g>
     <g id="line2d_74"/>
    </g>
    <g id="ytick_25">
     <g id="line2d_75">
      <path d="M 55.178365 50.693643 
L 478.889524 50.693643 
" clip-path="url(#pe71fd91902)" style="fill: none; stroke-dasharray: 0.5,0.825; stroke-dashoffset: 0; stroke: #bfbfbf; stroke-width: 0.5"/>
     </g>
     <g id="line2d_76"/>
    </g>
    <g id="ytick_26">
     <g id="line2d_77">
      <path d="M 55.178365 40.414107 
L 478.889524 40.414107 
" clip-path="url(#pe71fd91902)" style="fill: none; stroke-dasharray: 0.5,0.825; stroke-dashoffset: 0; stroke: #bfbfbf; stroke-width: 0.5"/>
     </g>
     <g id="line2d_78"/>
    </g>
    <g id="text_7">
     <!-- $R_E$ -->
     <g transform="translate(3.00024 154.350638) scale(0.2 -0.2)">
      <defs>
       <path id="Cmmi10-52" d="M 313 0 
Q 250 0 250 84 
Q 253 100 262 139 
Q 272 178 289 201 
Q 306 225 331 225 
Q 722 225 878 269 
Q 959 297 997 441 
L 1875 3956 
Q 1888 4019 1888 4044 
Q 1888 4113 1813 4122 
Q 1691 4147 1350 4147 
Q 1288 4147 1288 4231 
Q 1291 4247 1300 4286 
Q 1309 4325 1326 4348 
Q 1344 4372 1369 4372 
L 3309 4372 
Q 3541 4372 3791 4319 
Q 4041 4266 4250 4152 
Q 4459 4038 4593 3848 
Q 4728 3659 4728 3406 
Q 4728 3084 4515 2831 
Q 4303 2578 3978 2408 
Q 3653 2238 3347 2169 
Q 3597 2078 3756 1879 
Q 3916 1681 3916 1422 
Q 3916 1388 3914 1370 
Q 3913 1353 3909 1331 
L 3859 763 
Q 3853 638 3847 550 
Q 3841 463 3841 409 
Q 3841 234 3892 129 
Q 3944 25 4097 25 
Q 4297 25 4448 211 
Q 4600 397 4647 616 
Q 4675 672 4709 672 
L 4769 672 
Q 4831 672 4831 588 
Q 4784 403 4682 237 
Q 4581 72 4426 -34 
Q 4272 -141 4091 -141 
Q 3716 -141 3452 26 
Q 3188 194 3188 550 
Q 3188 684 3213 788 
L 3353 1356 
Q 3378 1434 3378 1538 
Q 3378 1803 3198 1954 
Q 3019 2106 2747 2106 
L 1959 2106 
L 1538 416 
Q 1522 363 1522 325 
Q 1522 259 1600 250 
Q 1722 225 2059 225 
Q 2125 225 2125 141 
Q 2103 50 2090 25 
Q 2078 0 2016 0 
L 313 0 
z
M 1997 2272 
L 2706 2272 
Q 3403 2272 3756 2625 
Q 3919 2788 4014 3039 
Q 4109 3291 4109 3541 
Q 4109 3778 3970 3912 
Q 3831 4047 3626 4097 
Q 3422 4147 3175 4147 
L 2747 4147 
Q 2572 4147 2515 4117 
Q 2459 4088 2413 3928 
L 1997 2272 
z
" transform="scale(0.015625)"/>
       <path id="Cmmi10-45" d="M 300 0 
Q 238 0 238 84 
Q 241 100 250 139 
Q 259 178 276 201 
Q 294 225 319 225 
Q 709 225 863 269 
Q 947 297 984 441 
L 1863 3956 
Q 1875 4019 1875 4044 
Q 1875 4113 1797 4122 
Q 1678 4147 1338 4147 
Q 1275 4147 1275 4231 
Q 1278 4247 1287 4286 
Q 1297 4325 1314 4348 
Q 1331 4372 1356 4372 
L 4825 4372 
Q 4891 4372 4891 4288 
L 4738 2963 
Q 4738 2947 4714 2926 
Q 4691 2906 4672 2906 
L 4616 2906 
Q 4550 2906 4550 2988 
Q 4588 3300 4588 3450 
Q 4588 3706 4500 3848 
Q 4413 3991 4267 4053 
Q 4122 4116 3945 4131 
Q 3769 4147 3481 4147 
L 2753 4147 
Q 2578 4147 2522 4117 
Q 2466 4088 2419 3928 
L 2034 2381 
L 2534 2381 
Q 2859 2381 3025 2426 
Q 3191 2472 3287 2615 
Q 3384 2759 3463 3072 
Q 3469 3094 3486 3111 
Q 3503 3128 3525 3128 
L 3584 3128 
Q 3647 3128 3647 3047 
L 3250 1466 
Q 3238 1409 3188 1409 
L 3128 1409 
Q 3066 1409 3066 1491 
Q 3128 1747 3128 1869 
Q 3128 2056 2959 2106 
Q 2791 2156 2509 2156 
L 1978 2156 
L 1544 416 
Q 1516 338 1516 275 
Q 1516 225 1734 225 
L 2509 225 
Q 2972 225 3259 297 
Q 3547 369 3736 526 
Q 3925 684 4062 928 
Q 4200 1172 4397 1638 
Q 4409 1678 4453 1678 
L 4513 1678 
Q 4538 1678 4556 1656 
Q 4575 1634 4575 1606 
Q 4575 1594 4569 1581 
L 3909 38 
Q 3897 0 3859 0 
L 300 0 
z
" transform="scale(0.015625)"/>
      </defs>
      <use xlink:href="#Cmmi10-52" transform="translate(0 0.6875)"/>
      <use xlink:href="#Cmmi10-45" transform="translate(75.878906 -16.31875) scale(0.7)"/>
     </g>
    </g>
   </g>
   <g id="line2d_79">
    <path d="M 62.9776 236.243032 
L 73.187507 238.839299 
L 83.113806 241.139072 
L 92.756497 243.145321 
L 102.115578 244.861154 
L 110.907443 246.248587 
L 119.415699 247.366985 
L 127.640347 248.220085 
L 135.297778 248.79444 
L 142.6716 249.128428 
L 149.761813 249.228007 
L 156.568418 249.098773 
L 163.091414 248.746628 
L 169.047194 248.209398 
L 175.002973 247.442857 
L 180.675144 246.475047 
L 185.780098 245.38205 
L 190.601443 244.13304 
L 195.422788 242.646232 
L 199.676916 241.111698 
L 203.931044 239.339483 
L 207.901564 237.440837 
L 211.588475 235.434869 
L 214.991777 233.344284 
L 218.39508 230.98801 
L 221.514774 228.555727 
L 224.350859 226.079715 
L 227.186945 223.30582 
L 229.739421 220.506998 
L 232.291898 217.364595 
L 234.560767 214.222951 
L 236.829635 210.682474 
L 238.814895 207.185848 
L 240.800154 203.236129 
L 242.785414 198.741552 
L 244.770674 193.617865 
L 247.039542 187.009271 
L 250.726453 176.060754 
L 252.144496 172.598745 
L 253.562539 169.776468 
L 254.696973 167.951499 
L 256.115016 166.130503 
L 257.533058 164.726352 
L 258.951101 163.652376 
L 260.369144 162.840213 
L 262.070795 162.138646 
L 263.772446 161.671823 
L 265.757706 161.359806 
L 268.026574 161.241394 
L 270.579051 161.342042 
L 273.415137 161.675593 
L 276.818439 162.308269 
L 280.788959 163.283949 
L 285.610304 164.717481 
L 291.282475 166.649074 
L 298.08908 169.203069 
L 307.164553 172.860542 
L 319.926937 178.265516 
L 371.8273 200.487464 
L 387.42577 206.800909 
L 401.606197 212.302105 
L 414.935798 217.237351 
L 427.698182 221.726097 
L 439.89335 225.780256 
L 451.5213 229.414545 
L 462.865641 232.725747 
L 471.090289 234.971506 
L 471.090289 234.971506 
" clip-path="url(#pe71fd91902)" style="fill: none; stroke: #ff0000; stroke-width: 2; stroke-linecap: square"/>
   </g>
   <g id="line2d_80">
    <path d="M 62.9776 236.287685 
L 73.187507 238.887255 
L 83.113806 241.189519 
L 92.756497 243.197534 
L 101.83197 244.865823 
L 110.623835 246.260664 
L 119.132091 247.385981 
L 127.356738 248.245688 
L 135.014169 248.826499 
L 142.387991 249.167158 
L 149.478205 249.27313 
L 156.28481 249.15014 
L 162.807806 248.804247 
L 168.763585 248.272744 
L 174.435756 247.55426 
L 179.824318 246.658528 
L 184.929272 245.596315 
L 189.750617 244.379629 
L 194.571962 242.929662 
L 199.109699 241.323867 
L 203.363827 239.576679 
L 207.334347 237.704784 
L 211.021258 235.727575 
L 214.42456 233.667668 
L 217.827863 231.347115 
L 220.947557 228.953568 
L 223.783642 226.518932 
L 226.619727 223.794291 
L 229.172204 221.04868 
L 229.739421 220.538415 
L 230.873856 219.233976 
L 233.142724 216.311042 
L 235.411592 213.035684 
L 237.68046 209.331536 
L 239.66572 205.660369 
L 241.65098 201.499979 
L 243.63624 196.756953 
L 245.6215 191.367723 
L 248.173976 183.67411 
L 250.442845 176.95608 
L 251.860887 173.34857 
L 253.27893 170.374973 
L 254.413364 168.441181 
L 255.831407 166.505715 
L 257.24945 165.009916 
L 258.667492 163.862919 
L 260.085535 162.992225 
L 261.787186 162.234642 
L 263.488838 161.723685 
L 265.474097 161.370474 
L 267.742966 161.215418 
L 270.295443 161.283997 
L 273.131528 161.58988 
L 276.53483 162.196962 
L 280.50535 163.150219 
L 285.043087 164.474164 
L 290.715257 166.377296 
L 297.521862 168.908169 
L 306.313727 172.429376 
L 318.508894 177.572607 
L 375.797819 202.041418 
L 390.829072 208.072102 
L 404.725891 213.412845 
L 418.055492 218.296758 
L 430.534268 222.63593 
L 442.445826 226.549575 
L 454.073777 230.137842 
L 465.13451 233.321836 
L 471.090289 234.93773 
L 471.090289 234.93773 
" clip-path="url(#pe71fd91902)" style="fill: none; stroke-dasharray: 11.1,4.8; stroke-dashoffset: 0; stroke: #ff0000; stroke-width: 3"/>
   </g>
   <g id="line2d_81">
    <path d="M 62.9776 73.433391 
L 70.067813 74.941003 
L 77.158027 76.674515 
L 84.24824 78.634828 
L 91.338454 80.82309 
L 98.428667 83.24165 
L 105.518881 85.893746 
L 112.609094 88.782851 
L 119.699308 91.913474 
L 126.789521 95.291459 
L 133.879735 98.922881 
L 140.969948 102.815067 
L 147.776553 106.806012 
L 154.583158 111.055711 
L 161.106155 115.381485 
L 167.629151 119.966174 
L 174.152148 124.823181 
L 180.391535 129.737051 
L 186.630923 134.929157 
L 192.870311 140.416764 
L 198.826091 145.949183 
L 204.78187 151.789117 
L 210.737649 157.958093 
L 216.40982 164.158709 
L 222.081991 170.690358 
L 228.03777 177.895756 
L 241.083763 193.90169 
L 243.069023 195.841443 
L 244.487065 196.908239 
L 245.6215 197.466037 
L 246.472325 197.651356 
L 247.323151 197.588599 
L 248.173976 197.237635 
L 249.024802 196.571743 
L 249.875628 195.587534 
L 251.010062 193.825949 
L 252.428105 191.07418 
L 254.696973 186.013989 
L 259.801927 174.466387 
L 262.921621 168.001011 
L 266.041314 162.04019 
L 269.161008 156.532986 
L 272.564311 150.976405 
L 275.967613 145.828265 
L 279.654524 140.651113 
L 283.625044 135.481722 
L 287.595564 130.680662 
L 291.849692 125.898239 
L 296.10382 121.447991 
L 300.641556 117.029575 
L 305.179293 112.917257 
L 310.000638 108.852208 
L 314.821983 105.073874 
L 319.926937 101.360003 
L 325.031891 97.918714 
L 330.420453 94.560024 
L 335.809015 91.463599 
L 341.481186 88.469295 
L 347.153357 85.730204 
L 352.825528 83.232104 
L 358.781307 80.854458 
L 364.737086 78.71582 
L 370.976474 76.720101 
L 377.215862 74.963597 
L 383.45525 73.43689 
L 389.694638 72.131291 
L 396.217634 70.993883 
L 402.740631 70.082713 
L 409.263627 69.391571 
L 416.070232 68.898848 
L 422.876837 68.634023 
L 429.683442 68.592943 
L 436.490047 68.771232 
L 443.580261 69.187148 
L 450.386866 69.804472 
L 457.477079 70.672889 
L 464.567293 71.769389 
L 471.090289 72.97919 
L 471.090289 72.97919 
" clip-path="url(#pe71fd91902)" style="fill: none; stroke: #008000; stroke-width: 2; stroke-linecap: square"/>
   </g>
   <g id="line2d_82">
    <path d="M 62.9776 73.459717 
L 70.067813 74.971619 
L 77.158027 76.709557 
L 84.24824 78.674352 
L 91.338454 80.867495 
L 98.428667 83.291182 
L 105.518881 85.948338 
L 112.609094 88.842678 
L 119.699308 91.978778 
L 126.789521 95.362157 
L 133.879735 98.999388 
L 140.68634 102.737147 
L 147.492945 106.724047 
L 154.29955 110.969463 
L 161.106155 115.484287 
L 167.629151 120.075528 
L 174.152148 124.938835 
L 180.675144 130.089272 
L 186.914532 135.30056 
L 193.15392 140.808258 
L 199.109699 146.360744 
L 205.065478 152.221662 
L 210.737649 158.109908 
L 216.40982 164.315607 
L 222.081991 170.851416 
L 228.03777 178.059575 
L 229.739421 180.015877 
L 230.873856 181.387324 
L 239.66572 192.276874 
L 241.934589 194.741455 
L 243.63624 196.276941 
L 244.770674 197.053649 
L 245.905108 197.542711 
L 246.755934 197.662585 
L 247.606759 197.522552 
L 248.457585 197.085128 
L 249.308411 196.329151 
L 250.159236 195.258898 
L 251.29367 193.401314 
L 252.711713 190.570873 
L 255.26419 184.809287 
L 259.801927 174.566214 
L 262.921621 168.093116 
L 266.041314 162.124991 
L 269.161008 156.611221 
L 272.564311 151.048124 
L 275.967613 145.894246 
L 279.654524 140.711638 
L 283.625044 135.536628 
L 287.595564 130.730894 
L 291.849692 125.943404 
L 296.10382 121.488876 
L 300.641556 117.066115 
L 305.179293 112.949731 
L 310.000638 108.880765 
L 314.821983 105.098667 
L 319.926937 101.381144 
L 325.031891 97.93625 
L 330.420453 94.574187 
L 335.809015 91.474566 
L 341.481186 88.476953 
L 347.153357 85.73483 
L 352.825528 83.233732 
L 358.781307 80.853273 
L 364.737086 78.71208 
L 370.692866 76.799137 
L 376.932254 75.029427 
L 383.171642 73.489951 
L 389.411029 72.17223 
L 395.934026 71.023658 
L 402.457022 70.101922 
L 408.980019 69.400561 
L 415.786624 68.897616 
L 422.593229 68.62306 
L 429.399834 68.572236 
L 436.206439 68.741235 
L 443.013043 69.126822 
L 450.103257 69.756016 
L 457.19347 70.61521 
L 464.283684 71.702867 
L 471.090289 72.961137 
L 471.090289 72.961137 
" clip-path="url(#pe71fd91902)" style="fill: none; stroke-dasharray: 11.1,4.8; stroke-dashoffset: 0; stroke: #008000; stroke-width: 3"/>
   </g>
   <g id="line2d_83">
    <path d="M 62.9776 186.555068 
L 156.001201 179.037102 
L 176.704624 177.649953 
L 191.452268 176.864218 
L 203.080219 176.443734 
L 212.722909 176.308279 
L 220.38034 176.418056 
L 226.336119 176.711659 
L 231.157464 177.155044 
L 235.127984 177.731383 
L 238.247678 178.385499 
L 241.083763 179.209165 
L 243.352631 180.094451 
L 245.337891 181.094034 
L 247.323151 182.345758 
L 249.875628 184.265175 
L 253.27893 186.79526 
L 255.547799 188.176607 
L 257.816667 189.304015 
L 260.369144 190.332846 
L 263.488838 191.336161 
L 267.175749 192.264475 
L 271.429877 193.091125 
L 276.53483 193.839693 
L 282.49061 194.474139 
L 289.297215 194.974118 
L 297.238254 195.337351 
L 306.597336 195.54269 
L 317.658069 195.557082 
L 330.704062 195.339319 
L 345.735314 194.856178 
L 363.886261 194.027359 
L 384.022467 192.877213 
L 408.980019 191.215971 
L 439.326132 188.948428 
L 471.090289 186.39032 
L 471.090289 186.39032 
" clip-path="url(#pe71fd91902)" style="fill: none; stroke: #0000ff; stroke-width: 2; stroke-linecap: square"/>
   </g>
   <g id="line2d_84">
    <path d="M 62.9776 186.579639 
L 156.28481 179.032684 
L 176.704624 177.671247 
L 192.019486 176.864313 
L 203.931044 176.451676 
L 213.290126 176.341029 
L 220.663948 176.462945 
L 226.619727 176.77095 
L 231.157464 177.210368 
L 235.127984 177.779594 
L 238.531286 178.495444 
L 241.083763 179.237785 
L 243.352631 180.110464 
L 245.337891 181.095313 
L 247.323151 182.328766 
L 249.875628 184.223724 
L 253.27893 186.730731 
L 255.547799 188.10233 
L 257.816667 189.222385 
L 260.369144 190.244772 
L 263.488838 191.242011 
L 267.175749 192.164967 
L 271.429877 192.987343 
L 276.53483 193.732338 
L 282.49061 194.364852 
L 289.580823 194.880814 
L 297.805471 195.246914 
L 307.448161 195.445372 
L 318.792503 195.445536 
L 331.838496 195.215987 
L 346.869748 194.725648 
L 364.453478 193.923923 
L 384.873293 192.764307 
L 408.980019 191.164919 
L 438.191698 188.99344 
L 471.090289 186.355455 
L 471.090289 186.355455 
" clip-path="url(#pe71fd91902)" style="fill: none; stroke-dasharray: 11.1,4.8; stroke-dashoffset: 0; stroke: #0000ff; stroke-width: 3"/>
   </g>
   <g id="line2d_85">
    <path d="M 62.9776 61.864731 
L 70.351422 62.471459 
L 77.725244 63.300204 
L 85.099066 64.35366 
L 92.472888 65.63524 
L 99.84671 67.149409 
L 106.936924 68.829632 
L 114.027137 70.735212 
L 121.117351 72.873128 
L 128.207564 75.251057 
L 135.014169 77.768082 
L 141.820774 80.523954 
L 148.34377 83.399687 
L 154.866767 86.516283 
L 161.389763 89.887275 
L 167.629151 93.363828 
L 173.58493 96.927226 
L 179.54071 100.746411 
L 185.212881 104.639172 
L 190.885051 108.801364 
L 196.273614 113.026785 
L 201.662176 117.541575 
L 206.76713 122.112582 
L 211.588475 126.720603 
L 216.40982 131.643266 
L 220.947557 136.597985 
L 225.201685 141.560135 
L 230.590247 148.236717 
L 234.844375 154.002423 
L 239.66572 160.936873 
L 244.203457 167.400143 
L 245.905108 169.462012 
L 247.039542 170.55512 
L 247.890368 171.157849 
L 248.741194 171.528761 
L 249.592019 171.638258 
L 250.442845 171.476862 
L 251.29367 171.058451 
L 252.144496 170.41559 
L 253.27893 169.281995 
L 254.980581 167.183622 
L 257.533058 163.59882 
L 265.757706 151.815793 
L 270.011834 146.189623 
L 274.265962 140.930312 
L 278.803699 135.690945 
L 283.341435 130.794669 
L 288.162781 125.927404 
L 292.984126 121.369165 
L 298.08908 116.845658 
L 303.477642 112.376363 
L 308.866204 108.192382 
L 314.538375 104.070346 
L 320.210546 100.214559 
L 326.166325 96.431616 
L 332.405713 92.739991 
L 338.645101 89.308137 
L 345.168097 85.981241 
L 351.691094 82.906135 
L 358.497699 79.952083 
L 365.304304 77.245745 
L 372.110908 74.776518 
L 379.201122 72.446588 
L 386.291335 70.354971 
L 393.381549 68.49397 
L 400.471762 66.856572 
L 407.845585 65.385886 
L 415.219407 64.1468 
L 422.593229 63.135205 
L 429.967051 62.34761 
L 437.340873 61.781589 
L 444.714695 61.435164 
L 452.372125 61.306826 
L 459.745947 61.405701 
L 467.119769 61.723152 
L 471.090289 61.984814 
L 471.090289 61.984814 
" clip-path="url(#pe71fd91902)" style="fill: none; stroke: #000000; stroke-width: 2; stroke-linecap: square"/>
   </g>
   <g id="line2d_86">
    <path d="M 63.652588 273.039991 
L 80.601035 273.039991 
" style="fill: none; stroke: #000000; stroke-width: 2"/>
   </g>
   <g id="text_8">
    <g id="patch_3">
     <path d="M 84.838146 282.8521 
L 91.738146 282.8521 
Q 94.738146 282.8521 94.738146 279.8521 
L 94.738146 266.227881 
Q 94.738146 263.227881 91.738146 263.227881 
L 84.838146 263.227881 
Q 81.838146 263.227881 81.838146 266.227881 
L 81.838146 279.8521 
Q 81.838146 282.8521 84.838146 282.8521 
z
" style="fill: #ffffff"/>
    </g>
    <!-- $\overline{r}$ -->
    <g transform="translate(84.838146 276.643506) scale(0.15 -0.15)">
     <defs>
      <path id="Cmmi10-72" d="M 494 109 
Q 494 147 500 166 
L 978 2075 
Q 1025 2253 1025 2388 
Q 1025 2663 838 2663 
Q 638 2663 541 2423 
Q 444 2184 353 1819 
Q 353 1800 334 1789 
Q 316 1778 300 1778 
L 225 1778 
Q 203 1778 187 1801 
Q 172 1825 172 1844 
Q 241 2122 305 2315 
Q 369 2509 505 2668 
Q 641 2828 844 2828 
Q 1066 2828 1233 2700 
Q 1400 2572 1441 2363 
Q 1603 2575 1811 2701 
Q 2019 2828 2266 2828 
Q 2469 2828 2623 2709 
Q 2778 2591 2778 2388 
Q 2778 2225 2676 2104 
Q 2575 1984 2406 1984 
Q 2303 1984 2233 2048 
Q 2163 2113 2163 2216 
Q 2163 2356 2266 2467 
Q 2369 2578 2503 2578 
Q 2400 2663 2253 2663 
Q 1978 2663 1775 2467 
Q 1572 2272 1409 1972 
L 953 141 
Q 931 53 854 -9 
Q 778 -72 684 -72 
Q 606 -72 550 -22 
Q 494 28 494 109 
z
" transform="scale(0.015625)"/>
     </defs>
     <use xlink:href="#Cmmi10-72" transform="translate(0 0.5625)"/>
     <path d="M 0 56.5 
L 0 62.75 
L 45.117188 62.75 
L 45.117188 56.5 
L 0 56.5 
z
"/>
    </g>
   </g>
   <g id="legend_1">
    <g id="patch_4">
     <path d="M 72.787069 58.705465 
L 461.280819 58.705465 
Q 464.280819 58.705465 464.280819 55.705465 
L 464.280819 5.874215 
Q 464.280819 2.874215 461.280819 2.874215 
L 72.787069 2.874215 
Q 69.787069 2.874215 69.787069 5.874215 
L 69.787069 55.705465 
Q 69.787069 58.705465 72.787069 58.705465 
z
" style="fill: #ffffff; opacity: 0.8; stroke: #cccccc; stroke-linejoin: miter"/>
    </g>
    <g id="line2d_87">
     <path d="M 75.787069 17.511715 
L 87.037069 17.511715 
L 98.287069 17.511715 
" style="fill: none; stroke: #ff0000; stroke-width: 2; stroke-linecap: square"/>
    </g>
    <g id="text_9">
     <!-- SSCWeb/X -->
     <g transform="translate(105.787069 22.761715) scale(0.2 -0.2)">
      <defs>
       <path id="TimesNewRomanPSMT-53" d="M 2934 4334 
L 2934 2869 
L 2819 2869 
Q 2763 3291 2617 3541 
Q 2472 3791 2203 3937 
Q 1934 4084 1647 4084 
Q 1322 4084 1109 3886 
Q 897 3688 897 3434 
Q 897 3241 1031 3081 
Q 1225 2847 1953 2456 
Q 2547 2138 2764 1967 
Q 2981 1797 3098 1565 
Q 3216 1334 3216 1081 
Q 3216 600 2842 251 
Q 2469 -97 1881 -97 
Q 1697 -97 1534 -69 
Q 1438 -53 1133 45 
Q 828 144 747 144 
Q 669 144 623 97 
Q 578 50 556 -97 
L 441 -97 
L 441 1356 
L 556 1356 
Q 638 900 775 673 
Q 913 447 1195 297 
Q 1478 147 1816 147 
Q 2206 147 2432 353 
Q 2659 559 2659 841 
Q 2659 997 2573 1156 
Q 2488 1316 2306 1453 
Q 2184 1547 1640 1851 
Q 1097 2156 867 2337 
Q 638 2519 519 2737 
Q 400 2956 400 3219 
Q 400 3675 750 4004 
Q 1100 4334 1641 4334 
Q 1978 4334 2356 4169 
Q 2531 4091 2603 4091 
Q 2684 4091 2736 4139 
Q 2788 4188 2819 4334 
L 2934 4334 
z
" transform="scale(0.015625)"/>
       <path id="TimesNewRomanPSMT-43" d="M 3853 4334 
L 3950 2894 
L 3853 2894 
Q 3659 3541 3300 3825 
Q 2941 4109 2438 4109 
Q 2016 4109 1675 3895 
Q 1334 3681 1139 3212 
Q 944 2744 944 2047 
Q 944 1472 1128 1050 
Q 1313 628 1683 403 
Q 2053 178 2528 178 
Q 2941 178 3256 354 
Q 3572 531 3950 1056 
L 4047 994 
Q 3728 428 3303 165 
Q 2878 -97 2294 -97 
Q 1241 -97 663 684 
Q 231 1266 231 2053 
Q 231 2688 515 3219 
Q 800 3750 1298 4042 
Q 1797 4334 2388 4334 
Q 2847 4334 3294 4109 
Q 3425 4041 3481 4041 
Q 3566 4041 3628 4100 
Q 3709 4184 3744 4334 
L 3853 4334 
z
" transform="scale(0.015625)"/>
       <path id="TimesNewRomanPSMT-57" d="M 5991 4238 
L 5991 4122 
Q 5825 4122 5722 4062 
Q 5619 4003 5525 3841 
Q 5463 3731 5328 3319 
L 4147 -97 
L 4022 -97 
L 3056 2613 
L 2097 -97 
L 1984 -97 
L 725 3422 
Q 584 3816 547 3888 
Q 484 4006 376 4064 
Q 269 4122 84 4122 
L 84 4238 
L 1653 4238 
L 1653 4122 
L 1578 4122 
Q 1413 4122 1325 4047 
Q 1238 3972 1238 3866 
Q 1238 3756 1375 3363 
L 2209 984 
L 2913 3006 
L 2788 3363 
L 2688 3647 
Q 2622 3803 2541 3922 
Q 2500 3981 2441 4022 
Q 2363 4078 2284 4103 
Q 2225 4122 2097 4122 
L 2097 4238 
L 3747 4238 
L 3747 4122 
L 3634 4122 
Q 3459 4122 3378 4047 
Q 3297 3972 3297 3844 
Q 3297 3684 3438 3288 
L 4250 984 
L 5056 3319 
Q 5194 3706 5194 3856 
Q 5194 3928 5148 3990 
Q 5103 4053 5034 4078 
Q 4916 4122 4725 4122 
L 4725 4238 
L 5991 4238 
z
" transform="scale(0.015625)"/>
       <path id="TimesNewRomanPSMT-65" d="M 681 1784 
Q 678 1147 991 784 
Q 1303 422 1725 422 
Q 2006 422 2214 576 
Q 2422 731 2563 1106 
L 2659 1044 
Q 2594 616 2278 264 
Q 1963 -88 1488 -88 
Q 972 -88 605 314 
Q 238 716 238 1394 
Q 238 2128 614 2539 
Q 991 2950 1559 2950 
Q 2041 2950 2350 2633 
Q 2659 2316 2659 1784 
L 681 1784 
z
M 681 1966 
L 2006 1966 
Q 1991 2241 1941 2353 
Q 1863 2528 1708 2628 
Q 1553 2728 1384 2728 
Q 1125 2728 920 2526 
Q 716 2325 681 1966 
z
" transform="scale(0.015625)"/>
       <path id="TimesNewRomanPSMT-62" d="M 984 2369 
Q 1400 2947 1881 2947 
Q 2322 2947 2650 2570 
Q 2978 2194 2978 1541 
Q 2978 778 2472 313 
Q 2038 -88 1503 -88 
Q 1253 -88 995 3 
Q 738 94 469 275 
L 469 3241 
Q 469 3728 445 3840 
Q 422 3953 372 3993 
Q 322 4034 247 4034 
Q 159 4034 28 3984 
L -16 4094 
L 844 4444 
L 984 4444 
L 984 2369 
z
M 984 2169 
L 984 456 
Q 1144 300 1314 220 
Q 1484 141 1663 141 
Q 1947 141 2192 453 
Q 2438 766 2438 1363 
Q 2438 1913 2192 2208 
Q 1947 2503 1634 2503 
Q 1469 2503 1303 2419 
Q 1178 2356 984 2169 
z
" transform="scale(0.015625)"/>
       <path id="TimesNewRomanPSMT-2f" d="M 1794 4444 
L 259 -88 
L 9 -88 
L 1544 4444 
L 1794 4444 
z
" transform="scale(0.015625)"/>
       <path id="TimesNewRomanPSMT-58" d="M 2613 2347 
L 3522 991 
Q 3900 428 4083 279 
Q 4266 131 4547 116 
L 4547 0 
L 2728 0 
L 2728 116 
Q 2909 119 2997 153 
Q 3063 181 3105 239 
Q 3147 297 3147 356 
Q 3147 428 3119 500 
Q 3097 553 2947 775 
L 2228 1863 
L 1341 725 
Q 1200 544 1172 483 
Q 1144 422 1144 356 
Q 1144 256 1228 190 
Q 1313 125 1550 116 
L 1550 0 
L 47 0 
L 47 116 
Q 206 131 322 181 
Q 516 263 691 400 
Q 866 538 1091 822 
L 2091 2084 
L 1256 3306 
Q 916 3803 678 3958 
Q 441 4113 131 4122 
L 131 4238 
L 2091 4238 
L 2091 4122 
Q 1841 4113 1748 4041 
Q 1656 3969 1656 3881 
Q 1656 3766 1806 3544 
L 2456 2572 
L 3209 3525 
Q 3341 3694 3370 3756 
Q 3400 3819 3400 3884 
Q 3400 3950 3363 4000 
Q 3316 4066 3244 4092 
Q 3172 4119 2947 4122 
L 2947 4238 
L 4450 4238 
L 4450 4122 
Q 4272 4113 4159 4066 
Q 3991 3994 3850 3872 
Q 3709 3750 3453 3422 
L 2613 2347 
z
" transform="scale(0.015625)"/>
      </defs>
      <use xlink:href="#TimesNewRomanPSMT-53"/>
      <use xlink:href="#TimesNewRomanPSMT-53" transform="translate(55.615234 0)"/>
      <use xlink:href="#TimesNewRomanPSMT-43" transform="translate(111.230469 0)"/>
      <use xlink:href="#TimesNewRomanPSMT-57" transform="translate(177.929688 0)"/>
      <use xlink:href="#TimesNewRomanPSMT-65" transform="translate(264.314453 0)"/>
      <use xlink:href="#TimesNewRomanPSMT-62" transform="translate(308.699219 0)"/>
      <use xlink:href="#TimesNewRomanPSMT-2f" transform="translate(358.699219 0)"/>
      <use xlink:href="#TimesNewRomanPSMT-58" transform="translate(386.482422 0)"/>
     </g>
    </g>
    <g id="line2d_88">
     <path d="M 75.787069 43.17734 
L 87.037069 43.17734 
L 98.287069 43.17734 
" style="fill: none; stroke-dasharray: 11.1,4.8; stroke-dashoffset: 0; stroke: #ff0000; stroke-width: 3"/>
    </g>
    <g id="text_10">
     <!-- JPL/X -->
     <g transform="translate(105.787069 48.42734) scale(0.2 -0.2)">
      <defs>
       <path id="TimesNewRomanPSMT-4a" d="M 638 4122 
L 638 4238 
L 2453 4238 
L 2453 4122 
L 2300 4122 
Q 2041 4122 1922 3969 
Q 1847 3869 1847 3488 
L 1847 1416 
Q 1847 938 1742 641 
Q 1638 344 1381 123 
Q 1125 -97 763 -97 
Q 469 -97 300 48 
Q 131 194 131 381 
Q 131 534 209 613 
Q 313 709 450 709 
Q 550 709 629 643 
Q 709 578 831 294 
Q 903 125 1016 125 
Q 1100 125 1173 228 
Q 1247 331 1247 594 
L 1247 3488 
Q 1247 3809 1206 3913 
Q 1175 3991 1075 4047 
Q 941 4122 791 4122 
L 638 4122 
z
" transform="scale(0.015625)"/>
       <path id="TimesNewRomanPSMT-50" d="M 1313 1984 
L 1313 750 
Q 1313 350 1400 253 
Q 1519 116 1759 116 
L 1922 116 
L 1922 0 
L 106 0 
L 106 116 
L 266 116 
Q 534 116 650 291 
Q 713 388 713 750 
L 713 3488 
Q 713 3888 628 3984 
Q 506 4122 266 4122 
L 106 4122 
L 106 4238 
L 1659 4238 
Q 2228 4238 2556 4120 
Q 2884 4003 3109 3725 
Q 3334 3447 3334 3066 
Q 3334 2547 2992 2222 
Q 2650 1897 2025 1897 
Q 1872 1897 1694 1919 
Q 1516 1941 1313 1984 
z
M 1313 2163 
Q 1478 2131 1606 2115 
Q 1734 2100 1825 2100 
Q 2150 2100 2386 2351 
Q 2622 2603 2622 3003 
Q 2622 3278 2509 3514 
Q 2397 3750 2190 3867 
Q 1984 3984 1722 3984 
Q 1563 3984 1313 3925 
L 1313 2163 
z
" transform="scale(0.015625)"/>
       <path id="TimesNewRomanPSMT-4c" d="M 3669 1172 
L 3772 1150 
L 3409 0 
L 128 0 
L 128 116 
L 288 116 
Q 556 116 672 291 
Q 738 391 738 753 
L 738 3488 
Q 738 3884 650 3984 
Q 528 4122 288 4122 
L 128 4122 
L 128 4238 
L 2047 4238 
L 2047 4122 
Q 1709 4125 1573 4059 
Q 1438 3994 1388 3894 
Q 1338 3794 1338 3416 
L 1338 753 
Q 1338 494 1388 397 
Q 1425 331 1503 300 
Q 1581 269 1991 269 
L 2300 269 
Q 2788 269 2984 341 
Q 3181 413 3343 595 
Q 3506 778 3669 1172 
z
" transform="scale(0.015625)"/>
      </defs>
      <use xlink:href="#TimesNewRomanPSMT-4a"/>
      <use xlink:href="#TimesNewRomanPSMT-50" transform="translate(38.916016 0)"/>
      <use xlink:href="#TimesNewRomanPSMT-4c" transform="translate(94.53125 0)"/>
      <use xlink:href="#TimesNewRomanPSMT-2f" transform="translate(155.615234 0)"/>
      <use xlink:href="#TimesNewRomanPSMT-58" transform="translate(183.398438 0)"/>
     </g>
    </g>
    <g id="line2d_89">
     <path d="M 207.277694 17.511715 
L 218.527694 17.511715 
L 229.777694 17.511715 
" style="fill: none; stroke: #008000; stroke-width: 2; stroke-linecap: square"/>
    </g>
    <g id="text_11">
     <!-- SSCWeb/Y -->
     <g transform="translate(237.277694 22.761715) scale(0.2 -0.2)">
      <defs>
       <path id="TimesNewRomanPSMT-59" d="M 3050 4238 
L 4528 4238 
L 4528 4122 
L 4447 4122 
Q 4366 4122 4209 4050 
Q 4053 3978 3925 3843 
Q 3797 3709 3609 3406 
L 2588 1797 
L 2588 734 
Q 2588 344 2675 247 
Q 2794 116 3050 116 
L 3188 116 
L 3188 0 
L 1388 0 
L 1388 116 
L 1538 116 
Q 1806 116 1919 278 
Q 1988 378 1988 734 
L 1988 1738 
L 825 3513 
Q 619 3825 545 3903 
Q 472 3981 241 4091 
Q 178 4122 59 4122 
L 59 4238 
L 1872 4238 
L 1872 4122 
L 1778 4122 
Q 1631 4122 1507 4053 
Q 1384 3984 1384 3847 
Q 1384 3734 1575 3441 
L 2459 2075 
L 3291 3381 
Q 3478 3675 3478 3819 
Q 3478 3906 3433 3975 
Q 3388 4044 3303 4083 
Q 3219 4122 3050 4122 
L 3050 4238 
z
" transform="scale(0.015625)"/>
      </defs>
      <use xlink:href="#TimesNewRomanPSMT-53"/>
      <use xlink:href="#TimesNewRomanPSMT-53" transform="translate(55.615234 0)"/>
      <use xlink:href="#TimesNewRomanPSMT-43" transform="translate(111.230469 0)"/>
      <use xlink:href="#TimesNewRomanPSMT-57" transform="translate(177.929688 0)"/>
      <use xlink:href="#TimesNewRomanPSMT-65" transform="translate(264.314453 0)"/>
      <use xlink:href="#TimesNewRomanPSMT-62" transform="translate(308.699219 0)"/>
      <use xlink:href="#TimesNewRomanPSMT-2f" transform="translate(358.699219 0)"/>
      <use xlink:href="#TimesNewRomanPSMT-59" transform="translate(386.482422 0)"/>
     </g>
    </g>
    <g id="line2d_90">
     <path d="M 207.277694 43.17734 
L 218.527694 43.17734 
L 229.777694 43.17734 
" style="fill: none; stroke-dasharray: 11.1,4.8; stroke-dashoffset: 0; stroke: #008000; stroke-width: 3"/>
    </g>
    <g id="text_12">
     <!-- JPL/Y -->
     <g transform="translate(237.277694 48.42734) scale(0.2 -0.2)">
      <use xlink:href="#TimesNewRomanPSMT-4a"/>
      <use xlink:href="#TimesNewRomanPSMT-50" transform="translate(38.916016 0)"/>
      <use xlink:href="#TimesNewRomanPSMT-4c" transform="translate(94.53125 0)"/>
      <use xlink:href="#TimesNewRomanPSMT-2f" transform="translate(155.615234 0)"/>
      <use xlink:href="#TimesNewRomanPSMT-59" transform="translate(183.398438 0)"/>
     </g>
    </g>
    <g id="line2d_91">
     <path d="M 338.768319 17.511715 
L 350.018319 17.511715 
L 361.268319 17.511715 
" style="fill: none; stroke: #0000ff; stroke-width: 2; stroke-linecap: square"/>
    </g>
    <g id="text_13">
     <!-- SSCWeb/Z -->
     <g transform="translate(368.768319 22.761715) scale(0.2 -0.2)">
      <defs>
       <path id="TimesNewRomanPSMT-5a" d="M 3681 4238 
L 897 256 
L 2634 256 
Q 3034 256 3248 431 
Q 3463 606 3628 1141 
L 3731 1122 
L 3531 0 
L 81 0 
L 81 116 
L 2800 3984 
L 1444 3984 
Q 1106 3984 954 3911 
Q 803 3838 723 3698 
Q 644 3559 578 3178 
L 459 3178 
L 547 4238 
L 3681 4238 
z
" transform="scale(0.015625)"/>
      </defs>
      <use xlink:href="#TimesNewRomanPSMT-53"/>
      <use xlink:href="#TimesNewRomanPSMT-53" transform="translate(55.615234 0)"/>
      <use xlink:href="#TimesNewRomanPSMT-43" transform="translate(111.230469 0)"/>
      <use xlink:href="#TimesNewRomanPSMT-57" transform="translate(177.929688 0)"/>
      <use xlink:href="#TimesNewRomanPSMT-65" transform="translate(264.314453 0)"/>
      <use xlink:href="#TimesNewRomanPSMT-62" transform="translate(308.699219 0)"/>
      <use xlink:href="#TimesNewRomanPSMT-2f" transform="translate(358.699219 0)"/>
      <use xlink:href="#TimesNewRomanPSMT-5a" transform="translate(386.482422 0)"/>
     </g>
    </g>
    <g id="line2d_92">
     <path d="M 338.768319 43.17734 
L 350.018319 43.17734 
L 361.268319 43.17734 
" style="fill: none; stroke-dasharray: 11.1,4.8; stroke-dashoffset: 0; stroke: #0000ff; stroke-width: 3"/>
    </g>
    <g id="text_14">
     <!-- JPL/Z -->
     <g transform="translate(368.768319 48.42734) scale(0.2 -0.2)">
      <use xlink:href="#TimesNewRomanPSMT-4a"/>
      <use xlink:href="#TimesNewRomanPSMT-50" transform="translate(38.916016 0)"/>
      <use xlink:href="#TimesNewRomanPSMT-4c" transform="translate(94.53125 0)"/>
      <use xlink:href="#TimesNewRomanPSMT-2f" transform="translate(155.615234 0)"/>
      <use xlink:href="#TimesNewRomanPSMT-5a" transform="translate(183.398438 0)"/>
     </g>
    </g>
   </g>
  </g>
  <g id="axes_2">
   <g id="patch_5">
    <path d="M 55.178365 600.690223 
L 478.889524 600.690223 
L 478.889524 328.282538 
L 55.178365 328.282538 
z
" style="fill: #ffffff"/>
   </g>
   <g id="matplotlib.axis_3">
    <g id="xtick_14">
     <g id="line2d_93">
      <path d="M 62.835796 600.690223 
L 62.835796 328.282538 
" clip-path="url(#p1e4e382fb7)" style="fill: none; stroke: #b0b0b0; stroke-width: 0.8; stroke-linecap: square"/>
     </g>
     <g id="line2d_94"/>
     <g id="text_15">
      <!-- 00 -->
      <g transform="translate(55.460796 618.077723) scale(0.2 -0.2)">
       <use xlink:href="#TimesNewRomanPSMT-30"/>
       <use xlink:href="#TimesNewRomanPSMT-30" transform="translate(50 0)"/>
      </g>
      <!-- 2016-09-01 -->
      <g transform="translate(55.460796 639.020848) scale(0.2 -0.2)">
       <defs>
        <path id="TimesNewRomanPSMT-32" d="M 2934 816 
L 2638 0 
L 138 0 
L 138 116 
Q 1241 1122 1691 1759 
Q 2141 2397 2141 2925 
Q 2141 3328 1894 3587 
Q 1647 3847 1303 3847 
Q 991 3847 742 3664 
Q 494 3481 375 3128 
L 259 3128 
Q 338 3706 661 4015 
Q 984 4325 1469 4325 
Q 1984 4325 2329 3994 
Q 2675 3663 2675 3213 
Q 2675 2891 2525 2569 
Q 2294 2063 1775 1497 
Q 997 647 803 472 
L 1909 472 
Q 2247 472 2383 497 
Q 2519 522 2628 598 
Q 2738 675 2819 816 
L 2934 816 
z
" transform="scale(0.015625)"/>
        <path id="TimesNewRomanPSMT-36" d="M 2869 4325 
L 2869 4209 
Q 2456 4169 2195 4045 
Q 1934 3922 1679 3669 
Q 1425 3416 1258 3105 
Q 1091 2794 978 2366 
Q 1428 2675 1881 2675 
Q 2316 2675 2634 2325 
Q 2953 1975 2953 1425 
Q 2953 894 2631 456 
Q 2244 -75 1606 -75 
Q 1172 -75 869 213 
Q 275 772 275 1663 
Q 275 2231 503 2743 
Q 731 3256 1154 3653 
Q 1578 4050 1965 4187 
Q 2353 4325 2688 4325 
L 2869 4325 
z
M 925 2138 
Q 869 1716 869 1456 
Q 869 1156 980 804 
Q 1091 453 1309 247 
Q 1469 100 1697 100 
Q 1969 100 2183 356 
Q 2397 613 2397 1088 
Q 2397 1622 2184 2012 
Q 1972 2403 1581 2403 
Q 1463 2403 1327 2353 
Q 1191 2303 925 2138 
z
" transform="scale(0.015625)"/>
        <path id="TimesNewRomanPSMT-2d" d="M 259 1672 
L 1875 1672 
L 1875 1200 
L 259 1200 
L 259 1672 
z
" transform="scale(0.015625)"/>
        <path id="TimesNewRomanPSMT-39" d="M 338 -88 
L 338 28 
Q 744 34 1094 217 
Q 1444 400 1770 856 
Q 2097 1313 2225 1859 
Q 1734 1544 1338 1544 
Q 891 1544 572 1889 
Q 253 2234 253 2806 
Q 253 3363 572 3797 
Q 956 4325 1575 4325 
Q 2097 4325 2469 3894 
Q 2925 3359 2925 2575 
Q 2925 1869 2578 1258 
Q 2231 647 1613 244 
Q 1109 -88 516 -88 
L 338 -88 
z
M 2275 2091 
Q 2331 2497 2331 2741 
Q 2331 3044 2228 3395 
Q 2125 3747 1936 3934 
Q 1747 4122 1506 4122 
Q 1228 4122 1018 3872 
Q 809 3622 809 3128 
Q 809 2469 1088 2097 
Q 1291 1828 1588 1828 
Q 1731 1828 1928 1897 
Q 2125 1966 2275 2091 
z
" transform="scale(0.015625)"/>
       </defs>
       <use xlink:href="#TimesNewRomanPSMT-32"/>
       <use xlink:href="#TimesNewRomanPSMT-30" transform="translate(50 0)"/>
       <use xlink:href="#TimesNewRomanPSMT-31" transform="translate(100 0)"/>
       <use xlink:href="#TimesNewRomanPSMT-36" transform="translate(150 0)"/>
       <use xlink:href="#TimesNewRomanPSMT-2d" transform="translate(200 0)"/>
       <use xlink:href="#TimesNewRomanPSMT-30" transform="translate(233.300781 0)"/>
       <use xlink:href="#TimesNewRomanPSMT-39" transform="translate(283.300781 0)"/>
       <use xlink:href="#TimesNewRomanPSMT-2d" transform="translate(333.300781 0)"/>
       <use xlink:href="#TimesNewRomanPSMT-30" transform="translate(366.601562 0)"/>
       <use xlink:href="#TimesNewRomanPSMT-31" transform="translate(416.601562 0)"/>
      </g>
     </g>
    </g>
    <g id="xtick_15">
     <g id="line2d_95">
      <path d="M 130.901845 600.690223 
L 130.901845 328.282538 
" clip-path="url(#p1e4e382fb7)" style="fill: none; stroke: #b0b0b0; stroke-width: 0.8; stroke-linecap: square"/>
     </g>
     <g id="line2d_96"/>
     <g id="text_16">
      <!-- 04 -->
      <g transform="translate(122.201845 616.272348) scale(0.174 -0.174)">
       <defs>
        <path id="TimesNewRomanPSMT-34" d="M 2978 1563 
L 2978 1119 
L 2409 1119 
L 2409 0 
L 1894 0 
L 1894 1119 
L 100 1119 
L 100 1519 
L 2066 4325 
L 2409 4325 
L 2409 1563 
L 2978 1563 
z
M 1894 1563 
L 1894 3666 
L 406 1563 
L 1894 1563 
z
" transform="scale(0.015625)"/>
       </defs>
       <use xlink:href="#TimesNewRomanPSMT-30"/>
       <use xlink:href="#TimesNewRomanPSMT-34" transform="translate(50 0)"/>
      </g>
     </g>
    </g>
    <g id="xtick_16">
     <g id="line2d_97">
      <path d="M 198.967895 600.690223 
L 198.967895 328.282538 
" clip-path="url(#p1e4e382fb7)" style="fill: none; stroke: #b0b0b0; stroke-width: 0.8; stroke-linecap: square"/>
     </g>
     <g id="line2d_98"/>
     <g id="text_17">
      <!-- 08 -->
      <g transform="translate(190.267895 616.272348) scale(0.174 -0.174)">
       <defs>
        <path id="TimesNewRomanPSMT-38" d="M 1228 2134 
Q 725 2547 579 2797 
Q 434 3047 434 3316 
Q 434 3728 753 4026 
Q 1072 4325 1600 4325 
Q 2113 4325 2425 4047 
Q 2738 3769 2738 3413 
Q 2738 3175 2569 2928 
Q 2400 2681 1866 2347 
Q 2416 1922 2594 1678 
Q 2831 1359 2831 1006 
Q 2831 559 2490 242 
Q 2150 -75 1597 -75 
Q 994 -75 656 303 
Q 388 606 388 966 
Q 388 1247 577 1523 
Q 766 1800 1228 2134 
z
M 1719 2469 
Q 2094 2806 2194 3001 
Q 2294 3197 2294 3444 
Q 2294 3772 2109 3958 
Q 1925 4144 1606 4144 
Q 1288 4144 1088 3959 
Q 888 3775 888 3528 
Q 888 3366 970 3203 
Q 1053 3041 1206 2894 
L 1719 2469 
z
M 1375 2016 
Q 1116 1797 991 1539 
Q 866 1281 866 981 
Q 866 578 1086 336 
Q 1306 94 1647 94 
Q 1984 94 2187 284 
Q 2391 475 2391 747 
Q 2391 972 2272 1150 
Q 2050 1481 1375 2016 
z
" transform="scale(0.015625)"/>
       </defs>
       <use xlink:href="#TimesNewRomanPSMT-30"/>
       <use xlink:href="#TimesNewRomanPSMT-38" transform="translate(50 0)"/>
      </g>
     </g>
    </g>
    <g id="xtick_17">
     <g id="line2d_99">
      <path d="M 267.033944 600.690223 
L 267.033944 328.282538 
" clip-path="url(#p1e4e382fb7)" style="fill: none; stroke: #b0b0b0; stroke-width: 0.8; stroke-linecap: square"/>
     </g>
     <g id="line2d_100"/>
     <g id="text_18">
      <!-- 12 -->
      <g transform="translate(258.333944 616.272348) scale(0.174 -0.174)">
       <use xlink:href="#TimesNewRomanPSMT-31"/>
       <use xlink:href="#TimesNewRomanPSMT-32" transform="translate(50 0)"/>
      </g>
     </g>
    </g>
    <g id="xtick_18">
     <g id="line2d_101">
      <path d="M 335.099994 600.690223 
L 335.099994 328.282538 
" clip-path="url(#p1e4e382fb7)" style="fill: none; stroke: #b0b0b0; stroke-width: 0.8; stroke-linecap: square"/>
     </g>
     <g id="line2d_102"/>
     <g id="text_19">
      <!-- 16 -->
      <g transform="translate(326.399994 616.272348) scale(0.174 -0.174)">
       <use xlink:href="#TimesNewRomanPSMT-31"/>
       <use xlink:href="#TimesNewRomanPSMT-36" transform="translate(50 0)"/>
      </g>
     </g>
    </g>
    <g id="xtick_19">
     <g id="line2d_103">
      <path d="M 403.166044 600.690223 
L 403.166044 328.282538 
" clip-path="url(#p1e4e382fb7)" style="fill: none; stroke: #b0b0b0; stroke-width: 0.8; stroke-linecap: square"/>
     </g>
     <g id="line2d_104"/>
     <g id="text_20">
      <!-- 20 -->
      <g transform="translate(394.466044 616.272348) scale(0.174 -0.174)">
       <use xlink:href="#TimesNewRomanPSMT-32"/>
       <use xlink:href="#TimesNewRomanPSMT-30" transform="translate(50 0)"/>
      </g>
     </g>
    </g>
    <g id="xtick_20">
     <g id="line2d_105">
      <path d="M 471.232093 600.690223 
L 471.232093 328.282538 
" clip-path="url(#p1e4e382fb7)" style="fill: none; stroke: #b0b0b0; stroke-width: 0.8; stroke-linecap: square"/>
     </g>
     <g id="line2d_106"/>
     <g id="text_21">
      <!-- 00 -->
      <g transform="translate(458.607093 618.077723) scale(0.2 -0.2)">
       <use xlink:href="#TimesNewRomanPSMT-30"/>
       <use xlink:href="#TimesNewRomanPSMT-30" transform="translate(50 0)"/>
      </g>
      <!-- 2016-09-02 -->
      <g transform="translate(385.288343 639.020848) scale(0.2 -0.2)">
       <use xlink:href="#TimesNewRomanPSMT-32"/>
       <use xlink:href="#TimesNewRomanPSMT-30" transform="translate(50 0)"/>
       <use xlink:href="#TimesNewRomanPSMT-31" transform="translate(100 0)"/>
       <use xlink:href="#TimesNewRomanPSMT-36" transform="translate(150 0)"/>
       <use xlink:href="#TimesNewRomanPSMT-2d" transform="translate(200 0)"/>
       <use xlink:href="#TimesNewRomanPSMT-30" transform="translate(233.300781 0)"/>
       <use xlink:href="#TimesNewRomanPSMT-39" transform="translate(283.300781 0)"/>
       <use xlink:href="#TimesNewRomanPSMT-2d" transform="translate(333.300781 0)"/>
       <use xlink:href="#TimesNewRomanPSMT-30" transform="translate(366.601562 0)"/>
       <use xlink:href="#TimesNewRomanPSMT-32" transform="translate(416.601562 0)"/>
      </g>
     </g>
    </g>
    <g id="xtick_21">
     <g id="line2d_107">
      <path d="M 96.86882 600.690223 
L 96.86882 328.282538 
" clip-path="url(#p1e4e382fb7)" style="fill: none; stroke-dasharray: 0.5,0.825; stroke-dashoffset: 0; stroke: #bfbfbf; stroke-width: 0.5"/>
     </g>
     <g id="line2d_108"/>
    </g>
    <g id="xtick_22">
     <g id="line2d_109">
      <path d="M 164.93487 600.690223 
L 164.93487 328.282538 
" clip-path="url(#p1e4e382fb7)" style="fill: none; stroke-dasharray: 0.5,0.825; stroke-dashoffset: 0; stroke: #bfbfbf; stroke-width: 0.5"/>
     </g>
     <g id="line2d_110"/>
    </g>
    <g id="xtick_23">
     <g id="line2d_111">
      <path d="M 233.00092 600.690223 
L 233.00092 328.282538 
" clip-path="url(#p1e4e382fb7)" style="fill: none; stroke-dasharray: 0.5,0.825; stroke-dashoffset: 0; stroke: #bfbfbf; stroke-width: 0.5"/>
     </g>
     <g id="line2d_112"/>
    </g>
    <g id="xtick_24">
     <g id="line2d_113">
      <path d="M 301.066969 600.690223 
L 301.066969 328.282538 
" clip-path="url(#p1e4e382fb7)" style="fill: none; stroke-dasharray: 0.5,0.825; stroke-dashoffset: 0; stroke: #bfbfbf; stroke-width: 0.5"/>
     </g>
     <g id="line2d_114"/>
    </g>
    <g id="xtick_25">
     <g id="line2d_115">
      <path d="M 369.133019 600.690223 
L 369.133019 328.282538 
" clip-path="url(#p1e4e382fb7)" style="fill: none; stroke-dasharray: 0.5,0.825; stroke-dashoffset: 0; stroke: #bfbfbf; stroke-width: 0.5"/>
     </g>
     <g id="line2d_116"/>
    </g>
    <g id="xtick_26">
     <g id="line2d_117">
      <path d="M 437.199068 600.690223 
L 437.199068 328.282538 
" clip-path="url(#p1e4e382fb7)" style="fill: none; stroke-dasharray: 0.5,0.825; stroke-dashoffset: 0; stroke: #bfbfbf; stroke-width: 0.5"/>
     </g>
     <g id="line2d_118"/>
    </g>
   </g>
   <g id="matplotlib.axis_4">
    <g id="ytick_27">
     <g id="line2d_119">
      <path d="M 55.178365 591.187629 
L 478.889524 591.187629 
" clip-path="url(#p1e4e382fb7)" style="fill: none; stroke: #b0b0b0; stroke-width: 0.8; stroke-linecap: square"/>
     </g>
     <g id="line2d_120"/>
     <g id="text_22">
      <!-- 0.0 -->
      <g transform="translate(26.678365 598.131379) scale(0.2 -0.2)">
       <defs>
        <path id="TimesNewRomanPSMT-2e" d="M 800 606 
Q 947 606 1047 504 
Q 1147 403 1147 259 
Q 1147 116 1045 14 
Q 944 -88 800 -88 
Q 656 -88 554 14 
Q 453 116 453 259 
Q 453 406 554 506 
Q 656 606 800 606 
z
" transform="scale(0.015625)"/>
       </defs>
       <use xlink:href="#TimesNewRomanPSMT-30"/>
       <use xlink:href="#TimesNewRomanPSMT-2e" transform="translate(50 0)"/>
       <use xlink:href="#TimesNewRomanPSMT-30" transform="translate(75 0)"/>
      </g>
     </g>
    </g>
    <g id="ytick_28">
     <g id="line2d_121">
      <path d="M 55.178365 527.837005 
L 478.889524 527.837005 
" clip-path="url(#p1e4e382fb7)" style="fill: none; stroke: #b0b0b0; stroke-width: 0.8; stroke-linecap: square"/>
     </g>
     <g id="line2d_122"/>
     <g id="text_23">
      <!-- 0.2 -->
      <g transform="translate(26.678365 534.780755) scale(0.2 -0.2)">
       <use xlink:href="#TimesNewRomanPSMT-30"/>
       <use xlink:href="#TimesNewRomanPSMT-2e" transform="translate(50 0)"/>
       <use xlink:href="#TimesNewRomanPSMT-32" transform="translate(75 0)"/>
      </g>
     </g>
    </g>
    <g id="ytick_29">
     <g id="line2d_123">
      <path d="M 55.178365 464.48638 
L 478.889524 464.48638 
" clip-path="url(#p1e4e382fb7)" style="fill: none; stroke: #b0b0b0; stroke-width: 0.8; stroke-linecap: square"/>
     </g>
     <g id="line2d_124"/>
     <g id="text_24">
      <!-- 0.4 -->
      <g transform="translate(26.678365 471.43013) scale(0.2 -0.2)">
       <use xlink:href="#TimesNewRomanPSMT-30"/>
       <use xlink:href="#TimesNewRomanPSMT-2e" transform="translate(50 0)"/>
       <use xlink:href="#TimesNewRomanPSMT-34" transform="translate(75 0)"/>
      </g>
     </g>
    </g>
    <g id="ytick_30">
     <g id="line2d_125">
      <path d="M 55.178365 401.135756 
L 478.889524 401.135756 
" clip-path="url(#p1e4e382fb7)" style="fill: none; stroke: #b0b0b0; stroke-width: 0.8; stroke-linecap: square"/>
     </g>
     <g id="line2d_126"/>
     <g id="text_25">
      <!-- 0.6 -->
      <g transform="translate(26.678365 408.079506) scale(0.2 -0.2)">
       <use xlink:href="#TimesNewRomanPSMT-30"/>
       <use xlink:href="#TimesNewRomanPSMT-2e" transform="translate(50 0)"/>
       <use xlink:href="#TimesNewRomanPSMT-36" transform="translate(75 0)"/>
      </g>
     </g>
    </g>
    <g id="ytick_31">
     <g id="line2d_127">
      <path d="M 55.178365 337.785131 
L 478.889524 337.785131 
" clip-path="url(#p1e4e382fb7)" style="fill: none; stroke: #b0b0b0; stroke-width: 0.8; stroke-linecap: square"/>
     </g>
     <g id="line2d_128"/>
     <g id="text_26">
      <!-- 0.8 -->
      <g transform="translate(26.678365 344.728881) scale(0.2 -0.2)">
       <use xlink:href="#TimesNewRomanPSMT-30"/>
       <use xlink:href="#TimesNewRomanPSMT-2e" transform="translate(50 0)"/>
       <use xlink:href="#TimesNewRomanPSMT-38" transform="translate(75 0)"/>
      </g>
     </g>
    </g>
    <g id="ytick_32">
     <g id="line2d_129">
      <path d="M 55.178365 575.349973 
L 478.889524 575.349973 
" clip-path="url(#p1e4e382fb7)" style="fill: none; stroke-dasharray: 0.5,0.825; stroke-dashoffset: 0; stroke: #bfbfbf; stroke-width: 0.5"/>
     </g>
     <g id="line2d_130"/>
    </g>
    <g id="ytick_33">
     <g id="line2d_131">
      <path d="M 55.178365 559.512317 
L 478.889524 559.512317 
" clip-path="url(#p1e4e382fb7)" style="fill: none; stroke-dasharray: 0.5,0.825; stroke-dashoffset: 0; stroke: #bfbfbf; stroke-width: 0.5"/>
     </g>
     <g id="line2d_132"/>
    </g>
    <g id="ytick_34">
     <g id="line2d_133">
      <path d="M 55.178365 543.674661 
L 478.889524 543.674661 
" clip-path="url(#p1e4e382fb7)" style="fill: none; stroke-dasharray: 0.5,0.825; stroke-dashoffset: 0; stroke: #bfbfbf; stroke-width: 0.5"/>
     </g>
     <g id="line2d_134"/>
    </g>
    <g id="ytick_35">
     <g id="line2d_135">
      <path d="M 55.178365 511.999348 
L 478.889524 511.999348 
" clip-path="url(#p1e4e382fb7)" style="fill: none; stroke-dasharray: 0.5,0.825; stroke-dashoffset: 0; stroke: #bfbfbf; stroke-width: 0.5"/>
     </g>
     <g id="line2d_136"/>
    </g>
    <g id="ytick_36">
     <g id="line2d_137">
      <path d="M 55.178365 496.161692 
L 478.889524 496.161692 
" clip-path="url(#p1e4e382fb7)" style="fill: none; stroke-dasharray: 0.5,0.825; stroke-dashoffset: 0; stroke: #bfbfbf; stroke-width: 0.5"/>
     </g>
     <g id="line2d_138"/>
    </g>
    <g id="ytick_37">
     <g id="line2d_139">
      <path d="M 55.178365 480.324036 
L 478.889524 480.324036 
" clip-path="url(#p1e4e382fb7)" style="fill: none; stroke-dasharray: 0.5,0.825; stroke-dashoffset: 0; stroke: #bfbfbf; stroke-width: 0.5"/>
     </g>
     <g id="line2d_140"/>
    </g>
    <g id="ytick_38">
     <g id="line2d_141">
      <path d="M 55.178365 448.648724 
L 478.889524 448.648724 
" clip-path="url(#p1e4e382fb7)" style="fill: none; stroke-dasharray: 0.5,0.825; stroke-dashoffset: 0; stroke: #bfbfbf; stroke-width: 0.5"/>
     </g>
     <g id="line2d_142"/>
    </g>
    <g id="ytick_39">
     <g id="line2d_143">
      <path d="M 55.178365 432.811068 
L 478.889524 432.811068 
" clip-path="url(#p1e4e382fb7)" style="fill: none; stroke-dasharray: 0.5,0.825; stroke-dashoffset: 0; stroke: #bfbfbf; stroke-width: 0.5"/>
     </g>
     <g id="line2d_144"/>
    </g>
    <g id="ytick_40">
     <g id="line2d_145">
      <path d="M 55.178365 416.973412 
L 478.889524 416.973412 
" clip-path="url(#p1e4e382fb7)" style="fill: none; stroke-dasharray: 0.5,0.825; stroke-dashoffset: 0; stroke: #bfbfbf; stroke-width: 0.5"/>
     </g>
     <g id="line2d_146"/>
    </g>
    <g id="ytick_41">
     <g id="line2d_147">
      <path d="M 55.178365 385.2981 
L 478.889524 385.2981 
" clip-path="url(#p1e4e382fb7)" style="fill: none; stroke-dasharray: 0.5,0.825; stroke-dashoffset: 0; stroke: #bfbfbf; stroke-width: 0.5"/>
     </g>
     <g id="line2d_148"/>
    </g>
    <g id="ytick_42">
     <g id="line2d_149">
      <path d="M 55.178365 369.460444 
L 478.889524 369.460444 
" clip-path="url(#p1e4e382fb7)" style="fill: none; stroke-dasharray: 0.5,0.825; stroke-dashoffset: 0; stroke: #bfbfbf; stroke-width: 0.5"/>
     </g>
     <g id="line2d_150"/>
    </g>
    <g id="ytick_43">
     <g id="line2d_151">
      <path d="M 55.178365 353.622788 
L 478.889524 353.622788 
" clip-path="url(#p1e4e382fb7)" style="fill: none; stroke-dasharray: 0.5,0.825; stroke-dashoffset: 0; stroke: #bfbfbf; stroke-width: 0.5"/>
     </g>
     <g id="line2d_152"/>
    </g>
   </g>
   <g id="line2d_153">
    <path d="M 62.9776 589.420022 
L 119.132091 588.579585 
L 124.237044 588.505793 
L 136.432212 588.305391 
L 161.95698 587.747203 
L 169.330802 587.575206 
L 183.227621 587.233147 
L 197.124439 586.837859 
L 222.932816 585.587607 
L 229.455813 584.978549 
L 229.739421 589.269748 
L 230.02303 587.97383 
L 235.978809 587.720291 
L 240.232937 587.40704 
L 244.203457 586.934136 
L 248.741194 586.366537 
L 250.726453 586.397283 
L 254.696973 586.807344 
L 258.383884 587.057313 
L 263.772446 587.140023 
L 273.415137 587.054157 
L 282.207001 586.967461 
L 294.11856 586.935085 
L 302.059599 586.945763 
L 306.313727 586.970802 
L 327.017151 587.174653 
L 335.525407 587.302308 
L 341.481186 587.394317 
L 371.8273 587.967143 
L 386.291335 588.271432 
L 392.530723 588.396873 
L 416.637449 588.727632 
L 471.090289 589.591726 
L 471.090289 589.591726 
" clip-path="url(#p1e4e382fb7)" style="fill: none; stroke: #ff0000; stroke-width: 2; stroke-linecap: square"/>
   </g>
   <g id="line2d_154">
    <path d="M 62.9776 591.039256 
L 170.748845 590.767389 
L 205.916304 590.425596 
L 218.678688 590.102607 
L 226.903336 589.68569 
L 229.455813 589.483965 
L 229.739421 590.657305 
L 230.02303 590.290663 
L 235.978809 589.946849 
L 239.66572 589.550203 
L 242.501806 589.040759 
L 245.054283 588.347167 
L 248.457585 587.356364 
L 249.592019 587.269761 
L 250.726453 587.388916 
L 252.428105 587.830781 
L 256.115016 588.84699 
L 258.951101 589.334222 
L 262.638012 589.709071 
L 268.026574 590.010141 
L 277.385656 590.275201 
L 300.641556 590.561068 
L 337.227058 590.766564 
L 471.090289 591.053537 
L 471.090289 591.053537 
" clip-path="url(#p1e4e382fb7)" style="fill: none; stroke: #0000ff; stroke-width: 2; stroke-linecap: square"/>
   </g>
   <g id="line2d_155">
    <path d="M 62.9776 582.712088 
L 117.714048 578.191677 
L 120.833742 577.904844 
L 125.08787 577.504694 
L 127.07313 577.295978 
L 135.581386 576.340534 
L 137.566646 576.022348 
L 138.70108 575.884919 
L 140.119123 575.669021 
L 145.791294 574.790778 
L 167.061934 570.925251 
L 168.479977 570.609678 
L 170.181628 570.251248 
L 182.660404 567.063853 
L 183.511229 566.799576 
L 192.303094 563.816278 
L 194.004745 563.107404 
L 194.855571 562.770399 
L 198.826091 560.991517 
L 199.960525 560.392672 
L 201.378567 559.675227 
L 202.79661 558.843296 
L 204.498261 557.845085 
L 206.483521 556.571952 
L 207.617955 555.699695 
L 208.468781 555.092797 
L 213.006518 551.166248 
L 214.708169 549.413978 
L 217.544254 546.056394 
L 218.39508 544.811735 
L 219.245905 543.592211 
L 221.231165 540.402975 
L 224.634468 533.450705 
L 226.336119 529.092086 
L 228.321379 522.850989 
L 229.455813 518.66374 
L 229.739421 562.335897 
L 230.02303 551.891017 
L 231.724681 548.696851 
L 233.142724 545.457411 
L 234.277158 542.36939 
L 235.411592 538.717371 
L 236.546026 534.341721 
L 237.68046 529.022927 
L 238.814895 522.488748 
L 239.949329 514.368205 
L 241.083763 504.137427 
L 241.934589 494.762355 
L 243.069023 479.4162 
L 244.203457 460.215445 
L 245.337891 437.105194 
L 247.890368 381.491627 
L 248.457585 373.029575 
L 249.024802 367.936279 
L 249.308411 366.835133 
L 249.592019 366.757614 
L 249.875628 367.68587 
L 250.159236 369.589497 
L 250.726453 376.029562 
L 251.577279 390.7404 
L 254.980581 458.494919 
L 256.115016 474.64169 
L 257.24945 487.206917 
L 258.383884 496.955165 
L 259.518318 504.595198 
L 260.652752 510.658775 
L 262.070795 516.607925 
L 263.205229 520.482751 
L 264.339663 523.73307 
L 266.041314 527.737384 
L 267.742966 531.087867 
L 270.295443 535.09868 
L 272.280702 537.716797 
L 273.982354 539.638953 
L 275.967613 541.679168 
L 279.654524 544.91779 
L 283.341435 547.637236 
L 284.192261 548.168301 
L 285.893912 549.267629 
L 287.879172 550.472048 
L 292.984126 553.188792 
L 295.252994 554.267568 
L 296.954645 555.056908 
L 298.372688 555.657895 
L 299.507122 556.135936 
L 300.357948 556.48924 
L 305.74651 558.563228 
L 308.015378 559.372952 
L 318.792503 562.784482 
L 319.643329 562.999344 
L 323.046631 563.967558 
L 326.449934 564.855122 
L 330.704062 565.933039 
L 333.823756 566.644026 
L 337.227058 567.429441 
L 338.361492 567.657371 
L 339.495926 567.94569 
L 340.346752 568.108967 
L 346.869748 569.469016 
L 347.720574 569.629257 
L 351.691094 570.424354 
L 356.796047 571.377748 
L 359.064916 571.786867 
L 371.8273 573.946998 
L 374.663385 574.407492 
L 387.142161 576.285241 
L 394.232375 577.136277 
L 399.05372 577.582085 
L 405.576716 578.190072 
L 408.69641 578.455834 
L 417.488275 579.247237 
L 419.189926 579.377592 
L 424.011271 579.798816 
L 471.090289 583.509764 
L 471.090289 583.509764 
" clip-path="url(#p1e4e382fb7)" style="fill: none; stroke: #008000; stroke-width: 2; stroke-linecap: square"/>
   </g>
   <g id="legend_2">
    <g id="patch_6">
     <path d="M 61.758944 364.156428 
L 472.308944 364.156428 
Q 475.308944 364.156428 475.308944 361.156428 
L 475.308944 307.656428 
Q 475.308944 304.656428 472.308944 304.656428 
L 61.758944 304.656428 
Q 58.758944 304.656428 58.758944 307.656428 
L 58.758944 361.156428 
Q 58.758944 364.156428 61.758944 364.156428 
z
" style="fill: #ffffff; opacity: 0.8; stroke: #cccccc; stroke-linejoin: miter"/>
    </g>
    <g id="line2d_156">
     <path d="M 64.758944 320.406428 
L 76.008944 320.406428 
L 87.258944 320.406428 
" style="fill: none; stroke: #ff0000; stroke-width: 2; stroke-linecap: square"/>
    </g>
    <g id="text_27">
     <!-- $|Δ\mathbf{r}|/R_E$ ($|Δ\mathbf{r}|_{\rm{max}} = 125.0$ [km]) -->
     <g transform="translate(94.758944 325.656428) scale(0.2 -0.2)">
      <defs>
       <path id="Cmsy10-6a" d="M 763 -1484 
L 763 4684 
Q 763 4734 800 4767 
Q 838 4800 891 4800 
Q 938 4800 978 4767 
Q 1019 4734 1019 4684 
L 1019 -1484 
Q 1019 -1534 978 -1567 
Q 938 -1600 891 -1600 
Q 838 -1600 800 -1567 
Q 763 -1534 763 -1484 
z
" transform="scale(0.015625)"/>
       <path id="STIXGeneral-Regular-394" d="M 4320 0 
L 307 0 
L 2221 4314 
L 2349 4314 
L 4320 0 
z
M 3354 589 
L 2118 3405 
L 870 589 
L 3354 589 
z
" transform="scale(0.015625)"/>
       <path id="Cmb10-72" d="M 91 0 
L 91 325 
L 531 325 
L 531 2322 
Q 531 2503 91 2503 
L 91 2828 
L 1178 2881 
L 1178 2356 
Q 1269 2594 1436 2737 
Q 1603 2881 1838 2881 
Q 2006 2881 2173 2822 
Q 2341 2763 2450 2641 
Q 2559 2519 2559 2344 
Q 2559 2178 2443 2059 
Q 2328 1941 2156 1941 
Q 1984 1941 1868 2059 
Q 1753 2178 1753 2344 
Q 1753 2513 1856 2625 
L 1838 2625 
Q 1488 2625 1367 2248 
Q 1247 1872 1247 1416 
L 1247 325 
L 1806 325 
L 1806 0 
L 91 0 
z
" transform="scale(0.015625)"/>
       <path id="Cmmi10-3d" d="M 359 -1472 
Q 359 -1453 366 -1447 
L 2591 4722 
Q 2603 4759 2634 4779 
Q 2666 4800 2706 4800 
Q 2763 4800 2798 4765 
Q 2834 4731 2834 4672 
L 2834 4647 
L 609 -1522 
Q 572 -1600 488 -1600 
Q 434 -1600 396 -1562 
Q 359 -1525 359 -1472 
z
" transform="scale(0.015625)"/>
       <path id="TimesNewRomanPSMT-20" transform="scale(0.015625)"/>
       <path id="TimesNewRomanPSMT-28" d="M 1988 -1253 
L 1988 -1369 
Q 1516 -1131 1200 -813 
Q 750 -359 506 256 
Q 263 872 263 1534 
Q 263 2503 741 3301 
Q 1219 4100 1988 4444 
L 1988 4313 
Q 1603 4100 1356 3731 
Q 1109 3363 987 2797 
Q 866 2231 866 1616 
Q 866 947 969 400 
Q 1050 -31 1165 -292 
Q 1281 -553 1476 -793 
Q 1672 -1034 1988 -1253 
z
" transform="scale(0.015625)"/>
       <path id="Cmr10-6d" d="M 191 0 
L 191 225 
Q 409 225 550 259 
Q 691 294 691 428 
L 691 2175 
Q 691 2347 639 2423 
Q 588 2500 491 2517 
Q 394 2534 191 2534 
L 191 2759 
L 1119 2828 
L 1119 2203 
Q 1247 2478 1498 2653 
Q 1750 2828 2047 2828 
Q 2784 2828 2913 2228 
Q 3041 2497 3287 2662 
Q 3534 2828 3828 2828 
Q 4119 2828 4317 2734 
Q 4516 2641 4616 2448 
Q 4716 2256 4716 1966 
L 4716 428 
Q 4716 294 4858 259 
Q 5000 225 5216 225 
L 5216 0 
L 3750 0 
L 3750 225 
Q 3969 225 4109 259 
Q 4250 294 4250 428 
L 4250 1947 
Q 4250 2269 4159 2466 
Q 4069 2663 3788 2663 
Q 3419 2663 3178 2366 
Q 2938 2069 2938 1691 
L 2938 428 
Q 2938 294 3078 259 
Q 3219 225 3438 225 
L 3438 0 
L 1972 0 
L 1972 225 
Q 2191 225 2331 259 
Q 2472 294 2472 428 
L 2472 1947 
Q 2472 2259 2381 2461 
Q 2291 2663 2009 2663 
Q 1638 2663 1398 2366 
Q 1159 2069 1159 1691 
L 1159 428 
Q 1159 294 1300 259 
Q 1441 225 1656 225 
L 1656 0 
L 191 0 
z
" transform="scale(0.015625)"/>
       <path id="Cmr10-61" d="M 256 628 
Q 256 1009 556 1248 
Q 856 1488 1276 1586 
Q 1697 1684 2075 1684 
L 2075 1947 
Q 2075 2131 1994 2304 
Q 1913 2478 1759 2589 
Q 1606 2700 1422 2700 
Q 997 2700 775 2509 
Q 897 2509 976 2417 
Q 1056 2325 1056 2203 
Q 1056 2075 965 1984 
Q 875 1894 750 1894 
Q 622 1894 531 1984 
Q 441 2075 441 2203 
Q 441 2541 747 2705 
Q 1053 2869 1422 2869 
Q 1681 2869 1943 2758 
Q 2206 2647 2373 2440 
Q 2541 2234 2541 1959 
L 2541 519 
Q 2541 394 2594 289 
Q 2647 184 2759 184 
Q 2866 184 2917 290 
Q 2969 397 2969 519 
L 2969 928 
L 3156 928 
L 3156 519 
Q 3156 375 3081 245 
Q 3006 116 2879 39 
Q 2753 -38 2606 -38 
Q 2419 -38 2283 107 
Q 2147 253 2131 453 
Q 2013 213 1781 70 
Q 1550 -72 1288 -72 
Q 1044 -72 808 0 
Q 572 72 414 226 
Q 256 381 256 628 
z
M 775 628 
Q 775 403 940 250 
Q 1106 97 1331 97 
Q 1538 97 1706 200 
Q 1875 303 1975 481 
Q 2075 659 2075 856 
L 2075 1522 
Q 1784 1522 1479 1426 
Q 1175 1331 975 1128 
Q 775 925 775 628 
z
" transform="scale(0.015625)"/>
       <path id="Cmr10-78" d="M 78 0 
L 78 225 
Q 322 225 537 320 
Q 753 416 903 603 
L 1484 1344 
L 728 2328 
Q 616 2469 483 2501 
Q 350 2534 109 2534 
L 109 2759 
L 1441 2759 
L 1441 2534 
Q 1356 2534 1282 2496 
Q 1209 2459 1209 2388 
Q 1209 2363 1228 2328 
L 1741 1663 
L 2125 2156 
Q 2203 2250 2203 2344 
Q 2203 2422 2151 2478 
Q 2100 2534 2016 2534 
L 2016 2759 
L 3194 2759 
L 3194 2534 
Q 2947 2534 2730 2439 
Q 2513 2344 2363 2156 
L 1856 1509 
L 2675 428 
Q 2797 288 2928 256 
Q 3059 225 3303 225 
L 3303 0 
L 1972 0 
L 1972 225 
Q 2050 225 2122 262 
Q 2194 300 2194 372 
Q 2194 400 2175 428 
L 1600 1191 
L 1141 603 
Q 1069 522 1069 416 
Q 1069 338 1122 281 
Q 1175 225 1247 225 
L 1247 0 
L 78 0 
z
" transform="scale(0.015625)"/>
       <path id="Cmr10-3d" d="M 481 850 
Q 428 850 393 890 
Q 359 931 359 978 
Q 359 1031 393 1068 
Q 428 1106 481 1106 
L 4500 1106 
Q 4547 1106 4581 1068 
Q 4616 1031 4616 978 
Q 4616 931 4581 890 
Q 4547 850 4500 850 
L 481 850 
z
M 481 2094 
Q 428 2094 393 2131 
Q 359 2169 359 2222 
Q 359 2269 393 2309 
Q 428 2350 481 2350 
L 4500 2350 
Q 4547 2350 4581 2309 
Q 4616 2269 4616 2222 
Q 4616 2169 4581 2131 
Q 4547 2094 4500 2094 
L 481 2094 
z
" transform="scale(0.015625)"/>
       <path id="Cmr10-31" d="M 594 0 
L 594 225 
Q 1394 225 1394 428 
L 1394 3788 
Q 1063 3628 556 3628 
L 556 3853 
Q 1341 3853 1741 4263 
L 1831 4263 
Q 1853 4263 1873 4245 
Q 1894 4228 1894 4206 
L 1894 428 
Q 1894 225 2694 225 
L 2694 0 
L 594 0 
z
" transform="scale(0.015625)"/>
       <path id="Cmr10-32" d="M 319 0 
L 319 172 
Q 319 188 331 206 
L 1325 1306 
Q 1550 1550 1690 1715 
Q 1831 1881 1968 2097 
Q 2106 2313 2186 2536 
Q 2266 2759 2266 3009 
Q 2266 3272 2169 3511 
Q 2072 3750 1880 3894 
Q 1688 4038 1416 4038 
Q 1138 4038 916 3870 
Q 694 3703 603 3438 
Q 628 3444 672 3444 
Q 816 3444 917 3347 
Q 1019 3250 1019 3097 
Q 1019 2950 917 2848 
Q 816 2747 672 2747 
Q 522 2747 420 2851 
Q 319 2956 319 3097 
Q 319 3338 409 3548 
Q 500 3759 670 3923 
Q 841 4088 1055 4175 
Q 1269 4263 1509 4263 
Q 1875 4263 2190 4108 
Q 2506 3953 2690 3670 
Q 2875 3388 2875 3009 
Q 2875 2731 2753 2481 
Q 2631 2231 2440 2026 
Q 2250 1822 1953 1562 
Q 1656 1303 1563 1216 
L 838 519 
L 1453 519 
Q 1906 519 2211 526 
Q 2516 534 2534 550 
Q 2609 631 2688 1141 
L 2875 1141 
L 2694 0 
L 319 0 
z
" transform="scale(0.015625)"/>
       <path id="Cmr10-35" d="M 556 728 
Q 622 541 758 387 
Q 894 234 1080 148 
Q 1266 63 1466 63 
Q 1928 63 2103 422 
Q 2278 781 2278 1294 
Q 2278 1516 2270 1667 
Q 2263 1819 2228 1959 
Q 2169 2184 2020 2353 
Q 1872 2522 1656 2522 
Q 1441 2522 1286 2456 
Q 1131 2391 1034 2303 
Q 938 2216 863 2119 
Q 788 2022 769 2016 
L 697 2016 
Q 681 2016 657 2036 
Q 634 2056 634 2075 
L 634 4213 
Q 634 4228 654 4245 
Q 675 4263 697 4263 
L 716 4263 
Q 1147 4056 1631 4056 
Q 2106 4056 2547 4263 
L 2566 4263 
Q 2588 4263 2606 4247 
Q 2625 4231 2625 4213 
L 2625 4153 
Q 2625 4122 2613 4122 
Q 2394 3831 2064 3668 
Q 1734 3506 1381 3506 
Q 1125 3506 856 3578 
L 856 2369 
Q 1069 2541 1236 2614 
Q 1403 2688 1663 2688 
Q 2016 2688 2295 2484 
Q 2575 2281 2725 1954 
Q 2875 1628 2875 1288 
Q 2875 903 2686 575 
Q 2497 247 2172 53 
Q 1847 -141 1466 -141 
Q 1150 -141 886 21 
Q 622 184 470 459 
Q 319 734 319 1044 
Q 319 1188 412 1278 
Q 506 1369 647 1369 
Q 788 1369 883 1276 
Q 978 1184 978 1044 
Q 978 906 883 811 
Q 788 716 647 716 
Q 625 716 597 720 
Q 569 725 556 728 
z
" transform="scale(0.015625)"/>
       <path id="Cmmi10-3a" d="M 538 353 
Q 538 497 644 600 
Q 750 703 891 703 
Q 978 703 1062 656 
Q 1147 609 1194 525 
Q 1241 441 1241 353 
Q 1241 213 1137 106 
Q 1034 0 891 0 
Q 750 0 644 106 
Q 538 213 538 353 
z
" transform="scale(0.015625)"/>
       <path id="Cmr10-30" d="M 1600 -141 
Q 816 -141 533 504 
Q 250 1150 250 2041 
Q 250 2597 351 3087 
Q 453 3578 754 3920 
Q 1056 4263 1600 4263 
Q 2022 4263 2290 4056 
Q 2559 3850 2700 3523 
Q 2841 3197 2892 2823 
Q 2944 2450 2944 2041 
Q 2944 1491 2842 1011 
Q 2741 531 2444 195 
Q 2147 -141 1600 -141 
z
M 1600 25 
Q 1956 25 2131 390 
Q 2306 756 2347 1200 
Q 2388 1644 2388 2144 
Q 2388 2625 2347 3031 
Q 2306 3438 2132 3767 
Q 1959 4097 1600 4097 
Q 1238 4097 1063 3765 
Q 888 3434 847 3029 
Q 806 2625 806 2144 
Q 806 1788 823 1472 
Q 841 1156 916 820 
Q 991 484 1158 254 
Q 1325 25 1600 25 
z
" transform="scale(0.015625)"/>
       <path id="TimesNewRomanPSMT-5b" d="M 1900 -1269 
L 525 -1269 
L 525 4334 
L 1900 4334 
L 1900 4088 
L 994 4088 
L 994 -1025 
L 1900 -1025 
L 1900 -1269 
z
" transform="scale(0.015625)"/>
       <path id="TimesNewRomanPSMT-6b" d="M 1047 4444 
L 1047 1594 
L 1775 2259 
Q 2006 2472 2044 2528 
Q 2069 2566 2069 2603 
Q 2069 2666 2017 2711 
Q 1966 2756 1847 2763 
L 1847 2863 
L 3091 2863 
L 3091 2763 
Q 2834 2756 2664 2684 
Q 2494 2613 2291 2428 
L 1556 1750 
L 2291 822 
Q 2597 438 2703 334 
Q 2853 188 2966 144 
Q 3044 113 3238 113 
L 3238 0 
L 1847 0 
L 1847 113 
Q 1966 116 2008 148 
Q 2050 181 2050 241 
Q 2050 313 1925 472 
L 1047 1594 
L 1047 644 
Q 1047 366 1086 278 
Q 1125 191 1197 153 
Q 1269 116 1509 113 
L 1509 0 
L 53 0 
L 53 113 
Q 272 113 381 166 
Q 447 200 481 272 
Q 528 375 528 628 
L 528 3234 
Q 528 3731 506 3842 
Q 484 3953 434 3995 
Q 384 4038 303 4038 
Q 238 4038 106 3984 
L 53 4094 
L 903 4444 
L 1047 4444 
z
" transform="scale(0.015625)"/>
       <path id="TimesNewRomanPSMT-6d" d="M 1050 2338 
Q 1363 2650 1419 2697 
Q 1559 2816 1721 2881 
Q 1884 2947 2044 2947 
Q 2313 2947 2506 2790 
Q 2700 2634 2766 2338 
Q 3088 2713 3309 2830 
Q 3531 2947 3766 2947 
Q 3994 2947 4170 2830 
Q 4347 2713 4450 2447 
Q 4519 2266 4519 1878 
L 4519 647 
Q 4519 378 4559 278 
Q 4591 209 4675 161 
Q 4759 113 4950 113 
L 4950 0 
L 3538 0 
L 3538 113 
L 3597 113 
Q 3781 113 3884 184 
Q 3956 234 3988 344 
Q 4000 397 4000 647 
L 4000 1878 
Q 4000 2228 3916 2372 
Q 3794 2572 3525 2572 
Q 3359 2572 3192 2489 
Q 3025 2406 2788 2181 
L 2781 2147 
L 2788 2013 
L 2788 647 
Q 2788 353 2820 281 
Q 2853 209 2943 161 
Q 3034 113 3253 113 
L 3253 0 
L 1806 0 
L 1806 113 
Q 2044 113 2133 169 
Q 2222 225 2256 338 
Q 2272 391 2272 647 
L 2272 1878 
Q 2272 2228 2169 2381 
Q 2031 2581 1784 2581 
Q 1616 2581 1450 2491 
Q 1191 2353 1050 2181 
L 1050 647 
Q 1050 366 1089 281 
Q 1128 197 1204 155 
Q 1281 113 1516 113 
L 1516 0 
L 100 0 
L 100 113 
Q 297 113 375 155 
Q 453 197 493 289 
Q 534 381 534 647 
L 534 1741 
Q 534 2213 506 2350 
Q 484 2453 437 2492 
Q 391 2531 309 2531 
Q 222 2531 100 2484 
L 53 2597 
L 916 2947 
L 1050 2947 
L 1050 2338 
z
" transform="scale(0.015625)"/>
       <path id="TimesNewRomanPSMT-5d" d="M 234 4334 
L 1609 4334 
L 1609 -1272 
L 234 -1272 
L 234 -1025 
L 1141 -1025 
L 1141 4088 
L 234 4088 
L 234 4334 
z
" transform="scale(0.015625)"/>
       <path id="TimesNewRomanPSMT-29" d="M 144 4313 
L 144 4444 
Q 619 4209 934 3891 
Q 1381 3434 1625 2820 
Q 1869 2206 1869 1541 
Q 1869 572 1392 -226 
Q 916 -1025 144 -1369 
L 144 -1253 
Q 528 -1038 776 -670 
Q 1025 -303 1145 264 
Q 1266 831 1266 1447 
Q 1266 2113 1163 2663 
Q 1084 3094 967 3353 
Q 850 3613 656 3853 
Q 463 4094 144 4313 
z
" transform="scale(0.015625)"/>
      </defs>
      <use xlink:href="#Cmsy10-6a"/>
      <use xlink:href="#STIXGeneral-Regular-394" transform="translate(27.685547 0)"/>
      <use xlink:href="#Cmb10-72" transform="translate(99.885529 0)"/>
      <use xlink:href="#Cmsy10-6a" transform="translate(142.56131 0)"/>
      <use xlink:href="#Cmmi10-3d" transform="translate(170.246857 0)"/>
      <use xlink:href="#Cmmi10-52" transform="translate(220.246857 0)"/>
      <use xlink:href="#Cmmi10-45" transform="translate(296.125763 -17.00625) scale(0.7)"/>
      <use xlink:href="#TimesNewRomanPSMT-20" transform="translate(354.148615 0)"/>
      <use xlink:href="#TimesNewRomanPSMT-28" transform="translate(379.148615 0)"/>
      <use xlink:href="#Cmsy10-6a" transform="translate(412.449396 0)"/>
      <use xlink:href="#STIXGeneral-Regular-394" transform="translate(440.134943 0)"/>
      <use xlink:href="#Cmb10-72" transform="translate(512.334924 0)"/>
      <use xlink:href="#Cmsy10-6a" transform="translate(555.010706 0)"/>
      <use xlink:href="#Cmr10-6d" transform="translate(587.160393 -17.00625) scale(0.7)"/>
      <use xlink:href="#Cmr10-61" transform="translate(645.47094 -17.00625) scale(0.7)"/>
      <use xlink:href="#Cmr10-78" transform="translate(680.47094 -17.00625) scale(0.7)"/>
      <use xlink:href="#Cmr10-3d" transform="translate(741.28676 0)"/>
      <use xlink:href="#Cmr10-31" transform="translate(836.530901 0)"/>
      <use xlink:href="#Cmr10-32" transform="translate(886.530901 0)"/>
      <use xlink:href="#Cmr10-35" transform="translate(936.530901 0)"/>
      <use xlink:href="#Cmmi10-3a" transform="translate(986.530901 0)"/>
      <use xlink:href="#Cmr10-30" transform="translate(1014.216448 0)"/>
      <use xlink:href="#TimesNewRomanPSMT-20" transform="translate(1064.216448 0)"/>
      <use xlink:href="#TimesNewRomanPSMT-5b" transform="translate(1089.216448 0)"/>
      <use xlink:href="#TimesNewRomanPSMT-6b" transform="translate(1122.517229 0)"/>
      <use xlink:href="#TimesNewRomanPSMT-6d" transform="translate(1172.517229 0)"/>
      <use xlink:href="#TimesNewRomanPSMT-5d" transform="translate(1250.300432 0)"/>
      <use xlink:href="#TimesNewRomanPSMT-29" transform="translate(1283.601213 0)"/>
     </g>
    </g>
    <g id="line2d_157">
     <path d="M 64.758944 347.906428 
L 76.008944 347.906428 
L 87.258944 347.906428 
" style="fill: none; stroke: #0000ff; stroke-width: 2; stroke-linecap: square"/>
    </g>
    <g id="text_28">
     <!-- $|Δ\mathbf{r}|/\overline{r}$  (max= 1/81) -->
     <g transform="translate(94.758944 353.156428) scale(0.2 -0.2)">
      <defs>
       <path id="TimesNewRomanPSMT-61" d="M 1822 413 
Q 1381 72 1269 19 
Q 1100 -59 909 -59 
Q 613 -59 420 144 
Q 228 347 228 678 
Q 228 888 322 1041 
Q 450 1253 767 1440 
Q 1084 1628 1822 1897 
L 1822 2009 
Q 1822 2438 1686 2597 
Q 1550 2756 1291 2756 
Q 1094 2756 978 2650 
Q 859 2544 859 2406 
L 866 2225 
Q 866 2081 792 2003 
Q 719 1925 600 1925 
Q 484 1925 411 2006 
Q 338 2088 338 2228 
Q 338 2497 613 2722 
Q 888 2947 1384 2947 
Q 1766 2947 2009 2819 
Q 2194 2722 2281 2516 
Q 2338 2381 2338 1966 
L 2338 994 
Q 2338 584 2353 492 
Q 2369 400 2405 369 
Q 2441 338 2488 338 
Q 2538 338 2575 359 
Q 2641 400 2828 588 
L 2828 413 
Q 2478 -56 2159 -56 
Q 2006 -56 1915 50 
Q 1825 156 1822 413 
z
M 1822 616 
L 1822 1706 
Q 1350 1519 1213 1441 
Q 966 1303 859 1153 
Q 753 1003 753 825 
Q 753 600 887 451 
Q 1022 303 1197 303 
Q 1434 303 1822 616 
z
" transform="scale(0.015625)"/>
       <path id="TimesNewRomanPSMT-78" d="M 84 2863 
L 1431 2863 
L 1431 2747 
Q 1303 2747 1251 2703 
Q 1200 2659 1200 2588 
Q 1200 2513 1309 2356 
Q 1344 2306 1413 2200 
L 1616 1875 
L 1850 2200 
Q 2075 2509 2075 2591 
Q 2075 2656 2022 2701 
Q 1969 2747 1850 2747 
L 1850 2863 
L 2819 2863 
L 2819 2747 
Q 2666 2738 2553 2663 
Q 2400 2556 2134 2200 
L 1744 1678 
L 2456 653 
Q 2719 275 2831 198 
Q 2944 122 3122 113 
L 3122 0 
L 1772 0 
L 1772 113 
Q 1913 113 1991 175 
Q 2050 219 2050 291 
Q 2050 363 1850 653 
L 1431 1266 
L 972 653 
Q 759 369 759 316 
Q 759 241 829 180 
Q 900 119 1041 113 
L 1041 0 
L 106 0 
L 106 113 
Q 219 128 303 191 
Q 422 281 703 653 
L 1303 1450 
L 759 2238 
Q 528 2575 401 2661 
Q 275 2747 84 2747 
L 84 2863 
z
" transform="scale(0.015625)"/>
       <path id="TimesNewRomanPSMT-3d" d="M 116 2759 
L 3488 2759 
L 3488 2503 
L 116 2503 
L 116 2759 
z
M 116 1741 
L 3488 1741 
L 3488 1484 
L 116 1484 
L 116 1741 
z
" transform="scale(0.015625)"/>
      </defs>
      <use xlink:href="#Cmsy10-6a"/>
      <use xlink:href="#STIXGeneral-Regular-394" transform="translate(27.685547 0)"/>
      <use xlink:href="#Cmb10-72" transform="translate(99.885529 0)"/>
      <use xlink:href="#Cmsy10-6a" transform="translate(142.56131 0)"/>
      <use xlink:href="#Cmmi10-3d" transform="translate(170.246857 0)"/>
      <use xlink:href="#Cmmi10-72" transform="translate(220.246857 0.5)"/>
      <use xlink:href="#TimesNewRomanPSMT-20" transform="translate(265.364044 0)"/>
      <use xlink:href="#TimesNewRomanPSMT-20" transform="translate(290.364044 0)"/>
      <use xlink:href="#TimesNewRomanPSMT-28" transform="translate(315.364044 0)"/>
      <use xlink:href="#TimesNewRomanPSMT-6d" transform="translate(348.664825 0)"/>
      <use xlink:href="#TimesNewRomanPSMT-61" transform="translate(426.448029 0)"/>
      <use xlink:href="#TimesNewRomanPSMT-78" transform="translate(470.832794 0)"/>
      <use xlink:href="#TimesNewRomanPSMT-3d" transform="translate(520.832794 0)"/>
      <use xlink:href="#TimesNewRomanPSMT-20" transform="translate(577.229279 0)"/>
      <use xlink:href="#TimesNewRomanPSMT-31" transform="translate(602.229279 0)"/>
      <use xlink:href="#TimesNewRomanPSMT-2f" transform="translate(652.229279 0)"/>
      <use xlink:href="#TimesNewRomanPSMT-38" transform="translate(680.012482 0)"/>
      <use xlink:href="#TimesNewRomanPSMT-31" transform="translate(730.012482 0)"/>
      <use xlink:href="#TimesNewRomanPSMT-29" transform="translate(780.012482 0)"/>
      <path d="M 220.246857 56.4375 
L 220.246857 62.6875 
L 265.364044 62.6875 
L 265.364044 56.4375 
L 220.246857 56.4375 
z
"/>
     </g>
    </g>
    <g id="line2d_158">
     <path d="M 367.908944 320.406428 
L 379.158944 320.406428 
L 390.408944 320.406428 
" style="fill: none; stroke: #008000; stroke-width: 2; stroke-linecap: square"/>
    </g>
    <g id="text_29">
     <!-- $Δθ$ [deg] -->
     <g transform="translate(397.908944 325.656428) scale(0.2 -0.2)">
      <defs>
       <path id="STIXGeneral-Italic-3b8" d="M 3162 3270 
Q 3162 2534 2925 1862 
Q 2688 1190 2304 678 
Q 1741 -70 992 -70 
Q 608 -70 390 224 
Q 173 518 173 1030 
Q 173 1997 592 2813 
Q 1011 3629 1594 4070 
Q 1952 4339 2374 4339 
Q 2733 4339 2947 4076 
Q 3162 3814 3162 3270 
z
M 941 2221 
L 2432 2221 
Q 2624 2874 2624 3533 
Q 2624 4205 2285 4205 
Q 2029 4205 1728 3814 
Q 1427 3424 1232 2992 
Q 1037 2560 941 2221 
z
M 2387 2016 
L 896 2016 
Q 710 1530 710 960 
Q 710 64 1069 64 
Q 1286 64 1510 275 
Q 1734 486 1904 806 
Q 2074 1126 2198 1440 
Q 2323 1754 2387 2016 
z
" transform="scale(0.015625)"/>
       <path id="TimesNewRomanPSMT-64" d="M 2222 322 
Q 2013 103 1813 7 
Q 1613 -88 1381 -88 
Q 913 -88 563 304 
Q 213 697 213 1313 
Q 213 1928 600 2439 
Q 988 2950 1597 2950 
Q 1975 2950 2222 2709 
L 2222 3238 
Q 2222 3728 2198 3840 
Q 2175 3953 2125 3993 
Q 2075 4034 2000 4034 
Q 1919 4034 1784 3984 
L 1744 4094 
L 2597 4444 
L 2738 4444 
L 2738 1134 
Q 2738 631 2761 520 
Q 2784 409 2836 365 
Q 2888 322 2956 322 
Q 3041 322 3181 375 
L 3216 266 
L 2366 -88 
L 2222 -88 
L 2222 322 
z
M 2222 541 
L 2222 2016 
Q 2203 2228 2109 2403 
Q 2016 2578 1861 2667 
Q 1706 2756 1559 2756 
Q 1284 2756 1069 2509 
Q 784 2184 784 1559 
Q 784 928 1059 592 
Q 1334 256 1672 256 
Q 1956 256 2222 541 
z
" transform="scale(0.015625)"/>
       <path id="TimesNewRomanPSMT-67" d="M 966 1044 
Q 703 1172 562 1401 
Q 422 1631 422 1909 
Q 422 2334 742 2640 
Q 1063 2947 1563 2947 
Q 1972 2947 2272 2747 
L 2878 2747 
Q 3013 2747 3034 2739 
Q 3056 2731 3066 2713 
Q 3084 2684 3084 2613 
Q 3084 2531 3069 2500 
Q 3059 2484 3036 2475 
Q 3013 2466 2878 2466 
L 2506 2466 
Q 2681 2241 2681 1891 
Q 2681 1491 2375 1206 
Q 2069 922 1553 922 
Q 1341 922 1119 984 
Q 981 866 932 777 
Q 884 688 884 625 
Q 884 572 936 522 
Q 988 472 1138 450 
Q 1225 438 1575 428 
Q 2219 413 2409 384 
Q 2700 344 2873 169 
Q 3047 -6 3047 -263 
Q 3047 -616 2716 -925 
Q 2228 -1381 1444 -1381 
Q 841 -1381 425 -1109 
Q 191 -953 191 -784 
Q 191 -709 225 -634 
Q 278 -519 444 -313 
Q 466 -284 763 25 
Q 600 122 533 198 
Q 466 275 466 372 
Q 466 481 555 628 
Q 644 775 966 1044 
z
M 1509 2797 
Q 1278 2797 1122 2612 
Q 966 2428 966 2047 
Q 966 1553 1178 1281 
Q 1341 1075 1591 1075 
Q 1828 1075 1981 1253 
Q 2134 1431 2134 1813 
Q 2134 2309 1919 2591 
Q 1759 2797 1509 2797 
z
M 934 0 
Q 788 -159 713 -296 
Q 638 -434 638 -550 
Q 638 -700 819 -813 
Q 1131 -1006 1722 -1006 
Q 2284 -1006 2551 -807 
Q 2819 -609 2819 -384 
Q 2819 -222 2659 -153 
Q 2497 -84 2016 -72 
Q 1313 -53 934 0 
z
" transform="scale(0.015625)"/>
      </defs>
      <use xlink:href="#STIXGeneral-Regular-394" transform="translate(0 0.5625)"/>
      <use xlink:href="#STIXGeneral-Italic-3b8" transform="translate(72.199982 0.5625)"/>
      <use xlink:href="#TimesNewRomanPSMT-20" transform="translate(120.199966 0.5625)"/>
      <use xlink:href="#TimesNewRomanPSMT-5b" transform="translate(145.199966 0.5625)"/>
      <use xlink:href="#TimesNewRomanPSMT-64" transform="translate(178.500748 0.5625)"/>
      <use xlink:href="#TimesNewRomanPSMT-65" transform="translate(228.500748 0.5625)"/>
      <use xlink:href="#TimesNewRomanPSMT-67" transform="translate(272.885513 0.5625)"/>
      <use xlink:href="#TimesNewRomanPSMT-5d" transform="translate(322.885513 0.5625)"/>
     </g>
    </g>
   </g>
  </g>
 </g>
 <defs>
  <clipPath id="pe71fd91902">
   <rect x="55.178365" y="22.424921" width="423.711159" height="272.407685"/>
  </clipPath>
  <clipPath id="p1e4e382fb7">
   <rect x="55.178365" y="328.282538" width="423.711159" height="272.407685"/>
  </clipPath>
 </defs>
</svg>
