<?xml version="1.0" encoding="utf-8" standalone="no"?>
<!DOCTYPE svg PUBLIC "-//W3C//DTD SVG 1.1//EN"
  "http://www.w3.org/Graphics/SVG/1.1/DTD/svg11.dtd">
<svg xmlns:xlink="http://www.w3.org/1999/xlink" width="481.889764pt" height="646.299213pt" viewBox="0 0 481.889764 646.299213" xmlns="http://www.w3.org/2000/svg" version="1.1">
 <metadata>
  <rdf:RDF xmlns:dc="http://purl.org/dc/elements/1.1/" xmlns:cc="http://creativecommons.org/ns#" xmlns:rdf="http://www.w3.org/1999/02/22-rdf-syntax-ns#">
   <cc:Work>
    <dc:type rdf:resource="http://purl.org/dc/dcmitype/StillImage"/>
    <dc:date>2026-05-17T14:28:37.326959</dc:date>
    <dc:format>image/svg+xml</dc:format>
    <dc:creator>
     <cc:Agent>
      <dc:title>Matplotlib v3.10.9, https://matplotlib.org/</dc:title>
     </cc:Agent>
    </dc:creator>
   </cc:Work>
  </rdf:RDF>
 </metadata>
 <defs>
  <style type="text/css">*{stroke-linejoin: round; stroke-linecap: butt}</style>
 </defs>
 <g id="figure_1">
  <g id="patch_1">
   <path d="M 0 646.299213 
L 481.889764 646.299213 
L 481.889764 0 
L 0 0 
z
" style="fill: #ffffff"/>
  </g>
  <g id="axes_1">
   <g id="patch_2">
    <path d="M 55.178365 279.869273 
L 478.889524 279.869273 
L 478.889524 3.00024 
L 55.178365 3.00024 
z
" style="fill: #ffffff"/>
   </g>
   <g id="matplotlib.axis_1">
    <g id="xtick_1">
     <g id="line2d_1">
      <path d="M 62.835796 279.869273 
L 62.835796 3.00024 
" clip-path="url(#paf716d9ff7)" style="fill: none; stroke: #b0b0b0; stroke-width: 0.8; stroke-linecap: square"/>
     </g>
     <g id="line2d_2"/>
    </g>
    <g id="xtick_2">
     <g id="line2d_3">
      <path d="M 130.901845 279.869273 
L 130.901845 3.00024 
" clip-path="url(#paf716d9ff7)" style="fill: none; stroke: #b0b0b0; stroke-width: 0.8; stroke-linecap: square"/>
     </g>
     <g id="line2d_4"/>
    </g>
    <g id="xtick_3">
     <g id="line2d_5">
      <path d="M 198.967895 279.869273 
L 198.967895 3.00024 
" clip-path="url(#paf716d9ff7)" style="fill: none; stroke: #b0b0b0; stroke-width: 0.8; stroke-linecap: square"/>
     </g>
     <g id="line2d_6"/>
    </g>
    <g id="xtick_4">
     <g id="line2d_7">
      <path d="M 267.033944 279.869273 
L 267.033944 3.00024 
" clip-path="url(#paf716d9ff7)" style="fill: none; stroke: #b0b0b0; stroke-width: 0.8; stroke-linecap: square"/>
     </g>
     <g id="line2d_8"/>
    </g>
    <g id="xtick_5">
     <g id="line2d_9">
      <path d="M 335.099994 279.869273 
L 335.099994 3.00024 
" clip-path="url(#paf716d9ff7)" style="fill: none; stroke: #b0b0b0; stroke-width: 0.8; stroke-linecap: square"/>
     </g>
     <g id="line2d_10"/>
    </g>
    <g id="xtick_6">
     <g id="line2d_11">
      <path d="M 403.166044 279.869273 
L 403.166044 3.00024 
" clip-path="url(#paf716d9ff7)" style="fill: none; stroke: #b0b0b0; stroke-width: 0.8; stroke-linecap: square"/>
     </g>
     <g id="line2d_12"/>
    </g>
    <g id="xtick_7">
     <g id="line2d_13">
      <path d="M 471.232093 279.869273 
L 471.232093 3.00024 
" clip-path="url(#paf716d9ff7)" style="fill: none; stroke: #b0b0b0; stroke-width: 0.8; stroke-linecap: square"/>
     </g>
     <g id="line2d_14"/>
    </g>
    <g id="xtick_8">
     <g id="line2d_15">
      <path d="M 96.86882 279.869273 
L 96.86882 3.00024 
" clip-path="url(#paf716d9ff7)" style="fill: none; stroke-dasharray: 0.5,0.825; stroke-dashoffset: 0; stroke: #bfbfbf; stroke-width: 0.5"/>
     </g>
     <g id="line2d_16"/>
    </g>
    <g id="xtick_9">
     <g id="line2d_17">
      <path d="M 164.93487 279.869273 
L 164.93487 3.00024 
" clip-path="url(#paf716d9ff7)" style="fill: none; stroke-dasharray: 0.5,0.825; stroke-dashoffset: 0; stroke: #bfbfbf; stroke-width: 0.5"/>
     </g>
     <g id="line2d_18"/>
    </g>
    <g id="xtick_10">
     <g id="line2d_19">
      <path d="M 233.00092 279.869273 
L 233.00092 3.00024 
" clip-path="url(#paf716d9ff7)" style="fill: none; stroke-dasharray: 0.5,0.825; stroke-dashoffset: 0; stroke: #bfbfbf; stroke-width: 0.5"/>
     </g>
     <g id="line2d_20"/>
    </g>
    <g id="xtick_11">
     <g id="line2d_21">
      <path d="M 301.066969 279.869273 
L 301.066969 3.00024 
" clip-path="url(#paf716d9ff7)" style="fill: none; stroke-dasharray: 0.5,0.825; stroke-dashoffset: 0; stroke: #bfbfbf; stroke-width: 0.5"/>
     </g>
     <g id="line2d_22"/>
    </g>
    <g id="xtick_12">
     <g id="line2d_23">
      <path d="M 369.133019 279.869273 
L 369.133019 3.00024 
" clip-path="url(#paf716d9ff7)" style="fill: none; stroke-dasharray: 0.5,0.825; stroke-dashoffset: 0; stroke: #bfbfbf; stroke-width: 0.5"/>
     </g>
     <g id="line2d_24"/>
    </g>
    <g id="xtick_13">
     <g id="line2d_25">
      <path d="M 437.199068 279.869273 
L 437.199068 3.00024 
" clip-path="url(#paf716d9ff7)" style="fill: none; stroke-dasharray: 0.5,0.825; stroke-dashoffset: 0; stroke: #bfbfbf; stroke-width: 0.5"/>
     </g>
     <g id="line2d_26"/>
    </g>
   </g>
   <g id="matplotlib.axis_2">
    <g id="ytick_1">
     <g id="line2d_27">
      <path d="M 55.178365 270.211051 
L 478.889524 270.211051 
" clip-path="url(#paf716d9ff7)" style="fill: none; stroke: #b0b0b0; stroke-width: 0.8; stroke-linecap: square"/>
     </g>
     <g id="line2d_28"/>
     <g id="text_1">
      <!-- −20 -->
      <g transform="translate(20.40024 277.154801) scale(0.2 -0.2)">
       <defs>
        <path id="TimesNewRomanPSMT-2212" d="M 3484 2000 
L 116 2000 
L 116 2256 
L 3484 2256 
L 3484 2000 
z
" transform="scale(0.015625)"/>
        <path id="TimesNewRomanPSMT-32" d="M 2934 816 
L 2638 0 
L 138 0 
L 138 116 
Q 1241 1122 1691 1759 
Q 2141 2397 2141 2925 
Q 2141 3328 1894 3587 
Q 1647 3847 1303 3847 
Q 991 3847 742 3664 
Q 494 3481 375 3128 
L 259 3128 
Q 338 3706 661 4015 
Q 984 4325 1469 4325 
Q 1984 4325 2329 3994 
Q 2675 3663 2675 3213 
Q 2675 2891 2525 2569 
Q 2294 2063 1775 1497 
Q 997 647 803 472 
L 1909 472 
Q 2247 472 2383 497 
Q 2519 522 2628 598 
Q 2738 675 2819 816 
L 2934 816 
z
" transform="scale(0.015625)"/>
        <path id="TimesNewRomanPSMT-30" d="M 231 2094 
Q 231 2819 450 3342 
Q 669 3866 1031 4122 
Q 1313 4325 1613 4325 
Q 2100 4325 2488 3828 
Q 2972 3213 2972 2159 
Q 2972 1422 2759 906 
Q 2547 391 2217 158 
Q 1888 -75 1581 -75 
Q 975 -75 572 641 
Q 231 1244 231 2094 
z
M 844 2016 
Q 844 1141 1059 588 
Q 1238 122 1591 122 
Q 1759 122 1940 273 
Q 2122 425 2216 781 
Q 2359 1319 2359 2297 
Q 2359 3022 2209 3506 
Q 2097 3866 1919 4016 
Q 1791 4119 1609 4119 
Q 1397 4119 1231 3928 
Q 1006 3669 925 3112 
Q 844 2556 844 2016 
z
" transform="scale(0.015625)"/>
       </defs>
       <use xlink:href="#TimesNewRomanPSMT-2212"/>
       <use xlink:href="#TimesNewRomanPSMT-32" transform="translate(56.396484 0)"/>
       <use xlink:href="#TimesNewRomanPSMT-30" transform="translate(106.396484 0)"/>
      </g>
     </g>
    </g>
    <g id="ytick_2">
     <g id="line2d_29">
      <path d="M 55.178365 205.822904 
L 478.889524 205.822904 
" clip-path="url(#paf716d9ff7)" style="fill: none; stroke: #b0b0b0; stroke-width: 0.8; stroke-linecap: square"/>
     </g>
     <g id="line2d_30"/>
     <g id="text_2">
      <!-- −10 -->
      <g transform="translate(20.40024 212.766654) scale(0.2 -0.2)">
       <defs>
        <path id="TimesNewRomanPSMT-31" d="M 750 3822 
L 1781 4325 
L 1884 4325 
L 1884 747 
Q 1884 391 1914 303 
Q 1944 216 2037 169 
Q 2131 122 2419 116 
L 2419 0 
L 825 0 
L 825 116 
Q 1125 122 1212 167 
Q 1300 213 1334 289 
Q 1369 366 1369 747 
L 1369 3034 
Q 1369 3497 1338 3628 
Q 1316 3728 1258 3775 
Q 1200 3822 1119 3822 
Q 1003 3822 797 3725 
L 750 3822 
z
" transform="scale(0.015625)"/>
       </defs>
       <use xlink:href="#TimesNewRomanPSMT-2212"/>
       <use xlink:href="#TimesNewRomanPSMT-31" transform="translate(56.396484 0)"/>
       <use xlink:href="#TimesNewRomanPSMT-30" transform="translate(106.396484 0)"/>
      </g>
     </g>
    </g>
    <g id="ytick_3">
     <g id="line2d_31">
      <path d="M 55.178365 141.434756 
L 478.889524 141.434756 
" clip-path="url(#paf716d9ff7)" style="fill: none; stroke: #b0b0b0; stroke-width: 0.8; stroke-linecap: square"/>
     </g>
     <g id="line2d_32"/>
     <g id="text_3">
      <!-- 0 -->
      <g transform="translate(41.678365 148.378506) scale(0.2 -0.2)">
       <use xlink:href="#TimesNewRomanPSMT-30"/>
      </g>
     </g>
    </g>
    <g id="ytick_4">
     <g id="line2d_33">
      <path d="M 55.178365 77.046609 
L 478.889524 77.046609 
" clip-path="url(#paf716d9ff7)" style="fill: none; stroke: #b0b0b0; stroke-width: 0.8; stroke-linecap: square"/>
     </g>
     <g id="line2d_34"/>
     <g id="text_4">
      <!-- 10 -->
      <g transform="translate(31.678365 83.990359) scale(0.2 -0.2)">
       <use xlink:href="#TimesNewRomanPSMT-31"/>
       <use xlink:href="#TimesNewRomanPSMT-30" transform="translate(50 0)"/>
      </g>
     </g>
    </g>
    <g id="ytick_5">
     <g id="line2d_35">
      <path d="M 55.178365 12.658462 
L 478.889524 12.658462 
" clip-path="url(#paf716d9ff7)" style="fill: none; stroke: #b0b0b0; stroke-width: 0.8; stroke-linecap: square"/>
     </g>
     <g id="line2d_36"/>
     <g id="text_5">
      <!-- 20 -->
      <g transform="translate(31.678365 19.602212) scale(0.2 -0.2)">
       <use xlink:href="#TimesNewRomanPSMT-32"/>
       <use xlink:href="#TimesNewRomanPSMT-30" transform="translate(50 0)"/>
      </g>
     </g>
    </g>
    <g id="ytick_6">
     <g id="line2d_37">
      <path d="M 55.178365 257.333421 
L 478.889524 257.333421 
" clip-path="url(#paf716d9ff7)" style="fill: none; stroke-dasharray: 0.5,0.825; stroke-dashoffset: 0; stroke: #bfbfbf; stroke-width: 0.5"/>
     </g>
     <g id="line2d_38"/>
    </g>
    <g id="ytick_7">
     <g id="line2d_39">
      <path d="M 55.178365 244.455792 
L 478.889524 244.455792 
" clip-path="url(#paf716d9ff7)" style="fill: none; stroke-dasharray: 0.5,0.825; stroke-dashoffset: 0; stroke: #bfbfbf; stroke-width: 0.5"/>
     </g>
     <g id="line2d_40"/>
    </g>
    <g id="ytick_8">
     <g id="line2d_41">
      <path d="M 55.178365 231.578163 
L 478.889524 231.578163 
" clip-path="url(#paf716d9ff7)" style="fill: none; stroke-dasharray: 0.5,0.825; stroke-dashoffset: 0; stroke: #bfbfbf; stroke-width: 0.5"/>
     </g>
     <g id="line2d_42"/>
    </g>
    <g id="ytick_9">
     <g id="line2d_43">
      <path d="M 55.178365 218.700533 
L 478.889524 218.700533 
" clip-path="url(#paf716d9ff7)" style="fill: none; stroke-dasharray: 0.5,0.825; stroke-dashoffset: 0; stroke: #bfbfbf; stroke-width: 0.5"/>
     </g>
     <g id="line2d_44"/>
    </g>
    <g id="ytick_10">
     <g id="line2d_45">
      <path d="M 55.178365 192.945274 
L 478.889524 192.945274 
" clip-path="url(#paf716d9ff7)" style="fill: none; stroke-dasharray: 0.5,0.825; stroke-dashoffset: 0; stroke: #bfbfbf; stroke-width: 0.5"/>
     </g>
     <g id="line2d_46"/>
    </g>
    <g id="ytick_11">
     <g id="line2d_47">
      <path d="M 55.178365 180.067645 
L 478.889524 180.067645 
" clip-path="url(#paf716d9ff7)" style="fill: none; stroke-dasharray: 0.5,0.825; stroke-dashoffset: 0; stroke: #bfbfbf; stroke-width: 0.5"/>
     </g>
     <g id="line2d_48"/>
    </g>
    <g id="ytick_12">
     <g id="line2d_49">
      <path d="M 55.178365 167.190015 
L 478.889524 167.190015 
" clip-path="url(#paf716d9ff7)" style="fill: none; stroke-dasharray: 0.5,0.825; stroke-dashoffset: 0; stroke: #bfbfbf; stroke-width: 0.5"/>
     </g>
     <g id="line2d_50"/>
    </g>
    <g id="ytick_13">
     <g id="line2d_51">
      <path d="M 55.178365 154.312386 
L 478.889524 154.312386 
" clip-path="url(#paf716d9ff7)" style="fill: none; stroke-dasharray: 0.5,0.825; stroke-dashoffset: 0; stroke: #bfbfbf; stroke-width: 0.5"/>
     </g>
     <g id="line2d_52"/>
    </g>
    <g id="ytick_14">
     <g id="line2d_53">
      <path d="M 55.178365 128.557127 
L 478.889524 128.557127 
" clip-path="url(#paf716d9ff7)" style="fill: none; stroke-dasharray: 0.5,0.825; stroke-dashoffset: 0; stroke: #bfbfbf; stroke-width: 0.5"/>
     </g>
     <g id="line2d_54"/>
    </g>
    <g id="ytick_15">
     <g id="line2d_55">
      <path d="M 55.178365 115.679498 
L 478.889524 115.679498 
" clip-path="url(#paf716d9ff7)" style="fill: none; stroke-dasharray: 0.5,0.825; stroke-dashoffset: 0; stroke: #bfbfbf; stroke-width: 0.5"/>
     </g>
     <g id="line2d_56"/>
    </g>
    <g id="ytick_16">
     <g id="line2d_57">
      <path d="M 55.178365 102.801868 
L 478.889524 102.801868 
" clip-path="url(#paf716d9ff7)" style="fill: none; stroke-dasharray: 0.5,0.825; stroke-dashoffset: 0; stroke: #bfbfbf; stroke-width: 0.5"/>
     </g>
     <g id="line2d_58"/>
    </g>
    <g id="ytick_17">
     <g id="line2d_59">
      <path d="M 55.178365 89.924239 
L 478.889524 89.924239 
" clip-path="url(#paf716d9ff7)" style="fill: none; stroke-dasharray: 0.5,0.825; stroke-dashoffset: 0; stroke: #bfbfbf; stroke-width: 0.5"/>
     </g>
     <g id="line2d_60"/>
    </g>
    <g id="ytick_18">
     <g id="line2d_61">
      <path d="M 55.178365 64.16898 
L 478.889524 64.16898 
" clip-path="url(#paf716d9ff7)" style="fill: none; stroke-dasharray: 0.5,0.825; stroke-dashoffset: 0; stroke: #bfbfbf; stroke-width: 0.5"/>
     </g>
     <g id="line2d_62"/>
    </g>
    <g id="ytick_19">
     <g id="line2d_63">
      <path d="M 55.178365 51.29135 
L 478.889524 51.29135 
" clip-path="url(#paf716d9ff7)" style="fill: none; stroke-dasharray: 0.5,0.825; stroke-dashoffset: 0; stroke: #bfbfbf; stroke-width: 0.5"/>
     </g>
     <g id="line2d_64"/>
    </g>
    <g id="ytick_20">
     <g id="line2d_65">
      <path d="M 55.178365 38.413721 
L 478.889524 38.413721 
" clip-path="url(#paf716d9ff7)" style="fill: none; stroke-dasharray: 0.5,0.825; stroke-dashoffset: 0; stroke: #bfbfbf; stroke-width: 0.5"/>
     </g>
     <g id="line2d_66"/>
    </g>
    <g id="ytick_21">
     <g id="line2d_67">
      <path d="M 55.178365 25.536092 
L 478.889524 25.536092 
" clip-path="url(#paf716d9ff7)" style="fill: none; stroke-dasharray: 0.5,0.825; stroke-dashoffset: 0; stroke: #bfbfbf; stroke-width: 0.5"/>
     </g>
     <g id="line2d_68"/>
    </g>
    <g id="text_6">
     <!-- $R_E$ -->
     <g transform="translate(3.00024 137.156631) scale(0.2 -0.2)">
      <defs>
       <path id="Cmmi10-52" d="M 313 0 
Q 250 0 250 84 
Q 253 100 262 139 
Q 272 178 289 201 
Q 306 225 331 225 
Q 722 225 878 269 
Q 959 297 997 441 
L 1875 3956 
Q 1888 4019 1888 4044 
Q 1888 4113 1813 4122 
Q 1691 4147 1350 4147 
Q 1288 4147 1288 4231 
Q 1291 4247 1300 4286 
Q 1309 4325 1326 4348 
Q 1344 4372 1369 4372 
L 3309 4372 
Q 3541 4372 3791 4319 
Q 4041 4266 4250 4152 
Q 4459 4038 4593 3848 
Q 4728 3659 4728 3406 
Q 4728 3084 4515 2831 
Q 4303 2578 3978 2408 
Q 3653 2238 3347 2169 
Q 3597 2078 3756 1879 
Q 3916 1681 3916 1422 
Q 3916 1388 3914 1370 
Q 3913 1353 3909 1331 
L 3859 763 
Q 3853 638 3847 550 
Q 3841 463 3841 409 
Q 3841 234 3892 129 
Q 3944 25 4097 25 
Q 4297 25 4448 211 
Q 4600 397 4647 616 
Q 4675 672 4709 672 
L 4769 672 
Q 4831 672 4831 588 
Q 4784 403 4682 237 
Q 4581 72 4426 -34 
Q 4272 -141 4091 -141 
Q 3716 -141 3452 26 
Q 3188 194 3188 550 
Q 3188 684 3213 788 
L 3353 1356 
Q 3378 1434 3378 1538 
Q 3378 1803 3198 1954 
Q 3019 2106 2747 2106 
L 1959 2106 
L 1538 416 
Q 1522 363 1522 325 
Q 1522 259 1600 250 
Q 1722 225 2059 225 
Q 2125 225 2125 141 
Q 2103 50 2090 25 
Q 2078 0 2016 0 
L 313 0 
z
M 1997 2272 
L 2706 2272 
Q 3403 2272 3756 2625 
Q 3919 2788 4014 3039 
Q 4109 3291 4109 3541 
Q 4109 3778 3970 3912 
Q 3831 4047 3626 4097 
Q 3422 4147 3175 4147 
L 2747 4147 
Q 2572 4147 2515 4117 
Q 2459 4088 2413 3928 
L 1997 2272 
z
" transform="scale(0.015625)"/>
       <path id="Cmmi10-45" d="M 300 0 
Q 238 0 238 84 
Q 241 100 250 139 
Q 259 178 276 201 
Q 294 225 319 225 
Q 709 225 863 269 
Q 947 297 984 441 
L 1863 3956 
Q 1875 4019 1875 4044 
Q 1875 4113 1797 4122 
Q 1678 4147 1338 4147 
Q 1275 4147 1275 4231 
Q 1278 4247 1287 4286 
Q 1297 4325 1314 4348 
Q 1331 4372 1356 4372 
L 4825 4372 
Q 4891 4372 4891 4288 
L 4738 2963 
Q 4738 2947 4714 2926 
Q 4691 2906 4672 2906 
L 4616 2906 
Q 4550 2906 4550 2988 
Q 4588 3300 4588 3450 
Q 4588 3706 4500 3848 
Q 4413 3991 4267 4053 
Q 4122 4116 3945 4131 
Q 3769 4147 3481 4147 
L 2753 4147 
Q 2578 4147 2522 4117 
Q 2466 4088 2419 3928 
L 2034 2381 
L 2534 2381 
Q 2859 2381 3025 2426 
Q 3191 2472 3287 2615 
Q 3384 2759 3463 3072 
Q 3469 3094 3486 3111 
Q 3503 3128 3525 3128 
L 3584 3128 
Q 3647 3128 3647 3047 
L 3250 1466 
Q 3238 1409 3188 1409 
L 3128 1409 
Q 3066 1409 3066 1491 
Q 3128 1747 3128 1869 
Q 3128 2056 2959 2106 
Q 2791 2156 2509 2156 
L 1978 2156 
L 1544 416 
Q 1516 338 1516 275 
Q 1516 225 1734 225 
L 2509 225 
Q 2972 225 3259 297 
Q 3547 369 3736 526 
Q 3925 684 4062 928 
Q 4200 1172 4397 1638 
Q 4409 1678 4453 1678 
L 4513 1678 
Q 4538 1678 4556 1656 
Q 4575 1634 4575 1606 
Q 4575 1594 4569 1581 
L 3909 38 
Q 3897 0 3859 0 
L 300 0 
z
" transform="scale(0.015625)"/>
      </defs>
      <use xlink:href="#Cmmi10-52" transform="translate(0 0.6875)"/>
      <use xlink:href="#Cmmi10-45" transform="translate(75.878906 -16.31875) scale(0.7)"/>
     </g>
    </g>
   </g>
   <g id="line2d_69">
    <path d="M 62.9776 135.975641 
L 90.20402 130.57657 
L 109.773009 126.905387 
L 126.222304 124.029395 
L 140.68634 121.719737 
L 153.165116 119.944213 
L 164.225849 118.587332 
L 174.152148 117.590541 
L 182.944012 116.929109 
L 190.601443 116.566292 
L 197.691656 116.453832 
L 203.931044 116.578608 
L 209.319606 116.898723 
L 214.140952 117.394998 
L 218.39508 118.039569 
L 222.365599 118.861514 
L 225.768902 119.779964 
L 228.888596 120.841665 
L 231.724681 122.038844 
L 234.277158 123.357365 
L 236.546026 124.774817 
L 238.531286 126.256474 
L 240.516546 128.02554 
L 242.218197 129.830543 
L 243.919848 131.967231 
L 245.6215 134.499041 
L 247.323151 137.452321 
L 249.875628 142.424473 
L 252.144496 146.700531 
L 253.846147 149.457351 
L 255.547799 151.774962 
L 257.24945 153.706256 
L 258.951101 155.321775 
L 260.936361 156.889846 
L 262.921621 158.189186 
L 265.190489 159.41685 
L 267.742966 160.540739 
L 270.579051 161.540052 
L 273.698745 162.402273 
L 277.102048 163.12034 
L 281.072567 163.726852 
L 285.610304 164.18093 
L 290.715257 164.452589 
L 296.387428 164.52184 
L 302.626816 164.375462 
L 309.71703 163.986395 
L 317.658069 163.329104 
L 326.733542 162.353212 
L 337.227058 160.992695 
L 349.422225 159.171743 
L 363.319044 156.860369 
L 379.768339 153.887361 
L 400.188154 149.952617 
L 427.698182 144.405522 
L 471.090289 135.530841 
L 471.090289 135.530841 
" clip-path="url(#paf716d9ff7)" style="fill: none; stroke: #ff0000; stroke-width: 2; stroke-linecap: square"/>
   </g>
   <g id="line2d_70">
    <path d="M 62.9776 136.254382 
L 90.771237 130.726416 
L 110.907443 126.940796 
L 127.640347 124.015479 
L 141.820774 121.753744 
L 154.29955 119.981749 
L 165.360283 118.632033 
L 175.002973 117.671499 
L 183.794838 117.018271 
L 191.452268 116.667656 
L 198.258873 116.571068 
L 204.498261 116.70663 
L 209.886824 117.04118 
L 214.708169 117.556215 
L 218.962297 118.223952 
L 222.932816 119.075756 
L 226.336119 120.028865 
L 230.02303 121.298115 
L 232.859115 122.585271 
L 235.411592 124.010601 
L 237.68046 125.552478 
L 239.66572 127.175245 
L 241.367372 128.824384 
L 243.069023 130.771562 
L 244.770674 133.082303 
L 246.472325 135.81042 
L 248.457585 139.490966 
L 252.428105 147.08463 
L 254.129756 149.787408 
L 255.831407 152.056448 
L 257.533058 153.949382 
L 259.23471 155.536036 
L 261.219969 157.079839 
L 263.488838 158.527581 
L 265.757706 159.712875 
L 268.310183 160.801826 
L 271.146268 161.77327 
L 274.265962 162.613805 
L 277.952873 163.365339 
L 281.923393 163.944272 
L 286.461129 164.376027 
L 291.566083 164.630796 
L 297.238254 164.687832 
L 303.76125 164.521762 
L 311.135072 164.099387 
L 319.35972 163.397919 
L 328.718802 162.368737 
L 339.212318 160.987365 
L 351.407485 159.149667 
L 365.304304 156.825355 
L 381.753599 153.842228 
L 401.889805 149.955322 
L 429.683442 144.344668 
L 471.090289 135.864444 
L 471.090289 135.864444 
" clip-path="url(#paf716d9ff7)" style="fill: none; stroke-dasharray: 11.1,4.8; stroke-dashoffset: 0; stroke: #ff0000; stroke-width: 3"/>
   </g>
   <g id="line2d_71">
    <path d="M 62.9776 211.069731 
L 71.769465 210.690054 
L 80.561329 210.088382 
L 89.353194 209.260986 
L 97.86145 208.240579 
L 106.369706 206.997975 
L 114.877963 205.526109 
L 123.10261 203.877175 
L 131.327258 201.996258 
L 139.268297 199.950683 
L 146.925728 197.752278 
L 154.583158 195.318452 
L 161.95698 192.737539 
L 169.047194 190.020542 
L 175.853799 187.178167 
L 182.376795 184.220609 
L 188.899792 181.013292 
L 194.855571 177.845047 
L 200.81135 174.423012 
L 206.483521 170.900328 
L 211.872083 167.285474 
L 216.977037 163.587035 
L 221.798382 159.8148 
L 226.336119 155.98058 
L 230.590247 152.101641 
L 234.844375 147.916708 
L 239.382112 143.117973 
L 245.337891 136.786439 
L 247.039542 135.355701 
L 248.173976 134.667447 
L 249.308411 134.272123 
L 250.159236 134.193149 
L 251.010062 134.300672 
L 252.144496 134.704395 
L 253.27893 135.347211 
L 254.980581 136.615751 
L 257.533058 138.878779 
L 270.295443 150.65158 
L 275.400396 154.887483 
L 280.50535 158.832042 
L 285.893912 162.711588 
L 291.566083 166.514006 
L 297.521862 170.230013 
L 303.76125 173.851024 
L 310.000638 177.22117 
L 316.523635 180.500766 
L 323.33024 183.679711 
L 330.420453 186.747917 
L 337.794275 189.694875 
L 345.451706 192.509894 
L 353.109136 195.090706 
L 361.050175 197.533518 
L 368.991215 199.750803 
L 377.215862 201.820095 
L 385.724118 203.727666 
L 394.232375 205.406686 
L 403.024239 206.909138 
L 411.816104 208.181418 
L 420.607969 209.228787 
L 429.399834 210.054667 
L 438.475307 210.677836 
L 447.267172 211.061047 
L 456.059036 211.228015 
L 464.850901 211.178352 
L 471.090289 211.011076 
L 471.090289 211.011076 
" clip-path="url(#paf716d9ff7)" style="fill: none; stroke: #008000; stroke-width: 2; stroke-linecap: square"/>
   </g>
   <g id="line2d_72">
    <path d="M 62.9776 211.078545 
L 71.769465 210.703368 
L 80.561329 210.106085 
L 89.353194 209.282721 
L 97.86145 208.265788 
L 106.369706 207.02639 
L 114.877963 205.557302 
L 123.10261 203.910612 
L 131.043649 202.100337 
L 138.984689 200.063196 
L 146.642119 197.872505 
L 154.29955 195.446369 
L 161.673372 192.872912 
L 168.763585 190.163091 
L 175.57019 187.327581 
L 182.093187 184.376846 
L 188.332575 181.321238 
L 194.571962 178.014995 
L 200.527742 174.599881 
L 206.199913 171.084218 
L 211.588475 167.476384 
L 216.693429 163.785135 
L 221.514774 160.020214 
L 226.05251 156.193557 
L 232.291898 150.56426 
L 236.546026 146.249632 
L 241.65098 140.720718 
L 245.054283 137.124856 
L 246.755934 135.616596 
L 247.890368 134.849692 
L 249.024802 134.357271 
L 249.875628 134.200131 
L 250.726453 134.232059 
L 251.860887 134.548013 
L 252.995322 135.123026 
L 254.413364 136.103405 
L 256.398624 137.768311 
L 260.369144 141.481263 
L 267.175749 147.814986 
L 272.280702 152.237121 
L 277.385656 156.35543 
L 282.49061 160.194501 
L 287.879172 163.975239 
L 293.551343 167.685868 
L 299.507122 171.3164 
L 305.74651 174.857623 
L 312.269507 178.30057 
L 319.076111 181.636235 
L 326.166325 184.855402 
L 333.256538 187.834134 
L 340.630361 190.695144 
L 348.287791 193.427228 
L 356.22883 196.018816 
L 364.169869 198.377762 
L 372.394517 200.587802 
L 380.619165 202.570969 
L 389.127421 204.393061 
L 397.635677 205.989692 
L 406.427542 207.409598 
L 415.219407 208.601494 
L 424.011271 209.569867 
L 432.803136 210.318047 
L 441.595001 210.848297 
L 450.386866 211.161873 
L 459.17873 211.259051 
L 467.970595 211.139143 
L 471.090289 211.044127 
L 471.090289 211.044127 
" clip-path="url(#paf716d9ff7)" style="fill: none; stroke-dasharray: 11.1,4.8; stroke-dashoffset: 0; stroke: #008000; stroke-width: 3"/>
   </g>
   <g id="line2d_73">
    <path d="M 62.9776 173.142753 
L 76.023593 172.129708 
L 89.353194 170.868223 
L 102.399187 169.410593 
L 115.44518 167.728447 
L 128.207564 165.859745 
L 140.68634 163.808824 
L 152.881507 161.581342 
L 164.793066 159.181534 
L 176.421016 156.610212 
L 187.481749 153.937939 
L 197.975265 151.181128 
L 208.185172 148.274377 
L 218.39508 145.134226 
L 230.02303 141.308106 
L 238.814895 138.473299 
L 242.218197 137.607362 
L 244.487065 137.260121 
L 246.188717 137.225878 
L 247.606759 137.419138 
L 249.024802 137.863676 
L 250.442845 138.563176 
L 252.144496 139.660059 
L 256.115016 142.601871 
L 260.085535 145.403543 
L 263.772446 147.729 
L 267.742966 149.964559 
L 271.997094 152.10477 
L 276.818439 154.271782 
L 282.207001 156.430418 
L 287.879172 158.45721 
L 294.11856 160.446652 
L 300.925165 162.376731 
L 308.298987 164.228073 
L 316.240026 165.983409 
L 324.748282 167.626589 
L 333.823756 169.14257 
L 343.466446 170.51641 
L 353.392745 171.702987 
L 363.602652 172.705431 
L 374.663385 173.563614 
L 386.007727 174.217172 
L 397.919286 174.675893 
L 410.114453 174.918579 
L 422.30962 174.942301 
L 435.072004 174.742825 
L 447.834389 174.322261 
L 460.880381 173.669715 
L 471.090289 173.004852 
L 471.090289 173.004852 
" clip-path="url(#paf716d9ff7)" style="fill: none; stroke: #0000ff; stroke-width: 2; stroke-linecap: square"/>
   </g>
   <g id="line2d_74">
    <path d="M 62.9776 173.163411 
L 76.023593 172.152181 
L 89.069586 170.921166 
L 102.115578 169.468811 
L 115.161571 167.791382 
L 127.923956 165.926754 
L 140.402731 163.881667 
L 152.597898 161.660902 
L 164.509457 159.267289 
L 176.137407 156.701672 
L 187.19814 154.034445 
L 197.975265 151.20436 
L 208.185172 148.294703 
L 218.39508 145.150091 
L 241.934589 137.720533 
L 244.203457 137.326714 
L 245.905108 137.237313 
L 247.323151 137.368732 
L 248.741194 137.741817 
L 250.159236 138.373423 
L 251.860887 139.411596 
L 254.696973 141.467013 
L 259.518318 144.92697 
L 263.205229 147.284469 
L 267.175749 149.551083 
L 271.429877 151.719384 
L 276.251222 153.913158 
L 281.356176 155.988223 
L 287.028346 158.049598 
L 293.267734 160.071645 
L 300.074339 162.032685 
L 307.448161 163.913788 
L 315.105592 165.638108 
L 323.33024 167.264909 
L 332.122104 168.777783 
L 341.481186 170.161019 
L 351.407485 171.399268 
L 361.901001 172.477273 
L 372.678126 173.359294 
L 384.022467 174.061097 
L 395.650417 174.556415 
L 407.561976 174.843396 
L 419.757143 174.918553 
L 432.235919 174.776821 
L 444.998303 174.411548 
L 458.044296 173.814405 
L 471.090289 172.995462 
L 471.090289 172.995462 
" clip-path="url(#paf716d9ff7)" style="fill: none; stroke-dasharray: 11.1,4.8; stroke-dashoffset: 0; stroke: #0000ff; stroke-width: 3"/>
   </g>
   <g id="line2d_75">
    <path d="M 62.9776 64.727424 
L 72.336682 65.233447 
L 81.695763 65.964259 
L 90.771237 66.891106 
L 99.84671 68.037599 
L 108.922183 69.409828 
L 117.714048 70.961626 
L 126.222304 72.679739 
L 134.73056 74.620163 
L 143.238817 76.794146 
L 151.463464 79.130679 
L 159.404503 81.619961 
L 167.061934 84.252975 
L 174.435756 87.021269 
L 181.52597 89.916878 
L 188.332575 92.932262 
L 194.855571 96.060561 
L 201.094959 99.295092 
L 207.050738 102.629756 
L 212.722909 106.058297 
L 218.111471 109.574464 
L 223.216425 113.170618 
L 228.03777 116.835927 
L 233.709941 121.454008 
L 238.814895 126.00394 
L 244.487065 131.062896 
L 246.188717 132.310943 
L 247.606759 133.074704 
L 248.741194 133.417919 
L 249.592019 133.486505 
L 250.442845 133.385411 
L 251.577279 133.003487 
L 252.711713 132.387023 
L 254.413364 131.158889 
L 256.965841 128.964234 
L 267.459357 119.632287 
L 272.280702 115.761662 
L 277.102048 112.174293 
L 282.207001 108.651091 
L 287.595564 105.202694 
L 293.267734 101.837024 
L 299.223514 98.560863 
L 305.462902 95.381065 
L 311.985898 92.304221 
L 318.792503 89.337549 
L 325.882716 86.488297 
L 333.256538 83.764378 
L 340.913969 81.173947 
L 348.855008 78.725797 
L 357.079656 76.429289 
L 365.304304 74.361663 
L 373.81256 72.450848 
L 382.604424 70.708459 
L 391.396289 69.191971 
L 400.471762 67.854174 
L 409.547236 66.741156 
L 418.622709 65.846827 
L 427.981791 65.148979 
L 437.340873 64.675346 
L 446.699954 64.423368 
L 456.059036 64.391876 
L 465.418118 64.58071 
L 471.090289 64.802641 
L 471.090289 64.802641 
" clip-path="url(#paf716d9ff7)" style="fill: none; stroke: #000000; stroke-width: 2; stroke-linecap: square"/>
   </g>
   <g id="line2d_76">
    <path d="M 63.652588 257.71975 
L 80.601035 257.71975 
" style="fill: none; stroke: #000000; stroke-width: 2"/>
   </g>
   <g id="text_7">
    <g id="patch_3">
     <path d="M 84.838146 267.53186 
L 91.738146 267.53186 
Q 94.738146 267.53186 94.738146 264.53186 
L 94.738146 250.907641 
Q 94.738146 247.907641 91.738146 247.907641 
L 84.838146 247.907641 
Q 81.838146 247.907641 81.838146 250.907641 
L 81.838146 264.53186 
Q 81.838146 267.53186 84.838146 267.53186 
z
" style="fill: #ffffff"/>
    </g>
    <!-- $\overline{r}$ -->
    <g transform="translate(84.838146 261.323266) scale(0.15 -0.15)">
     <defs>
      <path id="Cmmi10-72" d="M 494 109 
Q 494 147 500 166 
L 978 2075 
Q 1025 2253 1025 2388 
Q 1025 2663 838 2663 
Q 638 2663 541 2423 
Q 444 2184 353 1819 
Q 353 1800 334 1789 
Q 316 1778 300 1778 
L 225 1778 
Q 203 1778 187 1801 
Q 172 1825 172 1844 
Q 241 2122 305 2315 
Q 369 2509 505 2668 
Q 641 2828 844 2828 
Q 1066 2828 1233 2700 
Q 1400 2572 1441 2363 
Q 1603 2575 1811 2701 
Q 2019 2828 2266 2828 
Q 2469 2828 2623 2709 
Q 2778 2591 2778 2388 
Q 2778 2225 2676 2104 
Q 2575 1984 2406 1984 
Q 2303 1984 2233 2048 
Q 2163 2113 2163 2216 
Q 2163 2356 2266 2467 
Q 2369 2578 2503 2578 
Q 2400 2663 2253 2663 
Q 1978 2663 1775 2467 
Q 1572 2272 1409 1972 
L 953 141 
Q 931 53 854 -9 
Q 778 -72 684 -72 
Q 606 -72 550 -22 
Q 494 28 494 109 
z
" transform="scale(0.015625)"/>
     </defs>
     <use xlink:href="#Cmmi10-72" transform="translate(0 0.5625)"/>
     <path d="M 0 56.5 
L 0 62.75 
L 45.117188 62.75 
L 45.117188 56.5 
L 0 56.5 
z
"/>
    </g>
   </g>
   <g id="legend_1">
    <g id="patch_4">
     <path d="M 72.787069 61.734071 
L 461.280819 61.734071 
Q 464.280819 61.734071 464.280819 58.734071 
L 464.280819 8.902821 
Q 464.280819 5.902821 461.280819 5.902821 
L 72.787069 5.902821 
Q 69.787069 5.902821 69.787069 8.902821 
L 69.787069 58.734071 
Q 69.787069 61.734071 72.787069 61.734071 
z
" style="fill: #ffffff; opacity: 0.8; stroke: #cccccc; stroke-linejoin: miter"/>
    </g>
    <g id="line2d_77">
     <path d="M 75.787069 20.540321 
L 87.037069 20.540321 
L 98.287069 20.540321 
" style="fill: none; stroke: #ff0000; stroke-width: 2; stroke-linecap: square"/>
    </g>
    <g id="text_8">
     <!-- SSCWeb/X -->
     <g transform="translate(105.787069 25.790321) scale(0.2 -0.2)">
      <defs>
       <path id="TimesNewRomanPSMT-53" d="M 2934 4334 
L 2934 2869 
L 2819 2869 
Q 2763 3291 2617 3541 
Q 2472 3791 2203 3937 
Q 1934 4084 1647 4084 
Q 1322 4084 1109 3886 
Q 897 3688 897 3434 
Q 897 3241 1031 3081 
Q 1225 2847 1953 2456 
Q 2547 2138 2764 1967 
Q 2981 1797 3098 1565 
Q 3216 1334 3216 1081 
Q 3216 600 2842 251 
Q 2469 -97 1881 -97 
Q 1697 -97 1534 -69 
Q 1438 -53 1133 45 
Q 828 144 747 144 
Q 669 144 623 97 
Q 578 50 556 -97 
L 441 -97 
L 441 1356 
L 556 1356 
Q 638 900 775 673 
Q 913 447 1195 297 
Q 1478 147 1816 147 
Q 2206 147 2432 353 
Q 2659 559 2659 841 
Q 2659 997 2573 1156 
Q 2488 1316 2306 1453 
Q 2184 1547 1640 1851 
Q 1097 2156 867 2337 
Q 638 2519 519 2737 
Q 400 2956 400 3219 
Q 400 3675 750 4004 
Q 1100 4334 1641 4334 
Q 1978 4334 2356 4169 
Q 2531 4091 2603 4091 
Q 2684 4091 2736 4139 
Q 2788 4188 2819 4334 
L 2934 4334 
z
" transform="scale(0.015625)"/>
       <path id="TimesNewRomanPSMT-43" d="M 3853 4334 
L 3950 2894 
L 3853 2894 
Q 3659 3541 3300 3825 
Q 2941 4109 2438 4109 
Q 2016 4109 1675 3895 
Q 1334 3681 1139 3212 
Q 944 2744 944 2047 
Q 944 1472 1128 1050 
Q 1313 628 1683 403 
Q 2053 178 2528 178 
Q 2941 178 3256 354 
Q 3572 531 3950 1056 
L 4047 994 
Q 3728 428 3303 165 
Q 2878 -97 2294 -97 
Q 1241 -97 663 684 
Q 231 1266 231 2053 
Q 231 2688 515 3219 
Q 800 3750 1298 4042 
Q 1797 4334 2388 4334 
Q 2847 4334 3294 4109 
Q 3425 4041 3481 4041 
Q 3566 4041 3628 4100 
Q 3709 4184 3744 4334 
L 3853 4334 
z
" transform="scale(0.015625)"/>
       <path id="TimesNewRomanPSMT-57" d="M 5991 4238 
L 5991 4122 
Q 5825 4122 5722 4062 
Q 5619 4003 5525 3841 
Q 5463 3731 5328 3319 
L 4147 -97 
L 4022 -97 
L 3056 2613 
L 2097 -97 
L 1984 -97 
L 725 3422 
Q 584 3816 547 3888 
Q 484 4006 376 4064 
Q 269 4122 84 4122 
L 84 4238 
L 1653 4238 
L 1653 4122 
L 1578 4122 
Q 1413 4122 1325 4047 
Q 1238 3972 1238 3866 
Q 1238 3756 1375 3363 
L 2209 984 
L 2913 3006 
L 2788 3363 
L 2688 3647 
Q 2622 3803 2541 3922 
Q 2500 3981 2441 4022 
Q 2363 4078 2284 4103 
Q 2225 4122 2097 4122 
L 2097 4238 
L 3747 4238 
L 3747 4122 
L 3634 4122 
Q 3459 4122 3378 4047 
Q 3297 3972 3297 3844 
Q 3297 3684 3438 3288 
L 4250 984 
L 5056 3319 
Q 5194 3706 5194 3856 
Q 5194 3928 5148 3990 
Q 5103 4053 5034 4078 
Q 4916 4122 4725 4122 
L 4725 4238 
L 5991 4238 
z
" transform="scale(0.015625)"/>
       <path id="TimesNewRomanPSMT-65" d="M 681 1784 
Q 678 1147 991 784 
Q 1303 422 1725 422 
Q 2006 422 2214 576 
Q 2422 731 2563 1106 
L 2659 1044 
Q 2594 616 2278 264 
Q 1963 -88 1488 -88 
Q 972 -88 605 314 
Q 238 716 238 1394 
Q 238 2128 614 2539 
Q 991 2950 1559 2950 
Q 2041 2950 2350 2633 
Q 2659 2316 2659 1784 
L 681 1784 
z
M 681 1966 
L 2006 1966 
Q 1991 2241 1941 2353 
Q 1863 2528 1708 2628 
Q 1553 2728 1384 2728 
Q 1125 2728 920 2526 
Q 716 2325 681 1966 
z
" transform="scale(0.015625)"/>
       <path id="TimesNewRomanPSMT-62" d="M 984 2369 
Q 1400 2947 1881 2947 
Q 2322 2947 2650 2570 
Q 2978 2194 2978 1541 
Q 2978 778 2472 313 
Q 2038 -88 1503 -88 
Q 1253 -88 995 3 
Q 738 94 469 275 
L 469 3241 
Q 469 3728 445 3840 
Q 422 3953 372 3993 
Q 322 4034 247 4034 
Q 159 4034 28 3984 
L -16 4094 
L 844 4444 
L 984 4444 
L 984 2369 
z
M 984 2169 
L 984 456 
Q 1144 300 1314 220 
Q 1484 141 1663 141 
Q 1947 141 2192 453 
Q 2438 766 2438 1363 
Q 2438 1913 2192 2208 
Q 1947 2503 1634 2503 
Q 1469 2503 1303 2419 
Q 1178 2356 984 2169 
z
" transform="scale(0.015625)"/>
       <path id="TimesNewRomanPSMT-2f" d="M 1794 4444 
L 259 -88 
L 9 -88 
L 1544 4444 
L 1794 4444 
z
" transform="scale(0.015625)"/>
       <path id="TimesNewRomanPSMT-58" d="M 2613 2347 
L 3522 991 
Q 3900 428 4083 279 
Q 4266 131 4547 116 
L 4547 0 
L 2728 0 
L 2728 116 
Q 2909 119 2997 153 
Q 3063 181 3105 239 
Q 3147 297 3147 356 
Q 3147 428 3119 500 
Q 3097 553 2947 775 
L 2228 1863 
L 1341 725 
Q 1200 544 1172 483 
Q 1144 422 1144 356 
Q 1144 256 1228 190 
Q 1313 125 1550 116 
L 1550 0 
L 47 0 
L 47 116 
Q 206 131 322 181 
Q 516 263 691 400 
Q 866 538 1091 822 
L 2091 2084 
L 1256 3306 
Q 916 3803 678 3958 
Q 441 4113 131 4122 
L 131 4238 
L 2091 4238 
L 2091 4122 
Q 1841 4113 1748 4041 
Q 1656 3969 1656 3881 
Q 1656 3766 1806 3544 
L 2456 2572 
L 3209 3525 
Q 3341 3694 3370 3756 
Q 3400 3819 3400 3884 
Q 3400 3950 3363 4000 
Q 3316 4066 3244 4092 
Q 3172 4119 2947 4122 
L 2947 4238 
L 4450 4238 
L 4450 4122 
Q 4272 4113 4159 4066 
Q 3991 3994 3850 3872 
Q 3709 3750 3453 3422 
L 2613 2347 
z
" transform="scale(0.015625)"/>
      </defs>
      <use xlink:href="#TimesNewRomanPSMT-53"/>
      <use xlink:href="#TimesNewRomanPSMT-53" transform="translate(55.615234 0)"/>
      <use xlink:href="#TimesNewRomanPSMT-43" transform="translate(111.230469 0)"/>
      <use xlink:href="#TimesNewRomanPSMT-57" transform="translate(177.929688 0)"/>
      <use xlink:href="#TimesNewRomanPSMT-65" transform="translate(264.314453 0)"/>
      <use xlink:href="#TimesNewRomanPSMT-62" transform="translate(308.699219 0)"/>
      <use xlink:href="#TimesNewRomanPSMT-2f" transform="translate(358.699219 0)"/>
      <use xlink:href="#TimesNewRomanPSMT-58" transform="translate(386.482422 0)"/>
     </g>
    </g>
    <g id="line2d_78">
     <path d="M 75.787069 46.205946 
L 87.037069 46.205946 
L 98.287069 46.205946 
" style="fill: none; stroke-dasharray: 11.1,4.8; stroke-dashoffset: 0; stroke: #ff0000; stroke-width: 3"/>
    </g>
    <g id="text_9">
     <!-- JPL/X -->
     <g transform="translate(105.787069 51.455946) scale(0.2 -0.2)">
      <defs>
       <path id="TimesNewRomanPSMT-4a" d="M 638 4122 
L 638 4238 
L 2453 4238 
L 2453 4122 
L 2300 4122 
Q 2041 4122 1922 3969 
Q 1847 3869 1847 3488 
L 1847 1416 
Q 1847 938 1742 641 
Q 1638 344 1381 123 
Q 1125 -97 763 -97 
Q 469 -97 300 48 
Q 131 194 131 381 
Q 131 534 209 613 
Q 313 709 450 709 
Q 550 709 629 643 
Q 709 578 831 294 
Q 903 125 1016 125 
Q 1100 125 1173 228 
Q 1247 331 1247 594 
L 1247 3488 
Q 1247 3809 1206 3913 
Q 1175 3991 1075 4047 
Q 941 4122 791 4122 
L 638 4122 
z
" transform="scale(0.015625)"/>
       <path id="TimesNewRomanPSMT-50" d="M 1313 1984 
L 1313 750 
Q 1313 350 1400 253 
Q 1519 116 1759 116 
L 1922 116 
L 1922 0 
L 106 0 
L 106 116 
L 266 116 
Q 534 116 650 291 
Q 713 388 713 750 
L 713 3488 
Q 713 3888 628 3984 
Q 506 4122 266 4122 
L 106 4122 
L 106 4238 
L 1659 4238 
Q 2228 4238 2556 4120 
Q 2884 4003 3109 3725 
Q 3334 3447 3334 3066 
Q 3334 2547 2992 2222 
Q 2650 1897 2025 1897 
Q 1872 1897 1694 1919 
Q 1516 1941 1313 1984 
z
M 1313 2163 
Q 1478 2131 1606 2115 
Q 1734 2100 1825 2100 
Q 2150 2100 2386 2351 
Q 2622 2603 2622 3003 
Q 2622 3278 2509 3514 
Q 2397 3750 2190 3867 
Q 1984 3984 1722 3984 
Q 1563 3984 1313 3925 
L 1313 2163 
z
" transform="scale(0.015625)"/>
       <path id="TimesNewRomanPSMT-4c" d="M 3669 1172 
L 3772 1150 
L 3409 0 
L 128 0 
L 128 116 
L 288 116 
Q 556 116 672 291 
Q 738 391 738 753 
L 738 3488 
Q 738 3884 650 3984 
Q 528 4122 288 4122 
L 128 4122 
L 128 4238 
L 2047 4238 
L 2047 4122 
Q 1709 4125 1573 4059 
Q 1438 3994 1388 3894 
Q 1338 3794 1338 3416 
L 1338 753 
Q 1338 494 1388 397 
Q 1425 331 1503 300 
Q 1581 269 1991 269 
L 2300 269 
Q 2788 269 2984 341 
Q 3181 413 3343 595 
Q 3506 778 3669 1172 
z
" transform="scale(0.015625)"/>
      </defs>
      <use xlink:href="#TimesNewRomanPSMT-4a"/>
      <use xlink:href="#TimesNewRomanPSMT-50" transform="translate(38.916016 0)"/>
      <use xlink:href="#TimesNewRomanPSMT-4c" transform="translate(94.53125 0)"/>
      <use xlink:href="#TimesNewRomanPSMT-2f" transform="translate(155.615234 0)"/>
      <use xlink:href="#TimesNewRomanPSMT-58" transform="translate(183.398438 0)"/>
     </g>
    </g>
    <g id="line2d_79">
     <path d="M 207.277694 20.540321 
L 218.527694 20.540321 
L 229.777694 20.540321 
" style="fill: none; stroke: #008000; stroke-width: 2; stroke-linecap: square"/>
    </g>
    <g id="text_10">
     <!-- SSCWeb/Y -->
     <g transform="translate(237.277694 25.790321) scale(0.2 -0.2)">
      <defs>
       <path id="TimesNewRomanPSMT-59" d="M 3050 4238 
L 4528 4238 
L 4528 4122 
L 4447 4122 
Q 4366 4122 4209 4050 
Q 4053 3978 3925 3843 
Q 3797 3709 3609 3406 
L 2588 1797 
L 2588 734 
Q 2588 344 2675 247 
Q 2794 116 3050 116 
L 3188 116 
L 3188 0 
L 1388 0 
L 1388 116 
L 1538 116 
Q 1806 116 1919 278 
Q 1988 378 1988 734 
L 1988 1738 
L 825 3513 
Q 619 3825 545 3903 
Q 472 3981 241 4091 
Q 178 4122 59 4122 
L 59 4238 
L 1872 4238 
L 1872 4122 
L 1778 4122 
Q 1631 4122 1507 4053 
Q 1384 3984 1384 3847 
Q 1384 3734 1575 3441 
L 2459 2075 
L 3291 3381 
Q 3478 3675 3478 3819 
Q 3478 3906 3433 3975 
Q 3388 4044 3303 4083 
Q 3219 4122 3050 4122 
L 3050 4238 
z
" transform="scale(0.015625)"/>
      </defs>
      <use xlink:href="#TimesNewRomanPSMT-53"/>
      <use xlink:href="#TimesNewRomanPSMT-53" transform="translate(55.615234 0)"/>
      <use xlink:href="#TimesNewRomanPSMT-43" transform="translate(111.230469 0)"/>
      <use xlink:href="#TimesNewRomanPSMT-57" transform="translate(177.929688 0)"/>
      <use xlink:href="#TimesNewRomanPSMT-65" transform="translate(264.314453 0)"/>
      <use xlink:href="#TimesNewRomanPSMT-62" transform="translate(308.699219 0)"/>
      <use xlink:href="#TimesNewRomanPSMT-2f" transform="translate(358.699219 0)"/>
      <use xlink:href="#TimesNewRomanPSMT-59" transform="translate(386.482422 0)"/>
     </g>
    </g>
    <g id="line2d_80">
     <path d="M 207.277694 46.205946 
L 218.527694 46.205946 
L 229.777694 46.205946 
" style="fill: none; stroke-dasharray: 11.1,4.8; stroke-dashoffset: 0; stroke: #008000; stroke-width: 3"/>
    </g>
    <g id="text_11">
     <!-- JPL/Y -->
     <g transform="translate(237.277694 51.455946) scale(0.2 -0.2)">
      <use xlink:href="#TimesNewRomanPSMT-4a"/>
      <use xlink:href="#TimesNewRomanPSMT-50" transform="translate(38.916016 0)"/>
      <use xlink:href="#TimesNewRomanPSMT-4c" transform="translate(94.53125 0)"/>
      <use xlink:href="#TimesNewRomanPSMT-2f" transform="translate(155.615234 0)"/>
      <use xlink:href="#TimesNewRomanPSMT-59" transform="translate(183.398438 0)"/>
     </g>
    </g>
    <g id="line2d_81">
     <path d="M 338.768319 20.540321 
L 350.018319 20.540321 
L 361.268319 20.540321 
" style="fill: none; stroke: #0000ff; stroke-width: 2; stroke-linecap: square"/>
    </g>
    <g id="text_12">
     <!-- SSCWeb/Z -->
     <g transform="translate(368.768319 25.790321) scale(0.2 -0.2)">
      <defs>
       <path id="TimesNewRomanPSMT-5a" d="M 3681 4238 
L 897 256 
L 2634 256 
Q 3034 256 3248 431 
Q 3463 606 3628 1141 
L 3731 1122 
L 3531 0 
L 81 0 
L 81 116 
L 2800 3984 
L 1444 3984 
Q 1106 3984 954 3911 
Q 803 3838 723 3698 
Q 644 3559 578 3178 
L 459 3178 
L 547 4238 
L 3681 4238 
z
" transform="scale(0.015625)"/>
      </defs>
      <use xlink:href="#TimesNewRomanPSMT-53"/>
      <use xlink:href="#TimesNewRomanPSMT-53" transform="translate(55.615234 0)"/>
      <use xlink:href="#TimesNewRomanPSMT-43" transform="translate(111.230469 0)"/>
      <use xlink:href="#TimesNewRomanPSMT-57" transform="translate(177.929688 0)"/>
      <use xlink:href="#TimesNewRomanPSMT-65" transform="translate(264.314453 0)"/>
      <use xlink:href="#TimesNewRomanPSMT-62" transform="translate(308.699219 0)"/>
      <use xlink:href="#TimesNewRomanPSMT-2f" transform="translate(358.699219 0)"/>
      <use xlink:href="#TimesNewRomanPSMT-5a" transform="translate(386.482422 0)"/>
     </g>
    </g>
    <g id="line2d_82">
     <path d="M 338.768319 46.205946 
L 350.018319 46.205946 
L 361.268319 46.205946 
" style="fill: none; stroke-dasharray: 11.1,4.8; stroke-dashoffset: 0; stroke: #0000ff; stroke-width: 3"/>
    </g>
    <g id="text_13">
     <!-- JPL/Z -->
     <g transform="translate(368.768319 51.455946) scale(0.2 -0.2)">
      <use xlink:href="#TimesNewRomanPSMT-4a"/>
      <use xlink:href="#TimesNewRomanPSMT-50" transform="translate(38.916016 0)"/>
      <use xlink:href="#TimesNewRomanPSMT-4c" transform="translate(94.53125 0)"/>
      <use xlink:href="#TimesNewRomanPSMT-2f" transform="translate(155.615234 0)"/>
      <use xlink:href="#TimesNewRomanPSMT-5a" transform="translate(183.398438 0)"/>
     </g>
    </g>
   </g>
  </g>
  <g id="axes_2">
   <g id="patch_5">
    <path d="M 55.178365 600.690223 
L 478.889524 600.690223 
L 478.889524 323.82119 
L 55.178365 323.82119 
z
" style="fill: #ffffff"/>
   </g>
   <g id="matplotlib.axis_3">
    <g id="xtick_14">
     <g id="line2d_83">
      <path d="M 62.835796 600.690223 
L 62.835796 323.82119 
" clip-path="url(#pa06d46c661)" style="fill: none; stroke: #b0b0b0; stroke-width: 0.8; stroke-linecap: square"/>
     </g>
     <g id="line2d_84"/>
     <g id="text_14">
      <!-- 00 -->
      <g transform="translate(55.460796 618.077723) scale(0.2 -0.2)">
       <use xlink:href="#TimesNewRomanPSMT-30"/>
       <use xlink:href="#TimesNewRomanPSMT-30" transform="translate(50 0)"/>
      </g>
      <!-- 2016-09-01 -->
      <g transform="translate(55.460796 639.020848) scale(0.2 -0.2)">
       <defs>
        <path id="TimesNewRomanPSMT-36" d="M 2869 4325 
L 2869 4209 
Q 2456 4169 2195 4045 
Q 1934 3922 1679 3669 
Q 1425 3416 1258 3105 
Q 1091 2794 978 2366 
Q 1428 2675 1881 2675 
Q 2316 2675 2634 2325 
Q 2953 1975 2953 1425 
Q 2953 894 2631 456 
Q 2244 -75 1606 -75 
Q 1172 -75 869 213 
Q 275 772 275 1663 
Q 275 2231 503 2743 
Q 731 3256 1154 3653 
Q 1578 4050 1965 4187 
Q 2353 4325 2688 4325 
L 2869 4325 
z
M 925 2138 
Q 869 1716 869 1456 
Q 869 1156 980 804 
Q 1091 453 1309 247 
Q 1469 100 1697 100 
Q 1969 100 2183 356 
Q 2397 613 2397 1088 
Q 2397 1622 2184 2012 
Q 1972 2403 1581 2403 
Q 1463 2403 1327 2353 
Q 1191 2303 925 2138 
z
" transform="scale(0.015625)"/>
        <path id="TimesNewRomanPSMT-2d" d="M 259 1672 
L 1875 1672 
L 1875 1200 
L 259 1200 
L 259 1672 
z
" transform="scale(0.015625)"/>
        <path id="TimesNewRomanPSMT-39" d="M 338 -88 
L 338 28 
Q 744 34 1094 217 
Q 1444 400 1770 856 
Q 2097 1313 2225 1859 
Q 1734 1544 1338 1544 
Q 891 1544 572 1889 
Q 253 2234 253 2806 
Q 253 3363 572 3797 
Q 956 4325 1575 4325 
Q 2097 4325 2469 3894 
Q 2925 3359 2925 2575 
Q 2925 1869 2578 1258 
Q 2231 647 1613 244 
Q 1109 -88 516 -88 
L 338 -88 
z
M 2275 2091 
Q 2331 2497 2331 2741 
Q 2331 3044 2228 3395 
Q 2125 3747 1936 3934 
Q 1747 4122 1506 4122 
Q 1228 4122 1018 3872 
Q 809 3622 809 3128 
Q 809 2469 1088 2097 
Q 1291 1828 1588 1828 
Q 1731 1828 1928 1897 
Q 2125 1966 2275 2091 
z
" transform="scale(0.015625)"/>
       </defs>
       <use xlink:href="#TimesNewRomanPSMT-32"/>
       <use xlink:href="#TimesNewRomanPSMT-30" transform="translate(50 0)"/>
       <use xlink:href="#TimesNewRomanPSMT-31" transform="translate(100 0)"/>
       <use xlink:href="#TimesNewRomanPSMT-36" transform="translate(150 0)"/>
       <use xlink:href="#TimesNewRomanPSMT-2d" transform="translate(200 0)"/>
       <use xlink:href="#TimesNewRomanPSMT-30" transform="translate(233.300781 0)"/>
       <use xlink:href="#TimesNewRomanPSMT-39" transform="translate(283.300781 0)"/>
       <use xlink:href="#TimesNewRomanPSMT-2d" transform="translate(333.300781 0)"/>
       <use xlink:href="#TimesNewRomanPSMT-30" transform="translate(366.601562 0)"/>
       <use xlink:href="#TimesNewRomanPSMT-31" transform="translate(416.601562 0)"/>
      </g>
     </g>
    </g>
    <g id="xtick_15">
     <g id="line2d_85">
      <path d="M 130.901845 600.690223 
L 130.901845 323.82119 
" clip-path="url(#pa06d46c661)" style="fill: none; stroke: #b0b0b0; stroke-width: 0.8; stroke-linecap: square"/>
     </g>
     <g id="line2d_86"/>
     <g id="text_15">
      <!-- 04 -->
      <g transform="translate(122.201845 616.272348) scale(0.174 -0.174)">
       <defs>
        <path id="TimesNewRomanPSMT-34" d="M 2978 1563 
L 2978 1119 
L 2409 1119 
L 2409 0 
L 1894 0 
L 1894 1119 
L 100 1119 
L 100 1519 
L 2066 4325 
L 2409 4325 
L 2409 1563 
L 2978 1563 
z
M 1894 1563 
L 1894 3666 
L 406 1563 
L 1894 1563 
z
" transform="scale(0.015625)"/>
       </defs>
       <use xlink:href="#TimesNewRomanPSMT-30"/>
       <use xlink:href="#TimesNewRomanPSMT-34" transform="translate(50 0)"/>
      </g>
     </g>
    </g>
    <g id="xtick_16">
     <g id="line2d_87">
      <path d="M 198.967895 600.690223 
L 198.967895 323.82119 
" clip-path="url(#pa06d46c661)" style="fill: none; stroke: #b0b0b0; stroke-width: 0.8; stroke-linecap: square"/>
     </g>
     <g id="line2d_88"/>
     <g id="text_16">
      <!-- 08 -->
      <g transform="translate(190.267895 616.272348) scale(0.174 -0.174)">
       <defs>
        <path id="TimesNewRomanPSMT-38" d="M 1228 2134 
Q 725 2547 579 2797 
Q 434 3047 434 3316 
Q 434 3728 753 4026 
Q 1072 4325 1600 4325 
Q 2113 4325 2425 4047 
Q 2738 3769 2738 3413 
Q 2738 3175 2569 2928 
Q 2400 2681 1866 2347 
Q 2416 1922 2594 1678 
Q 2831 1359 2831 1006 
Q 2831 559 2490 242 
Q 2150 -75 1597 -75 
Q 994 -75 656 303 
Q 388 606 388 966 
Q 388 1247 577 1523 
Q 766 1800 1228 2134 
z
M 1719 2469 
Q 2094 2806 2194 3001 
Q 2294 3197 2294 3444 
Q 2294 3772 2109 3958 
Q 1925 4144 1606 4144 
Q 1288 4144 1088 3959 
Q 888 3775 888 3528 
Q 888 3366 970 3203 
Q 1053 3041 1206 2894 
L 1719 2469 
z
M 1375 2016 
Q 1116 1797 991 1539 
Q 866 1281 866 981 
Q 866 578 1086 336 
Q 1306 94 1647 94 
Q 1984 94 2187 284 
Q 2391 475 2391 747 
Q 2391 972 2272 1150 
Q 2050 1481 1375 2016 
z
" transform="scale(0.015625)"/>
       </defs>
       <use xlink:href="#TimesNewRomanPSMT-30"/>
       <use xlink:href="#TimesNewRomanPSMT-38" transform="translate(50 0)"/>
      </g>
     </g>
    </g>
    <g id="xtick_17">
     <g id="line2d_89">
      <path d="M 267.033944 600.690223 
L 267.033944 323.82119 
" clip-path="url(#pa06d46c661)" style="fill: none; stroke: #b0b0b0; stroke-width: 0.8; stroke-linecap: square"/>
     </g>
     <g id="line2d_90"/>
     <g id="text_17">
      <!-- 12 -->
      <g transform="translate(258.333944 616.272348) scale(0.174 -0.174)">
       <use xlink:href="#TimesNewRomanPSMT-31"/>
       <use xlink:href="#TimesNewRomanPSMT-32" transform="translate(50 0)"/>
      </g>
     </g>
    </g>
    <g id="xtick_18">
     <g id="line2d_91">
      <path d="M 335.099994 600.690223 
L 335.099994 323.82119 
" clip-path="url(#pa06d46c661)" style="fill: none; stroke: #b0b0b0; stroke-width: 0.8; stroke-linecap: square"/>
     </g>
     <g id="line2d_92"/>
     <g id="text_18">
      <!-- 16 -->
      <g transform="translate(326.399994 616.272348) scale(0.174 -0.174)">
       <use xlink:href="#TimesNewRomanPSMT-31"/>
       <use xlink:href="#TimesNewRomanPSMT-36" transform="translate(50 0)"/>
      </g>
     </g>
    </g>
    <g id="xtick_19">
     <g id="line2d_93">
      <path d="M 403.166044 600.690223 
L 403.166044 323.82119 
" clip-path="url(#pa06d46c661)" style="fill: none; stroke: #b0b0b0; stroke-width: 0.8; stroke-linecap: square"/>
     </g>
     <g id="line2d_94"/>
     <g id="text_19">
      <!-- 20 -->
      <g transform="translate(394.466044 616.272348) scale(0.174 -0.174)">
       <use xlink:href="#TimesNewRomanPSMT-32"/>
       <use xlink:href="#TimesNewRomanPSMT-30" transform="translate(50 0)"/>
      </g>
     </g>
    </g>
    <g id="xtick_20">
     <g id="line2d_95">
      <path d="M 471.232093 600.690223 
L 471.232093 323.82119 
" clip-path="url(#pa06d46c661)" style="fill: none; stroke: #b0b0b0; stroke-width: 0.8; stroke-linecap: square"/>
     </g>
     <g id="line2d_96"/>
     <g id="text_20">
      <!-- 00 -->
      <g transform="translate(458.607093 618.077723) scale(0.2 -0.2)">
       <use xlink:href="#TimesNewRomanPSMT-30"/>
       <use xlink:href="#TimesNewRomanPSMT-30" transform="translate(50 0)"/>
      </g>
      <!-- 2016-09-02 -->
      <g transform="translate(385.288343 639.020848) scale(0.2 -0.2)">
       <use xlink:href="#TimesNewRomanPSMT-32"/>
       <use xlink:href="#TimesNewRomanPSMT-30" transform="translate(50 0)"/>
       <use xlink:href="#TimesNewRomanPSMT-31" transform="translate(100 0)"/>
       <use xlink:href="#TimesNewRomanPSMT-36" transform="translate(150 0)"/>
       <use xlink:href="#TimesNewRomanPSMT-2d" transform="translate(200 0)"/>
       <use xlink:href="#TimesNewRomanPSMT-30" transform="translate(233.300781 0)"/>
       <use xlink:href="#TimesNewRomanPSMT-39" transform="translate(283.300781 0)"/>
       <use xlink:href="#TimesNewRomanPSMT-2d" transform="translate(333.300781 0)"/>
       <use xlink:href="#TimesNewRomanPSMT-30" transform="translate(366.601562 0)"/>
       <use xlink:href="#TimesNewRomanPSMT-32" transform="translate(416.601562 0)"/>
      </g>
     </g>
    </g>
    <g id="xtick_21">
     <g id="line2d_97">
      <path d="M 96.86882 600.690223 
L 96.86882 323.82119 
" clip-path="url(#pa06d46c661)" style="fill: none; stroke-dasharray: 0.5,0.825; stroke-dashoffset: 0; stroke: #bfbfbf; stroke-width: 0.5"/>
     </g>
     <g id="line2d_98"/>
    </g>
    <g id="xtick_22">
     <g id="line2d_99">
      <path d="M 164.93487 600.690223 
L 164.93487 323.82119 
" clip-path="url(#pa06d46c661)" style="fill: none; stroke-dasharray: 0.5,0.825; stroke-dashoffset: 0; stroke: #bfbfbf; stroke-width: 0.5"/>
     </g>
     <g id="line2d_100"/>
    </g>
    <g id="xtick_23">
     <g id="line2d_101">
      <path d="M 233.00092 600.690223 
L 233.00092 323.82119 
" clip-path="url(#pa06d46c661)" style="fill: none; stroke-dasharray: 0.5,0.825; stroke-dashoffset: 0; stroke: #bfbfbf; stroke-width: 0.5"/>
     </g>
     <g id="line2d_102"/>
    </g>
    <g id="xtick_24">
     <g id="line2d_103">
      <path d="M 301.066969 600.690223 
L 301.066969 323.82119 
" clip-path="url(#pa06d46c661)" style="fill: none; stroke-dasharray: 0.5,0.825; stroke-dashoffset: 0; stroke: #bfbfbf; stroke-width: 0.5"/>
     </g>
     <g id="line2d_104"/>
    </g>
    <g id="xtick_25">
     <g id="line2d_105">
      <path d="M 369.133019 600.690223 
L 369.133019 323.82119 
" clip-path="url(#pa06d46c661)" style="fill: none; stroke-dasharray: 0.5,0.825; stroke-dashoffset: 0; stroke: #bfbfbf; stroke-width: 0.5"/>
     </g>
     <g id="line2d_106"/>
    </g>
    <g id="xtick_26">
     <g id="line2d_107">
      <path d="M 437.199068 600.690223 
L 437.199068 323.82119 
" clip-path="url(#pa06d46c661)" style="fill: none; stroke-dasharray: 0.5,0.825; stroke-dashoffset: 0; stroke: #bfbfbf; stroke-width: 0.5"/>
     </g>
     <g id="line2d_108"/>
    </g>
   </g>
   <g id="matplotlib.axis_4">
    <g id="ytick_22">
     <g id="line2d_109">
      <path d="M 55.178365 591.032001 
L 478.889524 591.032001 
" clip-path="url(#pa06d46c661)" style="fill: none; stroke: #b0b0b0; stroke-width: 0.8; stroke-linecap: square"/>
     </g>
     <g id="line2d_110"/>
     <g id="text_21">
      <!-- 0.00 -->
      <g transform="translate(16.678365 597.975751) scale(0.2 -0.2)">
       <defs>
        <path id="TimesNewRomanPSMT-2e" d="M 800 606 
Q 947 606 1047 504 
Q 1147 403 1147 259 
Q 1147 116 1045 14 
Q 944 -88 800 -88 
Q 656 -88 554 14 
Q 453 116 453 259 
Q 453 406 554 506 
Q 656 606 800 606 
z
" transform="scale(0.015625)"/>
       </defs>
       <use xlink:href="#TimesNewRomanPSMT-30"/>
       <use xlink:href="#TimesNewRomanPSMT-2e" transform="translate(50 0)"/>
       <use xlink:href="#TimesNewRomanPSMT-30" transform="translate(75 0)"/>
       <use xlink:href="#TimesNewRomanPSMT-30" transform="translate(125 0)"/>
      </g>
     </g>
    </g>
    <g id="ytick_23">
     <g id="line2d_111">
      <path d="M 55.178365 526.643853 
L 478.889524 526.643853 
" clip-path="url(#pa06d46c661)" style="fill: none; stroke: #b0b0b0; stroke-width: 0.8; stroke-linecap: square"/>
     </g>
     <g id="line2d_112"/>
     <g id="text_22">
      <!-- 0.25 -->
      <g transform="translate(16.678365 533.587603) scale(0.2 -0.2)">
       <defs>
        <path id="TimesNewRomanPSMT-35" d="M 2778 4238 
L 2534 3706 
L 1259 3706 
L 981 3138 
Q 1809 3016 2294 2522 
Q 2709 2097 2709 1522 
Q 2709 1188 2573 903 
Q 2438 619 2231 419 
Q 2025 219 1772 97 
Q 1413 -75 1034 -75 
Q 653 -75 479 54 
Q 306 184 306 341 
Q 306 428 378 495 
Q 450 563 559 563 
Q 641 563 702 538 
Q 763 513 909 409 
Q 1144 247 1384 247 
Q 1750 247 2026 523 
Q 2303 800 2303 1197 
Q 2303 1581 2056 1914 
Q 1809 2247 1375 2428 
Q 1034 2569 447 2591 
L 1259 4238 
L 2778 4238 
z
" transform="scale(0.015625)"/>
       </defs>
       <use xlink:href="#TimesNewRomanPSMT-30"/>
       <use xlink:href="#TimesNewRomanPSMT-2e" transform="translate(50 0)"/>
       <use xlink:href="#TimesNewRomanPSMT-32" transform="translate(75 0)"/>
       <use xlink:href="#TimesNewRomanPSMT-35" transform="translate(125 0)"/>
      </g>
     </g>
    </g>
    <g id="ytick_24">
     <g id="line2d_113">
      <path d="M 55.178365 462.255706 
L 478.889524 462.255706 
" clip-path="url(#pa06d46c661)" style="fill: none; stroke: #b0b0b0; stroke-width: 0.8; stroke-linecap: square"/>
     </g>
     <g id="line2d_114"/>
     <g id="text_23">
      <!-- 0.50 -->
      <g transform="translate(16.678365 469.199456) scale(0.2 -0.2)">
       <use xlink:href="#TimesNewRomanPSMT-30"/>
       <use xlink:href="#TimesNewRomanPSMT-2e" transform="translate(50 0)"/>
       <use xlink:href="#TimesNewRomanPSMT-35" transform="translate(75 0)"/>
       <use xlink:href="#TimesNewRomanPSMT-30" transform="translate(125 0)"/>
      </g>
     </g>
    </g>
    <g id="ytick_25">
     <g id="line2d_115">
      <path d="M 55.178365 397.867559 
L 478.889524 397.867559 
" clip-path="url(#pa06d46c661)" style="fill: none; stroke: #b0b0b0; stroke-width: 0.8; stroke-linecap: square"/>
     </g>
     <g id="line2d_116"/>
     <g id="text_24">
      <!-- 0.75 -->
      <g transform="translate(16.678365 404.811309) scale(0.2 -0.2)">
       <defs>
        <path id="TimesNewRomanPSMT-37" d="M 644 4238 
L 2916 4238 
L 2916 4119 
L 1503 -88 
L 1153 -88 
L 2419 3728 
L 1253 3728 
Q 900 3728 750 3644 
Q 488 3500 328 3200 
L 238 3234 
L 644 4238 
z
" transform="scale(0.015625)"/>
       </defs>
       <use xlink:href="#TimesNewRomanPSMT-30"/>
       <use xlink:href="#TimesNewRomanPSMT-2e" transform="translate(50 0)"/>
       <use xlink:href="#TimesNewRomanPSMT-37" transform="translate(75 0)"/>
       <use xlink:href="#TimesNewRomanPSMT-35" transform="translate(125 0)"/>
      </g>
     </g>
    </g>
    <g id="ytick_26">
     <g id="line2d_117">
      <path d="M 55.178365 333.479412 
L 478.889524 333.479412 
" clip-path="url(#pa06d46c661)" style="fill: none; stroke: #b0b0b0; stroke-width: 0.8; stroke-linecap: square"/>
     </g>
     <g id="line2d_118"/>
     <g id="text_25">
      <!-- 1.00 -->
      <g transform="translate(16.678365 340.423162) scale(0.2 -0.2)">
       <use xlink:href="#TimesNewRomanPSMT-31"/>
       <use xlink:href="#TimesNewRomanPSMT-2e" transform="translate(50 0)"/>
       <use xlink:href="#TimesNewRomanPSMT-30" transform="translate(75 0)"/>
       <use xlink:href="#TimesNewRomanPSMT-30" transform="translate(125 0)"/>
      </g>
     </g>
    </g>
    <g id="ytick_27">
     <g id="line2d_119">
      <path d="M 55.178365 578.154371 
L 478.889524 578.154371 
" clip-path="url(#pa06d46c661)" style="fill: none; stroke-dasharray: 0.5,0.825; stroke-dashoffset: 0; stroke: #bfbfbf; stroke-width: 0.5"/>
     </g>
     <g id="line2d_120"/>
    </g>
    <g id="ytick_28">
     <g id="line2d_121">
      <path d="M 55.178365 565.276742 
L 478.889524 565.276742 
" clip-path="url(#pa06d46c661)" style="fill: none; stroke-dasharray: 0.5,0.825; stroke-dashoffset: 0; stroke: #bfbfbf; stroke-width: 0.5"/>
     </g>
     <g id="line2d_122"/>
    </g>
    <g id="ytick_29">
     <g id="line2d_123">
      <path d="M 55.178365 552.399112 
L 478.889524 552.399112 
" clip-path="url(#pa06d46c661)" style="fill: none; stroke-dasharray: 0.5,0.825; stroke-dashoffset: 0; stroke: #bfbfbf; stroke-width: 0.5"/>
     </g>
     <g id="line2d_124"/>
    </g>
    <g id="ytick_30">
     <g id="line2d_125">
      <path d="M 55.178365 539.521483 
L 478.889524 539.521483 
" clip-path="url(#pa06d46c661)" style="fill: none; stroke-dasharray: 0.5,0.825; stroke-dashoffset: 0; stroke: #bfbfbf; stroke-width: 0.5"/>
     </g>
     <g id="line2d_126"/>
    </g>
    <g id="ytick_31">
     <g id="line2d_127">
      <path d="M 55.178365 513.766224 
L 478.889524 513.766224 
" clip-path="url(#pa06d46c661)" style="fill: none; stroke-dasharray: 0.5,0.825; stroke-dashoffset: 0; stroke: #bfbfbf; stroke-width: 0.5"/>
     </g>
     <g id="line2d_128"/>
    </g>
    <g id="ytick_32">
     <g id="line2d_129">
      <path d="M 55.178365 500.888594 
L 478.889524 500.888594 
" clip-path="url(#pa06d46c661)" style="fill: none; stroke-dasharray: 0.5,0.825; stroke-dashoffset: 0; stroke: #bfbfbf; stroke-width: 0.5"/>
     </g>
     <g id="line2d_130"/>
    </g>
    <g id="ytick_33">
     <g id="line2d_131">
      <path d="M 55.178365 488.010965 
L 478.889524 488.010965 
" clip-path="url(#pa06d46c661)" style="fill: none; stroke-dasharray: 0.5,0.825; stroke-dashoffset: 0; stroke: #bfbfbf; stroke-width: 0.5"/>
     </g>
     <g id="line2d_132"/>
    </g>
    <g id="ytick_34">
     <g id="line2d_133">
      <path d="M 55.178365 475.133336 
L 478.889524 475.133336 
" clip-path="url(#pa06d46c661)" style="fill: none; stroke-dasharray: 0.5,0.825; stroke-dashoffset: 0; stroke: #bfbfbf; stroke-width: 0.5"/>
     </g>
     <g id="line2d_134"/>
    </g>
    <g id="ytick_35">
     <g id="line2d_135">
      <path d="M 55.178365 449.378077 
L 478.889524 449.378077 
" clip-path="url(#pa06d46c661)" style="fill: none; stroke-dasharray: 0.5,0.825; stroke-dashoffset: 0; stroke: #bfbfbf; stroke-width: 0.5"/>
     </g>
     <g id="line2d_136"/>
    </g>
    <g id="ytick_36">
     <g id="line2d_137">
      <path d="M 55.178365 436.500447 
L 478.889524 436.500447 
" clip-path="url(#pa06d46c661)" style="fill: none; stroke-dasharray: 0.5,0.825; stroke-dashoffset: 0; stroke: #bfbfbf; stroke-width: 0.5"/>
     </g>
     <g id="line2d_138"/>
    </g>
    <g id="ytick_37">
     <g id="line2d_139">
      <path d="M 55.178365 423.622818 
L 478.889524 423.622818 
" clip-path="url(#pa06d46c661)" style="fill: none; stroke-dasharray: 0.5,0.825; stroke-dashoffset: 0; stroke: #bfbfbf; stroke-width: 0.5"/>
     </g>
     <g id="line2d_140"/>
    </g>
    <g id="ytick_38">
     <g id="line2d_141">
      <path d="M 55.178365 410.745188 
L 478.889524 410.745188 
" clip-path="url(#pa06d46c661)" style="fill: none; stroke-dasharray: 0.5,0.825; stroke-dashoffset: 0; stroke: #bfbfbf; stroke-width: 0.5"/>
     </g>
     <g id="line2d_142"/>
    </g>
    <g id="ytick_39">
     <g id="line2d_143">
      <path d="M 55.178365 384.98993 
L 478.889524 384.98993 
" clip-path="url(#pa06d46c661)" style="fill: none; stroke-dasharray: 0.5,0.825; stroke-dashoffset: 0; stroke: #bfbfbf; stroke-width: 0.5"/>
     </g>
     <g id="line2d_144"/>
    </g>
    <g id="ytick_40">
     <g id="line2d_145">
      <path d="M 55.178365 372.1123 
L 478.889524 372.1123 
" clip-path="url(#pa06d46c661)" style="fill: none; stroke-dasharray: 0.5,0.825; stroke-dashoffset: 0; stroke: #bfbfbf; stroke-width: 0.5"/>
     </g>
     <g id="line2d_146"/>
    </g>
    <g id="ytick_41">
     <g id="line2d_147">
      <path d="M 55.178365 359.234671 
L 478.889524 359.234671 
" clip-path="url(#pa06d46c661)" style="fill: none; stroke-dasharray: 0.5,0.825; stroke-dashoffset: 0; stroke: #bfbfbf; stroke-width: 0.5"/>
     </g>
     <g id="line2d_148"/>
    </g>
    <g id="ytick_42">
     <g id="line2d_149">
      <path d="M 55.178365 346.357041 
L 478.889524 346.357041 
" clip-path="url(#pa06d46c661)" style="fill: none; stroke-dasharray: 0.5,0.825; stroke-dashoffset: 0; stroke: #bfbfbf; stroke-width: 0.5"/>
     </g>
     <g id="line2d_150"/>
    </g>
   </g>
   <g id="line2d_151">
    <path d="M 62.9776 579.846203 
L 88.502368 580.509208 
L 131.894475 582.165851 
L 169.614411 584.30762 
L 202.229393 586.599404 
L 211.588475 587.247377 
L 220.096731 587.679309 
L 227.754162 587.707324 
L 229.455813 587.630964 
L 229.739421 587.209633 
L 230.02303 585.850843 
L 238.531286 586.149188 
L 243.352631 586.088379 
L 250.726453 585.879154 
L 256.115016 586.037496 
L 260.085535 585.815532 
L 266.041314 585.198678 
L 289.864432 582.537153 
L 321.912197 580.009187 
L 338.928709 579.075653 
L 352.258311 578.501799 
L 363.602652 578.106057 
L 399.05372 577.337037 
L 421.175186 577.164418 
L 442.445826 577.221973 
L 465.418118 577.511252 
L 471.090289 577.617267 
L 471.090289 577.617267 
" clip-path="url(#pa06d46c661)" style="fill: none; stroke: #ff0000; stroke-width: 2; stroke-linecap: square"/>
   </g>
   <g id="line2d_152">
    <path d="M 62.9776 590.093064 
L 226.903336 590.197265 
L 229.455813 590.098815 
L 229.739421 589.975056 
L 230.02303 589.585947 
L 236.262418 589.244188 
L 240.232937 588.80935 
L 243.069023 588.286795 
L 245.905108 587.521938 
L 248.173976 586.936858 
L 249.308411 586.82487 
L 250.442845 586.900326 
L 252.144496 587.280154 
L 256.115016 588.286284 
L 258.951101 588.719276 
L 262.638012 589.039245 
L 268.310183 589.287256 
L 278.52009 589.480564 
L 309.71703 589.667434 
L 353.676353 589.767756 
L 471.090289 589.904862 
L 471.090289 589.904862 
" clip-path="url(#pa06d46c661)" style="fill: none; stroke: #0000ff; stroke-width: 2; stroke-linecap: square"/>
   </g>
   <g id="line2d_153">
    <path d="M 62.9776 537.23757 
L 111.191052 540.943766 
L 113.176311 541.103397 
L 117.146831 541.446643 
L 119.415699 541.61927 
L 120.833742 541.757489 
L 125.08787 542.117993 
L 127.356738 542.331044 
L 129.05839 542.471421 
L 134.163343 542.970373 
L 137.850254 543.390913 
L 139.268297 543.559359 
L 159.688112 546.293408 
L 178.122667 549.57868 
L 191.16866 552.887732 
L 198.826091 555.539241 
L 200.244133 556.135205 
L 204.214653 557.976868 
L 206.199913 559.004666 
L 207.901564 559.993685 
L 210.170432 561.433066 
L 211.304866 562.242688 
L 214.708169 564.969789 
L 217.544254 567.686021 
L 218.962297 569.328547 
L 220.663948 571.449147 
L 222.081991 573.431567 
L 223.783642 576.108327 
L 225.201685 578.544313 
L 228.03777 583.743579 
L 228.604987 584.509723 
L 229.172204 584.938504 
L 229.455813 584.975614 
L 229.739421 530.971408 
L 230.02303 512.677882 
L 232.291898 508.049214 
L 233.709941 504.419514 
L 234.844375 500.959991 
L 235.978809 496.893483 
L 237.113243 492.062991 
L 238.247678 486.27927 
L 239.382112 479.288549 
L 240.516546 470.748755 
L 241.65098 460.241923 
L 242.785414 447.305167 
L 243.919848 431.459782 
L 245.054283 412.521582 
L 248.173976 357.744416 
L 248.741194 352.314113 
L 249.024802 350.74202 
L 249.308411 349.989392 
L 249.592019 350.087834 
L 249.875628 351.023474 
L 250.159236 352.76863 
L 250.726453 358.43779 
L 251.577279 371.117662 
L 254.980581 429.202951 
L 256.115016 443.252877 
L 257.24945 454.30804 
L 258.383884 462.98631 
L 259.518318 469.843007 
L 260.652752 475.320589 
L 261.787186 479.741381 
L 263.205229 484.199311 
L 264.339663 487.102022 
L 266.041314 490.627873 
L 267.742966 493.505074 
L 270.011834 496.517325 
L 272.847919 499.418564 
L 273.982354 500.379134 
L 275.684005 501.695127 
L 280.788959 504.761967 
L 281.639784 505.170705 
L 288.729998 508.04558 
L 290.431649 508.599925 
L 294.402169 509.773354 
L 296.10382 510.221986 
L 302.343208 511.710791 
L 303.194033 511.838688 
L 310.000638 513.174303 
L 310.851464 513.288062 
L 313.971158 513.832926 
L 314.821983 513.946585 
L 315.672809 514.10315 
L 338.645101 517.086693 
L 343.182837 517.576045 
L 348.287791 518.099148 
L 349.705834 518.233603 
L 350.840268 518.353448 
L 360.482958 519.245755 
L 363.886261 519.557141 
L 365.304304 519.659302 
L 367.289563 519.831927 
L 371.260083 520.179232 
L 372.678126 520.26195 
L 373.81256 520.377991 
L 377.215862 520.64654 
L 379.768339 520.854931 
L 383.45525 521.119854 
L 385.156901 521.26222 
L 391.679898 521.730964 
L 393.948766 521.870844 
L 412.099713 522.990252 
L 432.803136 524.235167 
L 445.281912 524.96677 
L 467.970595 526.275712 
L 471.090289 526.452083 
L 471.090289 526.452083 
" clip-path="url(#pa06d46c661)" style="fill: none; stroke: #008000; stroke-width: 2; stroke-linecap: square"/>
   </g>
   <g id="legend_2">
    <g id="patch_6">
     <path d="M 61.758944 347.345605 
L 472.308944 347.345605 
Q 475.308944 347.345605 475.308944 344.345605 
L 475.308944 290.845605 
Q 475.308944 287.845605 472.308944 287.845605 
L 61.758944 287.845605 
Q 58.758944 287.845605 58.758944 290.845605 
L 58.758944 344.345605 
Q 58.758944 347.345605 61.758944 347.345605 
z
" style="fill: #ffffff; opacity: 0.8; stroke: #cccccc; stroke-linejoin: miter"/>
    </g>
    <g id="line2d_154">
     <path d="M 64.758944 303.595605 
L 76.008944 303.595605 
L 87.258944 303.595605 
" style="fill: none; stroke: #ff0000; stroke-width: 2; stroke-linecap: square"/>
    </g>
    <g id="text_26">
     <!-- $|Δ\mathbf{r}|/R_E$ ($|Δ\mathbf{r}|_{\rm{max}} = 343.6$ [km]) -->
     <g transform="translate(94.758944 308.845605) scale(0.2 -0.2)">
      <defs>
       <path id="Cmsy10-6a" d="M 763 -1484 
L 763 4684 
Q 763 4734 800 4767 
Q 838 4800 891 4800 
Q 938 4800 978 4767 
Q 1019 4734 1019 4684 
L 1019 -1484 
Q 1019 -1534 978 -1567 
Q 938 -1600 891 -1600 
Q 838 -1600 800 -1567 
Q 763 -1534 763 -1484 
z
" transform="scale(0.015625)"/>
       <path id="STIXGeneral-Regular-394" d="M 4320 0 
L 307 0 
L 2221 4314 
L 2349 4314 
L 4320 0 
z
M 3354 589 
L 2118 3405 
L 870 589 
L 3354 589 
z
" transform="scale(0.015625)"/>
       <path id="Cmb10-72" d="M 91 0 
L 91 325 
L 531 325 
L 531 2322 
Q 531 2503 91 2503 
L 91 2828 
L 1178 2881 
L 1178 2356 
Q 1269 2594 1436 2737 
Q 1603 2881 1838 2881 
Q 2006 2881 2173 2822 
Q 2341 2763 2450 2641 
Q 2559 2519 2559 2344 
Q 2559 2178 2443 2059 
Q 2328 1941 2156 1941 
Q 1984 1941 1868 2059 
Q 1753 2178 1753 2344 
Q 1753 2513 1856 2625 
L 1838 2625 
Q 1488 2625 1367 2248 
Q 1247 1872 1247 1416 
L 1247 325 
L 1806 325 
L 1806 0 
L 91 0 
z
" transform="scale(0.015625)"/>
       <path id="Cmmi10-3d" d="M 359 -1472 
Q 359 -1453 366 -1447 
L 2591 4722 
Q 2603 4759 2634 4779 
Q 2666 4800 2706 4800 
Q 2763 4800 2798 4765 
Q 2834 4731 2834 4672 
L 2834 4647 
L 609 -1522 
Q 572 -1600 488 -1600 
Q 434 -1600 396 -1562 
Q 359 -1525 359 -1472 
z
" transform="scale(0.015625)"/>
       <path id="TimesNewRomanPSMT-20" transform="scale(0.015625)"/>
       <path id="TimesNewRomanPSMT-28" d="M 1988 -1253 
L 1988 -1369 
Q 1516 -1131 1200 -813 
Q 750 -359 506 256 
Q 263 872 263 1534 
Q 263 2503 741 3301 
Q 1219 4100 1988 4444 
L 1988 4313 
Q 1603 4100 1356 3731 
Q 1109 3363 987 2797 
Q 866 2231 866 1616 
Q 866 947 969 400 
Q 1050 -31 1165 -292 
Q 1281 -553 1476 -793 
Q 1672 -1034 1988 -1253 
z
" transform="scale(0.015625)"/>
       <path id="Cmr10-6d" d="M 191 0 
L 191 225 
Q 409 225 550 259 
Q 691 294 691 428 
L 691 2175 
Q 691 2347 639 2423 
Q 588 2500 491 2517 
Q 394 2534 191 2534 
L 191 2759 
L 1119 2828 
L 1119 2203 
Q 1247 2478 1498 2653 
Q 1750 2828 2047 2828 
Q 2784 2828 2913 2228 
Q 3041 2497 3287 2662 
Q 3534 2828 3828 2828 
Q 4119 2828 4317 2734 
Q 4516 2641 4616 2448 
Q 4716 2256 4716 1966 
L 4716 428 
Q 4716 294 4858 259 
Q 5000 225 5216 225 
L 5216 0 
L 3750 0 
L 3750 225 
Q 3969 225 4109 259 
Q 4250 294 4250 428 
L 4250 1947 
Q 4250 2269 4159 2466 
Q 4069 2663 3788 2663 
Q 3419 2663 3178 2366 
Q 2938 2069 2938 1691 
L 2938 428 
Q 2938 294 3078 259 
Q 3219 225 3438 225 
L 3438 0 
L 1972 0 
L 1972 225 
Q 2191 225 2331 259 
Q 2472 294 2472 428 
L 2472 1947 
Q 2472 2259 2381 2461 
Q 2291 2663 2009 2663 
Q 1638 2663 1398 2366 
Q 1159 2069 1159 1691 
L 1159 428 
Q 1159 294 1300 259 
Q 1441 225 1656 225 
L 1656 0 
L 191 0 
z
" transform="scale(0.015625)"/>
       <path id="Cmr10-61" d="M 256 628 
Q 256 1009 556 1248 
Q 856 1488 1276 1586 
Q 1697 1684 2075 1684 
L 2075 1947 
Q 2075 2131 1994 2304 
Q 1913 2478 1759 2589 
Q 1606 2700 1422 2700 
Q 997 2700 775 2509 
Q 897 2509 976 2417 
Q 1056 2325 1056 2203 
Q 1056 2075 965 1984 
Q 875 1894 750 1894 
Q 622 1894 531 1984 
Q 441 2075 441 2203 
Q 441 2541 747 2705 
Q 1053 2869 1422 2869 
Q 1681 2869 1943 2758 
Q 2206 2647 2373 2440 
Q 2541 2234 2541 1959 
L 2541 519 
Q 2541 394 2594 289 
Q 2647 184 2759 184 
Q 2866 184 2917 290 
Q 2969 397 2969 519 
L 2969 928 
L 3156 928 
L 3156 519 
Q 3156 375 3081 245 
Q 3006 116 2879 39 
Q 2753 -38 2606 -38 
Q 2419 -38 2283 107 
Q 2147 253 2131 453 
Q 2013 213 1781 70 
Q 1550 -72 1288 -72 
Q 1044 -72 808 0 
Q 572 72 414 226 
Q 256 381 256 628 
z
M 775 628 
Q 775 403 940 250 
Q 1106 97 1331 97 
Q 1538 97 1706 200 
Q 1875 303 1975 481 
Q 2075 659 2075 856 
L 2075 1522 
Q 1784 1522 1479 1426 
Q 1175 1331 975 1128 
Q 775 925 775 628 
z
" transform="scale(0.015625)"/>
       <path id="Cmr10-78" d="M 78 0 
L 78 225 
Q 322 225 537 320 
Q 753 416 903 603 
L 1484 1344 
L 728 2328 
Q 616 2469 483 2501 
Q 350 2534 109 2534 
L 109 2759 
L 1441 2759 
L 1441 2534 
Q 1356 2534 1282 2496 
Q 1209 2459 1209 2388 
Q 1209 2363 1228 2328 
L 1741 1663 
L 2125 2156 
Q 2203 2250 2203 2344 
Q 2203 2422 2151 2478 
Q 2100 2534 2016 2534 
L 2016 2759 
L 3194 2759 
L 3194 2534 
Q 2947 2534 2730 2439 
Q 2513 2344 2363 2156 
L 1856 1509 
L 2675 428 
Q 2797 288 2928 256 
Q 3059 225 3303 225 
L 3303 0 
L 1972 0 
L 1972 225 
Q 2050 225 2122 262 
Q 2194 300 2194 372 
Q 2194 400 2175 428 
L 1600 1191 
L 1141 603 
Q 1069 522 1069 416 
Q 1069 338 1122 281 
Q 1175 225 1247 225 
L 1247 0 
L 78 0 
z
" transform="scale(0.015625)"/>
       <path id="Cmr10-3d" d="M 481 850 
Q 428 850 393 890 
Q 359 931 359 978 
Q 359 1031 393 1068 
Q 428 1106 481 1106 
L 4500 1106 
Q 4547 1106 4581 1068 
Q 4616 1031 4616 978 
Q 4616 931 4581 890 
Q 4547 850 4500 850 
L 481 850 
z
M 481 2094 
Q 428 2094 393 2131 
Q 359 2169 359 2222 
Q 359 2269 393 2309 
Q 428 2350 481 2350 
L 4500 2350 
Q 4547 2350 4581 2309 
Q 4616 2269 4616 2222 
Q 4616 2169 4581 2131 
Q 4547 2094 4500 2094 
L 481 2094 
z
" transform="scale(0.015625)"/>
       <path id="Cmr10-33" d="M 609 494 
Q 759 275 1012 169 
Q 1266 63 1556 63 
Q 1928 63 2084 380 
Q 2241 697 2241 1100 
Q 2241 1281 2208 1462 
Q 2175 1644 2097 1800 
Q 2019 1956 1883 2050 
Q 1747 2144 1550 2144 
L 1125 2144 
Q 1069 2144 1069 2203 
L 1069 2259 
Q 1069 2309 1125 2309 
L 1478 2338 
Q 1703 2338 1851 2506 
Q 2000 2675 2069 2917 
Q 2138 3159 2138 3378 
Q 2138 3684 1994 3881 
Q 1850 4078 1556 4078 
Q 1313 4078 1091 3986 
Q 869 3894 738 3706 
Q 750 3709 759 3711 
Q 769 3713 781 3713 
Q 925 3713 1022 3613 
Q 1119 3513 1119 3372 
Q 1119 3234 1022 3134 
Q 925 3034 781 3034 
Q 641 3034 541 3134 
Q 441 3234 441 3372 
Q 441 3647 606 3850 
Q 772 4053 1033 4158 
Q 1294 4263 1556 4263 
Q 1750 4263 1965 4205 
Q 2181 4147 2356 4039 
Q 2531 3931 2642 3762 
Q 2753 3594 2753 3378 
Q 2753 3109 2633 2881 
Q 2513 2653 2303 2487 
Q 2094 2322 1844 2241 
Q 2122 2188 2372 2031 
Q 2622 1875 2773 1631 
Q 2925 1388 2925 1106 
Q 2925 753 2731 467 
Q 2538 181 2222 20 
Q 1906 -141 1556 -141 
Q 1256 -141 954 -26 
Q 653 88 461 316 
Q 269 544 269 863 
Q 269 1022 375 1128 
Q 481 1234 641 1234 
Q 744 1234 830 1186 
Q 916 1138 964 1050 
Q 1013 963 1013 863 
Q 1013 706 903 600 
Q 794 494 641 494 
L 609 494 
z
" transform="scale(0.015625)"/>
       <path id="Cmr10-34" d="M 178 1056 
L 178 1281 
L 2156 4231 
Q 2178 4263 2222 4263 
L 2316 4263 
Q 2388 4263 2388 4191 
L 2388 1281 
L 3016 1281 
L 3016 1056 
L 2388 1056 
L 2388 428 
Q 2388 297 2575 261 
Q 2763 225 3009 225 
L 3009 0 
L 1247 0 
L 1247 225 
Q 1494 225 1681 261 
Q 1869 297 1869 428 
L 1869 1056 
L 178 1056 
z
M 391 1281 
L 1906 1281 
L 1906 3547 
L 391 1281 
z
" transform="scale(0.015625)"/>
       <path id="Cmmi10-3a" d="M 538 353 
Q 538 497 644 600 
Q 750 703 891 703 
Q 978 703 1062 656 
Q 1147 609 1194 525 
Q 1241 441 1241 353 
Q 1241 213 1137 106 
Q 1034 0 891 0 
Q 750 0 644 106 
Q 538 213 538 353 
z
" transform="scale(0.015625)"/>
       <path id="Cmr10-36" d="M 1600 -141 
Q 1203 -141 937 70 
Q 672 281 526 617 
Q 381 953 325 1322 
Q 269 1691 269 2069 
Q 269 2575 466 3084 
Q 663 3594 1045 3928 
Q 1428 4263 1953 4263 
Q 2172 4263 2361 4180 
Q 2550 4097 2658 3936 
Q 2766 3775 2766 3547 
Q 2766 3416 2677 3327 
Q 2588 3238 2456 3238 
Q 2331 3238 2240 3328 
Q 2150 3419 2150 3547 
Q 2150 3672 2240 3762 
Q 2331 3853 2456 3853 
L 2491 3853 
Q 2409 3969 2261 4023 
Q 2113 4078 1953 4078 
Q 1759 4078 1595 3993 
Q 1431 3909 1300 3765 
Q 1169 3622 1081 3448 
Q 994 3275 945 3053 
Q 897 2831 884 2637 
Q 872 2444 872 2150 
Q 984 2413 1190 2580 
Q 1397 2747 1656 2747 
Q 1941 2747 2175 2631 
Q 2409 2516 2578 2311 
Q 2747 2106 2836 1843 
Q 2925 1581 2925 1313 
Q 2925 938 2758 598 
Q 2591 259 2287 59 
Q 1984 -141 1600 -141 
z
M 1600 63 
Q 1847 63 1997 175 
Q 2147 288 2217 473 
Q 2288 659 2305 848 
Q 2322 1038 2322 1313 
Q 2322 1675 2287 1931 
Q 2253 2188 2100 2383 
Q 1947 2578 1631 2578 
Q 1372 2578 1205 2403 
Q 1038 2228 961 1961 
Q 884 1694 884 1447 
Q 884 1363 891 1319 
Q 891 1309 889 1303 
Q 888 1297 884 1288 
Q 884 1013 940 731 
Q 997 450 1156 256 
Q 1316 63 1600 63 
z
" transform="scale(0.015625)"/>
       <path id="TimesNewRomanPSMT-5b" d="M 1900 -1269 
L 525 -1269 
L 525 4334 
L 1900 4334 
L 1900 4088 
L 994 4088 
L 994 -1025 
L 1900 -1025 
L 1900 -1269 
z
" transform="scale(0.015625)"/>
       <path id="TimesNewRomanPSMT-6b" d="M 1047 4444 
L 1047 1594 
L 1775 2259 
Q 2006 2472 2044 2528 
Q 2069 2566 2069 2603 
Q 2069 2666 2017 2711 
Q 1966 2756 1847 2763 
L 1847 2863 
L 3091 2863 
L 3091 2763 
Q 2834 2756 2664 2684 
Q 2494 2613 2291 2428 
L 1556 1750 
L 2291 822 
Q 2597 438 2703 334 
Q 2853 188 2966 144 
Q 3044 113 3238 113 
L 3238 0 
L 1847 0 
L 1847 113 
Q 1966 116 2008 148 
Q 2050 181 2050 241 
Q 2050 313 1925 472 
L 1047 1594 
L 1047 644 
Q 1047 366 1086 278 
Q 1125 191 1197 153 
Q 1269 116 1509 113 
L 1509 0 
L 53 0 
L 53 113 
Q 272 113 381 166 
Q 447 200 481 272 
Q 528 375 528 628 
L 528 3234 
Q 528 3731 506 3842 
Q 484 3953 434 3995 
Q 384 4038 303 4038 
Q 238 4038 106 3984 
L 53 4094 
L 903 4444 
L 1047 4444 
z
" transform="scale(0.015625)"/>
       <path id="TimesNewRomanPSMT-6d" d="M 1050 2338 
Q 1363 2650 1419 2697 
Q 1559 2816 1721 2881 
Q 1884 2947 2044 2947 
Q 2313 2947 2506 2790 
Q 2700 2634 2766 2338 
Q 3088 2713 3309 2830 
Q 3531 2947 3766 2947 
Q 3994 2947 4170 2830 
Q 4347 2713 4450 2447 
Q 4519 2266 4519 1878 
L 4519 647 
Q 4519 378 4559 278 
Q 4591 209 4675 161 
Q 4759 113 4950 113 
L 4950 0 
L 3538 0 
L 3538 113 
L 3597 113 
Q 3781 113 3884 184 
Q 3956 234 3988 344 
Q 4000 397 4000 647 
L 4000 1878 
Q 4000 2228 3916 2372 
Q 3794 2572 3525 2572 
Q 3359 2572 3192 2489 
Q 3025 2406 2788 2181 
L 2781 2147 
L 2788 2013 
L 2788 647 
Q 2788 353 2820 281 
Q 2853 209 2943 161 
Q 3034 113 3253 113 
L 3253 0 
L 1806 0 
L 1806 113 
Q 2044 113 2133 169 
Q 2222 225 2256 338 
Q 2272 391 2272 647 
L 2272 1878 
Q 2272 2228 2169 2381 
Q 2031 2581 1784 2581 
Q 1616 2581 1450 2491 
Q 1191 2353 1050 2181 
L 1050 647 
Q 1050 366 1089 281 
Q 1128 197 1204 155 
Q 1281 113 1516 113 
L 1516 0 
L 100 0 
L 100 113 
Q 297 113 375 155 
Q 453 197 493 289 
Q 534 381 534 647 
L 534 1741 
Q 534 2213 506 2350 
Q 484 2453 437 2492 
Q 391 2531 309 2531 
Q 222 2531 100 2484 
L 53 2597 
L 916 2947 
L 1050 2947 
L 1050 2338 
z
" transform="scale(0.015625)"/>
       <path id="TimesNewRomanPSMT-5d" d="M 234 4334 
L 1609 4334 
L 1609 -1272 
L 234 -1272 
L 234 -1025 
L 1141 -1025 
L 1141 4088 
L 234 4088 
L 234 4334 
z
" transform="scale(0.015625)"/>
       <path id="TimesNewRomanPSMT-29" d="M 144 4313 
L 144 4444 
Q 619 4209 934 3891 
Q 1381 3434 1625 2820 
Q 1869 2206 1869 1541 
Q 1869 572 1392 -226 
Q 916 -1025 144 -1369 
L 144 -1253 
Q 528 -1038 776 -670 
Q 1025 -303 1145 264 
Q 1266 831 1266 1447 
Q 1266 2113 1163 2663 
Q 1084 3094 967 3353 
Q 850 3613 656 3853 
Q 463 4094 144 4313 
z
" transform="scale(0.015625)"/>
      </defs>
      <use xlink:href="#Cmsy10-6a"/>
      <use xlink:href="#STIXGeneral-Regular-394" transform="translate(27.685547 0)"/>
      <use xlink:href="#Cmb10-72" transform="translate(99.885529 0)"/>
      <use xlink:href="#Cmsy10-6a" transform="translate(142.56131 0)"/>
      <use xlink:href="#Cmmi10-3d" transform="translate(170.246857 0)"/>
      <use xlink:href="#Cmmi10-52" transform="translate(220.246857 0)"/>
      <use xlink:href="#Cmmi10-45" transform="translate(296.125763 -17.00625) scale(0.7)"/>
      <use xlink:href="#TimesNewRomanPSMT-20" transform="translate(354.148615 0)"/>
      <use xlink:href="#TimesNewRomanPSMT-28" transform="translate(379.148615 0)"/>
      <use xlink:href="#Cmsy10-6a" transform="translate(412.449396 0)"/>
      <use xlink:href="#STIXGeneral-Regular-394" transform="translate(440.134943 0)"/>
      <use xlink:href="#Cmb10-72" transform="translate(512.334924 0)"/>
      <use xlink:href="#Cmsy10-6a" transform="translate(555.010706 0)"/>
      <use xlink:href="#Cmr10-6d" transform="translate(587.160393 -17.00625) scale(0.7)"/>
      <use xlink:href="#Cmr10-61" transform="translate(645.47094 -17.00625) scale(0.7)"/>
      <use xlink:href="#Cmr10-78" transform="translate(680.47094 -17.00625) scale(0.7)"/>
      <use xlink:href="#Cmr10-3d" transform="translate(741.28676 0)"/>
      <use xlink:href="#Cmr10-33" transform="translate(836.530901 0)"/>
      <use xlink:href="#Cmr10-34" transform="translate(886.530901 0)"/>
      <use xlink:href="#Cmr10-33" transform="translate(936.530901 0)"/>
      <use xlink:href="#Cmmi10-3a" transform="translate(986.530901 0)"/>
      <use xlink:href="#Cmr10-36" transform="translate(1014.216448 0)"/>
      <use xlink:href="#TimesNewRomanPSMT-20" transform="translate(1064.216448 0)"/>
      <use xlink:href="#TimesNewRomanPSMT-5b" transform="translate(1089.216448 0)"/>
      <use xlink:href="#TimesNewRomanPSMT-6b" transform="translate(1122.517229 0)"/>
      <use xlink:href="#TimesNewRomanPSMT-6d" transform="translate(1172.517229 0)"/>
      <use xlink:href="#TimesNewRomanPSMT-5d" transform="translate(1250.300432 0)"/>
      <use xlink:href="#TimesNewRomanPSMT-29" transform="translate(1283.601213 0)"/>
     </g>
    </g>
    <g id="line2d_155">
     <path d="M 64.758944 331.095605 
L 76.008944 331.095605 
L 87.258944 331.095605 
" style="fill: none; stroke: #0000ff; stroke-width: 2; stroke-linecap: square"/>
    </g>
    <g id="text_27">
     <!-- $|Δ\mathbf{r}|/\overline{r}$  (max= 1/61) -->
     <g transform="translate(94.758944 336.345605) scale(0.2 -0.2)">
      <defs>
       <path id="TimesNewRomanPSMT-61" d="M 1822 413 
Q 1381 72 1269 19 
Q 1100 -59 909 -59 
Q 613 -59 420 144 
Q 228 347 228 678 
Q 228 888 322 1041 
Q 450 1253 767 1440 
Q 1084 1628 1822 1897 
L 1822 2009 
Q 1822 2438 1686 2597 
Q 1550 2756 1291 2756 
Q 1094 2756 978 2650 
Q 859 2544 859 2406 
L 866 2225 
Q 866 2081 792 2003 
Q 719 1925 600 1925 
Q 484 1925 411 2006 
Q 338 2088 338 2228 
Q 338 2497 613 2722 
Q 888 2947 1384 2947 
Q 1766 2947 2009 2819 
Q 2194 2722 2281 2516 
Q 2338 2381 2338 1966 
L 2338 994 
Q 2338 584 2353 492 
Q 2369 400 2405 369 
Q 2441 338 2488 338 
Q 2538 338 2575 359 
Q 2641 400 2828 588 
L 2828 413 
Q 2478 -56 2159 -56 
Q 2006 -56 1915 50 
Q 1825 156 1822 413 
z
M 1822 616 
L 1822 1706 
Q 1350 1519 1213 1441 
Q 966 1303 859 1153 
Q 753 1003 753 825 
Q 753 600 887 451 
Q 1022 303 1197 303 
Q 1434 303 1822 616 
z
" transform="scale(0.015625)"/>
       <path id="TimesNewRomanPSMT-78" d="M 84 2863 
L 1431 2863 
L 1431 2747 
Q 1303 2747 1251 2703 
Q 1200 2659 1200 2588 
Q 1200 2513 1309 2356 
Q 1344 2306 1413 2200 
L 1616 1875 
L 1850 2200 
Q 2075 2509 2075 2591 
Q 2075 2656 2022 2701 
Q 1969 2747 1850 2747 
L 1850 2863 
L 2819 2863 
L 2819 2747 
Q 2666 2738 2553 2663 
Q 2400 2556 2134 2200 
L 1744 1678 
L 2456 653 
Q 2719 275 2831 198 
Q 2944 122 3122 113 
L 3122 0 
L 1772 0 
L 1772 113 
Q 1913 113 1991 175 
Q 2050 219 2050 291 
Q 2050 363 1850 653 
L 1431 1266 
L 972 653 
Q 759 369 759 316 
Q 759 241 829 180 
Q 900 119 1041 113 
L 1041 0 
L 106 0 
L 106 113 
Q 219 128 303 191 
Q 422 281 703 653 
L 1303 1450 
L 759 2238 
Q 528 2575 401 2661 
Q 275 2747 84 2747 
L 84 2863 
z
" transform="scale(0.015625)"/>
       <path id="TimesNewRomanPSMT-3d" d="M 116 2759 
L 3488 2759 
L 3488 2503 
L 116 2503 
L 116 2759 
z
M 116 1741 
L 3488 1741 
L 3488 1484 
L 116 1484 
L 116 1741 
z
" transform="scale(0.015625)"/>
      </defs>
      <use xlink:href="#Cmsy10-6a"/>
      <use xlink:href="#STIXGeneral-Regular-394" transform="translate(27.685547 0)"/>
      <use xlink:href="#Cmb10-72" transform="translate(99.885529 0)"/>
      <use xlink:href="#Cmsy10-6a" transform="translate(142.56131 0)"/>
      <use xlink:href="#Cmmi10-3d" transform="translate(170.246857 0)"/>
      <use xlink:href="#Cmmi10-72" transform="translate(220.246857 0.5)"/>
      <use xlink:href="#TimesNewRomanPSMT-20" transform="translate(265.364044 0)"/>
      <use xlink:href="#TimesNewRomanPSMT-20" transform="translate(290.364044 0)"/>
      <use xlink:href="#TimesNewRomanPSMT-28" transform="translate(315.364044 0)"/>
      <use xlink:href="#TimesNewRomanPSMT-6d" transform="translate(348.664825 0)"/>
      <use xlink:href="#TimesNewRomanPSMT-61" transform="translate(426.448029 0)"/>
      <use xlink:href="#TimesNewRomanPSMT-78" transform="translate(470.832794 0)"/>
      <use xlink:href="#TimesNewRomanPSMT-3d" transform="translate(520.832794 0)"/>
      <use xlink:href="#TimesNewRomanPSMT-20" transform="translate(577.229279 0)"/>
      <use xlink:href="#TimesNewRomanPSMT-31" transform="translate(602.229279 0)"/>
      <use xlink:href="#TimesNewRomanPSMT-2f" transform="translate(652.229279 0)"/>
      <use xlink:href="#TimesNewRomanPSMT-36" transform="translate(680.012482 0)"/>
      <use xlink:href="#TimesNewRomanPSMT-31" transform="translate(730.012482 0)"/>
      <use xlink:href="#TimesNewRomanPSMT-29" transform="translate(780.012482 0)"/>
      <path d="M 220.246857 56.4375 
L 220.246857 62.6875 
L 265.364044 62.6875 
L 265.364044 56.4375 
L 220.246857 56.4375 
z
"/>
     </g>
    </g>
    <g id="line2d_156">
     <path d="M 367.908944 303.595605 
L 379.158944 303.595605 
L 390.408944 303.595605 
" style="fill: none; stroke: #008000; stroke-width: 2; stroke-linecap: square"/>
    </g>
    <g id="text_28">
     <!-- $Δθ$ [deg] -->
     <g transform="translate(397.908944 308.845605) scale(0.2 -0.2)">
      <defs>
       <path id="STIXGeneral-Italic-3b8" d="M 3162 3270 
Q 3162 2534 2925 1862 
Q 2688 1190 2304 678 
Q 1741 -70 992 -70 
Q 608 -70 390 224 
Q 173 518 173 1030 
Q 173 1997 592 2813 
Q 1011 3629 1594 4070 
Q 1952 4339 2374 4339 
Q 2733 4339 2947 4076 
Q 3162 3814 3162 3270 
z
M 941 2221 
L 2432 2221 
Q 2624 2874 2624 3533 
Q 2624 4205 2285 4205 
Q 2029 4205 1728 3814 
Q 1427 3424 1232 2992 
Q 1037 2560 941 2221 
z
M 2387 2016 
L 896 2016 
Q 710 1530 710 960 
Q 710 64 1069 64 
Q 1286 64 1510 275 
Q 1734 486 1904 806 
Q 2074 1126 2198 1440 
Q 2323 1754 2387 2016 
z
" transform="scale(0.015625)"/>
       <path id="TimesNewRomanPSMT-64" d="M 2222 322 
Q 2013 103 1813 7 
Q 1613 -88 1381 -88 
Q 913 -88 563 304 
Q 213 697 213 1313 
Q 213 1928 600 2439 
Q 988 2950 1597 2950 
Q 1975 2950 2222 2709 
L 2222 3238 
Q 2222 3728 2198 3840 
Q 2175 3953 2125 3993 
Q 2075 4034 2000 4034 
Q 1919 4034 1784 3984 
L 1744 4094 
L 2597 4444 
L 2738 4444 
L 2738 1134 
Q 2738 631 2761 520 
Q 2784 409 2836 365 
Q 2888 322 2956 322 
Q 3041 322 3181 375 
L 3216 266 
L 2366 -88 
L 2222 -88 
L 2222 322 
z
M 2222 541 
L 2222 2016 
Q 2203 2228 2109 2403 
Q 2016 2578 1861 2667 
Q 1706 2756 1559 2756 
Q 1284 2756 1069 2509 
Q 784 2184 784 1559 
Q 784 928 1059 592 
Q 1334 256 1672 256 
Q 1956 256 2222 541 
z
" transform="scale(0.015625)"/>
       <path id="TimesNewRomanPSMT-67" d="M 966 1044 
Q 703 1172 562 1401 
Q 422 1631 422 1909 
Q 422 2334 742 2640 
Q 1063 2947 1563 2947 
Q 1972 2947 2272 2747 
L 2878 2747 
Q 3013 2747 3034 2739 
Q 3056 2731 3066 2713 
Q 3084 2684 3084 2613 
Q 3084 2531 3069 2500 
Q 3059 2484 3036 2475 
Q 3013 2466 2878 2466 
L 2506 2466 
Q 2681 2241 2681 1891 
Q 2681 1491 2375 1206 
Q 2069 922 1553 922 
Q 1341 922 1119 984 
Q 981 866 932 777 
Q 884 688 884 625 
Q 884 572 936 522 
Q 988 472 1138 450 
Q 1225 438 1575 428 
Q 2219 413 2409 384 
Q 2700 344 2873 169 
Q 3047 -6 3047 -263 
Q 3047 -616 2716 -925 
Q 2228 -1381 1444 -1381 
Q 841 -1381 425 -1109 
Q 191 -953 191 -784 
Q 191 -709 225 -634 
Q 278 -519 444 -313 
Q 466 -284 763 25 
Q 600 122 533 198 
Q 466 275 466 372 
Q 466 481 555 628 
Q 644 775 966 1044 
z
M 1509 2797 
Q 1278 2797 1122 2612 
Q 966 2428 966 2047 
Q 966 1553 1178 1281 
Q 1341 1075 1591 1075 
Q 1828 1075 1981 1253 
Q 2134 1431 2134 1813 
Q 2134 2309 1919 2591 
Q 1759 2797 1509 2797 
z
M 934 0 
Q 788 -159 713 -296 
Q 638 -434 638 -550 
Q 638 -700 819 -813 
Q 1131 -1006 1722 -1006 
Q 2284 -1006 2551 -807 
Q 2819 -609 2819 -384 
Q 2819 -222 2659 -153 
Q 2497 -84 2016 -72 
Q 1313 -53 934 0 
z
" transform="scale(0.015625)"/>
      </defs>
      <use xlink:href="#STIXGeneral-Regular-394" transform="translate(0 0.5625)"/>
      <use xlink:href="#STIXGeneral-Italic-3b8" transform="translate(72.199982 0.5625)"/>
      <use xlink:href="#TimesNewRomanPSMT-20" transform="translate(120.199966 0.5625)"/>
      <use xlink:href="#TimesNewRomanPSMT-5b" transform="translate(145.199966 0.5625)"/>
      <use xlink:href="#TimesNewRomanPSMT-64" transform="translate(178.500748 0.5625)"/>
      <use xlink:href="#TimesNewRomanPSMT-65" transform="translate(228.500748 0.5625)"/>
      <use xlink:href="#TimesNewRomanPSMT-67" transform="translate(272.885513 0.5625)"/>
      <use xlink:href="#TimesNewRomanPSMT-5d" transform="translate(322.885513 0.5625)"/>
     </g>
    </g>
   </g>
  </g>
 </g>
 <defs>
  <clipPath id="paf716d9ff7">
   <rect x="55.178365" y="3.00024" width="423.711159" height="276.869033"/>
  </clipPath>
  <clipPath id="pa06d46c661">
   <rect x="55.178365" y="323.82119" width="423.711159" height="276.869033"/>
  </clipPath>
 </defs>
</svg>
