<?xml version="1.0" encoding="utf-8" standalone="no"?>
<!DOCTYPE svg PUBLIC "-//W3C//DTD SVG 1.1//EN"
  "http://www.w3.org/Graphics/SVG/1.1/DTD/svg11.dtd">
<svg xmlns:xlink="http://www.w3.org/1999/xlink" width="481.889764pt" height="646.299213pt" viewBox="0 0 481.889764 646.299213" xmlns="http://www.w3.org/2000/svg" version="1.1">
 <metadata>
  <rdf:RDF xmlns:dc="http://purl.org/dc/elements/1.1/" xmlns:cc="http://creativecommons.org/ns#" xmlns:rdf="http://www.w3.org/1999/02/22-rdf-syntax-ns#">
   <cc:Work>
    <dc:type rdf:resource="http://purl.org/dc/dcmitype/StillImage"/>
    <dc:date>2026-05-01T07:45:45.230384</dc:date>
    <dc:format>image/svg+xml</dc:format>
    <dc:creator>
     <cc:Agent>
      <dc:title>Matplotlib v3.10.9, https://matplotlib.org/</dc:title>
     </cc:Agent>
    </dc:creator>
   </cc:Work>
  </rdf:RDF>
 </metadata>
 <defs>
  <style type="text/css">*{stroke-linejoin: round; stroke-linecap: butt}</style>
 </defs>
 <g id="figure_1">
  <g id="patch_1">
   <path d="M 0 646.299213 
L 481.889764 646.299213 
L 481.889764 0 
L 0 0 
z
" style="fill: #ffffff"/>
  </g>
  <g id="axes_1">
   <g id="patch_2">
    <path d="M 55.178365 293.30426 
L 476.256323 293.30426 
L 476.256323 3.00024 
L 55.178365 3.00024 
z
" style="fill: #ffffff"/>
   </g>
   <g id="matplotlib.axis_1">
    <g id="xtick_1">
     <g id="line2d_1">
      <path d="M 62.788208 293.30426 
L 62.788208 3.00024 
" clip-path="url(#p85d3e17d05)" style="fill: none; stroke: #b0b0b0; stroke-width: 0.8; stroke-linecap: square"/>
     </g>
     <g id="line2d_2"/>
    </g>
    <g id="xtick_2">
     <g id="line2d_3">
      <path d="M 130.431253 293.30426 
L 130.431253 3.00024 
" clip-path="url(#p85d3e17d05)" style="fill: none; stroke: #b0b0b0; stroke-width: 0.8; stroke-linecap: square"/>
     </g>
     <g id="line2d_4"/>
    </g>
    <g id="xtick_3">
     <g id="line2d_5">
      <path d="M 198.074298 293.30426 
L 198.074298 3.00024 
" clip-path="url(#p85d3e17d05)" style="fill: none; stroke: #b0b0b0; stroke-width: 0.8; stroke-linecap: square"/>
     </g>
     <g id="line2d_6"/>
    </g>
    <g id="xtick_4">
     <g id="line2d_7">
      <path d="M 265.717344 293.30426 
L 265.717344 3.00024 
" clip-path="url(#p85d3e17d05)" style="fill: none; stroke: #b0b0b0; stroke-width: 0.8; stroke-linecap: square"/>
     </g>
     <g id="line2d_8"/>
    </g>
    <g id="xtick_5">
     <g id="line2d_9">
      <path d="M 333.360389 293.30426 
L 333.360389 3.00024 
" clip-path="url(#p85d3e17d05)" style="fill: none; stroke: #b0b0b0; stroke-width: 0.8; stroke-linecap: square"/>
     </g>
     <g id="line2d_10"/>
    </g>
    <g id="xtick_6">
     <g id="line2d_11">
      <path d="M 401.003435 293.30426 
L 401.003435 3.00024 
" clip-path="url(#p85d3e17d05)" style="fill: none; stroke: #b0b0b0; stroke-width: 0.8; stroke-linecap: square"/>
     </g>
     <g id="line2d_12"/>
    </g>
    <g id="xtick_7">
     <g id="line2d_13">
      <path d="M 468.64648 293.30426 
L 468.64648 3.00024 
" clip-path="url(#p85d3e17d05)" style="fill: none; stroke: #b0b0b0; stroke-width: 0.8; stroke-linecap: square"/>
     </g>
     <g id="line2d_14"/>
    </g>
    <g id="xtick_8">
     <g id="line2d_15">
      <path d="M 96.60973 293.30426 
L 96.60973 3.00024 
" clip-path="url(#p85d3e17d05)" style="fill: none; stroke-dasharray: 0.5,0.825; stroke-dashoffset: 0; stroke: #bfbfbf; stroke-width: 0.5"/>
     </g>
     <g id="line2d_16"/>
    </g>
    <g id="xtick_9">
     <g id="line2d_17">
      <path d="M 164.252776 293.30426 
L 164.252776 3.00024 
" clip-path="url(#p85d3e17d05)" style="fill: none; stroke-dasharray: 0.5,0.825; stroke-dashoffset: 0; stroke: #bfbfbf; stroke-width: 0.5"/>
     </g>
     <g id="line2d_18"/>
    </g>
    <g id="xtick_10">
     <g id="line2d_19">
      <path d="M 231.895821 293.30426 
L 231.895821 3.00024 
" clip-path="url(#p85d3e17d05)" style="fill: none; stroke-dasharray: 0.5,0.825; stroke-dashoffset: 0; stroke: #bfbfbf; stroke-width: 0.5"/>
     </g>
     <g id="line2d_20"/>
    </g>
    <g id="xtick_11">
     <g id="line2d_21">
      <path d="M 299.538867 293.30426 
L 299.538867 3.00024 
" clip-path="url(#p85d3e17d05)" style="fill: none; stroke-dasharray: 0.5,0.825; stroke-dashoffset: 0; stroke: #bfbfbf; stroke-width: 0.5"/>
     </g>
     <g id="line2d_22"/>
    </g>
    <g id="xtick_12">
     <g id="line2d_23">
      <path d="M 367.181912 293.30426 
L 367.181912 3.00024 
" clip-path="url(#p85d3e17d05)" style="fill: none; stroke-dasharray: 0.5,0.825; stroke-dashoffset: 0; stroke: #bfbfbf; stroke-width: 0.5"/>
     </g>
     <g id="line2d_24"/>
    </g>
    <g id="xtick_13">
     <g id="line2d_25">
      <path d="M 434.824958 293.30426 
L 434.824958 3.00024 
" clip-path="url(#p85d3e17d05)" style="fill: none; stroke-dasharray: 0.5,0.825; stroke-dashoffset: 0; stroke: #bfbfbf; stroke-width: 0.5"/>
     </g>
     <g id="line2d_26"/>
    </g>
   </g>
   <g id="matplotlib.axis_2">
    <g id="ytick_1">
     <g id="line2d_27">
      <path d="M 55.178365 283.177375 
L 476.256323 283.177375 
" clip-path="url(#p85d3e17d05)" style="fill: none; stroke: #b0b0b0; stroke-width: 0.8; stroke-linecap: square"/>
     </g>
     <g id="line2d_28"/>
     <g id="text_1">
      <!-- −20 -->
      <g transform="translate(20.40024 290.121125) scale(0.2 -0.2)">
       <defs>
        <path id="TimesNewRomanPSMT-2212" d="M 3484 2000 
L 116 2000 
L 116 2256 
L 3484 2256 
L 3484 2000 
z
" transform="scale(0.015625)"/>
        <path id="TimesNewRomanPSMT-32" d="M 2934 816 
L 2638 0 
L 138 0 
L 138 116 
Q 1241 1122 1691 1759 
Q 2141 2397 2141 2925 
Q 2141 3328 1894 3587 
Q 1647 3847 1303 3847 
Q 991 3847 742 3664 
Q 494 3481 375 3128 
L 259 3128 
Q 338 3706 661 4015 
Q 984 4325 1469 4325 
Q 1984 4325 2329 3994 
Q 2675 3663 2675 3213 
Q 2675 2891 2525 2569 
Q 2294 2063 1775 1497 
Q 997 647 803 472 
L 1909 472 
Q 2247 472 2383 497 
Q 2519 522 2628 598 
Q 2738 675 2819 816 
L 2934 816 
z
" transform="scale(0.015625)"/>
        <path id="TimesNewRomanPSMT-30" d="M 231 2094 
Q 231 2819 450 3342 
Q 669 3866 1031 4122 
Q 1313 4325 1613 4325 
Q 2100 4325 2488 3828 
Q 2972 3213 2972 2159 
Q 2972 1422 2759 906 
Q 2547 391 2217 158 
Q 1888 -75 1581 -75 
Q 975 -75 572 641 
Q 231 1244 231 2094 
z
M 844 2016 
Q 844 1141 1059 588 
Q 1238 122 1591 122 
Q 1759 122 1940 273 
Q 2122 425 2216 781 
Q 2359 1319 2359 2297 
Q 2359 3022 2209 3506 
Q 2097 3866 1919 4016 
Q 1791 4119 1609 4119 
Q 1397 4119 1231 3928 
Q 1006 3669 925 3112 
Q 844 2556 844 2016 
z
" transform="scale(0.015625)"/>
       </defs>
       <use xlink:href="#TimesNewRomanPSMT-2212"/>
       <use xlink:href="#TimesNewRomanPSMT-32" transform="translate(56.396484 0)"/>
       <use xlink:href="#TimesNewRomanPSMT-30" transform="translate(106.396484 0)"/>
      </g>
     </g>
    </g>
    <g id="ytick_2">
     <g id="line2d_29">
      <path d="M 55.178365 215.664813 
L 476.256323 215.664813 
" clip-path="url(#p85d3e17d05)" style="fill: none; stroke: #b0b0b0; stroke-width: 0.8; stroke-linecap: square"/>
     </g>
     <g id="line2d_30"/>
     <g id="text_2">
      <!-- −10 -->
      <g transform="translate(20.40024 222.608563) scale(0.2 -0.2)">
       <defs>
        <path id="TimesNewRomanPSMT-31" d="M 750 3822 
L 1781 4325 
L 1884 4325 
L 1884 747 
Q 1884 391 1914 303 
Q 1944 216 2037 169 
Q 2131 122 2419 116 
L 2419 0 
L 825 0 
L 825 116 
Q 1125 122 1212 167 
Q 1300 213 1334 289 
Q 1369 366 1369 747 
L 1369 3034 
Q 1369 3497 1338 3628 
Q 1316 3728 1258 3775 
Q 1200 3822 1119 3822 
Q 1003 3822 797 3725 
L 750 3822 
z
" transform="scale(0.015625)"/>
       </defs>
       <use xlink:href="#TimesNewRomanPSMT-2212"/>
       <use xlink:href="#TimesNewRomanPSMT-31" transform="translate(56.396484 0)"/>
       <use xlink:href="#TimesNewRomanPSMT-30" transform="translate(106.396484 0)"/>
      </g>
     </g>
    </g>
    <g id="ytick_3">
     <g id="line2d_31">
      <path d="M 55.178365 148.15225 
L 476.256323 148.15225 
" clip-path="url(#p85d3e17d05)" style="fill: none; stroke: #b0b0b0; stroke-width: 0.8; stroke-linecap: square"/>
     </g>
     <g id="line2d_32"/>
     <g id="text_3">
      <!-- 0 -->
      <g transform="translate(41.678365 155.096) scale(0.2 -0.2)">
       <use xlink:href="#TimesNewRomanPSMT-30"/>
      </g>
     </g>
    </g>
    <g id="ytick_4">
     <g id="line2d_33">
      <path d="M 55.178365 80.639687 
L 476.256323 80.639687 
" clip-path="url(#p85d3e17d05)" style="fill: none; stroke: #b0b0b0; stroke-width: 0.8; stroke-linecap: square"/>
     </g>
     <g id="line2d_34"/>
     <g id="text_4">
      <!-- 10 -->
      <g transform="translate(31.678365 87.583437) scale(0.2 -0.2)">
       <use xlink:href="#TimesNewRomanPSMT-31"/>
       <use xlink:href="#TimesNewRomanPSMT-30" transform="translate(50 0)"/>
      </g>
     </g>
    </g>
    <g id="ytick_5">
     <g id="line2d_35">
      <path d="M 55.178365 13.127124 
L 476.256323 13.127124 
" clip-path="url(#p85d3e17d05)" style="fill: none; stroke: #b0b0b0; stroke-width: 0.8; stroke-linecap: square"/>
     </g>
     <g id="line2d_36"/>
     <g id="text_5">
      <!-- 20 -->
      <g transform="translate(31.678365 20.070874) scale(0.2 -0.2)">
       <use xlink:href="#TimesNewRomanPSMT-32"/>
       <use xlink:href="#TimesNewRomanPSMT-30" transform="translate(50 0)"/>
      </g>
     </g>
    </g>
    <g id="ytick_6">
     <g id="line2d_37">
      <path d="M 55.178365 269.674863 
L 476.256323 269.674863 
" clip-path="url(#p85d3e17d05)" style="fill: none; stroke-dasharray: 0.5,0.825; stroke-dashoffset: 0; stroke: #bfbfbf; stroke-width: 0.5"/>
     </g>
     <g id="line2d_38"/>
    </g>
    <g id="ytick_7">
     <g id="line2d_39">
      <path d="M 55.178365 256.17235 
L 476.256323 256.17235 
" clip-path="url(#p85d3e17d05)" style="fill: none; stroke-dasharray: 0.5,0.825; stroke-dashoffset: 0; stroke: #bfbfbf; stroke-width: 0.5"/>
     </g>
     <g id="line2d_40"/>
    </g>
    <g id="ytick_8">
     <g id="line2d_41">
      <path d="M 55.178365 242.669838 
L 476.256323 242.669838 
" clip-path="url(#p85d3e17d05)" style="fill: none; stroke-dasharray: 0.5,0.825; stroke-dashoffset: 0; stroke: #bfbfbf; stroke-width: 0.5"/>
     </g>
     <g id="line2d_42"/>
    </g>
    <g id="ytick_9">
     <g id="line2d_43">
      <path d="M 55.178365 229.167325 
L 476.256323 229.167325 
" clip-path="url(#p85d3e17d05)" style="fill: none; stroke-dasharray: 0.5,0.825; stroke-dashoffset: 0; stroke: #bfbfbf; stroke-width: 0.5"/>
     </g>
     <g id="line2d_44"/>
    </g>
    <g id="ytick_10">
     <g id="line2d_45">
      <path d="M 55.178365 202.1623 
L 476.256323 202.1623 
" clip-path="url(#p85d3e17d05)" style="fill: none; stroke-dasharray: 0.5,0.825; stroke-dashoffset: 0; stroke: #bfbfbf; stroke-width: 0.5"/>
     </g>
     <g id="line2d_46"/>
    </g>
    <g id="ytick_11">
     <g id="line2d_47">
      <path d="M 55.178365 188.659787 
L 476.256323 188.659787 
" clip-path="url(#p85d3e17d05)" style="fill: none; stroke-dasharray: 0.5,0.825; stroke-dashoffset: 0; stroke: #bfbfbf; stroke-width: 0.5"/>
     </g>
     <g id="line2d_48"/>
    </g>
    <g id="ytick_12">
     <g id="line2d_49">
      <path d="M 55.178365 175.157275 
L 476.256323 175.157275 
" clip-path="url(#p85d3e17d05)" style="fill: none; stroke-dasharray: 0.5,0.825; stroke-dashoffset: 0; stroke: #bfbfbf; stroke-width: 0.5"/>
     </g>
     <g id="line2d_50"/>
    </g>
    <g id="ytick_13">
     <g id="line2d_51">
      <path d="M 55.178365 161.654762 
L 476.256323 161.654762 
" clip-path="url(#p85d3e17d05)" style="fill: none; stroke-dasharray: 0.5,0.825; stroke-dashoffset: 0; stroke: #bfbfbf; stroke-width: 0.5"/>
     </g>
     <g id="line2d_52"/>
    </g>
    <g id="ytick_14">
     <g id="line2d_53">
      <path d="M 55.178365 134.649737 
L 476.256323 134.649737 
" clip-path="url(#p85d3e17d05)" style="fill: none; stroke-dasharray: 0.5,0.825; stroke-dashoffset: 0; stroke: #bfbfbf; stroke-width: 0.5"/>
     </g>
     <g id="line2d_54"/>
    </g>
    <g id="ytick_15">
     <g id="line2d_55">
      <path d="M 55.178365 121.147225 
L 476.256323 121.147225 
" clip-path="url(#p85d3e17d05)" style="fill: none; stroke-dasharray: 0.5,0.825; stroke-dashoffset: 0; stroke: #bfbfbf; stroke-width: 0.5"/>
     </g>
     <g id="line2d_56"/>
    </g>
    <g id="ytick_16">
     <g id="line2d_57">
      <path d="M 55.178365 107.644712 
L 476.256323 107.644712 
" clip-path="url(#p85d3e17d05)" style="fill: none; stroke-dasharray: 0.5,0.825; stroke-dashoffset: 0; stroke: #bfbfbf; stroke-width: 0.5"/>
     </g>
     <g id="line2d_58"/>
    </g>
    <g id="ytick_17">
     <g id="line2d_59">
      <path d="M 55.178365 94.1422 
L 476.256323 94.1422 
" clip-path="url(#p85d3e17d05)" style="fill: none; stroke-dasharray: 0.5,0.825; stroke-dashoffset: 0; stroke: #bfbfbf; stroke-width: 0.5"/>
     </g>
     <g id="line2d_60"/>
    </g>
    <g id="ytick_18">
     <g id="line2d_61">
      <path d="M 55.178365 67.137175 
L 476.256323 67.137175 
" clip-path="url(#p85d3e17d05)" style="fill: none; stroke-dasharray: 0.5,0.825; stroke-dashoffset: 0; stroke: #bfbfbf; stroke-width: 0.5"/>
     </g>
     <g id="line2d_62"/>
    </g>
    <g id="ytick_19">
     <g id="line2d_63">
      <path d="M 55.178365 53.634662 
L 476.256323 53.634662 
" clip-path="url(#p85d3e17d05)" style="fill: none; stroke-dasharray: 0.5,0.825; stroke-dashoffset: 0; stroke: #bfbfbf; stroke-width: 0.5"/>
     </g>
     <g id="line2d_64"/>
    </g>
    <g id="ytick_20">
     <g id="line2d_65">
      <path d="M 55.178365 40.132149 
L 476.256323 40.132149 
" clip-path="url(#p85d3e17d05)" style="fill: none; stroke-dasharray: 0.5,0.825; stroke-dashoffset: 0; stroke: #bfbfbf; stroke-width: 0.5"/>
     </g>
     <g id="line2d_66"/>
    </g>
    <g id="ytick_21">
     <g id="line2d_67">
      <path d="M 55.178365 26.629637 
L 476.256323 26.629637 
" clip-path="url(#p85d3e17d05)" style="fill: none; stroke-dasharray: 0.5,0.825; stroke-dashoffset: 0; stroke: #bfbfbf; stroke-width: 0.5"/>
     </g>
     <g id="line2d_68"/>
    </g>
    <g id="text_6">
     <!-- $R_E$ -->
     <g transform="translate(3.00024 143.874125) scale(0.2 -0.2)">
      <defs>
       <path id="Cmmi10-52" d="M 313 0 
Q 250 0 250 84 
Q 253 100 262 139 
Q 272 178 289 201 
Q 306 225 331 225 
Q 722 225 878 269 
Q 959 297 997 441 
L 1875 3956 
Q 1888 4019 1888 4044 
Q 1888 4113 1813 4122 
Q 1691 4147 1350 4147 
Q 1288 4147 1288 4231 
Q 1291 4247 1300 4286 
Q 1309 4325 1326 4348 
Q 1344 4372 1369 4372 
L 3309 4372 
Q 3541 4372 3791 4319 
Q 4041 4266 4250 4152 
Q 4459 4038 4593 3848 
Q 4728 3659 4728 3406 
Q 4728 3084 4515 2831 
Q 4303 2578 3978 2408 
Q 3653 2238 3347 2169 
Q 3597 2078 3756 1879 
Q 3916 1681 3916 1422 
Q 3916 1388 3914 1370 
Q 3913 1353 3909 1331 
L 3859 763 
Q 3853 638 3847 550 
Q 3841 463 3841 409 
Q 3841 234 3892 129 
Q 3944 25 4097 25 
Q 4297 25 4448 211 
Q 4600 397 4647 616 
Q 4675 672 4709 672 
L 4769 672 
Q 4831 672 4831 588 
Q 4784 403 4682 237 
Q 4581 72 4426 -34 
Q 4272 -141 4091 -141 
Q 3716 -141 3452 26 
Q 3188 194 3188 550 
Q 3188 684 3213 788 
L 3353 1356 
Q 3378 1434 3378 1538 
Q 3378 1803 3198 1954 
Q 3019 2106 2747 2106 
L 1959 2106 
L 1538 416 
Q 1522 363 1522 325 
Q 1522 259 1600 250 
Q 1722 225 2059 225 
Q 2125 225 2125 141 
Q 2103 50 2090 25 
Q 2078 0 2016 0 
L 313 0 
z
M 1997 2272 
L 2706 2272 
Q 3403 2272 3756 2625 
Q 3919 2788 4014 3039 
Q 4109 3291 4109 3541 
Q 4109 3778 3970 3912 
Q 3831 4047 3626 4097 
Q 3422 4147 3175 4147 
L 2747 4147 
Q 2572 4147 2515 4117 
Q 2459 4088 2413 3928 
L 1997 2272 
z
" transform="scale(0.015625)"/>
       <path id="Cmmi10-45" d="M 300 0 
Q 238 0 238 84 
Q 241 100 250 139 
Q 259 178 276 201 
Q 294 225 319 225 
Q 709 225 863 269 
Q 947 297 984 441 
L 1863 3956 
Q 1875 4019 1875 4044 
Q 1875 4113 1797 4122 
Q 1678 4147 1338 4147 
Q 1275 4147 1275 4231 
Q 1278 4247 1287 4286 
Q 1297 4325 1314 4348 
Q 1331 4372 1356 4372 
L 4825 4372 
Q 4891 4372 4891 4288 
L 4738 2963 
Q 4738 2947 4714 2926 
Q 4691 2906 4672 2906 
L 4616 2906 
Q 4550 2906 4550 2988 
Q 4588 3300 4588 3450 
Q 4588 3706 4500 3848 
Q 4413 3991 4267 4053 
Q 4122 4116 3945 4131 
Q 3769 4147 3481 4147 
L 2753 4147 
Q 2578 4147 2522 4117 
Q 2466 4088 2419 3928 
L 2034 2381 
L 2534 2381 
Q 2859 2381 3025 2426 
Q 3191 2472 3287 2615 
Q 3384 2759 3463 3072 
Q 3469 3094 3486 3111 
Q 3503 3128 3525 3128 
L 3584 3128 
Q 3647 3128 3647 3047 
L 3250 1466 
Q 3238 1409 3188 1409 
L 3128 1409 
Q 3066 1409 3066 1491 
Q 3128 1747 3128 1869 
Q 3128 2056 2959 2106 
Q 2791 2156 2509 2156 
L 1978 2156 
L 1544 416 
Q 1516 338 1516 275 
Q 1516 225 1734 225 
L 2509 225 
Q 2972 225 3259 297 
Q 3547 369 3736 526 
Q 3925 684 4062 928 
Q 4200 1172 4397 1638 
Q 4409 1678 4453 1678 
L 4513 1678 
Q 4538 1678 4556 1656 
Q 4575 1634 4575 1606 
Q 4575 1594 4569 1581 
L 3909 38 
Q 3897 0 3859 0 
L 300 0 
z
" transform="scale(0.015625)"/>
      </defs>
      <use xlink:href="#Cmmi10-52" transform="translate(0 0.6875)"/>
      <use xlink:href="#Cmmi10-45" transform="translate(75.878906 -16.31875) scale(0.7)"/>
     </g>
    </g>
   </g>
   <g id="line2d_69">
    <path d="M 62.929131 142.391301 
L 89.704503 136.795965 
L 109.151878 132.949603 
L 125.498948 129.935325 
L 139.309403 127.602716 
L 151.428782 125.767179 
L 162.420777 124.321697 
L 172.285387 123.249865 
L 181.022614 122.525534 
L 188.632457 122.109439 
L 195.396761 121.950348 
L 201.597374 122.022959 
L 206.952448 122.295311 
L 212.025677 122.778091 
L 216.535213 123.438169 
L 220.481057 124.241145 
L 223.86321 125.140019 
L 226.963516 126.179038 
L 229.781976 127.348465 
L 232.31859 128.632421 
L 234.573358 130.007089 
L 236.828127 131.661837 
L 238.801049 133.403697 
L 240.492125 135.174137 
L 242.183201 137.264878 
L 243.874277 139.744321 
L 245.565353 142.663599 
L 247.538275 146.571799 
L 251.202274 153.962292 
L 252.89335 156.809529 
L 254.584426 159.198713 
L 256.275502 161.189533 
L 257.966578 162.855499 
L 259.9395 164.473833 
L 261.912423 165.815901 
L 264.167191 167.084403 
L 266.703805 168.246207 
L 269.522265 169.279405 
L 272.622571 170.170657 
L 276.004724 170.91224 
L 279.950568 171.537706 
L 284.178258 171.981533 
L 288.969641 172.260553 
L 294.324715 172.349043 
L 300.525328 172.218423 
L 307.571478 171.830591 
L 315.463167 171.158765 
L 324.200394 170.185691 
L 334.34685 168.819912 
L 345.902537 167.026291 
L 358.867454 164.784501 
L 374.368986 161.868558 
L 392.970823 158.131644 
L 417.209581 153.021574 
L 468.505557 141.957402 
L 468.505557 141.957402 
" clip-path="url(#p85d3e17d05)" style="fill: none; stroke: #ff0000; stroke-width: 2; stroke-linecap: square"/>
   </g>
   <g id="line2d_70">
    <path d="M 62.929131 142.707183 
L 89.986349 137.038899 
L 109.71557 133.124981 
L 126.06264 130.100918 
L 140.154941 127.714119 
L 152.556166 125.83634 
L 163.548161 124.396768 
L 173.130925 123.361176 
L 181.586306 122.66147 
L 189.196149 122.246872 
L 195.960453 122.092323 
L 202.161066 122.172247 
L 207.51614 122.454783 
L 212.307523 122.917629 
L 216.535213 123.531833 
L 220.481057 124.323344 
L 223.86321 125.2122 
L 226.963516 126.241793 
L 230.345668 127.603537 
L 232.882282 128.926675 
L 235.13705 130.347473 
L 237.109973 131.830365 
L 239.082895 133.597438 
L 240.773971 135.397204 
L 242.465047 137.525938 
L 244.156123 140.052668 
L 245.847199 143.023866 
L 247.820121 146.976602 
L 251.202274 153.810112 
L 252.89335 156.684488 
L 254.584426 159.099822 
L 256.275502 161.113689 
L 257.966578 162.799946 
L 259.9395 164.438713 
L 261.912423 165.798516 
L 264.167191 167.085037 
L 266.703805 168.264749 
L 269.522265 169.315731 
L 272.622571 170.224495 
L 276.004724 170.983384 
L 279.950568 171.627219 
L 284.178258 172.088848 
L 288.969641 172.386298 
L 294.324715 172.49346 
L 300.243482 172.39217 
L 307.007786 172.052166 
L 314.617629 171.443155 
L 323.354856 170.510949 
L 333.219466 169.224173 
L 344.211461 167.563026 
L 356.894532 165.418012 
L 371.832371 162.656785 
L 389.588671 159.138209 
L 412.136353 154.430596 
L 451.31295 145.978552 
L 468.505557 142.28025 
L 468.505557 142.28025 
" clip-path="url(#p85d3e17d05)" style="fill: none; stroke-dasharray: 11.1,4.8; stroke-dashoffset: 0; stroke: #ff0000; stroke-width: 3"/>
   </g>
   <g id="line2d_71">
    <path d="M 62.929131 221.182861 
L 71.384511 220.802537 
L 79.839892 220.204704 
L 88.295273 219.385633 
L 96.750653 218.340584 
L 105.206034 217.0634 
L 113.379569 215.601514 
L 121.553103 213.907817 
L 129.444792 212.043485 
L 137.054635 210.023029 
L 144.664477 207.772453 
L 151.992474 205.375595 
L 159.038624 202.845262 
L 166.084775 200.078356 
L 172.849079 197.183158 
L 179.331538 194.170994 
L 185.53215 191.053831 
L 191.450917 187.84352 
L 197.369683 184.379062 
L 203.006604 180.817539 
L 208.361678 177.168693 
L 213.434907 173.442894 
L 218.226289 169.651361 
L 222.735825 165.807537 
L 226.963516 161.927515 
L 231.191206 157.7458 
L 235.418896 153.236703 
L 240.492125 147.45795 
L 243.874277 143.691272 
L 245.565353 142.102046 
L 246.692737 141.286888 
L 247.820121 140.755046 
L 248.66566 140.576975 
L 249.511198 140.59732 
L 250.356736 140.806087 
L 251.48412 141.336235 
L 252.89335 142.304007 
L 254.866272 144.008016 
L 258.248424 147.321628 
L 265.858267 154.83319 
L 270.649649 159.231633 
L 275.722878 163.575911 
L 280.796106 167.623601 
L 286.151181 171.607884 
L 291.788101 175.516487 
L 297.706867 179.339033 
L 303.625634 182.902562 
L 309.826246 186.384274 
L 316.308705 189.77326 
L 323.07301 193.058619 
L 330.11916 196.229556 
L 337.447157 199.274851 
L 344.775153 202.079651 
L 352.384996 204.753414 
L 360.276685 207.283006 
L 368.168373 209.577615 
L 376.341908 211.717363 
L 384.515442 213.625622 
L 392.688977 215.310749 
L 401.144358 216.825985 
L 409.599738 218.115338 
L 418.055119 219.183675 
L 426.5105 220.034393 
L 435.247727 220.68769 
L 443.984953 221.11342 
L 452.72218 221.312097 
L 461.459407 221.283837 
L 468.505557 221.094685 
L 468.505557 221.094685 
" clip-path="url(#p85d3e17d05)" style="fill: none; stroke: #008000; stroke-width: 2; stroke-linecap: square"/>
   </g>
   <g id="line2d_72">
    <path d="M 62.929131 221.205549 
L 71.384511 220.832076 
L 79.839892 220.240924 
L 88.295273 219.428383 
L 96.750653 218.389653 
L 104.924188 217.164896 
L 113.097723 215.716496 
L 120.989411 214.098301 
L 128.8811 212.255475 
L 136.490943 210.256075 
L 144.100785 208.027219 
L 151.428782 205.651858 
L 158.756778 203.037683 
L 165.802929 200.283362 
L 172.567233 197.400505 
L 179.049692 194.400546 
L 185.250304 191.294849 
L 191.450917 187.936305 
L 197.369683 184.470161 
L 203.006604 180.906124 
L 208.361678 177.254057 
L 213.434907 173.524264 
L 218.226289 169.72796 
L 222.735825 165.878122 
L 226.963516 161.991066 
L 232.31859 156.716735 
L 236.546281 152.118303 
L 245.283507 142.429617 
L 246.692737 141.348818 
L 247.820121 140.790852 
L 248.66566 140.591927 
L 249.511198 140.592078 
L 250.356736 140.782606 
L 251.48412 141.292738 
L 252.89335 142.242449 
L 254.584426 143.672912 
L 257.402886 146.386649 
L 266.985651 155.799558 
L 271.777033 160.129718 
L 276.850262 164.406852 
L 281.92349 168.394745 
L 287.278565 172.323219 
L 292.915485 176.179998 
L 298.834252 179.954502 
L 305.034864 183.6369 
L 311.517323 187.217604 
L 317.999781 190.547575 
L 324.764086 193.776852 
L 331.810236 196.894178 
L 339.138233 199.888095 
L 346.466229 202.645337 
L 354.076072 205.272869 
L 361.967761 207.757584 
L 369.859449 210.009675 
L 378.032984 212.107669 
L 386.206519 213.976216 
L 394.661899 215.67595 
L 403.11728 217.145411 
L 411.572661 218.390251 
L 420.028041 219.414933 
L 428.765268 220.246058 
L 437.502495 220.848302 
L 446.239721 221.223204 
L 454.976948 221.371265 
L 463.714175 221.291985 
L 468.505557 221.151479 
L 468.505557 221.151479 
" clip-path="url(#p85d3e17d05)" style="fill: none; stroke-dasharray: 11.1,4.8; stroke-dashoffset: 0; stroke: #008000; stroke-width: 3"/>
   </g>
   <g id="line2d_73">
    <path d="M 62.929131 181.411251 
L 75.612202 180.37583 
L 88.295273 179.12077 
L 100.978344 177.644487 
L 113.661415 175.94359 
L 126.344486 174.012154 
L 138.745711 171.892726 
L 150.86509 169.590601 
L 162.702623 167.108748 
L 173.976464 164.516279 
L 184.686612 161.830452 
L 195.114915 158.98585 
L 205.261372 155.986147 
L 215.125983 152.836179 
L 225.554286 149.265692 
L 238.237357 144.918778 
L 241.337663 144.108224 
L 243.310585 143.78878 
L 245.001661 143.732902 
L 246.410891 143.913228 
L 247.820121 144.354144 
L 249.229352 145.064818 
L 250.920428 146.197345 
L 254.30258 148.833141 
L 258.53027 152.024207 
L 262.194269 154.493561 
L 266.140113 156.86599 
L 270.367803 159.134886 
L 274.87734 161.30205 
L 279.950568 163.486045 
L 285.305643 165.551276 
L 291.224409 167.595867 
L 297.706867 169.594412 
L 304.753018 171.524899 
L 312.081015 173.30349 
L 319.972703 174.99232 
L 328.428084 176.573182 
L 337.447157 178.028721 
L 347.029921 179.342208 
L 356.894532 180.468236 
L 367.322835 181.431786 
L 378.032984 182.198032 
L 389.306825 182.778191 
L 400.580666 183.140938 
L 412.418199 183.301087 
L 424.537578 183.241917 
L 436.938803 182.957075 
L 449.340028 182.452704 
L 462.023099 181.714828 
L 468.505557 181.252263 
L 468.505557 181.252263 
" clip-path="url(#p85d3e17d05)" style="fill: none; stroke: #0000ff; stroke-width: 2; stroke-linecap: square"/>
   </g>
   <g id="line2d_74">
    <path d="M 62.929131 181.419468 
L 75.612202 180.387092 
L 88.295273 179.134778 
L 100.978344 177.661092 
L 113.661415 175.962519 
L 126.06264 174.078685 
L 138.182019 172.017068 
L 150.019552 169.783318 
L 161.575239 167.381287 
L 172.849079 164.813037 
L 183.841074 162.0789 
L 194.269377 159.257306 
L 204.415834 156.280904 
L 214.280445 153.153483 
L 224.426902 149.700349 
L 237.673665 145.166692 
L 241.055817 144.230952 
L 243.310585 143.832778 
L 245.001661 143.757686 
L 246.410891 143.91738 
L 247.820121 144.334838 
L 249.229352 145.022752 
L 250.920428 146.133497 
L 254.020734 148.523502 
L 258.248424 151.721826 
L 261.912423 154.206077 
L 265.858267 156.593561 
L 270.085957 158.876281 
L 274.595494 161.056053 
L 279.668722 163.252231 
L 285.023796 165.32885 
L 290.942563 167.38475 
L 297.425021 169.394664 
L 304.471172 171.33665 
L 311.799169 173.126545 
L 319.690857 174.827018 
L 328.146238 176.419878 
L 337.165311 177.887885 
L 346.466229 179.178565 
L 356.33084 180.32403 
L 366.759143 181.3072 
L 377.469292 182.0931 
L 388.743133 182.693292 
L 400.29882 183.082496 
L 412.136353 183.25746 
L 424.255732 183.213375 
L 436.656957 182.943881 
L 449.058182 182.454634 
L 461.741253 181.73228 
L 468.505557 181.256461 
L 468.505557 181.256461 
" clip-path="url(#p85d3e17d05)" style="fill: none; stroke-dasharray: 11.1,4.8; stroke-dashoffset: 0; stroke: #0000ff; stroke-width: 3"/>
   </g>
   <g id="line2d_75">
    <path d="M 62.929131 67.697415 
L 71.948203 68.205317 
L 80.967276 68.934461 
L 89.986349 69.888564 
L 99.005422 71.072547 
L 107.742648 72.444515 
L 116.479875 74.045207 
L 124.935256 75.820092 
L 133.390636 77.826827 
L 141.564171 79.998103 
L 149.45586 82.322143 
L 157.065702 84.787966 
L 164.675545 87.48956 
L 172.003541 90.33061 
L 179.049692 93.302307 
L 185.813997 96.39607 
L 192.296455 99.603675 
L 198.497068 102.918268 
L 204.415834 106.332485 
L 210.052754 109.839152 
L 215.407829 113.430875 
L 220.481057 117.099261 
L 225.27244 120.833331 
L 230.627514 125.309841 
L 235.418896 129.684623 
L 244.437969 138.081753 
L 245.847199 139.034563 
L 246.974583 139.561459 
L 248.101968 139.811182 
L 248.947506 139.793416 
L 250.07489 139.49923 
L 251.202274 138.936151 
L 252.611504 137.952108 
L 254.584426 136.260893 
L 258.53027 132.493881 
L 264.449037 126.922454 
L 269.240419 122.743192 
L 274.031802 118.87124 
L 278.823184 115.277108 
L 283.896412 111.739581 
L 289.251487 108.269531 
L 294.888407 104.876216 
L 300.807174 101.567928 
L 307.007786 98.352898 
L 313.490245 95.239239 
L 320.254549 92.235276 
L 327.3007 89.349598 
L 334.628696 86.591077 
L 342.238539 83.968971 
L 350.130228 81.493131 
L 358.021916 79.249768 
L 366.195451 77.15769 
L 374.650832 75.228804 
L 383.106212 73.528442 
L 391.843439 72.001924 
L 400.580666 70.701682 
L 409.317892 69.621069 
L 418.336965 68.730274 
L 427.356038 68.063407 
L 436.375111 67.617039 
L 445.676029 67.385542 
L 454.695102 67.381704 
L 463.714175 67.595203 
L 468.505557 67.797281 
L 468.505557 67.797281 
" clip-path="url(#p85d3e17d05)" style="fill: none; stroke: #000000; stroke-width: 2; stroke-linecap: square"/>
   </g>
   <g id="line2d_76">
    <path d="M 63.599924 270.079938 
L 80.443042 270.079938 
" style="fill: none; stroke: #000000; stroke-width: 2"/>
   </g>
   <g id="text_7">
    <g id="patch_3">
     <path d="M 84.653822 279.892047 
L 91.553822 279.892047 
Q 94.553822 279.892047 94.553822 276.892047 
L 94.553822 263.267829 
Q 94.553822 260.267829 91.553822 260.267829 
L 84.653822 260.267829 
Q 81.653822 260.267829 81.653822 263.267829 
L 81.653822 276.892047 
Q 81.653822 279.892047 84.653822 279.892047 
z
" style="fill: #ffffff"/>
    </g>
    <!-- $\overline{r}$ -->
    <g transform="translate(84.653822 273.683454) scale(0.15 -0.15)">
     <defs>
      <path id="Cmmi10-72" d="M 494 109 
Q 494 147 500 166 
L 978 2075 
Q 1025 2253 1025 2388 
Q 1025 2663 838 2663 
Q 638 2663 541 2423 
Q 444 2184 353 1819 
Q 353 1800 334 1789 
Q 316 1778 300 1778 
L 225 1778 
Q 203 1778 187 1801 
Q 172 1825 172 1844 
Q 241 2122 305 2315 
Q 369 2509 505 2668 
Q 641 2828 844 2828 
Q 1066 2828 1233 2700 
Q 1400 2572 1441 2363 
Q 1603 2575 1811 2701 
Q 2019 2828 2266 2828 
Q 2469 2828 2623 2709 
Q 2778 2591 2778 2388 
Q 2778 2225 2676 2104 
Q 2575 1984 2406 1984 
Q 2303 1984 2233 2048 
Q 2163 2113 2163 2216 
Q 2163 2356 2266 2467 
Q 2369 2578 2503 2578 
Q 2400 2663 2253 2663 
Q 1978 2663 1775 2467 
Q 1572 2272 1409 1972 
L 953 141 
Q 931 53 854 -9 
Q 778 -72 684 -72 
Q 606 -72 550 -22 
Q 494 28 494 109 
z
" transform="scale(0.015625)"/>
     </defs>
     <use xlink:href="#Cmmi10-72" transform="translate(0 0.5625)"/>
     <path d="M 0 56.5 
L 0 62.75 
L 45.117188 62.75 
L 45.117188 56.5 
L 0 56.5 
z
"/>
    </g>
   </g>
   <g id="legend_1">
    <g id="patch_4">
     <path d="M 71.470469 64.584399 
L 459.964219 64.584399 
Q 462.964219 64.584399 462.964219 61.584399 
L 462.964219 11.753149 
Q 462.964219 8.753149 459.964219 8.753149 
L 71.470469 8.753149 
Q 68.470469 8.753149 68.470469 11.753149 
L 68.470469 61.584399 
Q 68.470469 64.584399 71.470469 64.584399 
z
" style="fill: #ffffff; opacity: 0.8; stroke: #cccccc; stroke-linejoin: miter"/>
    </g>
    <g id="line2d_77">
     <path d="M 74.470469 23.390649 
L 85.720469 23.390649 
L 96.970469 23.390649 
" style="fill: none; stroke: #ff0000; stroke-width: 2; stroke-linecap: square"/>
    </g>
    <g id="text_8">
     <!-- SSCWeb/X -->
     <g transform="translate(104.470469 28.640649) scale(0.2 -0.2)">
      <defs>
       <path id="TimesNewRomanPSMT-53" d="M 2934 4334 
L 2934 2869 
L 2819 2869 
Q 2763 3291 2617 3541 
Q 2472 3791 2203 3937 
Q 1934 4084 1647 4084 
Q 1322 4084 1109 3886 
Q 897 3688 897 3434 
Q 897 3241 1031 3081 
Q 1225 2847 1953 2456 
Q 2547 2138 2764 1967 
Q 2981 1797 3098 1565 
Q 3216 1334 3216 1081 
Q 3216 600 2842 251 
Q 2469 -97 1881 -97 
Q 1697 -97 1534 -69 
Q 1438 -53 1133 45 
Q 828 144 747 144 
Q 669 144 623 97 
Q 578 50 556 -97 
L 441 -97 
L 441 1356 
L 556 1356 
Q 638 900 775 673 
Q 913 447 1195 297 
Q 1478 147 1816 147 
Q 2206 147 2432 353 
Q 2659 559 2659 841 
Q 2659 997 2573 1156 
Q 2488 1316 2306 1453 
Q 2184 1547 1640 1851 
Q 1097 2156 867 2337 
Q 638 2519 519 2737 
Q 400 2956 400 3219 
Q 400 3675 750 4004 
Q 1100 4334 1641 4334 
Q 1978 4334 2356 4169 
Q 2531 4091 2603 4091 
Q 2684 4091 2736 4139 
Q 2788 4188 2819 4334 
L 2934 4334 
z
" transform="scale(0.015625)"/>
       <path id="TimesNewRomanPSMT-43" d="M 3853 4334 
L 3950 2894 
L 3853 2894 
Q 3659 3541 3300 3825 
Q 2941 4109 2438 4109 
Q 2016 4109 1675 3895 
Q 1334 3681 1139 3212 
Q 944 2744 944 2047 
Q 944 1472 1128 1050 
Q 1313 628 1683 403 
Q 2053 178 2528 178 
Q 2941 178 3256 354 
Q 3572 531 3950 1056 
L 4047 994 
Q 3728 428 3303 165 
Q 2878 -97 2294 -97 
Q 1241 -97 663 684 
Q 231 1266 231 2053 
Q 231 2688 515 3219 
Q 800 3750 1298 4042 
Q 1797 4334 2388 4334 
Q 2847 4334 3294 4109 
Q 3425 4041 3481 4041 
Q 3566 4041 3628 4100 
Q 3709 4184 3744 4334 
L 3853 4334 
z
" transform="scale(0.015625)"/>
       <path id="TimesNewRomanPSMT-57" d="M 5991 4238 
L 5991 4122 
Q 5825 4122 5722 4062 
Q 5619 4003 5525 3841 
Q 5463 3731 5328 3319 
L 4147 -97 
L 4022 -97 
L 3056 2613 
L 2097 -97 
L 1984 -97 
L 725 3422 
Q 584 3816 547 3888 
Q 484 4006 376 4064 
Q 269 4122 84 4122 
L 84 4238 
L 1653 4238 
L 1653 4122 
L 1578 4122 
Q 1413 4122 1325 4047 
Q 1238 3972 1238 3866 
Q 1238 3756 1375 3363 
L 2209 984 
L 2913 3006 
L 2788 3363 
L 2688 3647 
Q 2622 3803 2541 3922 
Q 2500 3981 2441 4022 
Q 2363 4078 2284 4103 
Q 2225 4122 2097 4122 
L 2097 4238 
L 3747 4238 
L 3747 4122 
L 3634 4122 
Q 3459 4122 3378 4047 
Q 3297 3972 3297 3844 
Q 3297 3684 3438 3288 
L 4250 984 
L 5056 3319 
Q 5194 3706 5194 3856 
Q 5194 3928 5148 3990 
Q 5103 4053 5034 4078 
Q 4916 4122 4725 4122 
L 4725 4238 
L 5991 4238 
z
" transform="scale(0.015625)"/>
       <path id="TimesNewRomanPSMT-65" d="M 681 1784 
Q 678 1147 991 784 
Q 1303 422 1725 422 
Q 2006 422 2214 576 
Q 2422 731 2563 1106 
L 2659 1044 
Q 2594 616 2278 264 
Q 1963 -88 1488 -88 
Q 972 -88 605 314 
Q 238 716 238 1394 
Q 238 2128 614 2539 
Q 991 2950 1559 2950 
Q 2041 2950 2350 2633 
Q 2659 2316 2659 1784 
L 681 1784 
z
M 681 1966 
L 2006 1966 
Q 1991 2241 1941 2353 
Q 1863 2528 1708 2628 
Q 1553 2728 1384 2728 
Q 1125 2728 920 2526 
Q 716 2325 681 1966 
z
" transform="scale(0.015625)"/>
       <path id="TimesNewRomanPSMT-62" d="M 984 2369 
Q 1400 2947 1881 2947 
Q 2322 2947 2650 2570 
Q 2978 2194 2978 1541 
Q 2978 778 2472 313 
Q 2038 -88 1503 -88 
Q 1253 -88 995 3 
Q 738 94 469 275 
L 469 3241 
Q 469 3728 445 3840 
Q 422 3953 372 3993 
Q 322 4034 247 4034 
Q 159 4034 28 3984 
L -16 4094 
L 844 4444 
L 984 4444 
L 984 2369 
z
M 984 2169 
L 984 456 
Q 1144 300 1314 220 
Q 1484 141 1663 141 
Q 1947 141 2192 453 
Q 2438 766 2438 1363 
Q 2438 1913 2192 2208 
Q 1947 2503 1634 2503 
Q 1469 2503 1303 2419 
Q 1178 2356 984 2169 
z
" transform="scale(0.015625)"/>
       <path id="TimesNewRomanPSMT-2f" d="M 1794 4444 
L 259 -88 
L 9 -88 
L 1544 4444 
L 1794 4444 
z
" transform="scale(0.015625)"/>
       <path id="TimesNewRomanPSMT-58" d="M 2613 2347 
L 3522 991 
Q 3900 428 4083 279 
Q 4266 131 4547 116 
L 4547 0 
L 2728 0 
L 2728 116 
Q 2909 119 2997 153 
Q 3063 181 3105 239 
Q 3147 297 3147 356 
Q 3147 428 3119 500 
Q 3097 553 2947 775 
L 2228 1863 
L 1341 725 
Q 1200 544 1172 483 
Q 1144 422 1144 356 
Q 1144 256 1228 190 
Q 1313 125 1550 116 
L 1550 0 
L 47 0 
L 47 116 
Q 206 131 322 181 
Q 516 263 691 400 
Q 866 538 1091 822 
L 2091 2084 
L 1256 3306 
Q 916 3803 678 3958 
Q 441 4113 131 4122 
L 131 4238 
L 2091 4238 
L 2091 4122 
Q 1841 4113 1748 4041 
Q 1656 3969 1656 3881 
Q 1656 3766 1806 3544 
L 2456 2572 
L 3209 3525 
Q 3341 3694 3370 3756 
Q 3400 3819 3400 3884 
Q 3400 3950 3363 4000 
Q 3316 4066 3244 4092 
Q 3172 4119 2947 4122 
L 2947 4238 
L 4450 4238 
L 4450 4122 
Q 4272 4113 4159 4066 
Q 3991 3994 3850 3872 
Q 3709 3750 3453 3422 
L 2613 2347 
z
" transform="scale(0.015625)"/>
      </defs>
      <use xlink:href="#TimesNewRomanPSMT-53"/>
      <use xlink:href="#TimesNewRomanPSMT-53" transform="translate(55.615234 0)"/>
      <use xlink:href="#TimesNewRomanPSMT-43" transform="translate(111.230469 0)"/>
      <use xlink:href="#TimesNewRomanPSMT-57" transform="translate(177.929688 0)"/>
      <use xlink:href="#TimesNewRomanPSMT-65" transform="translate(264.314453 0)"/>
      <use xlink:href="#TimesNewRomanPSMT-62" transform="translate(308.699219 0)"/>
      <use xlink:href="#TimesNewRomanPSMT-2f" transform="translate(358.699219 0)"/>
      <use xlink:href="#TimesNewRomanPSMT-58" transform="translate(386.482422 0)"/>
     </g>
    </g>
    <g id="line2d_78">
     <path d="M 74.470469 49.056274 
L 85.720469 49.056274 
L 96.970469 49.056274 
" style="fill: none; stroke-dasharray: 11.1,4.8; stroke-dashoffset: 0; stroke: #ff0000; stroke-width: 3"/>
    </g>
    <g id="text_9">
     <!-- JPL/X -->
     <g transform="translate(104.470469 54.306274) scale(0.2 -0.2)">
      <defs>
       <path id="TimesNewRomanPSMT-4a" d="M 638 4122 
L 638 4238 
L 2453 4238 
L 2453 4122 
L 2300 4122 
Q 2041 4122 1922 3969 
Q 1847 3869 1847 3488 
L 1847 1416 
Q 1847 938 1742 641 
Q 1638 344 1381 123 
Q 1125 -97 763 -97 
Q 469 -97 300 48 
Q 131 194 131 381 
Q 131 534 209 613 
Q 313 709 450 709 
Q 550 709 629 643 
Q 709 578 831 294 
Q 903 125 1016 125 
Q 1100 125 1173 228 
Q 1247 331 1247 594 
L 1247 3488 
Q 1247 3809 1206 3913 
Q 1175 3991 1075 4047 
Q 941 4122 791 4122 
L 638 4122 
z
" transform="scale(0.015625)"/>
       <path id="TimesNewRomanPSMT-50" d="M 1313 1984 
L 1313 750 
Q 1313 350 1400 253 
Q 1519 116 1759 116 
L 1922 116 
L 1922 0 
L 106 0 
L 106 116 
L 266 116 
Q 534 116 650 291 
Q 713 388 713 750 
L 713 3488 
Q 713 3888 628 3984 
Q 506 4122 266 4122 
L 106 4122 
L 106 4238 
L 1659 4238 
Q 2228 4238 2556 4120 
Q 2884 4003 3109 3725 
Q 3334 3447 3334 3066 
Q 3334 2547 2992 2222 
Q 2650 1897 2025 1897 
Q 1872 1897 1694 1919 
Q 1516 1941 1313 1984 
z
M 1313 2163 
Q 1478 2131 1606 2115 
Q 1734 2100 1825 2100 
Q 2150 2100 2386 2351 
Q 2622 2603 2622 3003 
Q 2622 3278 2509 3514 
Q 2397 3750 2190 3867 
Q 1984 3984 1722 3984 
Q 1563 3984 1313 3925 
L 1313 2163 
z
" transform="scale(0.015625)"/>
       <path id="TimesNewRomanPSMT-4c" d="M 3669 1172 
L 3772 1150 
L 3409 0 
L 128 0 
L 128 116 
L 288 116 
Q 556 116 672 291 
Q 738 391 738 753 
L 738 3488 
Q 738 3884 650 3984 
Q 528 4122 288 4122 
L 128 4122 
L 128 4238 
L 2047 4238 
L 2047 4122 
Q 1709 4125 1573 4059 
Q 1438 3994 1388 3894 
Q 1338 3794 1338 3416 
L 1338 753 
Q 1338 494 1388 397 
Q 1425 331 1503 300 
Q 1581 269 1991 269 
L 2300 269 
Q 2788 269 2984 341 
Q 3181 413 3343 595 
Q 3506 778 3669 1172 
z
" transform="scale(0.015625)"/>
      </defs>
      <use xlink:href="#TimesNewRomanPSMT-4a"/>
      <use xlink:href="#TimesNewRomanPSMT-50" transform="translate(38.916016 0)"/>
      <use xlink:href="#TimesNewRomanPSMT-4c" transform="translate(94.53125 0)"/>
      <use xlink:href="#TimesNewRomanPSMT-2f" transform="translate(155.615234 0)"/>
      <use xlink:href="#TimesNewRomanPSMT-58" transform="translate(183.398438 0)"/>
     </g>
    </g>
    <g id="line2d_79">
     <path d="M 205.961094 23.390649 
L 217.211094 23.390649 
L 228.461094 23.390649 
" style="fill: none; stroke: #008000; stroke-width: 2; stroke-linecap: square"/>
    </g>
    <g id="text_10">
     <!-- SSCWeb/Y -->
     <g transform="translate(235.961094 28.640649) scale(0.2 -0.2)">
      <defs>
       <path id="TimesNewRomanPSMT-59" d="M 3050 4238 
L 4528 4238 
L 4528 4122 
L 4447 4122 
Q 4366 4122 4209 4050 
Q 4053 3978 3925 3843 
Q 3797 3709 3609 3406 
L 2588 1797 
L 2588 734 
Q 2588 344 2675 247 
Q 2794 116 3050 116 
L 3188 116 
L 3188 0 
L 1388 0 
L 1388 116 
L 1538 116 
Q 1806 116 1919 278 
Q 1988 378 1988 734 
L 1988 1738 
L 825 3513 
Q 619 3825 545 3903 
Q 472 3981 241 4091 
Q 178 4122 59 4122 
L 59 4238 
L 1872 4238 
L 1872 4122 
L 1778 4122 
Q 1631 4122 1507 4053 
Q 1384 3984 1384 3847 
Q 1384 3734 1575 3441 
L 2459 2075 
L 3291 3381 
Q 3478 3675 3478 3819 
Q 3478 3906 3433 3975 
Q 3388 4044 3303 4083 
Q 3219 4122 3050 4122 
L 3050 4238 
z
" transform="scale(0.015625)"/>
      </defs>
      <use xlink:href="#TimesNewRomanPSMT-53"/>
      <use xlink:href="#TimesNewRomanPSMT-53" transform="translate(55.615234 0)"/>
      <use xlink:href="#TimesNewRomanPSMT-43" transform="translate(111.230469 0)"/>
      <use xlink:href="#TimesNewRomanPSMT-57" transform="translate(177.929688 0)"/>
      <use xlink:href="#TimesNewRomanPSMT-65" transform="translate(264.314453 0)"/>
      <use xlink:href="#TimesNewRomanPSMT-62" transform="translate(308.699219 0)"/>
      <use xlink:href="#TimesNewRomanPSMT-2f" transform="translate(358.699219 0)"/>
      <use xlink:href="#TimesNewRomanPSMT-59" transform="translate(386.482422 0)"/>
     </g>
    </g>
    <g id="line2d_80">
     <path d="M 205.961094 49.056274 
L 217.211094 49.056274 
L 228.461094 49.056274 
" style="fill: none; stroke-dasharray: 11.1,4.8; stroke-dashoffset: 0; stroke: #008000; stroke-width: 3"/>
    </g>
    <g id="text_11">
     <!-- JPL/Y -->
     <g transform="translate(235.961094 54.306274) scale(0.2 -0.2)">
      <use xlink:href="#TimesNewRomanPSMT-4a"/>
      <use xlink:href="#TimesNewRomanPSMT-50" transform="translate(38.916016 0)"/>
      <use xlink:href="#TimesNewRomanPSMT-4c" transform="translate(94.53125 0)"/>
      <use xlink:href="#TimesNewRomanPSMT-2f" transform="translate(155.615234 0)"/>
      <use xlink:href="#TimesNewRomanPSMT-59" transform="translate(183.398438 0)"/>
     </g>
    </g>
    <g id="line2d_81">
     <path d="M 337.451719 23.390649 
L 348.701719 23.390649 
L 359.951719 23.390649 
" style="fill: none; stroke: #0000ff; stroke-width: 2; stroke-linecap: square"/>
    </g>
    <g id="text_12">
     <!-- SSCWeb/Z -->
     <g transform="translate(367.451719 28.640649) scale(0.2 -0.2)">
      <defs>
       <path id="TimesNewRomanPSMT-5a" d="M 3681 4238 
L 897 256 
L 2634 256 
Q 3034 256 3248 431 
Q 3463 606 3628 1141 
L 3731 1122 
L 3531 0 
L 81 0 
L 81 116 
L 2800 3984 
L 1444 3984 
Q 1106 3984 954 3911 
Q 803 3838 723 3698 
Q 644 3559 578 3178 
L 459 3178 
L 547 4238 
L 3681 4238 
z
" transform="scale(0.015625)"/>
      </defs>
      <use xlink:href="#TimesNewRomanPSMT-53"/>
      <use xlink:href="#TimesNewRomanPSMT-53" transform="translate(55.615234 0)"/>
      <use xlink:href="#TimesNewRomanPSMT-43" transform="translate(111.230469 0)"/>
      <use xlink:href="#TimesNewRomanPSMT-57" transform="translate(177.929688 0)"/>
      <use xlink:href="#TimesNewRomanPSMT-65" transform="translate(264.314453 0)"/>
      <use xlink:href="#TimesNewRomanPSMT-62" transform="translate(308.699219 0)"/>
      <use xlink:href="#TimesNewRomanPSMT-2f" transform="translate(358.699219 0)"/>
      <use xlink:href="#TimesNewRomanPSMT-5a" transform="translate(386.482422 0)"/>
     </g>
    </g>
    <g id="line2d_82">
     <path d="M 337.451719 49.056274 
L 348.701719 49.056274 
L 359.951719 49.056274 
" style="fill: none; stroke-dasharray: 11.1,4.8; stroke-dashoffset: 0; stroke: #0000ff; stroke-width: 3"/>
    </g>
    <g id="text_13">
     <!-- JPL/Z -->
     <g transform="translate(367.451719 54.306274) scale(0.2 -0.2)">
      <use xlink:href="#TimesNewRomanPSMT-4a"/>
      <use xlink:href="#TimesNewRomanPSMT-50" transform="translate(38.916016 0)"/>
      <use xlink:href="#TimesNewRomanPSMT-4c" transform="translate(94.53125 0)"/>
      <use xlink:href="#TimesNewRomanPSMT-2f" transform="translate(155.615234 0)"/>
      <use xlink:href="#TimesNewRomanPSMT-5a" transform="translate(183.398438 0)"/>
     </g>
    </g>
   </g>
  </g>
  <g id="axes_2">
   <g id="patch_5">
    <path d="M 55.178365 600.690223 
L 476.256323 600.690223 
L 476.256323 310.386203 
L 55.178365 310.386203 
z
" style="fill: #ffffff"/>
   </g>
   <g id="matplotlib.axis_3">
    <g id="xtick_14">
     <g id="line2d_83">
      <path d="M 62.788208 600.690223 
L 62.788208 310.386203 
" clip-path="url(#p0ee687fe5b)" style="fill: none; stroke: #b0b0b0; stroke-width: 0.8; stroke-linecap: square"/>
     </g>
     <g id="line2d_84"/>
     <g id="text_14">
      <!-- 00 -->
      <g transform="translate(52.545152 618.077723) scale(0.2 -0.2)">
       <use xlink:href="#TimesNewRomanPSMT-30"/>
       <use xlink:href="#TimesNewRomanPSMT-30" transform="translate(50 0)"/>
      </g>
      <!-- 2016-09-01 -->
      <g transform="translate(52.545152 639.020848) scale(0.2 -0.2)">
       <defs>
        <path id="TimesNewRomanPSMT-36" d="M 2869 4325 
L 2869 4209 
Q 2456 4169 2195 4045 
Q 1934 3922 1679 3669 
Q 1425 3416 1258 3105 
Q 1091 2794 978 2366 
Q 1428 2675 1881 2675 
Q 2316 2675 2634 2325 
Q 2953 1975 2953 1425 
Q 2953 894 2631 456 
Q 2244 -75 1606 -75 
Q 1172 -75 869 213 
Q 275 772 275 1663 
Q 275 2231 503 2743 
Q 731 3256 1154 3653 
Q 1578 4050 1965 4187 
Q 2353 4325 2688 4325 
L 2869 4325 
z
M 925 2138 
Q 869 1716 869 1456 
Q 869 1156 980 804 
Q 1091 453 1309 247 
Q 1469 100 1697 100 
Q 1969 100 2183 356 
Q 2397 613 2397 1088 
Q 2397 1622 2184 2012 
Q 1972 2403 1581 2403 
Q 1463 2403 1327 2353 
Q 1191 2303 925 2138 
z
" transform="scale(0.015625)"/>
        <path id="TimesNewRomanPSMT-2d" d="M 259 1672 
L 1875 1672 
L 1875 1200 
L 259 1200 
L 259 1672 
z
" transform="scale(0.015625)"/>
        <path id="TimesNewRomanPSMT-39" d="M 338 -88 
L 338 28 
Q 744 34 1094 217 
Q 1444 400 1770 856 
Q 2097 1313 2225 1859 
Q 1734 1544 1338 1544 
Q 891 1544 572 1889 
Q 253 2234 253 2806 
Q 253 3363 572 3797 
Q 956 4325 1575 4325 
Q 2097 4325 2469 3894 
Q 2925 3359 2925 2575 
Q 2925 1869 2578 1258 
Q 2231 647 1613 244 
Q 1109 -88 516 -88 
L 338 -88 
z
M 2275 2091 
Q 2331 2497 2331 2741 
Q 2331 3044 2228 3395 
Q 2125 3747 1936 3934 
Q 1747 4122 1506 4122 
Q 1228 4122 1018 3872 
Q 809 3622 809 3128 
Q 809 2469 1088 2097 
Q 1291 1828 1588 1828 
Q 1731 1828 1928 1897 
Q 2125 1966 2275 2091 
z
" transform="scale(0.015625)"/>
       </defs>
       <use xlink:href="#TimesNewRomanPSMT-32"/>
       <use xlink:href="#TimesNewRomanPSMT-30" transform="translate(50 0)"/>
       <use xlink:href="#TimesNewRomanPSMT-31" transform="translate(100 0)"/>
       <use xlink:href="#TimesNewRomanPSMT-36" transform="translate(150 0)"/>
       <use xlink:href="#TimesNewRomanPSMT-2d" transform="translate(200 0)"/>
       <use xlink:href="#TimesNewRomanPSMT-30" transform="translate(233.300781 0)"/>
       <use xlink:href="#TimesNewRomanPSMT-39" transform="translate(283.300781 0)"/>
       <use xlink:href="#TimesNewRomanPSMT-2d" transform="translate(333.300781 0)"/>
       <use xlink:href="#TimesNewRomanPSMT-30" transform="translate(366.601562 0)"/>
       <use xlink:href="#TimesNewRomanPSMT-31" transform="translate(416.601562 0)"/>
      </g>
     </g>
    </g>
    <g id="xtick_15">
     <g id="line2d_85">
      <path d="M 130.431253 600.690223 
L 130.431253 310.386203 
" clip-path="url(#p0ee687fe5b)" style="fill: none; stroke: #b0b0b0; stroke-width: 0.8; stroke-linecap: square"/>
     </g>
     <g id="line2d_86"/>
     <g id="text_15">
      <!-- 04 -->
      <g transform="translate(121.931253 615.994598) scale(0.17 -0.17)">
       <defs>
        <path id="TimesNewRomanPSMT-34" d="M 2978 1563 
L 2978 1119 
L 2409 1119 
L 2409 0 
L 1894 0 
L 1894 1119 
L 100 1119 
L 100 1519 
L 2066 4325 
L 2409 4325 
L 2409 1563 
L 2978 1563 
z
M 1894 1563 
L 1894 3666 
L 406 1563 
L 1894 1563 
z
" transform="scale(0.015625)"/>
       </defs>
       <use xlink:href="#TimesNewRomanPSMT-30"/>
       <use xlink:href="#TimesNewRomanPSMT-34" transform="translate(50 0)"/>
      </g>
     </g>
    </g>
    <g id="xtick_16">
     <g id="line2d_87">
      <path d="M 198.074298 600.690223 
L 198.074298 310.386203 
" clip-path="url(#p0ee687fe5b)" style="fill: none; stroke: #b0b0b0; stroke-width: 0.8; stroke-linecap: square"/>
     </g>
     <g id="line2d_88"/>
     <g id="text_16">
      <!-- 08 -->
      <g transform="translate(189.574298 615.994598) scale(0.17 -0.17)">
       <defs>
        <path id="TimesNewRomanPSMT-38" d="M 1228 2134 
Q 725 2547 579 2797 
Q 434 3047 434 3316 
Q 434 3728 753 4026 
Q 1072 4325 1600 4325 
Q 2113 4325 2425 4047 
Q 2738 3769 2738 3413 
Q 2738 3175 2569 2928 
Q 2400 2681 1866 2347 
Q 2416 1922 2594 1678 
Q 2831 1359 2831 1006 
Q 2831 559 2490 242 
Q 2150 -75 1597 -75 
Q 994 -75 656 303 
Q 388 606 388 966 
Q 388 1247 577 1523 
Q 766 1800 1228 2134 
z
M 1719 2469 
Q 2094 2806 2194 3001 
Q 2294 3197 2294 3444 
Q 2294 3772 2109 3958 
Q 1925 4144 1606 4144 
Q 1288 4144 1088 3959 
Q 888 3775 888 3528 
Q 888 3366 970 3203 
Q 1053 3041 1206 2894 
L 1719 2469 
z
M 1375 2016 
Q 1116 1797 991 1539 
Q 866 1281 866 981 
Q 866 578 1086 336 
Q 1306 94 1647 94 
Q 1984 94 2187 284 
Q 2391 475 2391 747 
Q 2391 972 2272 1150 
Q 2050 1481 1375 2016 
z
" transform="scale(0.015625)"/>
       </defs>
       <use xlink:href="#TimesNewRomanPSMT-30"/>
       <use xlink:href="#TimesNewRomanPSMT-38" transform="translate(50 0)"/>
      </g>
     </g>
    </g>
    <g id="xtick_17">
     <g id="line2d_89">
      <path d="M 265.717344 600.690223 
L 265.717344 310.386203 
" clip-path="url(#p0ee687fe5b)" style="fill: none; stroke: #b0b0b0; stroke-width: 0.8; stroke-linecap: square"/>
     </g>
     <g id="line2d_90"/>
     <g id="text_17">
      <!-- 12 -->
      <g transform="translate(257.217344 615.994598) scale(0.17 -0.17)">
       <use xlink:href="#TimesNewRomanPSMT-31"/>
       <use xlink:href="#TimesNewRomanPSMT-32" transform="translate(50 0)"/>
      </g>
     </g>
    </g>
    <g id="xtick_18">
     <g id="line2d_91">
      <path d="M 333.360389 600.690223 
L 333.360389 310.386203 
" clip-path="url(#p0ee687fe5b)" style="fill: none; stroke: #b0b0b0; stroke-width: 0.8; stroke-linecap: square"/>
     </g>
     <g id="line2d_92"/>
     <g id="text_18">
      <!-- 16 -->
      <g transform="translate(324.860389 615.994598) scale(0.17 -0.17)">
       <use xlink:href="#TimesNewRomanPSMT-31"/>
       <use xlink:href="#TimesNewRomanPSMT-36" transform="translate(50 0)"/>
      </g>
     </g>
    </g>
    <g id="xtick_19">
     <g id="line2d_93">
      <path d="M 401.003435 600.690223 
L 401.003435 310.386203 
" clip-path="url(#p0ee687fe5b)" style="fill: none; stroke: #b0b0b0; stroke-width: 0.8; stroke-linecap: square"/>
     </g>
     <g id="line2d_94"/>
     <g id="text_19">
      <!-- 20 -->
      <g transform="translate(392.503435 615.994598) scale(0.17 -0.17)">
       <use xlink:href="#TimesNewRomanPSMT-32"/>
       <use xlink:href="#TimesNewRomanPSMT-30" transform="translate(50 0)"/>
      </g>
     </g>
    </g>
    <g id="xtick_20">
     <g id="line2d_95">
      <path d="M 468.64648 600.690223 
L 468.64648 310.386203 
" clip-path="url(#p0ee687fe5b)" style="fill: none; stroke: #b0b0b0; stroke-width: 0.8; stroke-linecap: square"/>
     </g>
     <g id="line2d_96"/>
     <g id="text_20">
      <!-- 00 -->
      <g transform="translate(458.889536 618.077723) scale(0.2 -0.2)">
       <use xlink:href="#TimesNewRomanPSMT-30"/>
       <use xlink:href="#TimesNewRomanPSMT-30" transform="translate(50 0)"/>
      </g>
      <!-- 2016-09-02 -->
      <g transform="translate(385.570786 639.020848) scale(0.2 -0.2)">
       <use xlink:href="#TimesNewRomanPSMT-32"/>
       <use xlink:href="#TimesNewRomanPSMT-30" transform="translate(50 0)"/>
       <use xlink:href="#TimesNewRomanPSMT-31" transform="translate(100 0)"/>
       <use xlink:href="#TimesNewRomanPSMT-36" transform="translate(150 0)"/>
       <use xlink:href="#TimesNewRomanPSMT-2d" transform="translate(200 0)"/>
       <use xlink:href="#TimesNewRomanPSMT-30" transform="translate(233.300781 0)"/>
       <use xlink:href="#TimesNewRomanPSMT-39" transform="translate(283.300781 0)"/>
       <use xlink:href="#TimesNewRomanPSMT-2d" transform="translate(333.300781 0)"/>
       <use xlink:href="#TimesNewRomanPSMT-30" transform="translate(366.601562 0)"/>
       <use xlink:href="#TimesNewRomanPSMT-32" transform="translate(416.601562 0)"/>
      </g>
     </g>
    </g>
    <g id="xtick_21">
     <g id="line2d_97">
      <path d="M 96.60973 600.690223 
L 96.60973 310.386203 
" clip-path="url(#p0ee687fe5b)" style="fill: none; stroke-dasharray: 0.5,0.825; stroke-dashoffset: 0; stroke: #bfbfbf; stroke-width: 0.5"/>
     </g>
     <g id="line2d_98"/>
    </g>
    <g id="xtick_22">
     <g id="line2d_99">
      <path d="M 164.252776 600.690223 
L 164.252776 310.386203 
" clip-path="url(#p0ee687fe5b)" style="fill: none; stroke-dasharray: 0.5,0.825; stroke-dashoffset: 0; stroke: #bfbfbf; stroke-width: 0.5"/>
     </g>
     <g id="line2d_100"/>
    </g>
    <g id="xtick_23">
     <g id="line2d_101">
      <path d="M 231.895821 600.690223 
L 231.895821 310.386203 
" clip-path="url(#p0ee687fe5b)" style="fill: none; stroke-dasharray: 0.5,0.825; stroke-dashoffset: 0; stroke: #bfbfbf; stroke-width: 0.5"/>
     </g>
     <g id="line2d_102"/>
    </g>
    <g id="xtick_24">
     <g id="line2d_103">
      <path d="M 299.538867 600.690223 
L 299.538867 310.386203 
" clip-path="url(#p0ee687fe5b)" style="fill: none; stroke-dasharray: 0.5,0.825; stroke-dashoffset: 0; stroke: #bfbfbf; stroke-width: 0.5"/>
     </g>
     <g id="line2d_104"/>
    </g>
    <g id="xtick_25">
     <g id="line2d_105">
      <path d="M 367.181912 600.690223 
L 367.181912 310.386203 
" clip-path="url(#p0ee687fe5b)" style="fill: none; stroke-dasharray: 0.5,0.825; stroke-dashoffset: 0; stroke: #bfbfbf; stroke-width: 0.5"/>
     </g>
     <g id="line2d_106"/>
    </g>
    <g id="xtick_26">
     <g id="line2d_107">
      <path d="M 434.824958 600.690223 
L 434.824958 310.386203 
" clip-path="url(#p0ee687fe5b)" style="fill: none; stroke-dasharray: 0.5,0.825; stroke-dashoffset: 0; stroke: #bfbfbf; stroke-width: 0.5"/>
     </g>
     <g id="line2d_108"/>
    </g>
   </g>
   <g id="matplotlib.axis_4">
    <g id="ytick_22">
     <g id="line2d_109">
      <path d="M 55.178365 587.494585 
L 476.256323 587.494585 
" clip-path="url(#p0ee687fe5b)" style="fill: none; stroke: #b0b0b0; stroke-width: 0.8; stroke-linecap: square"/>
     </g>
     <g id="line2d_110"/>
     <g id="text_21">
      <!-- 0.0 -->
      <g transform="translate(26.678365 594.438335) scale(0.2 -0.2)">
       <defs>
        <path id="TimesNewRomanPSMT-2e" d="M 800 606 
Q 947 606 1047 504 
Q 1147 403 1147 259 
Q 1147 116 1045 14 
Q 944 -88 800 -88 
Q 656 -88 554 14 
Q 453 116 453 259 
Q 453 406 554 506 
Q 656 606 800 606 
z
" transform="scale(0.015625)"/>
       </defs>
       <use xlink:href="#TimesNewRomanPSMT-30"/>
       <use xlink:href="#TimesNewRomanPSMT-2e" transform="translate(50 0)"/>
       <use xlink:href="#TimesNewRomanPSMT-30" transform="translate(75 0)"/>
      </g>
     </g>
    </g>
    <g id="ytick_23">
     <g id="line2d_111">
      <path d="M 55.178365 499.52367 
L 476.256323 499.52367 
" clip-path="url(#p0ee687fe5b)" style="fill: none; stroke: #b0b0b0; stroke-width: 0.8; stroke-linecap: square"/>
     </g>
     <g id="line2d_112"/>
     <g id="text_22">
      <!-- 0.5 -->
      <g transform="translate(26.678365 506.46742) scale(0.2 -0.2)">
       <defs>
        <path id="TimesNewRomanPSMT-35" d="M 2778 4238 
L 2534 3706 
L 1259 3706 
L 981 3138 
Q 1809 3016 2294 2522 
Q 2709 2097 2709 1522 
Q 2709 1188 2573 903 
Q 2438 619 2231 419 
Q 2025 219 1772 97 
Q 1413 -75 1034 -75 
Q 653 -75 479 54 
Q 306 184 306 341 
Q 306 428 378 495 
Q 450 563 559 563 
Q 641 563 702 538 
Q 763 513 909 409 
Q 1144 247 1384 247 
Q 1750 247 2026 523 
Q 2303 800 2303 1197 
Q 2303 1581 2056 1914 
Q 1809 2247 1375 2428 
Q 1034 2569 447 2591 
L 1259 4238 
L 2778 4238 
z
" transform="scale(0.015625)"/>
       </defs>
       <use xlink:href="#TimesNewRomanPSMT-30"/>
       <use xlink:href="#TimesNewRomanPSMT-2e" transform="translate(50 0)"/>
       <use xlink:href="#TimesNewRomanPSMT-35" transform="translate(75 0)"/>
      </g>
     </g>
    </g>
    <g id="ytick_24">
     <g id="line2d_113">
      <path d="M 55.178365 411.552755 
L 476.256323 411.552755 
" clip-path="url(#p0ee687fe5b)" style="fill: none; stroke: #b0b0b0; stroke-width: 0.8; stroke-linecap: square"/>
     </g>
     <g id="line2d_114"/>
     <g id="text_23">
      <!-- 1.0 -->
      <g transform="translate(26.678365 418.496505) scale(0.2 -0.2)">
       <use xlink:href="#TimesNewRomanPSMT-31"/>
       <use xlink:href="#TimesNewRomanPSMT-2e" transform="translate(50 0)"/>
       <use xlink:href="#TimesNewRomanPSMT-30" transform="translate(75 0)"/>
      </g>
     </g>
    </g>
    <g id="ytick_25">
     <g id="line2d_115">
      <path d="M 55.178365 323.58184 
L 476.256323 323.58184 
" clip-path="url(#p0ee687fe5b)" style="fill: none; stroke: #b0b0b0; stroke-width: 0.8; stroke-linecap: square"/>
     </g>
     <g id="line2d_116"/>
     <g id="text_24">
      <!-- 1.5 -->
      <g transform="translate(26.678365 330.52559) scale(0.2 -0.2)">
       <use xlink:href="#TimesNewRomanPSMT-31"/>
       <use xlink:href="#TimesNewRomanPSMT-2e" transform="translate(50 0)"/>
       <use xlink:href="#TimesNewRomanPSMT-35" transform="translate(75 0)"/>
      </g>
     </g>
    </g>
    <g id="ytick_26">
     <g id="line2d_117">
      <path d="M 55.178365 569.900402 
L 476.256323 569.900402 
" clip-path="url(#p0ee687fe5b)" style="fill: none; stroke-dasharray: 0.5,0.825; stroke-dashoffset: 0; stroke: #bfbfbf; stroke-width: 0.5"/>
     </g>
     <g id="line2d_118"/>
    </g>
    <g id="ytick_27">
     <g id="line2d_119">
      <path d="M 55.178365 552.306219 
L 476.256323 552.306219 
" clip-path="url(#p0ee687fe5b)" style="fill: none; stroke-dasharray: 0.5,0.825; stroke-dashoffset: 0; stroke: #bfbfbf; stroke-width: 0.5"/>
     </g>
     <g id="line2d_120"/>
    </g>
    <g id="ytick_28">
     <g id="line2d_121">
      <path d="M 55.178365 534.712036 
L 476.256323 534.712036 
" clip-path="url(#p0ee687fe5b)" style="fill: none; stroke-dasharray: 0.5,0.825; stroke-dashoffset: 0; stroke: #bfbfbf; stroke-width: 0.5"/>
     </g>
     <g id="line2d_122"/>
    </g>
    <g id="ytick_29">
     <g id="line2d_123">
      <path d="M 55.178365 517.117853 
L 476.256323 517.117853 
" clip-path="url(#p0ee687fe5b)" style="fill: none; stroke-dasharray: 0.5,0.825; stroke-dashoffset: 0; stroke: #bfbfbf; stroke-width: 0.5"/>
     </g>
     <g id="line2d_124"/>
    </g>
    <g id="ytick_30">
     <g id="line2d_125">
      <path d="M 55.178365 481.929487 
L 476.256323 481.929487 
" clip-path="url(#p0ee687fe5b)" style="fill: none; stroke-dasharray: 0.5,0.825; stroke-dashoffset: 0; stroke: #bfbfbf; stroke-width: 0.5"/>
     </g>
     <g id="line2d_126"/>
    </g>
    <g id="ytick_31">
     <g id="line2d_127">
      <path d="M 55.178365 464.335304 
L 476.256323 464.335304 
" clip-path="url(#p0ee687fe5b)" style="fill: none; stroke-dasharray: 0.5,0.825; stroke-dashoffset: 0; stroke: #bfbfbf; stroke-width: 0.5"/>
     </g>
     <g id="line2d_128"/>
    </g>
    <g id="ytick_32">
     <g id="line2d_129">
      <path d="M 55.178365 446.741121 
L 476.256323 446.741121 
" clip-path="url(#p0ee687fe5b)" style="fill: none; stroke-dasharray: 0.5,0.825; stroke-dashoffset: 0; stroke: #bfbfbf; stroke-width: 0.5"/>
     </g>
     <g id="line2d_130"/>
    </g>
    <g id="ytick_33">
     <g id="line2d_131">
      <path d="M 55.178365 429.146938 
L 476.256323 429.146938 
" clip-path="url(#p0ee687fe5b)" style="fill: none; stroke-dasharray: 0.5,0.825; stroke-dashoffset: 0; stroke: #bfbfbf; stroke-width: 0.5"/>
     </g>
     <g id="line2d_132"/>
    </g>
    <g id="ytick_34">
     <g id="line2d_133">
      <path d="M 55.178365 393.958572 
L 476.256323 393.958572 
" clip-path="url(#p0ee687fe5b)" style="fill: none; stroke-dasharray: 0.5,0.825; stroke-dashoffset: 0; stroke: #bfbfbf; stroke-width: 0.5"/>
     </g>
     <g id="line2d_134"/>
    </g>
    <g id="ytick_35">
     <g id="line2d_135">
      <path d="M 55.178365 376.364389 
L 476.256323 376.364389 
" clip-path="url(#p0ee687fe5b)" style="fill: none; stroke-dasharray: 0.5,0.825; stroke-dashoffset: 0; stroke: #bfbfbf; stroke-width: 0.5"/>
     </g>
     <g id="line2d_136"/>
    </g>
    <g id="ytick_36">
     <g id="line2d_137">
      <path d="M 55.178365 358.770206 
L 476.256323 358.770206 
" clip-path="url(#p0ee687fe5b)" style="fill: none; stroke-dasharray: 0.5,0.825; stroke-dashoffset: 0; stroke: #bfbfbf; stroke-width: 0.5"/>
     </g>
     <g id="line2d_138"/>
    </g>
    <g id="ytick_37">
     <g id="line2d_139">
      <path d="M 55.178365 341.176023 
L 476.256323 341.176023 
" clip-path="url(#p0ee687fe5b)" style="fill: none; stroke-dasharray: 0.5,0.825; stroke-dashoffset: 0; stroke: #bfbfbf; stroke-width: 0.5"/>
     </g>
     <g id="line2d_140"/>
    </g>
   </g>
   <g id="line2d_141">
    <path d="M 62.929131 579.238518 
L 95.623269 579.670863 
L 130.572176 580.452745 
L 182.149998 582.311295 
L 197.933375 583.052086 
L 210.3346 583.752604 
L 222.735825 584.612721 
L 228.654592 585.10949 
L 228.936438 583.108925 
L 238.801049 583.011801 
L 243.874277 582.735109 
L 247.256429 582.614662 
L 249.229352 582.759169 
L 257.684732 583.717392 
L 261.912423 583.7611 
L 267.831189 583.580527 
L 279.386876 582.972892 
L 288.124103 582.482154 
L 322.509317 580.875782 
L 339.420079 580.291963 
L 359.994839 579.739158 
L 408.472354 578.997878 
L 435.529573 578.870277 
L 464.277867 578.92681 
L 468.505557 578.951082 
L 468.505557 578.951082 
" clip-path="url(#p0ee687fe5b)" style="fill: none; stroke: #ff0000; stroke-width: 2; stroke-linecap: square"/>
   </g>
   <g id="line2d_142">
    <path d="M 62.929131 586.801789 
L 228.654592 586.83755 
L 228.936438 586.276691 
L 235.418896 585.887501 
L 239.364741 585.422973 
L 242.183201 584.877995 
L 247.820121 583.577424 
L 248.947506 583.643861 
L 250.356736 583.969358 
L 255.429964 585.410568 
L 257.966578 585.811648 
L 261.630577 586.142437 
L 267.267497 586.387686 
L 277.132108 586.556635 
L 304.753018 586.681094 
L 386.206519 586.754389 
L 468.505557 586.776778 
L 468.505557 586.776778 
" clip-path="url(#p0ee687fe5b)" style="fill: none; stroke: #0000ff; stroke-width: 2; stroke-linecap: square"/>
   </g>
   <g id="line2d_143">
    <path d="M 62.929131 547.801035 
L 85.194966 548.262214 
L 128.317408 549.09886 
L 130.29033 549.148341 
L 133.10879 549.203045 
L 148.046629 549.468603 
L 179.049692 549.969801 
L 181.30446 550.000765 
L 184.686612 550.018696 
L 186.941381 549.972257 
L 188.914303 549.939389 
L 190.041687 549.901954 
L 193.141993 549.857351 
L 195.960453 549.794078 
L 197.933375 549.766155 
L 201.315528 549.697798 
L 220.199211 549.670427 
L 221.890287 549.783966 
L 225.27244 550.080866 
L 226.117978 550.20466 
L 227.527208 550.490311 
L 228.654592 550.761379 
L 228.936438 523.977626 
L 230.90936 519.633326 
L 232.036744 516.652244 
L 233.164128 513.213037 
L 234.573358 508.096079 
L 235.700743 503.177914 
L 236.828127 497.33635 
L 237.955511 490.33047 
L 239.082895 481.850628 
L 240.210279 471.519663 
L 241.337663 458.899012 
L 242.465047 443.597623 
L 243.592431 425.402224 
L 246.692737 371.584474 
L 247.256429 365.805579 
L 247.538275 364.006218 
L 247.820121 363.055191 
L 248.101968 362.982704 
L 248.383814 363.820933 
L 248.66566 365.558008 
L 249.229352 371.570435 
L 249.793044 380.460534 
L 250.920428 403.518331 
L 252.89335 444.990339 
L 254.020734 463.991676 
L 255.148118 478.962234 
L 256.275502 490.534622 
L 257.402886 499.412811 
L 258.53027 506.281589 
L 259.657654 511.649538 
L 260.785039 515.888071 
L 261.912423 519.298346 
L 263.321653 522.648547 
L 264.449037 524.831901 
L 266.140113 527.478382 
L 267.831189 529.521673 
L 269.522265 531.154344 
L 271.495187 532.709077 
L 275.159186 534.864323 
L 277.977646 536.066988 
L 279.950568 536.762694 
L 281.92349 537.394835 
L 283.050874 537.721798 
L 287.842257 538.830439 
L 296.297637 540.208377 
L 305.31671 541.250313 
L 307.007786 541.396352 
L 312.926553 541.917717 
L 321.100087 542.482261 
L 335.192389 543.268789 
L 339.138233 543.454205 
L 344.493307 543.697165 
L 348.720998 543.853638 
L 350.975766 543.956854 
L 361.967761 544.345624 
L 363.940683 544.419832 
L 408.7542 545.620316 
L 445.112337 546.266762 
L 468.505557 546.529164 
L 468.505557 546.529164 
" clip-path="url(#p0ee687fe5b)" style="fill: none; stroke: #008000; stroke-width: 2; stroke-linecap: square"/>
   </g>
   <g id="legend_2">
    <g id="patch_6">
     <path d="M 60.442344 360.210628 
L 470.992344 360.210628 
Q 473.992344 360.210628 473.992344 357.210628 
L 473.992344 303.710628 
Q 473.992344 300.710628 470.992344 300.710628 
L 60.442344 300.710628 
Q 57.442344 300.710628 57.442344 303.710628 
L 57.442344 357.210628 
Q 57.442344 360.210628 60.442344 360.210628 
z
" style="fill: #ffffff; opacity: 0.8; stroke: #cccccc; stroke-linejoin: miter"/>
    </g>
    <g id="line2d_144">
     <path d="M 63.442344 316.460628 
L 74.692344 316.460628 
L 85.942344 316.460628 
" style="fill: none; stroke: #ff0000; stroke-width: 2; stroke-linecap: square"/>
    </g>
    <g id="text_25">
     <!-- $|Δ\mathbf{r}|/R_E$ ($|Δ\mathbf{r}|_{\rm{max}} = 312.8$ [km]) -->
     <g transform="translate(93.442344 321.710628) scale(0.2 -0.2)">
      <defs>
       <path id="Cmsy10-6a" d="M 763 -1484 
L 763 4684 
Q 763 4734 800 4767 
Q 838 4800 891 4800 
Q 938 4800 978 4767 
Q 1019 4734 1019 4684 
L 1019 -1484 
Q 1019 -1534 978 -1567 
Q 938 -1600 891 -1600 
Q 838 -1600 800 -1567 
Q 763 -1534 763 -1484 
z
" transform="scale(0.015625)"/>
       <path id="STIXGeneral-Regular-394" d="M 4320 0 
L 307 0 
L 2221 4314 
L 2349 4314 
L 4320 0 
z
M 3354 589 
L 2118 3405 
L 870 589 
L 3354 589 
z
" transform="scale(0.015625)"/>
       <path id="Cmb10-72" d="M 91 0 
L 91 325 
L 531 325 
L 531 2322 
Q 531 2503 91 2503 
L 91 2828 
L 1178 2881 
L 1178 2356 
Q 1269 2594 1436 2737 
Q 1603 2881 1838 2881 
Q 2006 2881 2173 2822 
Q 2341 2763 2450 2641 
Q 2559 2519 2559 2344 
Q 2559 2178 2443 2059 
Q 2328 1941 2156 1941 
Q 1984 1941 1868 2059 
Q 1753 2178 1753 2344 
Q 1753 2513 1856 2625 
L 1838 2625 
Q 1488 2625 1367 2248 
Q 1247 1872 1247 1416 
L 1247 325 
L 1806 325 
L 1806 0 
L 91 0 
z
" transform="scale(0.015625)"/>
       <path id="Cmmi10-3d" d="M 359 -1472 
Q 359 -1453 366 -1447 
L 2591 4722 
Q 2603 4759 2634 4779 
Q 2666 4800 2706 4800 
Q 2763 4800 2798 4765 
Q 2834 4731 2834 4672 
L 2834 4647 
L 609 -1522 
Q 572 -1600 488 -1600 
Q 434 -1600 396 -1562 
Q 359 -1525 359 -1472 
z
" transform="scale(0.015625)"/>
       <path id="TimesNewRomanPSMT-20" transform="scale(0.015625)"/>
       <path id="TimesNewRomanPSMT-28" d="M 1988 -1253 
L 1988 -1369 
Q 1516 -1131 1200 -813 
Q 750 -359 506 256 
Q 263 872 263 1534 
Q 263 2503 741 3301 
Q 1219 4100 1988 4444 
L 1988 4313 
Q 1603 4100 1356 3731 
Q 1109 3363 987 2797 
Q 866 2231 866 1616 
Q 866 947 969 400 
Q 1050 -31 1165 -292 
Q 1281 -553 1476 -793 
Q 1672 -1034 1988 -1253 
z
" transform="scale(0.015625)"/>
       <path id="Cmr10-6d" d="M 191 0 
L 191 225 
Q 409 225 550 259 
Q 691 294 691 428 
L 691 2175 
Q 691 2347 639 2423 
Q 588 2500 491 2517 
Q 394 2534 191 2534 
L 191 2759 
L 1119 2828 
L 1119 2203 
Q 1247 2478 1498 2653 
Q 1750 2828 2047 2828 
Q 2784 2828 2913 2228 
Q 3041 2497 3287 2662 
Q 3534 2828 3828 2828 
Q 4119 2828 4317 2734 
Q 4516 2641 4616 2448 
Q 4716 2256 4716 1966 
L 4716 428 
Q 4716 294 4858 259 
Q 5000 225 5216 225 
L 5216 0 
L 3750 0 
L 3750 225 
Q 3969 225 4109 259 
Q 4250 294 4250 428 
L 4250 1947 
Q 4250 2269 4159 2466 
Q 4069 2663 3788 2663 
Q 3419 2663 3178 2366 
Q 2938 2069 2938 1691 
L 2938 428 
Q 2938 294 3078 259 
Q 3219 225 3438 225 
L 3438 0 
L 1972 0 
L 1972 225 
Q 2191 225 2331 259 
Q 2472 294 2472 428 
L 2472 1947 
Q 2472 2259 2381 2461 
Q 2291 2663 2009 2663 
Q 1638 2663 1398 2366 
Q 1159 2069 1159 1691 
L 1159 428 
Q 1159 294 1300 259 
Q 1441 225 1656 225 
L 1656 0 
L 191 0 
z
" transform="scale(0.015625)"/>
       <path id="Cmr10-61" d="M 256 628 
Q 256 1009 556 1248 
Q 856 1488 1276 1586 
Q 1697 1684 2075 1684 
L 2075 1947 
Q 2075 2131 1994 2304 
Q 1913 2478 1759 2589 
Q 1606 2700 1422 2700 
Q 997 2700 775 2509 
Q 897 2509 976 2417 
Q 1056 2325 1056 2203 
Q 1056 2075 965 1984 
Q 875 1894 750 1894 
Q 622 1894 531 1984 
Q 441 2075 441 2203 
Q 441 2541 747 2705 
Q 1053 2869 1422 2869 
Q 1681 2869 1943 2758 
Q 2206 2647 2373 2440 
Q 2541 2234 2541 1959 
L 2541 519 
Q 2541 394 2594 289 
Q 2647 184 2759 184 
Q 2866 184 2917 290 
Q 2969 397 2969 519 
L 2969 928 
L 3156 928 
L 3156 519 
Q 3156 375 3081 245 
Q 3006 116 2879 39 
Q 2753 -38 2606 -38 
Q 2419 -38 2283 107 
Q 2147 253 2131 453 
Q 2013 213 1781 70 
Q 1550 -72 1288 -72 
Q 1044 -72 808 0 
Q 572 72 414 226 
Q 256 381 256 628 
z
M 775 628 
Q 775 403 940 250 
Q 1106 97 1331 97 
Q 1538 97 1706 200 
Q 1875 303 1975 481 
Q 2075 659 2075 856 
L 2075 1522 
Q 1784 1522 1479 1426 
Q 1175 1331 975 1128 
Q 775 925 775 628 
z
" transform="scale(0.015625)"/>
       <path id="Cmr10-78" d="M 78 0 
L 78 225 
Q 322 225 537 320 
Q 753 416 903 603 
L 1484 1344 
L 728 2328 
Q 616 2469 483 2501 
Q 350 2534 109 2534 
L 109 2759 
L 1441 2759 
L 1441 2534 
Q 1356 2534 1282 2496 
Q 1209 2459 1209 2388 
Q 1209 2363 1228 2328 
L 1741 1663 
L 2125 2156 
Q 2203 2250 2203 2344 
Q 2203 2422 2151 2478 
Q 2100 2534 2016 2534 
L 2016 2759 
L 3194 2759 
L 3194 2534 
Q 2947 2534 2730 2439 
Q 2513 2344 2363 2156 
L 1856 1509 
L 2675 428 
Q 2797 288 2928 256 
Q 3059 225 3303 225 
L 3303 0 
L 1972 0 
L 1972 225 
Q 2050 225 2122 262 
Q 2194 300 2194 372 
Q 2194 400 2175 428 
L 1600 1191 
L 1141 603 
Q 1069 522 1069 416 
Q 1069 338 1122 281 
Q 1175 225 1247 225 
L 1247 0 
L 78 0 
z
" transform="scale(0.015625)"/>
       <path id="Cmr10-3d" d="M 481 850 
Q 428 850 393 890 
Q 359 931 359 978 
Q 359 1031 393 1068 
Q 428 1106 481 1106 
L 4500 1106 
Q 4547 1106 4581 1068 
Q 4616 1031 4616 978 
Q 4616 931 4581 890 
Q 4547 850 4500 850 
L 481 850 
z
M 481 2094 
Q 428 2094 393 2131 
Q 359 2169 359 2222 
Q 359 2269 393 2309 
Q 428 2350 481 2350 
L 4500 2350 
Q 4547 2350 4581 2309 
Q 4616 2269 4616 2222 
Q 4616 2169 4581 2131 
Q 4547 2094 4500 2094 
L 481 2094 
z
" transform="scale(0.015625)"/>
       <path id="Cmr10-33" d="M 609 494 
Q 759 275 1012 169 
Q 1266 63 1556 63 
Q 1928 63 2084 380 
Q 2241 697 2241 1100 
Q 2241 1281 2208 1462 
Q 2175 1644 2097 1800 
Q 2019 1956 1883 2050 
Q 1747 2144 1550 2144 
L 1125 2144 
Q 1069 2144 1069 2203 
L 1069 2259 
Q 1069 2309 1125 2309 
L 1478 2338 
Q 1703 2338 1851 2506 
Q 2000 2675 2069 2917 
Q 2138 3159 2138 3378 
Q 2138 3684 1994 3881 
Q 1850 4078 1556 4078 
Q 1313 4078 1091 3986 
Q 869 3894 738 3706 
Q 750 3709 759 3711 
Q 769 3713 781 3713 
Q 925 3713 1022 3613 
Q 1119 3513 1119 3372 
Q 1119 3234 1022 3134 
Q 925 3034 781 3034 
Q 641 3034 541 3134 
Q 441 3234 441 3372 
Q 441 3647 606 3850 
Q 772 4053 1033 4158 
Q 1294 4263 1556 4263 
Q 1750 4263 1965 4205 
Q 2181 4147 2356 4039 
Q 2531 3931 2642 3762 
Q 2753 3594 2753 3378 
Q 2753 3109 2633 2881 
Q 2513 2653 2303 2487 
Q 2094 2322 1844 2241 
Q 2122 2188 2372 2031 
Q 2622 1875 2773 1631 
Q 2925 1388 2925 1106 
Q 2925 753 2731 467 
Q 2538 181 2222 20 
Q 1906 -141 1556 -141 
Q 1256 -141 954 -26 
Q 653 88 461 316 
Q 269 544 269 863 
Q 269 1022 375 1128 
Q 481 1234 641 1234 
Q 744 1234 830 1186 
Q 916 1138 964 1050 
Q 1013 963 1013 863 
Q 1013 706 903 600 
Q 794 494 641 494 
L 609 494 
z
" transform="scale(0.015625)"/>
       <path id="Cmr10-31" d="M 594 0 
L 594 225 
Q 1394 225 1394 428 
L 1394 3788 
Q 1063 3628 556 3628 
L 556 3853 
Q 1341 3853 1741 4263 
L 1831 4263 
Q 1853 4263 1873 4245 
Q 1894 4228 1894 4206 
L 1894 428 
Q 1894 225 2694 225 
L 2694 0 
L 594 0 
z
" transform="scale(0.015625)"/>
       <path id="Cmr10-32" d="M 319 0 
L 319 172 
Q 319 188 331 206 
L 1325 1306 
Q 1550 1550 1690 1715 
Q 1831 1881 1968 2097 
Q 2106 2313 2186 2536 
Q 2266 2759 2266 3009 
Q 2266 3272 2169 3511 
Q 2072 3750 1880 3894 
Q 1688 4038 1416 4038 
Q 1138 4038 916 3870 
Q 694 3703 603 3438 
Q 628 3444 672 3444 
Q 816 3444 917 3347 
Q 1019 3250 1019 3097 
Q 1019 2950 917 2848 
Q 816 2747 672 2747 
Q 522 2747 420 2851 
Q 319 2956 319 3097 
Q 319 3338 409 3548 
Q 500 3759 670 3923 
Q 841 4088 1055 4175 
Q 1269 4263 1509 4263 
Q 1875 4263 2190 4108 
Q 2506 3953 2690 3670 
Q 2875 3388 2875 3009 
Q 2875 2731 2753 2481 
Q 2631 2231 2440 2026 
Q 2250 1822 1953 1562 
Q 1656 1303 1563 1216 
L 838 519 
L 1453 519 
Q 1906 519 2211 526 
Q 2516 534 2534 550 
Q 2609 631 2688 1141 
L 2875 1141 
L 2694 0 
L 319 0 
z
" transform="scale(0.015625)"/>
       <path id="Cmmi10-3a" d="M 538 353 
Q 538 497 644 600 
Q 750 703 891 703 
Q 978 703 1062 656 
Q 1147 609 1194 525 
Q 1241 441 1241 353 
Q 1241 213 1137 106 
Q 1034 0 891 0 
Q 750 0 644 106 
Q 538 213 538 353 
z
" transform="scale(0.015625)"/>
       <path id="Cmr10-38" d="M 269 972 
Q 269 1356 522 1651 
Q 775 1947 1172 2144 
L 934 2297 
Q 716 2441 578 2680 
Q 441 2919 441 3181 
Q 441 3488 602 3734 
Q 763 3981 1030 4122 
Q 1297 4263 1600 4263 
Q 1884 4263 2148 4147 
Q 2413 4031 2583 3815 
Q 2753 3600 2753 3303 
Q 2753 3088 2651 2903 
Q 2550 2719 2373 2572 
Q 2197 2425 1997 2322 
L 2363 2088 
Q 2616 1922 2770 1653 
Q 2925 1384 2925 1088 
Q 2925 741 2739 456 
Q 2553 172 2247 15 
Q 1941 -141 1600 -141 
Q 1269 -141 961 -6 
Q 653 128 461 383 
Q 269 638 269 972 
z
M 616 972 
Q 616 719 755 509 
Q 894 300 1122 181 
Q 1350 63 1600 63 
Q 1972 63 2275 280 
Q 2578 497 2578 856 
Q 2578 978 2529 1098 
Q 2481 1219 2395 1317 
Q 2309 1416 2203 1478 
L 1344 2034 
Q 1144 1928 976 1765 
Q 809 1603 712 1400 
Q 616 1197 616 972 
z
M 1056 2925 
L 1831 2425 
Q 2100 2581 2272 2803 
Q 2444 3025 2444 3303 
Q 2444 3519 2323 3698 
Q 2203 3878 2009 3978 
Q 1816 4078 1594 4078 
Q 1400 4078 1203 4003 
Q 1006 3928 878 3779 
Q 750 3631 750 3431 
Q 750 3131 1056 2925 
z
" transform="scale(0.015625)"/>
       <path id="TimesNewRomanPSMT-5b" d="M 1900 -1269 
L 525 -1269 
L 525 4334 
L 1900 4334 
L 1900 4088 
L 994 4088 
L 994 -1025 
L 1900 -1025 
L 1900 -1269 
z
" transform="scale(0.015625)"/>
       <path id="TimesNewRomanPSMT-6b" d="M 1047 4444 
L 1047 1594 
L 1775 2259 
Q 2006 2472 2044 2528 
Q 2069 2566 2069 2603 
Q 2069 2666 2017 2711 
Q 1966 2756 1847 2763 
L 1847 2863 
L 3091 2863 
L 3091 2763 
Q 2834 2756 2664 2684 
Q 2494 2613 2291 2428 
L 1556 1750 
L 2291 822 
Q 2597 438 2703 334 
Q 2853 188 2966 144 
Q 3044 113 3238 113 
L 3238 0 
L 1847 0 
L 1847 113 
Q 1966 116 2008 148 
Q 2050 181 2050 241 
Q 2050 313 1925 472 
L 1047 1594 
L 1047 644 
Q 1047 366 1086 278 
Q 1125 191 1197 153 
Q 1269 116 1509 113 
L 1509 0 
L 53 0 
L 53 113 
Q 272 113 381 166 
Q 447 200 481 272 
Q 528 375 528 628 
L 528 3234 
Q 528 3731 506 3842 
Q 484 3953 434 3995 
Q 384 4038 303 4038 
Q 238 4038 106 3984 
L 53 4094 
L 903 4444 
L 1047 4444 
z
" transform="scale(0.015625)"/>
       <path id="TimesNewRomanPSMT-6d" d="M 1050 2338 
Q 1363 2650 1419 2697 
Q 1559 2816 1721 2881 
Q 1884 2947 2044 2947 
Q 2313 2947 2506 2790 
Q 2700 2634 2766 2338 
Q 3088 2713 3309 2830 
Q 3531 2947 3766 2947 
Q 3994 2947 4170 2830 
Q 4347 2713 4450 2447 
Q 4519 2266 4519 1878 
L 4519 647 
Q 4519 378 4559 278 
Q 4591 209 4675 161 
Q 4759 113 4950 113 
L 4950 0 
L 3538 0 
L 3538 113 
L 3597 113 
Q 3781 113 3884 184 
Q 3956 234 3988 344 
Q 4000 397 4000 647 
L 4000 1878 
Q 4000 2228 3916 2372 
Q 3794 2572 3525 2572 
Q 3359 2572 3192 2489 
Q 3025 2406 2788 2181 
L 2781 2147 
L 2788 2013 
L 2788 647 
Q 2788 353 2820 281 
Q 2853 209 2943 161 
Q 3034 113 3253 113 
L 3253 0 
L 1806 0 
L 1806 113 
Q 2044 113 2133 169 
Q 2222 225 2256 338 
Q 2272 391 2272 647 
L 2272 1878 
Q 2272 2228 2169 2381 
Q 2031 2581 1784 2581 
Q 1616 2581 1450 2491 
Q 1191 2353 1050 2181 
L 1050 647 
Q 1050 366 1089 281 
Q 1128 197 1204 155 
Q 1281 113 1516 113 
L 1516 0 
L 100 0 
L 100 113 
Q 297 113 375 155 
Q 453 197 493 289 
Q 534 381 534 647 
L 534 1741 
Q 534 2213 506 2350 
Q 484 2453 437 2492 
Q 391 2531 309 2531 
Q 222 2531 100 2484 
L 53 2597 
L 916 2947 
L 1050 2947 
L 1050 2338 
z
" transform="scale(0.015625)"/>
       <path id="TimesNewRomanPSMT-5d" d="M 234 4334 
L 1609 4334 
L 1609 -1272 
L 234 -1272 
L 234 -1025 
L 1141 -1025 
L 1141 4088 
L 234 4088 
L 234 4334 
z
" transform="scale(0.015625)"/>
       <path id="TimesNewRomanPSMT-29" d="M 144 4313 
L 144 4444 
Q 619 4209 934 3891 
Q 1381 3434 1625 2820 
Q 1869 2206 1869 1541 
Q 1869 572 1392 -226 
Q 916 -1025 144 -1369 
L 144 -1253 
Q 528 -1038 776 -670 
Q 1025 -303 1145 264 
Q 1266 831 1266 1447 
Q 1266 2113 1163 2663 
Q 1084 3094 967 3353 
Q 850 3613 656 3853 
Q 463 4094 144 4313 
z
" transform="scale(0.015625)"/>
      </defs>
      <use xlink:href="#Cmsy10-6a"/>
      <use xlink:href="#STIXGeneral-Regular-394" transform="translate(27.685547 0)"/>
      <use xlink:href="#Cmb10-72" transform="translate(99.885529 0)"/>
      <use xlink:href="#Cmsy10-6a" transform="translate(142.56131 0)"/>
      <use xlink:href="#Cmmi10-3d" transform="translate(170.246857 0)"/>
      <use xlink:href="#Cmmi10-52" transform="translate(220.246857 0)"/>
      <use xlink:href="#Cmmi10-45" transform="translate(296.125763 -17.00625) scale(0.7)"/>
      <use xlink:href="#TimesNewRomanPSMT-20" transform="translate(354.148615 0)"/>
      <use xlink:href="#TimesNewRomanPSMT-28" transform="translate(379.148615 0)"/>
      <use xlink:href="#Cmsy10-6a" transform="translate(412.449396 0)"/>
      <use xlink:href="#STIXGeneral-Regular-394" transform="translate(440.134943 0)"/>
      <use xlink:href="#Cmb10-72" transform="translate(512.334924 0)"/>
      <use xlink:href="#Cmsy10-6a" transform="translate(555.010706 0)"/>
      <use xlink:href="#Cmr10-6d" transform="translate(587.160393 -17.00625) scale(0.7)"/>
      <use xlink:href="#Cmr10-61" transform="translate(645.47094 -17.00625) scale(0.7)"/>
      <use xlink:href="#Cmr10-78" transform="translate(680.47094 -17.00625) scale(0.7)"/>
      <use xlink:href="#Cmr10-3d" transform="translate(741.28676 0)"/>
      <use xlink:href="#Cmr10-33" transform="translate(836.530901 0)"/>
      <use xlink:href="#Cmr10-31" transform="translate(886.530901 0)"/>
      <use xlink:href="#Cmr10-32" transform="translate(936.530901 0)"/>
      <use xlink:href="#Cmmi10-3a" transform="translate(986.530901 0)"/>
      <use xlink:href="#Cmr10-38" transform="translate(1014.216448 0)"/>
      <use xlink:href="#TimesNewRomanPSMT-20" transform="translate(1064.216448 0)"/>
      <use xlink:href="#TimesNewRomanPSMT-5b" transform="translate(1089.216448 0)"/>
      <use xlink:href="#TimesNewRomanPSMT-6b" transform="translate(1122.517229 0)"/>
      <use xlink:href="#TimesNewRomanPSMT-6d" transform="translate(1172.517229 0)"/>
      <use xlink:href="#TimesNewRomanPSMT-5d" transform="translate(1250.300432 0)"/>
      <use xlink:href="#TimesNewRomanPSMT-29" transform="translate(1283.601213 0)"/>
     </g>
    </g>
    <g id="line2d_145">
     <path d="M 63.442344 343.960628 
L 74.692344 343.960628 
L 85.942344 343.960628 
" style="fill: none; stroke: #0000ff; stroke-width: 2; stroke-linecap: square"/>
    </g>
    <g id="text_26">
     <!-- $|Δ\mathbf{r}|/\overline{r}$  (max= 1/45) -->
     <g transform="translate(93.442344 349.210628) scale(0.2 -0.2)">
      <defs>
       <path id="TimesNewRomanPSMT-61" d="M 1822 413 
Q 1381 72 1269 19 
Q 1100 -59 909 -59 
Q 613 -59 420 144 
Q 228 347 228 678 
Q 228 888 322 1041 
Q 450 1253 767 1440 
Q 1084 1628 1822 1897 
L 1822 2009 
Q 1822 2438 1686 2597 
Q 1550 2756 1291 2756 
Q 1094 2756 978 2650 
Q 859 2544 859 2406 
L 866 2225 
Q 866 2081 792 2003 
Q 719 1925 600 1925 
Q 484 1925 411 2006 
Q 338 2088 338 2228 
Q 338 2497 613 2722 
Q 888 2947 1384 2947 
Q 1766 2947 2009 2819 
Q 2194 2722 2281 2516 
Q 2338 2381 2338 1966 
L 2338 994 
Q 2338 584 2353 492 
Q 2369 400 2405 369 
Q 2441 338 2488 338 
Q 2538 338 2575 359 
Q 2641 400 2828 588 
L 2828 413 
Q 2478 -56 2159 -56 
Q 2006 -56 1915 50 
Q 1825 156 1822 413 
z
M 1822 616 
L 1822 1706 
Q 1350 1519 1213 1441 
Q 966 1303 859 1153 
Q 753 1003 753 825 
Q 753 600 887 451 
Q 1022 303 1197 303 
Q 1434 303 1822 616 
z
" transform="scale(0.015625)"/>
       <path id="TimesNewRomanPSMT-78" d="M 84 2863 
L 1431 2863 
L 1431 2747 
Q 1303 2747 1251 2703 
Q 1200 2659 1200 2588 
Q 1200 2513 1309 2356 
Q 1344 2306 1413 2200 
L 1616 1875 
L 1850 2200 
Q 2075 2509 2075 2591 
Q 2075 2656 2022 2701 
Q 1969 2747 1850 2747 
L 1850 2863 
L 2819 2863 
L 2819 2747 
Q 2666 2738 2553 2663 
Q 2400 2556 2134 2200 
L 1744 1678 
L 2456 653 
Q 2719 275 2831 198 
Q 2944 122 3122 113 
L 3122 0 
L 1772 0 
L 1772 113 
Q 1913 113 1991 175 
Q 2050 219 2050 291 
Q 2050 363 1850 653 
L 1431 1266 
L 972 653 
Q 759 369 759 316 
Q 759 241 829 180 
Q 900 119 1041 113 
L 1041 0 
L 106 0 
L 106 113 
Q 219 128 303 191 
Q 422 281 703 653 
L 1303 1450 
L 759 2238 
Q 528 2575 401 2661 
Q 275 2747 84 2747 
L 84 2863 
z
" transform="scale(0.015625)"/>
       <path id="TimesNewRomanPSMT-3d" d="M 116 2759 
L 3488 2759 
L 3488 2503 
L 116 2503 
L 116 2759 
z
M 116 1741 
L 3488 1741 
L 3488 1484 
L 116 1484 
L 116 1741 
z
" transform="scale(0.015625)"/>
      </defs>
      <use xlink:href="#Cmsy10-6a"/>
      <use xlink:href="#STIXGeneral-Regular-394" transform="translate(27.685547 0)"/>
      <use xlink:href="#Cmb10-72" transform="translate(99.885529 0)"/>
      <use xlink:href="#Cmsy10-6a" transform="translate(142.56131 0)"/>
      <use xlink:href="#Cmmi10-3d" transform="translate(170.246857 0)"/>
      <use xlink:href="#Cmmi10-72" transform="translate(220.246857 0.5)"/>
      <use xlink:href="#TimesNewRomanPSMT-20" transform="translate(265.364044 0)"/>
      <use xlink:href="#TimesNewRomanPSMT-20" transform="translate(290.364044 0)"/>
      <use xlink:href="#TimesNewRomanPSMT-28" transform="translate(315.364044 0)"/>
      <use xlink:href="#TimesNewRomanPSMT-6d" transform="translate(348.664825 0)"/>
      <use xlink:href="#TimesNewRomanPSMT-61" transform="translate(426.448029 0)"/>
      <use xlink:href="#TimesNewRomanPSMT-78" transform="translate(470.832794 0)"/>
      <use xlink:href="#TimesNewRomanPSMT-3d" transform="translate(520.832794 0)"/>
      <use xlink:href="#TimesNewRomanPSMT-20" transform="translate(577.229279 0)"/>
      <use xlink:href="#TimesNewRomanPSMT-31" transform="translate(602.229279 0)"/>
      <use xlink:href="#TimesNewRomanPSMT-2f" transform="translate(652.229279 0)"/>
      <use xlink:href="#TimesNewRomanPSMT-34" transform="translate(680.012482 0)"/>
      <use xlink:href="#TimesNewRomanPSMT-35" transform="translate(730.012482 0)"/>
      <use xlink:href="#TimesNewRomanPSMT-29" transform="translate(780.012482 0)"/>
      <path d="M 220.246857 56.4375 
L 220.246857 62.6875 
L 265.364044 62.6875 
L 265.364044 56.4375 
L 220.246857 56.4375 
z
"/>
     </g>
    </g>
    <g id="line2d_146">
     <path d="M 366.592344 316.460628 
L 377.842344 316.460628 
L 389.092344 316.460628 
" style="fill: none; stroke: #008000; stroke-width: 2; stroke-linecap: square"/>
    </g>
    <g id="text_27">
     <!-- $Δθ$ [deg] -->
     <g transform="translate(396.592344 321.710628) scale(0.2 -0.2)">
      <defs>
       <path id="STIXGeneral-Italic-3b8" d="M 3162 3270 
Q 3162 2534 2925 1862 
Q 2688 1190 2304 678 
Q 1741 -70 992 -70 
Q 608 -70 390 224 
Q 173 518 173 1030 
Q 173 1997 592 2813 
Q 1011 3629 1594 4070 
Q 1952 4339 2374 4339 
Q 2733 4339 2947 4076 
Q 3162 3814 3162 3270 
z
M 941 2221 
L 2432 2221 
Q 2624 2874 2624 3533 
Q 2624 4205 2285 4205 
Q 2029 4205 1728 3814 
Q 1427 3424 1232 2992 
Q 1037 2560 941 2221 
z
M 2387 2016 
L 896 2016 
Q 710 1530 710 960 
Q 710 64 1069 64 
Q 1286 64 1510 275 
Q 1734 486 1904 806 
Q 2074 1126 2198 1440 
Q 2323 1754 2387 2016 
z
" transform="scale(0.015625)"/>
       <path id="TimesNewRomanPSMT-64" d="M 2222 322 
Q 2013 103 1813 7 
Q 1613 -88 1381 -88 
Q 913 -88 563 304 
Q 213 697 213 1313 
Q 213 1928 600 2439 
Q 988 2950 1597 2950 
Q 1975 2950 2222 2709 
L 2222 3238 
Q 2222 3728 2198 3840 
Q 2175 3953 2125 3993 
Q 2075 4034 2000 4034 
Q 1919 4034 1784 3984 
L 1744 4094 
L 2597 4444 
L 2738 4444 
L 2738 1134 
Q 2738 631 2761 520 
Q 2784 409 2836 365 
Q 2888 322 2956 322 
Q 3041 322 3181 375 
L 3216 266 
L 2366 -88 
L 2222 -88 
L 2222 322 
z
M 2222 541 
L 2222 2016 
Q 2203 2228 2109 2403 
Q 2016 2578 1861 2667 
Q 1706 2756 1559 2756 
Q 1284 2756 1069 2509 
Q 784 2184 784 1559 
Q 784 928 1059 592 
Q 1334 256 1672 256 
Q 1956 256 2222 541 
z
" transform="scale(0.015625)"/>
       <path id="TimesNewRomanPSMT-67" d="M 966 1044 
Q 703 1172 562 1401 
Q 422 1631 422 1909 
Q 422 2334 742 2640 
Q 1063 2947 1563 2947 
Q 1972 2947 2272 2747 
L 2878 2747 
Q 3013 2747 3034 2739 
Q 3056 2731 3066 2713 
Q 3084 2684 3084 2613 
Q 3084 2531 3069 2500 
Q 3059 2484 3036 2475 
Q 3013 2466 2878 2466 
L 2506 2466 
Q 2681 2241 2681 1891 
Q 2681 1491 2375 1206 
Q 2069 922 1553 922 
Q 1341 922 1119 984 
Q 981 866 932 777 
Q 884 688 884 625 
Q 884 572 936 522 
Q 988 472 1138 450 
Q 1225 438 1575 428 
Q 2219 413 2409 384 
Q 2700 344 2873 169 
Q 3047 -6 3047 -263 
Q 3047 -616 2716 -925 
Q 2228 -1381 1444 -1381 
Q 841 -1381 425 -1109 
Q 191 -953 191 -784 
Q 191 -709 225 -634 
Q 278 -519 444 -313 
Q 466 -284 763 25 
Q 600 122 533 198 
Q 466 275 466 372 
Q 466 481 555 628 
Q 644 775 966 1044 
z
M 1509 2797 
Q 1278 2797 1122 2612 
Q 966 2428 966 2047 
Q 966 1553 1178 1281 
Q 1341 1075 1591 1075 
Q 1828 1075 1981 1253 
Q 2134 1431 2134 1813 
Q 2134 2309 1919 2591 
Q 1759 2797 1509 2797 
z
M 934 0 
Q 788 -159 713 -296 
Q 638 -434 638 -550 
Q 638 -700 819 -813 
Q 1131 -1006 1722 -1006 
Q 2284 -1006 2551 -807 
Q 2819 -609 2819 -384 
Q 2819 -222 2659 -153 
Q 2497 -84 2016 -72 
Q 1313 -53 934 0 
z
" transform="scale(0.015625)"/>
      </defs>
      <use xlink:href="#STIXGeneral-Regular-394" transform="translate(0 0.5625)"/>
      <use xlink:href="#STIXGeneral-Italic-3b8" transform="translate(72.199982 0.5625)"/>
      <use xlink:href="#TimesNewRomanPSMT-20" transform="translate(120.199966 0.5625)"/>
      <use xlink:href="#TimesNewRomanPSMT-5b" transform="translate(145.199966 0.5625)"/>
      <use xlink:href="#TimesNewRomanPSMT-64" transform="translate(178.500748 0.5625)"/>
      <use xlink:href="#TimesNewRomanPSMT-65" transform="translate(228.500748 0.5625)"/>
      <use xlink:href="#TimesNewRomanPSMT-67" transform="translate(272.885513 0.5625)"/>
      <use xlink:href="#TimesNewRomanPSMT-5d" transform="translate(322.885513 0.5625)"/>
     </g>
    </g>
   </g>
  </g>
 </g>
 <defs>
  <clipPath id="p85d3e17d05">
   <rect x="55.178365" y="3.00024" width="421.077958" height="290.30402"/>
  </clipPath>
  <clipPath id="p0ee687fe5b">
   <rect x="55.178365" y="310.386203" width="421.077958" height="290.30402"/>
  </clipPath>
 </defs>
</svg>
