<?xml version="1.0" encoding="utf-8" standalone="no"?>
<!DOCTYPE svg PUBLIC "-//W3C//DTD SVG 1.1//EN"
  "http://www.w3.org/Graphics/SVG/1.1/DTD/svg11.dtd">
<svg xmlns:xlink="http://www.w3.org/1999/xlink" width="481.889764pt" height="646.299213pt" viewBox="0 0 481.889764 646.299213" xmlns="http://www.w3.org/2000/svg" version="1.1">
 <metadata>
  <rdf:RDF xmlns:dc="http://purl.org/dc/elements/1.1/" xmlns:cc="http://creativecommons.org/ns#" xmlns:rdf="http://www.w3.org/1999/02/22-rdf-syntax-ns#">
   <cc:Work>
    <dc:type rdf:resource="http://purl.org/dc/dcmitype/StillImage"/>
    <dc:date>2026-05-17T14:27:16.780439</dc:date>
    <dc:format>image/svg+xml</dc:format>
    <dc:creator>
     <cc:Agent>
      <dc:title>Matplotlib v3.10.9, https://matplotlib.org/</dc:title>
     </cc:Agent>
    </dc:creator>
   </cc:Work>
  </rdf:RDF>
 </metadata>
 <defs>
  <style type="text/css">*{stroke-linejoin: round; stroke-linecap: butt}</style>
 </defs>
 <g id="figure_1">
  <g id="patch_1">
   <path d="M 0 646.299213 
L 481.889764 646.299213 
L 481.889764 0 
L 0 0 
z
" style="fill: #ffffff"/>
  </g>
  <g id="axes_1">
   <g id="patch_2">
    <path d="M 55.178365 313.384887 
L 478.889524 313.384887 
L 478.889524 35.89608 
L 55.178365 35.89608 
z
" style="fill: #ffffff"/>
   </g>
   <g id="matplotlib.axis_1">
    <g id="xtick_1">
     <g id="line2d_1">
      <path d="M 62.835796 313.384887 
L 62.835796 35.89608 
" clip-path="url(#p97504ae962)" style="fill: none; stroke: #b0b0b0; stroke-width: 0.8; stroke-linecap: square"/>
     </g>
     <g id="line2d_2"/>
    </g>
    <g id="xtick_2">
     <g id="line2d_3">
      <path d="M 130.901845 313.384887 
L 130.901845 35.89608 
" clip-path="url(#p97504ae962)" style="fill: none; stroke: #b0b0b0; stroke-width: 0.8; stroke-linecap: square"/>
     </g>
     <g id="line2d_4"/>
    </g>
    <g id="xtick_3">
     <g id="line2d_5">
      <path d="M 198.967895 313.384887 
L 198.967895 35.89608 
" clip-path="url(#p97504ae962)" style="fill: none; stroke: #b0b0b0; stroke-width: 0.8; stroke-linecap: square"/>
     </g>
     <g id="line2d_6"/>
    </g>
    <g id="xtick_4">
     <g id="line2d_7">
      <path d="M 267.033944 313.384887 
L 267.033944 35.89608 
" clip-path="url(#p97504ae962)" style="fill: none; stroke: #b0b0b0; stroke-width: 0.8; stroke-linecap: square"/>
     </g>
     <g id="line2d_8"/>
    </g>
    <g id="xtick_5">
     <g id="line2d_9">
      <path d="M 335.099994 313.384887 
L 335.099994 35.89608 
" clip-path="url(#p97504ae962)" style="fill: none; stroke: #b0b0b0; stroke-width: 0.8; stroke-linecap: square"/>
     </g>
     <g id="line2d_10"/>
    </g>
    <g id="xtick_6">
     <g id="line2d_11">
      <path d="M 403.166044 313.384887 
L 403.166044 35.89608 
" clip-path="url(#p97504ae962)" style="fill: none; stroke: #b0b0b0; stroke-width: 0.8; stroke-linecap: square"/>
     </g>
     <g id="line2d_12"/>
    </g>
    <g id="xtick_7">
     <g id="line2d_13">
      <path d="M 471.232093 313.384887 
L 471.232093 35.89608 
" clip-path="url(#p97504ae962)" style="fill: none; stroke: #b0b0b0; stroke-width: 0.8; stroke-linecap: square"/>
     </g>
     <g id="line2d_14"/>
    </g>
    <g id="xtick_8">
     <g id="line2d_15">
      <path d="M 96.86882 313.384887 
L 96.86882 35.89608 
" clip-path="url(#p97504ae962)" style="fill: none; stroke-dasharray: 0.5,0.825; stroke-dashoffset: 0; stroke: #bfbfbf; stroke-width: 0.5"/>
     </g>
     <g id="line2d_16"/>
    </g>
    <g id="xtick_9">
     <g id="line2d_17">
      <path d="M 164.93487 313.384887 
L 164.93487 35.89608 
" clip-path="url(#p97504ae962)" style="fill: none; stroke-dasharray: 0.5,0.825; stroke-dashoffset: 0; stroke: #bfbfbf; stroke-width: 0.5"/>
     </g>
     <g id="line2d_18"/>
    </g>
    <g id="xtick_10">
     <g id="line2d_19">
      <path d="M 233.00092 313.384887 
L 233.00092 35.89608 
" clip-path="url(#p97504ae962)" style="fill: none; stroke-dasharray: 0.5,0.825; stroke-dashoffset: 0; stroke: #bfbfbf; stroke-width: 0.5"/>
     </g>
     <g id="line2d_20"/>
    </g>
    <g id="xtick_11">
     <g id="line2d_21">
      <path d="M 301.066969 313.384887 
L 301.066969 35.89608 
" clip-path="url(#p97504ae962)" style="fill: none; stroke-dasharray: 0.5,0.825; stroke-dashoffset: 0; stroke: #bfbfbf; stroke-width: 0.5"/>
     </g>
     <g id="line2d_22"/>
    </g>
    <g id="xtick_12">
     <g id="line2d_23">
      <path d="M 369.133019 313.384887 
L 369.133019 35.89608 
" clip-path="url(#p97504ae962)" style="fill: none; stroke-dasharray: 0.5,0.825; stroke-dashoffset: 0; stroke: #bfbfbf; stroke-width: 0.5"/>
     </g>
     <g id="line2d_24"/>
    </g>
    <g id="xtick_13">
     <g id="line2d_25">
      <path d="M 437.199068 313.384887 
L 437.199068 35.89608 
" clip-path="url(#p97504ae962)" style="fill: none; stroke-dasharray: 0.5,0.825; stroke-dashoffset: 0; stroke: #bfbfbf; stroke-width: 0.5"/>
     </g>
     <g id="line2d_26"/>
    </g>
   </g>
   <g id="matplotlib.axis_2">
    <g id="ytick_1">
     <g id="line2d_27">
      <path d="M 55.178365 305.53143 
L 478.889524 305.53143 
" clip-path="url(#p97504ae962)" style="fill: none; stroke: #b0b0b0; stroke-width: 0.8; stroke-linecap: square"/>
     </g>
     <g id="line2d_28"/>
     <g id="text_1">
      <!-- −10 -->
      <g transform="translate(20.40024 312.47518) scale(0.2 -0.2)">
       <defs>
        <path id="TimesNewRomanPSMT-2212" d="M 3484 2000 
L 116 2000 
L 116 2256 
L 3484 2256 
L 3484 2000 
z
" transform="scale(0.015625)"/>
        <path id="TimesNewRomanPSMT-31" d="M 750 3822 
L 1781 4325 
L 1884 4325 
L 1884 747 
Q 1884 391 1914 303 
Q 1944 216 2037 169 
Q 2131 122 2419 116 
L 2419 0 
L 825 0 
L 825 116 
Q 1125 122 1212 167 
Q 1300 213 1334 289 
Q 1369 366 1369 747 
L 1369 3034 
Q 1369 3497 1338 3628 
Q 1316 3728 1258 3775 
Q 1200 3822 1119 3822 
Q 1003 3822 797 3725 
L 750 3822 
z
" transform="scale(0.015625)"/>
        <path id="TimesNewRomanPSMT-30" d="M 231 2094 
Q 231 2819 450 3342 
Q 669 3866 1031 4122 
Q 1313 4325 1613 4325 
Q 2100 4325 2488 3828 
Q 2972 3213 2972 2159 
Q 2972 1422 2759 906 
Q 2547 391 2217 158 
Q 1888 -75 1581 -75 
Q 975 -75 572 641 
Q 231 1244 231 2094 
z
M 844 2016 
Q 844 1141 1059 588 
Q 1238 122 1591 122 
Q 1759 122 1940 273 
Q 2122 425 2216 781 
Q 2359 1319 2359 2297 
Q 2359 3022 2209 3506 
Q 2097 3866 1919 4016 
Q 1791 4119 1609 4119 
Q 1397 4119 1231 3928 
Q 1006 3669 925 3112 
Q 844 2556 844 2016 
z
" transform="scale(0.015625)"/>
       </defs>
       <use xlink:href="#TimesNewRomanPSMT-2212"/>
       <use xlink:href="#TimesNewRomanPSMT-31" transform="translate(56.396484 0)"/>
       <use xlink:href="#TimesNewRomanPSMT-30" transform="translate(106.396484 0)"/>
      </g>
     </g>
    </g>
    <g id="ytick_2">
     <g id="line2d_29">
      <path d="M 55.178365 253.175052 
L 478.889524 253.175052 
" clip-path="url(#p97504ae962)" style="fill: none; stroke: #b0b0b0; stroke-width: 0.8; stroke-linecap: square"/>
     </g>
     <g id="line2d_30"/>
     <g id="text_2">
      <!-- −5 -->
      <g transform="translate(30.40024 260.118802) scale(0.2 -0.2)">
       <defs>
        <path id="TimesNewRomanPSMT-35" d="M 2778 4238 
L 2534 3706 
L 1259 3706 
L 981 3138 
Q 1809 3016 2294 2522 
Q 2709 2097 2709 1522 
Q 2709 1188 2573 903 
Q 2438 619 2231 419 
Q 2025 219 1772 97 
Q 1413 -75 1034 -75 
Q 653 -75 479 54 
Q 306 184 306 341 
Q 306 428 378 495 
Q 450 563 559 563 
Q 641 563 702 538 
Q 763 513 909 409 
Q 1144 247 1384 247 
Q 1750 247 2026 523 
Q 2303 800 2303 1197 
Q 2303 1581 2056 1914 
Q 1809 2247 1375 2428 
Q 1034 2569 447 2591 
L 1259 4238 
L 2778 4238 
z
" transform="scale(0.015625)"/>
       </defs>
       <use xlink:href="#TimesNewRomanPSMT-2212"/>
       <use xlink:href="#TimesNewRomanPSMT-35" transform="translate(56.396484 0)"/>
      </g>
     </g>
    </g>
    <g id="ytick_3">
     <g id="line2d_31">
      <path d="M 55.178365 200.818673 
L 478.889524 200.818673 
" clip-path="url(#p97504ae962)" style="fill: none; stroke: #b0b0b0; stroke-width: 0.8; stroke-linecap: square"/>
     </g>
     <g id="line2d_32"/>
     <g id="text_3">
      <!-- 0 -->
      <g transform="translate(41.678365 207.762423) scale(0.2 -0.2)">
       <use xlink:href="#TimesNewRomanPSMT-30"/>
      </g>
     </g>
    </g>
    <g id="ytick_4">
     <g id="line2d_33">
      <path d="M 55.178365 148.462294 
L 478.889524 148.462294 
" clip-path="url(#p97504ae962)" style="fill: none; stroke: #b0b0b0; stroke-width: 0.8; stroke-linecap: square"/>
     </g>
     <g id="line2d_34"/>
     <g id="text_4">
      <!-- 5 -->
      <g transform="translate(41.678365 155.406044) scale(0.2 -0.2)">
       <use xlink:href="#TimesNewRomanPSMT-35"/>
      </g>
     </g>
    </g>
    <g id="ytick_5">
     <g id="line2d_35">
      <path d="M 55.178365 96.105916 
L 478.889524 96.105916 
" clip-path="url(#p97504ae962)" style="fill: none; stroke: #b0b0b0; stroke-width: 0.8; stroke-linecap: square"/>
     </g>
     <g id="line2d_36"/>
     <g id="text_5">
      <!-- 10 -->
      <g transform="translate(31.678365 103.049666) scale(0.2 -0.2)">
       <use xlink:href="#TimesNewRomanPSMT-31"/>
       <use xlink:href="#TimesNewRomanPSMT-30" transform="translate(50 0)"/>
      </g>
     </g>
    </g>
    <g id="ytick_6">
     <g id="line2d_37">
      <path d="M 55.178365 43.749537 
L 478.889524 43.749537 
" clip-path="url(#p97504ae962)" style="fill: none; stroke: #b0b0b0; stroke-width: 0.8; stroke-linecap: square"/>
     </g>
     <g id="line2d_38"/>
     <g id="text_6">
      <!-- 15 -->
      <g transform="translate(31.678365 50.693287) scale(0.2 -0.2)">
       <use xlink:href="#TimesNewRomanPSMT-31"/>
       <use xlink:href="#TimesNewRomanPSMT-35" transform="translate(50 0)"/>
      </g>
     </g>
    </g>
    <g id="ytick_7">
     <g id="line2d_39">
      <path d="M 55.178365 295.060154 
L 478.889524 295.060154 
" clip-path="url(#p97504ae962)" style="fill: none; stroke-dasharray: 0.5,0.825; stroke-dashoffset: 0; stroke: #bfbfbf; stroke-width: 0.5"/>
     </g>
     <g id="line2d_40"/>
    </g>
    <g id="ytick_8">
     <g id="line2d_41">
      <path d="M 55.178365 284.588879 
L 478.889524 284.588879 
" clip-path="url(#p97504ae962)" style="fill: none; stroke-dasharray: 0.5,0.825; stroke-dashoffset: 0; stroke: #bfbfbf; stroke-width: 0.5"/>
     </g>
     <g id="line2d_42"/>
    </g>
    <g id="ytick_9">
     <g id="line2d_43">
      <path d="M 55.178365 274.117603 
L 478.889524 274.117603 
" clip-path="url(#p97504ae962)" style="fill: none; stroke-dasharray: 0.5,0.825; stroke-dashoffset: 0; stroke: #bfbfbf; stroke-width: 0.5"/>
     </g>
     <g id="line2d_44"/>
    </g>
    <g id="ytick_10">
     <g id="line2d_45">
      <path d="M 55.178365 263.646327 
L 478.889524 263.646327 
" clip-path="url(#p97504ae962)" style="fill: none; stroke-dasharray: 0.5,0.825; stroke-dashoffset: 0; stroke: #bfbfbf; stroke-width: 0.5"/>
     </g>
     <g id="line2d_46"/>
    </g>
    <g id="ytick_11">
     <g id="line2d_47">
      <path d="M 55.178365 242.703776 
L 478.889524 242.703776 
" clip-path="url(#p97504ae962)" style="fill: none; stroke-dasharray: 0.5,0.825; stroke-dashoffset: 0; stroke: #bfbfbf; stroke-width: 0.5"/>
     </g>
     <g id="line2d_48"/>
    </g>
    <g id="ytick_12">
     <g id="line2d_49">
      <path d="M 55.178365 232.2325 
L 478.889524 232.2325 
" clip-path="url(#p97504ae962)" style="fill: none; stroke-dasharray: 0.5,0.825; stroke-dashoffset: 0; stroke: #bfbfbf; stroke-width: 0.5"/>
     </g>
     <g id="line2d_50"/>
    </g>
    <g id="ytick_13">
     <g id="line2d_51">
      <path d="M 55.178365 221.761224 
L 478.889524 221.761224 
" clip-path="url(#p97504ae962)" style="fill: none; stroke-dasharray: 0.5,0.825; stroke-dashoffset: 0; stroke: #bfbfbf; stroke-width: 0.5"/>
     </g>
     <g id="line2d_52"/>
    </g>
    <g id="ytick_14">
     <g id="line2d_53">
      <path d="M 55.178365 211.289949 
L 478.889524 211.289949 
" clip-path="url(#p97504ae962)" style="fill: none; stroke-dasharray: 0.5,0.825; stroke-dashoffset: 0; stroke: #bfbfbf; stroke-width: 0.5"/>
     </g>
     <g id="line2d_54"/>
    </g>
    <g id="ytick_15">
     <g id="line2d_55">
      <path d="M 55.178365 190.347397 
L 478.889524 190.347397 
" clip-path="url(#p97504ae962)" style="fill: none; stroke-dasharray: 0.5,0.825; stroke-dashoffset: 0; stroke: #bfbfbf; stroke-width: 0.5"/>
     </g>
     <g id="line2d_56"/>
    </g>
    <g id="ytick_16">
     <g id="line2d_57">
      <path d="M 55.178365 179.876122 
L 478.889524 179.876122 
" clip-path="url(#p97504ae962)" style="fill: none; stroke-dasharray: 0.5,0.825; stroke-dashoffset: 0; stroke: #bfbfbf; stroke-width: 0.5"/>
     </g>
     <g id="line2d_58"/>
    </g>
    <g id="ytick_17">
     <g id="line2d_59">
      <path d="M 55.178365 169.404846 
L 478.889524 169.404846 
" clip-path="url(#p97504ae962)" style="fill: none; stroke-dasharray: 0.5,0.825; stroke-dashoffset: 0; stroke: #bfbfbf; stroke-width: 0.5"/>
     </g>
     <g id="line2d_60"/>
    </g>
    <g id="ytick_18">
     <g id="line2d_61">
      <path d="M 55.178365 158.93357 
L 478.889524 158.93357 
" clip-path="url(#p97504ae962)" style="fill: none; stroke-dasharray: 0.5,0.825; stroke-dashoffset: 0; stroke: #bfbfbf; stroke-width: 0.5"/>
     </g>
     <g id="line2d_62"/>
    </g>
    <g id="ytick_19">
     <g id="line2d_63">
      <path d="M 55.178365 137.991019 
L 478.889524 137.991019 
" clip-path="url(#p97504ae962)" style="fill: none; stroke-dasharray: 0.5,0.825; stroke-dashoffset: 0; stroke: #bfbfbf; stroke-width: 0.5"/>
     </g>
     <g id="line2d_64"/>
    </g>
    <g id="ytick_20">
     <g id="line2d_65">
      <path d="M 55.178365 127.519743 
L 478.889524 127.519743 
" clip-path="url(#p97504ae962)" style="fill: none; stroke-dasharray: 0.5,0.825; stroke-dashoffset: 0; stroke: #bfbfbf; stroke-width: 0.5"/>
     </g>
     <g id="line2d_66"/>
    </g>
    <g id="ytick_21">
     <g id="line2d_67">
      <path d="M 55.178365 117.048467 
L 478.889524 117.048467 
" clip-path="url(#p97504ae962)" style="fill: none; stroke-dasharray: 0.5,0.825; stroke-dashoffset: 0; stroke: #bfbfbf; stroke-width: 0.5"/>
     </g>
     <g id="line2d_68"/>
    </g>
    <g id="ytick_22">
     <g id="line2d_69">
      <path d="M 55.178365 106.577191 
L 478.889524 106.577191 
" clip-path="url(#p97504ae962)" style="fill: none; stroke-dasharray: 0.5,0.825; stroke-dashoffset: 0; stroke: #bfbfbf; stroke-width: 0.5"/>
     </g>
     <g id="line2d_70"/>
    </g>
    <g id="ytick_23">
     <g id="line2d_71">
      <path d="M 55.178365 85.63464 
L 478.889524 85.63464 
" clip-path="url(#p97504ae962)" style="fill: none; stroke-dasharray: 0.5,0.825; stroke-dashoffset: 0; stroke: #bfbfbf; stroke-width: 0.5"/>
     </g>
     <g id="line2d_72"/>
    </g>
    <g id="ytick_24">
     <g id="line2d_73">
      <path d="M 55.178365 75.163364 
L 478.889524 75.163364 
" clip-path="url(#p97504ae962)" style="fill: none; stroke-dasharray: 0.5,0.825; stroke-dashoffset: 0; stroke: #bfbfbf; stroke-width: 0.5"/>
     </g>
     <g id="line2d_74"/>
    </g>
    <g id="ytick_25">
     <g id="line2d_75">
      <path d="M 55.178365 64.692089 
L 478.889524 64.692089 
" clip-path="url(#p97504ae962)" style="fill: none; stroke-dasharray: 0.5,0.825; stroke-dashoffset: 0; stroke: #bfbfbf; stroke-width: 0.5"/>
     </g>
     <g id="line2d_76"/>
    </g>
    <g id="ytick_26">
     <g id="line2d_77">
      <path d="M 55.178365 54.220813 
L 478.889524 54.220813 
" clip-path="url(#p97504ae962)" style="fill: none; stroke-dasharray: 0.5,0.825; stroke-dashoffset: 0; stroke: #bfbfbf; stroke-width: 0.5"/>
     </g>
     <g id="line2d_78"/>
    </g>
    <g id="text_7">
     <!-- $R_E$ -->
     <g transform="translate(3.00024 170.362359) scale(0.2 -0.2)">
      <defs>
       <path id="Cmmi10-52" d="M 313 0 
Q 250 0 250 84 
Q 253 100 262 139 
Q 272 178 289 201 
Q 306 225 331 225 
Q 722 225 878 269 
Q 959 297 997 441 
L 1875 3956 
Q 1888 4019 1888 4044 
Q 1888 4113 1813 4122 
Q 1691 4147 1350 4147 
Q 1288 4147 1288 4231 
Q 1291 4247 1300 4286 
Q 1309 4325 1326 4348 
Q 1344 4372 1369 4372 
L 3309 4372 
Q 3541 4372 3791 4319 
Q 4041 4266 4250 4152 
Q 4459 4038 4593 3848 
Q 4728 3659 4728 3406 
Q 4728 3084 4515 2831 
Q 4303 2578 3978 2408 
Q 3653 2238 3347 2169 
Q 3597 2078 3756 1879 
Q 3916 1681 3916 1422 
Q 3916 1388 3914 1370 
Q 3913 1353 3909 1331 
L 3859 763 
Q 3853 638 3847 550 
Q 3841 463 3841 409 
Q 3841 234 3892 129 
Q 3944 25 4097 25 
Q 4297 25 4448 211 
Q 4600 397 4647 616 
Q 4675 672 4709 672 
L 4769 672 
Q 4831 672 4831 588 
Q 4784 403 4682 237 
Q 4581 72 4426 -34 
Q 4272 -141 4091 -141 
Q 3716 -141 3452 26 
Q 3188 194 3188 550 
Q 3188 684 3213 788 
L 3353 1356 
Q 3378 1434 3378 1538 
Q 3378 1803 3198 1954 
Q 3019 2106 2747 2106 
L 1959 2106 
L 1538 416 
Q 1522 363 1522 325 
Q 1522 259 1600 250 
Q 1722 225 2059 225 
Q 2125 225 2125 141 
Q 2103 50 2090 25 
Q 2078 0 2016 0 
L 313 0 
z
M 1997 2272 
L 2706 2272 
Q 3403 2272 3756 2625 
Q 3919 2788 4014 3039 
Q 4109 3291 4109 3541 
Q 4109 3778 3970 3912 
Q 3831 4047 3626 4097 
Q 3422 4147 3175 4147 
L 2747 4147 
Q 2572 4147 2515 4117 
Q 2459 4088 2413 3928 
L 1997 2272 
z
" transform="scale(0.015625)"/>
       <path id="Cmmi10-45" d="M 300 0 
Q 238 0 238 84 
Q 241 100 250 139 
Q 259 178 276 201 
Q 294 225 319 225 
Q 709 225 863 269 
Q 947 297 984 441 
L 1863 3956 
Q 1875 4019 1875 4044 
Q 1875 4113 1797 4122 
Q 1678 4147 1338 4147 
Q 1275 4147 1275 4231 
Q 1278 4247 1287 4286 
Q 1297 4325 1314 4348 
Q 1331 4372 1356 4372 
L 4825 4372 
Q 4891 4372 4891 4288 
L 4738 2963 
Q 4738 2947 4714 2926 
Q 4691 2906 4672 2906 
L 4616 2906 
Q 4550 2906 4550 2988 
Q 4588 3300 4588 3450 
Q 4588 3706 4500 3848 
Q 4413 3991 4267 4053 
Q 4122 4116 3945 4131 
Q 3769 4147 3481 4147 
L 2753 4147 
Q 2578 4147 2522 4117 
Q 2466 4088 2419 3928 
L 2034 2381 
L 2534 2381 
Q 2859 2381 3025 2426 
Q 3191 2472 3287 2615 
Q 3384 2759 3463 3072 
Q 3469 3094 3486 3111 
Q 3503 3128 3525 3128 
L 3584 3128 
Q 3647 3128 3647 3047 
L 3250 1466 
Q 3238 1409 3188 1409 
L 3128 1409 
Q 3066 1409 3066 1491 
Q 3128 1747 3128 1869 
Q 3128 2056 2959 2106 
Q 2791 2156 2509 2156 
L 1978 2156 
L 1544 416 
Q 1516 338 1516 275 
Q 1516 225 1734 225 
L 2509 225 
Q 2972 225 3259 297 
Q 3547 369 3736 526 
Q 3925 684 4062 928 
Q 4200 1172 4397 1638 
Q 4409 1678 4453 1678 
L 4513 1678 
Q 4538 1678 4556 1656 
Q 4575 1634 4575 1606 
Q 4575 1594 4569 1581 
L 3909 38 
Q 3897 0 3859 0 
L 300 0 
z
" transform="scale(0.015625)"/>
      </defs>
      <use xlink:href="#Cmmi10-52" transform="translate(0 0.6875)"/>
      <use xlink:href="#Cmmi10-45" transform="translate(75.878906 -16.31875) scale(0.7)"/>
     </g>
    </g>
   </g>
   <g id="line2d_79">
    <path d="M 62.835796 196.755101 
L 111.616464 215.445798 
L 130.334628 222.319603 
L 146.783923 228.135009 
L 162.382393 233.42218 
L 177.413646 238.281911 
L 191.594073 242.633512 
L 205.490891 246.658354 
L 218.820493 250.276754 
L 231.299268 253.431019 
L 242.927218 256.151073 
L 254.555169 258.641844 
L 265.332293 260.729082 
L 275.825809 262.539461 
L 285.752108 264.032876 
L 295.394798 265.261647 
L 304.470272 266.200044 
L 313.262136 266.888321 
L 321.770393 267.327233 
L 329.711432 267.514747 
L 337.368862 267.471218 
L 344.459076 267.213413 
L 351.265681 266.747182 
L 357.788677 266.07653 
L 363.744457 265.250154 
L 369.416627 264.250516 
L 374.80519 263.08508 
L 379.910143 261.762158 
L 384.731488 260.291201 
L 389.269225 258.683611 
L 393.523353 256.951794 
L 397.493873 255.11093 
L 401.464392 253.019897 
L 405.151303 250.817747 
L 408.554606 248.524415 
L 411.6743 246.163779 
L 414.793994 243.510287 
L 417.630079 240.794431 
L 420.182556 238.052382 
L 422.735033 234.968185 
L 425.003901 231.875654 
L 427.272769 228.373262 
L 429.258029 224.890643 
L 431.243289 220.918586 
L 432.94494 217.031812 
L 434.646592 212.60817 
L 436.348243 207.587894 
L 438.90072 199.199671 
L 440.885979 192.910795 
L 442.304022 189.145098 
L 443.438456 186.666743 
L 444.57289 184.625825 
L 445.707325 182.956799 
L 447.125367 181.293572 
L 448.54341 180.000985 
L 449.961453 178.996357 
L 451.663104 178.086478 
L 453.364755 177.427972 
L 455.350015 176.905782 
L 457.618883 176.560074 
L 460.17136 176.416533 
L 463.007446 176.48966 
L 466.410748 176.821901 
L 470.097659 177.407989 
L 470.948485 177.57011 
L 470.948485 177.57011 
" clip-path="url(#p97504ae962)" style="fill: none; stroke: #ff0000; stroke-width: 2; stroke-linecap: square"/>
   </g>
   <g id="line2d_80">
    <path d="M 62.835796 197.131033 
L 109.347596 215.047222 
L 128.06576 221.967844 
L 144.798664 227.923721 
L 160.397133 233.246044 
L 175.144777 238.049315 
L 189.325204 242.437155 
L 202.938414 246.41767 
L 215.984407 250.001321 
L 228.463183 253.200365 
L 240.374742 256.028537 
L 252.002692 258.559759 
L 263.063425 260.739681 
L 273.556941 262.585246 
L 283.766848 264.155043 
L 293.409539 265.415046 
L 302.76862 266.41232 
L 311.560485 267.127663 
L 320.068741 267.595783 
L 328.00978 267.813974 
L 335.667211 267.803764 
L 343.041033 267.567399 
L 349.847638 267.130221 
L 356.370634 266.491591 
L 362.610022 265.656036 
L 368.565802 264.628506 
L 373.954364 263.481084 
L 379.059318 262.178838 
L 383.880663 260.731658 
L 388.4184 259.150862 
L 392.672528 257.449501 
L 396.926656 255.504771 
L 400.897175 253.436179 
L 404.584086 251.260349 
L 407.987389 248.997397 
L 411.107083 246.671466 
L 414.226777 244.061348 
L 417.062862 241.395016 
L 419.615339 238.708835 
L 422.167816 235.694788 
L 424.436684 232.680991 
L 426.705552 229.278989 
L 428.690812 225.908327 
L 430.676072 222.078773 
L 432.377723 218.344727 
L 434.079374 214.103716 
L 435.781026 209.280174 
L 437.766285 202.950117 
L 440.885979 192.877728 
L 442.304022 189.123552 
L 443.438456 186.655493 
L 444.57289 184.625224 
L 445.707325 182.966878 
L 447.125367 181.316856 
L 448.54341 180.036835 
L 449.961453 179.044453 
L 451.663104 178.1485 
L 453.364755 177.503271 
L 455.350015 176.995811 
L 457.618883 176.666033 
L 460.17136 176.539368 
L 463.007446 176.629997 
L 466.410748 176.981699 
L 470.097659 177.587535 
L 470.948485 177.754114 
L 470.948485 177.754114 
" clip-path="url(#p97504ae962)" style="fill: none; stroke-dasharray: 11.1,4.8; stroke-dashoffset: 0; stroke: #ff0000; stroke-width: 3"/>
   </g>
   <g id="line2d_81">
    <path d="M 62.835796 100.315003 
L 68.791575 96.805394 
L 74.747354 93.554679 
L 80.703134 90.547443 
L 86.942521 87.643893 
L 93.181909 84.979434 
L 99.704906 82.43727 
L 106.227902 80.132235 
L 113.034507 77.968755 
L 119.841112 76.042288 
L 126.647717 74.34382 
L 133.737931 72.808603 
L 140.828144 71.504392 
L 147.918358 70.424427 
L 155.008571 69.562664 
L 162.382393 68.892484 
L 169.756215 68.447612 
L 177.130037 68.223594 
L 184.503859 68.217014 
L 191.877681 68.424421 
L 199.535112 68.863917 
L 207.192542 69.52961 
L 214.849973 70.419688 
L 222.507404 71.53335 
L 230.164834 72.870127 
L 237.822265 74.430192 
L 245.479695 76.214055 
L 253.420734 78.302141 
L 261.078165 80.547138 
L 268.735596 83.022236 
L 276.393026 85.730418 
L 284.050457 88.675998 
L 291.707887 91.863733 
L 299.365318 95.299587 
L 306.73914 98.848907 
L 314.112962 102.641617 
L 321.486784 106.685832 
L 328.860606 110.991438 
L 335.95082 115.388239 
L 343.041033 120.048164 
L 350.131247 124.984742 
L 356.937852 129.998496 
L 363.744457 135.297752 
L 370.267453 140.661108 
L 376.506841 146.070686 
L 382.746229 151.773731 
L 388.702008 157.51264 
L 394.657787 163.56423 
L 400.329958 169.643411 
L 406.002129 176.057343 
L 411.390691 182.485304 
L 416.779254 189.255877 
L 422.735033 197.118622 
L 431.526898 208.819186 
L 433.512157 211.072182 
L 434.9302 212.366974 
L 436.064634 213.088425 
L 436.91546 213.367686 
L 437.766285 213.356647 
L 438.333503 213.159895 
L 438.90072 212.796878 
L 439.751545 211.931074 
L 440.602371 210.698517 
L 441.736805 208.586248 
L 443.438456 204.788493 
L 450.812278 187.529325 
L 453.931972 181.045757 
L 457.051666 175.073116 
L 460.454969 169.059841 
L 463.858271 163.493962 
L 467.545182 157.895962 
L 470.948485 153.073418 
L 470.948485 153.073418 
" clip-path="url(#p97504ae962)" style="fill: none; stroke: #008000; stroke-width: 2; stroke-linecap: square"/>
   </g>
   <g id="line2d_82">
    <path d="M 62.835796 100.300557 
L 68.791575 96.799503 
L 74.747354 93.557389 
L 80.986742 90.421878 
L 87.22613 87.538381 
L 93.465518 84.893578 
L 99.988514 82.371212 
L 106.511511 80.085462 
L 113.318116 77.941633 
L 120.124721 76.034227 
L 126.931326 74.354356 
L 134.021539 72.838004 
L 141.111753 71.552279 
L 148.201966 70.490381 
L 155.29218 69.646322 
L 162.666002 68.994026 
L 170.039824 68.566661 
L 177.413646 68.359904 
L 184.787468 68.370062 
L 192.444898 68.606909 
L 200.102329 69.071598 
L 207.75976 69.761949 
L 215.41719 70.676437 
L 223.074621 71.814072 
L 230.732051 73.174484 
L 238.389482 74.757839 
L 246.046912 76.564881 
L 253.704343 78.596995 
L 261.361774 80.856118 
L 269.019204 83.344892 
L 276.676635 86.066613 
L 284.334065 89.025348 
L 291.991496 92.225983 
L 299.648926 95.674315 
L 307.022749 99.235395 
L 314.396571 103.039594 
L 321.770393 107.095158 
L 329.144215 111.411669 
L 336.234428 115.818584 
L 343.324642 120.488499 
L 350.131247 125.231407 
L 356.937852 130.242675 
L 363.744457 135.538278 
L 370.267453 140.897332 
L 376.506841 146.301617 
L 382.746229 151.998067 
L 388.702008 157.729478 
L 394.657787 163.771884 
L 400.329958 169.840518 
L 406.002129 176.241881 
L 411.390691 182.655292 
L 416.779254 189.408131 
L 422.735033 197.245939 
L 431.526898 208.891757 
L 433.512157 211.127286 
L 434.9302 212.407877 
L 436.064634 213.116836 
L 436.91546 213.386113 
L 437.766285 213.36468 
L 438.333503 213.160858 
L 439.184328 212.541392 
L 440.035154 211.538939 
L 440.885979 210.1856 
L 442.020414 207.952832 
L 443.722065 204.060863 
L 450.245061 188.685966 
L 453.364755 182.097567 
L 456.484449 176.034514 
L 459.887752 169.93826 
L 463.291054 164.303057 
L 466.977965 158.64174 
L 470.664876 153.377218 
L 470.948485 152.987119 
L 470.948485 152.987119 
" clip-path="url(#p97504ae962)" style="fill: none; stroke-dasharray: 11.1,4.8; stroke-dashoffset: 0; stroke: #008000; stroke-width: 3"/>
   </g>
   <g id="line2d_83">
    <path d="M 62.835796 200.022713 
L 147.067532 204.694634 
L 186.489119 206.620933 
L 221.089361 208.09307 
L 252.2863 209.201298 
L 280.079937 209.972263 
L 305.037489 210.448 
L 327.158955 210.65302 
L 346.444336 210.617798 
L 363.460848 210.36895 
L 377.924884 209.941692 
L 390.120051 209.369769 
L 400.329958 208.682072 
L 408.838214 207.900704 
L 415.928428 207.037521 
L 421.600599 206.139502 
L 426.421944 205.154603 
L 430.108855 204.190832 
L 433.228549 203.159828 
L 436.064634 201.984216 
L 443.154848 198.79144 
L 445.423716 198.199195 
L 448.259801 197.723936 
L 451.663104 197.391722 
L 456.200841 197.17886 
L 462.440228 197.120637 
L 470.948485 197.270052 
L 470.948485 197.270052 
" clip-path="url(#p97504ae962)" style="fill: none; stroke: #0000ff; stroke-width: 2; stroke-linecap: square"/>
   </g>
   <g id="line2d_84">
    <path d="M 62.835796 200.016436 
L 146.783923 204.724594 
L 185.921902 206.660303 
L 220.522144 208.152068 
L 251.435475 209.267227 
L 279.229112 210.053324 
L 304.186663 210.541871 
L 326.308129 210.75779 
L 345.877119 210.729872 
L 362.893631 210.486001 
L 377.357666 210.063037 
L 389.836442 209.479318 
L 400.329958 208.767721 
L 408.838214 207.97771 
L 415.928428 207.105004 
L 421.600599 206.197125 
L 426.421944 205.201444 
L 430.108855 204.227148 
L 433.228549 203.184921 
L 436.064634 201.996565 
L 443.154848 198.769446 
L 445.423716 198.170893 
L 447.976193 197.728668 
L 451.379495 197.375837 
L 455.917232 197.148015 
L 462.15662 197.079991 
L 470.664876 197.224731 
L 470.948485 197.232548 
L 470.948485 197.232548 
" clip-path="url(#p97504ae962)" style="fill: none; stroke-dasharray: 11.1,4.8; stroke-dashoffset: 0; stroke: #0000ff; stroke-width: 3"/>
   </g>
   <g id="line2d_85">
    <path d="M 62.835796 100.229738 
L 69.358792 96.47261 
L 76.165397 92.811592 
L 82.972002 89.400362 
L 90.062215 86.098439 
L 97.152429 83.040365 
L 104.242642 80.214958 
L 111.616464 77.513199 
L 118.990287 75.043418 
L 126.647717 72.715568 
L 134.305148 70.621479 
L 141.962578 68.754313 
L 149.903617 67.051644 
L 157.844656 65.581421 
L 165.785696 64.339146 
L 173.726735 63.321023 
L 181.667774 62.524181 
L 189.608813 61.946218 
L 197.549852 61.585428 
L 205.7745 61.439807 
L 213.715539 61.518751 
L 221.656578 61.813726 
L 229.881226 62.347948 
L 237.822265 63.085896 
L 245.763304 64.044372 
L 253.704343 65.226054 
L 261.645382 66.634588 
L 269.586421 68.274251 
L 277.52746 70.150205 
L 285.184891 72.188732 
L 292.842322 74.459176 
L 300.216144 76.871617 
L 307.589966 79.513835 
L 314.963788 82.394892 
L 322.054001 85.399983 
L 329.144215 88.646207 
L 335.95082 92.000873 
L 342.757425 95.602012 
L 349.280421 99.298104 
L 355.803417 103.249532 
L 362.042805 107.284569 
L 368.282193 111.588357 
L 374.237973 115.967642 
L 379.910143 120.40584 
L 385.582314 125.129567 
L 390.970876 129.908057 
L 396.07583 134.724721 
L 401.180784 139.855834 
L 406.002129 145.026205 
L 410.539866 150.217973 
L 414.793994 155.410189 
L 419.048122 160.959157 
L 423.018641 166.499019 
L 426.989161 172.412085 
L 432.377723 180.901106 
L 435.213809 185.186174 
L 436.631851 186.990387 
L 437.766285 188.088093 
L 438.617111 188.618976 
L 439.467937 188.84228 
L 440.318762 188.733869 
L 441.169588 188.30571 
L 442.020414 187.600771 
L 443.154848 186.331127 
L 444.856499 183.981416 
L 447.692584 179.572901 
L 453.648364 170.277888 
L 457.618883 164.497415 
L 461.589403 159.08495 
L 465.843531 153.658679 
L 470.381268 148.24716 
L 470.948485 147.595607 
L 470.948485 147.595607 
" clip-path="url(#p97504ae962)" style="fill: none; stroke: #000000; stroke-width: 2; stroke-linecap: square"/>
   </g>
   <g id="line2d_86">
    <path d="M 63.652588 291.185782 
L 80.601035 291.185782 
" style="fill: none; stroke: #000000; stroke-width: 2"/>
   </g>
   <g id="text_8">
    <g id="patch_3">
     <path d="M 84.838146 300.997892 
L 91.738146 300.997892 
Q 94.738146 300.997892 94.738146 297.997892 
L 94.738146 284.373673 
Q 94.738146 281.373673 91.738146 281.373673 
L 84.838146 281.373673 
Q 81.838146 281.373673 81.838146 284.373673 
L 81.838146 297.997892 
Q 81.838146 300.997892 84.838146 300.997892 
z
" style="fill: #ffffff"/>
    </g>
    <!-- $\overline{r}$ -->
    <g transform="translate(84.838146 294.789298) scale(0.15 -0.15)">
     <defs>
      <path id="Cmmi10-72" d="M 494 109 
Q 494 147 500 166 
L 978 2075 
Q 1025 2253 1025 2388 
Q 1025 2663 838 2663 
Q 638 2663 541 2423 
Q 444 2184 353 1819 
Q 353 1800 334 1789 
Q 316 1778 300 1778 
L 225 1778 
Q 203 1778 187 1801 
Q 172 1825 172 1844 
Q 241 2122 305 2315 
Q 369 2509 505 2668 
Q 641 2828 844 2828 
Q 1066 2828 1233 2700 
Q 1400 2572 1441 2363 
Q 1603 2575 1811 2701 
Q 2019 2828 2266 2828 
Q 2469 2828 2623 2709 
Q 2778 2591 2778 2388 
Q 2778 2225 2676 2104 
Q 2575 1984 2406 1984 
Q 2303 1984 2233 2048 
Q 2163 2113 2163 2216 
Q 2163 2356 2266 2467 
Q 2369 2578 2503 2578 
Q 2400 2663 2253 2663 
Q 1978 2663 1775 2467 
Q 1572 2272 1409 1972 
L 953 141 
Q 931 53 854 -9 
Q 778 -72 684 -72 
Q 606 -72 550 -22 
Q 494 28 494 109 
z
" transform="scale(0.015625)"/>
     </defs>
     <use xlink:href="#Cmmi10-72" transform="translate(0 0.5625)"/>
     <path d="M 0 56.5 
L 0 62.75 
L 45.117188 62.75 
L 45.117188 56.5 
L 0 56.5 
z
"/>
    </g>
   </g>
   <g id="legend_1">
    <g id="patch_4">
     <path d="M 65.221444 58.788113 
L 468.846444 58.788113 
Q 471.846444 58.788113 471.846444 55.788113 
L 471.846444 5.956863 
Q 471.846444 2.956863 468.846444 2.956863 
L 65.221444 2.956863 
Q 62.221444 2.956863 62.221444 5.956863 
L 62.221444 55.788113 
Q 62.221444 58.788113 65.221444 58.788113 
z
" style="fill: #ffffff; opacity: 0.8; stroke: #cccccc; stroke-linejoin: miter"/>
    </g>
    <g id="line2d_87">
     <path d="M 68.221444 17.594363 
L 79.471444 17.594363 
L 90.721444 17.594363 
" style="fill: none; stroke: #ff0000; stroke-width: 2; stroke-linecap: square"/>
    </g>
    <g id="text_9">
     <!-- SSCWeb/X -->
     <g transform="translate(98.221444 22.844363) scale(0.2 -0.2)">
      <defs>
       <path id="TimesNewRomanPSMT-53" d="M 2934 4334 
L 2934 2869 
L 2819 2869 
Q 2763 3291 2617 3541 
Q 2472 3791 2203 3937 
Q 1934 4084 1647 4084 
Q 1322 4084 1109 3886 
Q 897 3688 897 3434 
Q 897 3241 1031 3081 
Q 1225 2847 1953 2456 
Q 2547 2138 2764 1967 
Q 2981 1797 3098 1565 
Q 3216 1334 3216 1081 
Q 3216 600 2842 251 
Q 2469 -97 1881 -97 
Q 1697 -97 1534 -69 
Q 1438 -53 1133 45 
Q 828 144 747 144 
Q 669 144 623 97 
Q 578 50 556 -97 
L 441 -97 
L 441 1356 
L 556 1356 
Q 638 900 775 673 
Q 913 447 1195 297 
Q 1478 147 1816 147 
Q 2206 147 2432 353 
Q 2659 559 2659 841 
Q 2659 997 2573 1156 
Q 2488 1316 2306 1453 
Q 2184 1547 1640 1851 
Q 1097 2156 867 2337 
Q 638 2519 519 2737 
Q 400 2956 400 3219 
Q 400 3675 750 4004 
Q 1100 4334 1641 4334 
Q 1978 4334 2356 4169 
Q 2531 4091 2603 4091 
Q 2684 4091 2736 4139 
Q 2788 4188 2819 4334 
L 2934 4334 
z
" transform="scale(0.015625)"/>
       <path id="TimesNewRomanPSMT-43" d="M 3853 4334 
L 3950 2894 
L 3853 2894 
Q 3659 3541 3300 3825 
Q 2941 4109 2438 4109 
Q 2016 4109 1675 3895 
Q 1334 3681 1139 3212 
Q 944 2744 944 2047 
Q 944 1472 1128 1050 
Q 1313 628 1683 403 
Q 2053 178 2528 178 
Q 2941 178 3256 354 
Q 3572 531 3950 1056 
L 4047 994 
Q 3728 428 3303 165 
Q 2878 -97 2294 -97 
Q 1241 -97 663 684 
Q 231 1266 231 2053 
Q 231 2688 515 3219 
Q 800 3750 1298 4042 
Q 1797 4334 2388 4334 
Q 2847 4334 3294 4109 
Q 3425 4041 3481 4041 
Q 3566 4041 3628 4100 
Q 3709 4184 3744 4334 
L 3853 4334 
z
" transform="scale(0.015625)"/>
       <path id="TimesNewRomanPSMT-57" d="M 5991 4238 
L 5991 4122 
Q 5825 4122 5722 4062 
Q 5619 4003 5525 3841 
Q 5463 3731 5328 3319 
L 4147 -97 
L 4022 -97 
L 3056 2613 
L 2097 -97 
L 1984 -97 
L 725 3422 
Q 584 3816 547 3888 
Q 484 4006 376 4064 
Q 269 4122 84 4122 
L 84 4238 
L 1653 4238 
L 1653 4122 
L 1578 4122 
Q 1413 4122 1325 4047 
Q 1238 3972 1238 3866 
Q 1238 3756 1375 3363 
L 2209 984 
L 2913 3006 
L 2788 3363 
L 2688 3647 
Q 2622 3803 2541 3922 
Q 2500 3981 2441 4022 
Q 2363 4078 2284 4103 
Q 2225 4122 2097 4122 
L 2097 4238 
L 3747 4238 
L 3747 4122 
L 3634 4122 
Q 3459 4122 3378 4047 
Q 3297 3972 3297 3844 
Q 3297 3684 3438 3288 
L 4250 984 
L 5056 3319 
Q 5194 3706 5194 3856 
Q 5194 3928 5148 3990 
Q 5103 4053 5034 4078 
Q 4916 4122 4725 4122 
L 4725 4238 
L 5991 4238 
z
" transform="scale(0.015625)"/>
       <path id="TimesNewRomanPSMT-65" d="M 681 1784 
Q 678 1147 991 784 
Q 1303 422 1725 422 
Q 2006 422 2214 576 
Q 2422 731 2563 1106 
L 2659 1044 
Q 2594 616 2278 264 
Q 1963 -88 1488 -88 
Q 972 -88 605 314 
Q 238 716 238 1394 
Q 238 2128 614 2539 
Q 991 2950 1559 2950 
Q 2041 2950 2350 2633 
Q 2659 2316 2659 1784 
L 681 1784 
z
M 681 1966 
L 2006 1966 
Q 1991 2241 1941 2353 
Q 1863 2528 1708 2628 
Q 1553 2728 1384 2728 
Q 1125 2728 920 2526 
Q 716 2325 681 1966 
z
" transform="scale(0.015625)"/>
       <path id="TimesNewRomanPSMT-62" d="M 984 2369 
Q 1400 2947 1881 2947 
Q 2322 2947 2650 2570 
Q 2978 2194 2978 1541 
Q 2978 778 2472 313 
Q 2038 -88 1503 -88 
Q 1253 -88 995 3 
Q 738 94 469 275 
L 469 3241 
Q 469 3728 445 3840 
Q 422 3953 372 3993 
Q 322 4034 247 4034 
Q 159 4034 28 3984 
L -16 4094 
L 844 4444 
L 984 4444 
L 984 2369 
z
M 984 2169 
L 984 456 
Q 1144 300 1314 220 
Q 1484 141 1663 141 
Q 1947 141 2192 453 
Q 2438 766 2438 1363 
Q 2438 1913 2192 2208 
Q 1947 2503 1634 2503 
Q 1469 2503 1303 2419 
Q 1178 2356 984 2169 
z
" transform="scale(0.015625)"/>
       <path id="TimesNewRomanPSMT-2f" d="M 1794 4444 
L 259 -88 
L 9 -88 
L 1544 4444 
L 1794 4444 
z
" transform="scale(0.015625)"/>
       <path id="TimesNewRomanPSMT-58" d="M 2613 2347 
L 3522 991 
Q 3900 428 4083 279 
Q 4266 131 4547 116 
L 4547 0 
L 2728 0 
L 2728 116 
Q 2909 119 2997 153 
Q 3063 181 3105 239 
Q 3147 297 3147 356 
Q 3147 428 3119 500 
Q 3097 553 2947 775 
L 2228 1863 
L 1341 725 
Q 1200 544 1172 483 
Q 1144 422 1144 356 
Q 1144 256 1228 190 
Q 1313 125 1550 116 
L 1550 0 
L 47 0 
L 47 116 
Q 206 131 322 181 
Q 516 263 691 400 
Q 866 538 1091 822 
L 2091 2084 
L 1256 3306 
Q 916 3803 678 3958 
Q 441 4113 131 4122 
L 131 4238 
L 2091 4238 
L 2091 4122 
Q 1841 4113 1748 4041 
Q 1656 3969 1656 3881 
Q 1656 3766 1806 3544 
L 2456 2572 
L 3209 3525 
Q 3341 3694 3370 3756 
Q 3400 3819 3400 3884 
Q 3400 3950 3363 4000 
Q 3316 4066 3244 4092 
Q 3172 4119 2947 4122 
L 2947 4238 
L 4450 4238 
L 4450 4122 
Q 4272 4113 4159 4066 
Q 3991 3994 3850 3872 
Q 3709 3750 3453 3422 
L 2613 2347 
z
" transform="scale(0.015625)"/>
      </defs>
      <use xlink:href="#TimesNewRomanPSMT-53"/>
      <use xlink:href="#TimesNewRomanPSMT-53" transform="translate(55.615234 0)"/>
      <use xlink:href="#TimesNewRomanPSMT-43" transform="translate(111.230469 0)"/>
      <use xlink:href="#TimesNewRomanPSMT-57" transform="translate(177.929688 0)"/>
      <use xlink:href="#TimesNewRomanPSMT-65" transform="translate(264.314453 0)"/>
      <use xlink:href="#TimesNewRomanPSMT-62" transform="translate(308.699219 0)"/>
      <use xlink:href="#TimesNewRomanPSMT-2f" transform="translate(358.699219 0)"/>
      <use xlink:href="#TimesNewRomanPSMT-58" transform="translate(386.482422 0)"/>
     </g>
    </g>
    <g id="line2d_88">
     <path d="M 68.221444 43.259988 
L 79.471444 43.259988 
L 90.721444 43.259988 
" style="fill: none; stroke-dasharray: 11.1,4.8; stroke-dashoffset: 0; stroke: #ff0000; stroke-width: 3"/>
    </g>
    <g id="text_10">
     <!-- CDAWeb/X -->
     <g transform="translate(98.221444 48.509988) scale(0.2 -0.2)">
      <defs>
       <path id="TimesNewRomanPSMT-44" d="M 109 0 
L 109 116 
L 269 116 
Q 538 116 650 288 
Q 719 391 719 750 
L 719 3488 
Q 719 3884 631 3984 
Q 509 4122 269 4122 
L 109 4122 
L 109 4238 
L 1834 4238 
Q 2784 4238 3279 4022 
Q 3775 3806 4076 3303 
Q 4378 2800 4378 2141 
Q 4378 1256 3841 663 
Q 3238 0 2003 0 
L 109 0 
z
M 1319 306 
Q 1716 219 1984 219 
Q 2709 219 3187 728 
Q 3666 1238 3666 2109 
Q 3666 2988 3187 3494 
Q 2709 4000 1959 4000 
Q 1678 4000 1319 3909 
L 1319 306 
z
" transform="scale(0.015625)"/>
       <path id="TimesNewRomanPSMT-41" d="M 2928 1419 
L 1288 1419 
L 1000 750 
Q 894 503 894 381 
Q 894 284 986 211 
Q 1078 138 1384 116 
L 1384 0 
L 50 0 
L 50 116 
Q 316 163 394 238 
Q 553 388 747 847 
L 2238 4334 
L 2347 4334 
L 3822 809 
Q 4000 384 4145 257 
Q 4291 131 4550 116 
L 4550 0 
L 2878 0 
L 2878 116 
Q 3131 128 3220 200 
Q 3309 272 3309 375 
Q 3309 513 3184 809 
L 2928 1419 
z
M 2841 1650 
L 2122 3363 
L 1384 1650 
L 2841 1650 
z
" transform="scale(0.015625)"/>
      </defs>
      <use xlink:href="#TimesNewRomanPSMT-43"/>
      <use xlink:href="#TimesNewRomanPSMT-44" transform="translate(66.699219 0)"/>
      <use xlink:href="#TimesNewRomanPSMT-41" transform="translate(138.916016 0)"/>
      <use xlink:href="#TimesNewRomanPSMT-57" transform="translate(203.132812 0)"/>
      <use xlink:href="#TimesNewRomanPSMT-65" transform="translate(289.517578 0)"/>
      <use xlink:href="#TimesNewRomanPSMT-62" transform="translate(333.902344 0)"/>
      <use xlink:href="#TimesNewRomanPSMT-2f" transform="translate(383.902344 0)"/>
      <use xlink:href="#TimesNewRomanPSMT-58" transform="translate(411.685547 0)"/>
     </g>
    </g>
    <g id="line2d_89">
     <path d="M 204.755819 17.594363 
L 216.005819 17.594363 
L 227.255819 17.594363 
" style="fill: none; stroke: #008000; stroke-width: 2; stroke-linecap: square"/>
    </g>
    <g id="text_11">
     <!-- SSCWeb/Y -->
     <g transform="translate(234.755819 22.844363) scale(0.2 -0.2)">
      <defs>
       <path id="TimesNewRomanPSMT-59" d="M 3050 4238 
L 4528 4238 
L 4528 4122 
L 4447 4122 
Q 4366 4122 4209 4050 
Q 4053 3978 3925 3843 
Q 3797 3709 3609 3406 
L 2588 1797 
L 2588 734 
Q 2588 344 2675 247 
Q 2794 116 3050 116 
L 3188 116 
L 3188 0 
L 1388 0 
L 1388 116 
L 1538 116 
Q 1806 116 1919 278 
Q 1988 378 1988 734 
L 1988 1738 
L 825 3513 
Q 619 3825 545 3903 
Q 472 3981 241 4091 
Q 178 4122 59 4122 
L 59 4238 
L 1872 4238 
L 1872 4122 
L 1778 4122 
Q 1631 4122 1507 4053 
Q 1384 3984 1384 3847 
Q 1384 3734 1575 3441 
L 2459 2075 
L 3291 3381 
Q 3478 3675 3478 3819 
Q 3478 3906 3433 3975 
Q 3388 4044 3303 4083 
Q 3219 4122 3050 4122 
L 3050 4238 
z
" transform="scale(0.015625)"/>
      </defs>
      <use xlink:href="#TimesNewRomanPSMT-53"/>
      <use xlink:href="#TimesNewRomanPSMT-53" transform="translate(55.615234 0)"/>
      <use xlink:href="#TimesNewRomanPSMT-43" transform="translate(111.230469 0)"/>
      <use xlink:href="#TimesNewRomanPSMT-57" transform="translate(177.929688 0)"/>
      <use xlink:href="#TimesNewRomanPSMT-65" transform="translate(264.314453 0)"/>
      <use xlink:href="#TimesNewRomanPSMT-62" transform="translate(308.699219 0)"/>
      <use xlink:href="#TimesNewRomanPSMT-2f" transform="translate(358.699219 0)"/>
      <use xlink:href="#TimesNewRomanPSMT-59" transform="translate(386.482422 0)"/>
     </g>
    </g>
    <g id="line2d_90">
     <path d="M 204.755819 43.259988 
L 216.005819 43.259988 
L 227.255819 43.259988 
" style="fill: none; stroke-dasharray: 11.1,4.8; stroke-dashoffset: 0; stroke: #008000; stroke-width: 3"/>
    </g>
    <g id="text_12">
     <!-- CDAWeb/Y -->
     <g transform="translate(234.755819 48.509988) scale(0.2 -0.2)">
      <use xlink:href="#TimesNewRomanPSMT-43"/>
      <use xlink:href="#TimesNewRomanPSMT-44" transform="translate(66.699219 0)"/>
      <use xlink:href="#TimesNewRomanPSMT-41" transform="translate(138.916016 0)"/>
      <use xlink:href="#TimesNewRomanPSMT-57" transform="translate(203.132812 0)"/>
      <use xlink:href="#TimesNewRomanPSMT-65" transform="translate(289.517578 0)"/>
      <use xlink:href="#TimesNewRomanPSMT-62" transform="translate(333.902344 0)"/>
      <use xlink:href="#TimesNewRomanPSMT-2f" transform="translate(383.902344 0)"/>
      <use xlink:href="#TimesNewRomanPSMT-59" transform="translate(411.685547 0)"/>
     </g>
    </g>
    <g id="line2d_91">
     <path d="M 341.290194 17.594363 
L 352.540194 17.594363 
L 363.790194 17.594363 
" style="fill: none; stroke: #0000ff; stroke-width: 2; stroke-linecap: square"/>
    </g>
    <g id="text_13">
     <!-- SSCWeb/Z -->
     <g transform="translate(371.290194 22.844363) scale(0.2 -0.2)">
      <defs>
       <path id="TimesNewRomanPSMT-5a" d="M 3681 4238 
L 897 256 
L 2634 256 
Q 3034 256 3248 431 
Q 3463 606 3628 1141 
L 3731 1122 
L 3531 0 
L 81 0 
L 81 116 
L 2800 3984 
L 1444 3984 
Q 1106 3984 954 3911 
Q 803 3838 723 3698 
Q 644 3559 578 3178 
L 459 3178 
L 547 4238 
L 3681 4238 
z
" transform="scale(0.015625)"/>
      </defs>
      <use xlink:href="#TimesNewRomanPSMT-53"/>
      <use xlink:href="#TimesNewRomanPSMT-53" transform="translate(55.615234 0)"/>
      <use xlink:href="#TimesNewRomanPSMT-43" transform="translate(111.230469 0)"/>
      <use xlink:href="#TimesNewRomanPSMT-57" transform="translate(177.929688 0)"/>
      <use xlink:href="#TimesNewRomanPSMT-65" transform="translate(264.314453 0)"/>
      <use xlink:href="#TimesNewRomanPSMT-62" transform="translate(308.699219 0)"/>
      <use xlink:href="#TimesNewRomanPSMT-2f" transform="translate(358.699219 0)"/>
      <use xlink:href="#TimesNewRomanPSMT-5a" transform="translate(386.482422 0)"/>
     </g>
    </g>
    <g id="line2d_92">
     <path d="M 341.290194 43.259988 
L 352.540194 43.259988 
L 363.790194 43.259988 
" style="fill: none; stroke-dasharray: 11.1,4.8; stroke-dashoffset: 0; stroke: #0000ff; stroke-width: 3"/>
    </g>
    <g id="text_14">
     <!-- CDAWeb/Z -->
     <g transform="translate(371.290194 48.509988) scale(0.2 -0.2)">
      <use xlink:href="#TimesNewRomanPSMT-43"/>
      <use xlink:href="#TimesNewRomanPSMT-44" transform="translate(66.699219 0)"/>
      <use xlink:href="#TimesNewRomanPSMT-41" transform="translate(138.916016 0)"/>
      <use xlink:href="#TimesNewRomanPSMT-57" transform="translate(203.132812 0)"/>
      <use xlink:href="#TimesNewRomanPSMT-65" transform="translate(289.517578 0)"/>
      <use xlink:href="#TimesNewRomanPSMT-62" transform="translate(333.902344 0)"/>
      <use xlink:href="#TimesNewRomanPSMT-2f" transform="translate(383.902344 0)"/>
      <use xlink:href="#TimesNewRomanPSMT-5a" transform="translate(411.685547 0)"/>
     </g>
    </g>
   </g>
  </g>
  <g id="axes_2">
   <g id="patch_5">
    <path d="M 55.178365 600.690223 
L 478.889524 600.690223 
L 478.889524 323.201416 
L 55.178365 323.201416 
z
" style="fill: #ffffff"/>
   </g>
   <g id="matplotlib.axis_3">
    <g id="xtick_14">
     <g id="line2d_93">
      <path d="M 62.835796 600.690223 
L 62.835796 323.201416 
" clip-path="url(#p0607910268)" style="fill: none; stroke: #b0b0b0; stroke-width: 0.8; stroke-linecap: square"/>
     </g>
     <g id="line2d_94"/>
     <g id="text_15">
      <!-- 00 -->
      <g transform="translate(55.460796 618.077723) scale(0.2 -0.2)">
       <use xlink:href="#TimesNewRomanPSMT-30"/>
       <use xlink:href="#TimesNewRomanPSMT-30" transform="translate(50 0)"/>
      </g>
      <!-- 2016-09-01 -->
      <g transform="translate(55.460796 639.020848) scale(0.2 -0.2)">
       <defs>
        <path id="TimesNewRomanPSMT-32" d="M 2934 816 
L 2638 0 
L 138 0 
L 138 116 
Q 1241 1122 1691 1759 
Q 2141 2397 2141 2925 
Q 2141 3328 1894 3587 
Q 1647 3847 1303 3847 
Q 991 3847 742 3664 
Q 494 3481 375 3128 
L 259 3128 
Q 338 3706 661 4015 
Q 984 4325 1469 4325 
Q 1984 4325 2329 3994 
Q 2675 3663 2675 3213 
Q 2675 2891 2525 2569 
Q 2294 2063 1775 1497 
Q 997 647 803 472 
L 1909 472 
Q 2247 472 2383 497 
Q 2519 522 2628 598 
Q 2738 675 2819 816 
L 2934 816 
z
" transform="scale(0.015625)"/>
        <path id="TimesNewRomanPSMT-36" d="M 2869 4325 
L 2869 4209 
Q 2456 4169 2195 4045 
Q 1934 3922 1679 3669 
Q 1425 3416 1258 3105 
Q 1091 2794 978 2366 
Q 1428 2675 1881 2675 
Q 2316 2675 2634 2325 
Q 2953 1975 2953 1425 
Q 2953 894 2631 456 
Q 2244 -75 1606 -75 
Q 1172 -75 869 213 
Q 275 772 275 1663 
Q 275 2231 503 2743 
Q 731 3256 1154 3653 
Q 1578 4050 1965 4187 
Q 2353 4325 2688 4325 
L 2869 4325 
z
M 925 2138 
Q 869 1716 869 1456 
Q 869 1156 980 804 
Q 1091 453 1309 247 
Q 1469 100 1697 100 
Q 1969 100 2183 356 
Q 2397 613 2397 1088 
Q 2397 1622 2184 2012 
Q 1972 2403 1581 2403 
Q 1463 2403 1327 2353 
Q 1191 2303 925 2138 
z
" transform="scale(0.015625)"/>
        <path id="TimesNewRomanPSMT-2d" d="M 259 1672 
L 1875 1672 
L 1875 1200 
L 259 1200 
L 259 1672 
z
" transform="scale(0.015625)"/>
        <path id="TimesNewRomanPSMT-39" d="M 338 -88 
L 338 28 
Q 744 34 1094 217 
Q 1444 400 1770 856 
Q 2097 1313 2225 1859 
Q 1734 1544 1338 1544 
Q 891 1544 572 1889 
Q 253 2234 253 2806 
Q 253 3363 572 3797 
Q 956 4325 1575 4325 
Q 2097 4325 2469 3894 
Q 2925 3359 2925 2575 
Q 2925 1869 2578 1258 
Q 2231 647 1613 244 
Q 1109 -88 516 -88 
L 338 -88 
z
M 2275 2091 
Q 2331 2497 2331 2741 
Q 2331 3044 2228 3395 
Q 2125 3747 1936 3934 
Q 1747 4122 1506 4122 
Q 1228 4122 1018 3872 
Q 809 3622 809 3128 
Q 809 2469 1088 2097 
Q 1291 1828 1588 1828 
Q 1731 1828 1928 1897 
Q 2125 1966 2275 2091 
z
" transform="scale(0.015625)"/>
       </defs>
       <use xlink:href="#TimesNewRomanPSMT-32"/>
       <use xlink:href="#TimesNewRomanPSMT-30" transform="translate(50 0)"/>
       <use xlink:href="#TimesNewRomanPSMT-31" transform="translate(100 0)"/>
       <use xlink:href="#TimesNewRomanPSMT-36" transform="translate(150 0)"/>
       <use xlink:href="#TimesNewRomanPSMT-2d" transform="translate(200 0)"/>
       <use xlink:href="#TimesNewRomanPSMT-30" transform="translate(233.300781 0)"/>
       <use xlink:href="#TimesNewRomanPSMT-39" transform="translate(283.300781 0)"/>
       <use xlink:href="#TimesNewRomanPSMT-2d" transform="translate(333.300781 0)"/>
       <use xlink:href="#TimesNewRomanPSMT-30" transform="translate(366.601562 0)"/>
       <use xlink:href="#TimesNewRomanPSMT-31" transform="translate(416.601562 0)"/>
      </g>
     </g>
    </g>
    <g id="xtick_15">
     <g id="line2d_95">
      <path d="M 130.901845 600.690223 
L 130.901845 323.201416 
" clip-path="url(#p0607910268)" style="fill: none; stroke: #b0b0b0; stroke-width: 0.8; stroke-linecap: square"/>
     </g>
     <g id="line2d_96"/>
     <g id="text_16">
      <!-- 04 -->
      <g transform="translate(122.201845 616.272348) scale(0.174 -0.174)">
       <defs>
        <path id="TimesNewRomanPSMT-34" d="M 2978 1563 
L 2978 1119 
L 2409 1119 
L 2409 0 
L 1894 0 
L 1894 1119 
L 100 1119 
L 100 1519 
L 2066 4325 
L 2409 4325 
L 2409 1563 
L 2978 1563 
z
M 1894 1563 
L 1894 3666 
L 406 1563 
L 1894 1563 
z
" transform="scale(0.015625)"/>
       </defs>
       <use xlink:href="#TimesNewRomanPSMT-30"/>
       <use xlink:href="#TimesNewRomanPSMT-34" transform="translate(50 0)"/>
      </g>
     </g>
    </g>
    <g id="xtick_16">
     <g id="line2d_97">
      <path d="M 198.967895 600.690223 
L 198.967895 323.201416 
" clip-path="url(#p0607910268)" style="fill: none; stroke: #b0b0b0; stroke-width: 0.8; stroke-linecap: square"/>
     </g>
     <g id="line2d_98"/>
     <g id="text_17">
      <!-- 08 -->
      <g transform="translate(190.267895 616.272348) scale(0.174 -0.174)">
       <defs>
        <path id="TimesNewRomanPSMT-38" d="M 1228 2134 
Q 725 2547 579 2797 
Q 434 3047 434 3316 
Q 434 3728 753 4026 
Q 1072 4325 1600 4325 
Q 2113 4325 2425 4047 
Q 2738 3769 2738 3413 
Q 2738 3175 2569 2928 
Q 2400 2681 1866 2347 
Q 2416 1922 2594 1678 
Q 2831 1359 2831 1006 
Q 2831 559 2490 242 
Q 2150 -75 1597 -75 
Q 994 -75 656 303 
Q 388 606 388 966 
Q 388 1247 577 1523 
Q 766 1800 1228 2134 
z
M 1719 2469 
Q 2094 2806 2194 3001 
Q 2294 3197 2294 3444 
Q 2294 3772 2109 3958 
Q 1925 4144 1606 4144 
Q 1288 4144 1088 3959 
Q 888 3775 888 3528 
Q 888 3366 970 3203 
Q 1053 3041 1206 2894 
L 1719 2469 
z
M 1375 2016 
Q 1116 1797 991 1539 
Q 866 1281 866 981 
Q 866 578 1086 336 
Q 1306 94 1647 94 
Q 1984 94 2187 284 
Q 2391 475 2391 747 
Q 2391 972 2272 1150 
Q 2050 1481 1375 2016 
z
" transform="scale(0.015625)"/>
       </defs>
       <use xlink:href="#TimesNewRomanPSMT-30"/>
       <use xlink:href="#TimesNewRomanPSMT-38" transform="translate(50 0)"/>
      </g>
     </g>
    </g>
    <g id="xtick_17">
     <g id="line2d_99">
      <path d="M 267.033944 600.690223 
L 267.033944 323.201416 
" clip-path="url(#p0607910268)" style="fill: none; stroke: #b0b0b0; stroke-width: 0.8; stroke-linecap: square"/>
     </g>
     <g id="line2d_100"/>
     <g id="text_18">
      <!-- 12 -->
      <g transform="translate(258.333944 616.272348) scale(0.174 -0.174)">
       <use xlink:href="#TimesNewRomanPSMT-31"/>
       <use xlink:href="#TimesNewRomanPSMT-32" transform="translate(50 0)"/>
      </g>
     </g>
    </g>
    <g id="xtick_18">
     <g id="line2d_101">
      <path d="M 335.099994 600.690223 
L 335.099994 323.201416 
" clip-path="url(#p0607910268)" style="fill: none; stroke: #b0b0b0; stroke-width: 0.8; stroke-linecap: square"/>
     </g>
     <g id="line2d_102"/>
     <g id="text_19">
      <!-- 16 -->
      <g transform="translate(326.399994 616.272348) scale(0.174 -0.174)">
       <use xlink:href="#TimesNewRomanPSMT-31"/>
       <use xlink:href="#TimesNewRomanPSMT-36" transform="translate(50 0)"/>
      </g>
     </g>
    </g>
    <g id="xtick_19">
     <g id="line2d_103">
      <path d="M 403.166044 600.690223 
L 403.166044 323.201416 
" clip-path="url(#p0607910268)" style="fill: none; stroke: #b0b0b0; stroke-width: 0.8; stroke-linecap: square"/>
     </g>
     <g id="line2d_104"/>
     <g id="text_20">
      <!-- 20 -->
      <g transform="translate(394.466044 616.272348) scale(0.174 -0.174)">
       <use xlink:href="#TimesNewRomanPSMT-32"/>
       <use xlink:href="#TimesNewRomanPSMT-30" transform="translate(50 0)"/>
      </g>
     </g>
    </g>
    <g id="xtick_20">
     <g id="line2d_105">
      <path d="M 471.232093 600.690223 
L 471.232093 323.201416 
" clip-path="url(#p0607910268)" style="fill: none; stroke: #b0b0b0; stroke-width: 0.8; stroke-linecap: square"/>
     </g>
     <g id="line2d_106"/>
     <g id="text_21">
      <!-- 00 -->
      <g transform="translate(458.607093 618.077723) scale(0.2 -0.2)">
       <use xlink:href="#TimesNewRomanPSMT-30"/>
       <use xlink:href="#TimesNewRomanPSMT-30" transform="translate(50 0)"/>
      </g>
      <!-- 2016-09-02 -->
      <g transform="translate(385.288343 639.020848) scale(0.2 -0.2)">
       <use xlink:href="#TimesNewRomanPSMT-32"/>
       <use xlink:href="#TimesNewRomanPSMT-30" transform="translate(50 0)"/>
       <use xlink:href="#TimesNewRomanPSMT-31" transform="translate(100 0)"/>
       <use xlink:href="#TimesNewRomanPSMT-36" transform="translate(150 0)"/>
       <use xlink:href="#TimesNewRomanPSMT-2d" transform="translate(200 0)"/>
       <use xlink:href="#TimesNewRomanPSMT-30" transform="translate(233.300781 0)"/>
       <use xlink:href="#TimesNewRomanPSMT-39" transform="translate(283.300781 0)"/>
       <use xlink:href="#TimesNewRomanPSMT-2d" transform="translate(333.300781 0)"/>
       <use xlink:href="#TimesNewRomanPSMT-30" transform="translate(366.601562 0)"/>
       <use xlink:href="#TimesNewRomanPSMT-32" transform="translate(416.601562 0)"/>
      </g>
     </g>
    </g>
    <g id="xtick_21">
     <g id="line2d_107">
      <path d="M 96.86882 600.690223 
L 96.86882 323.201416 
" clip-path="url(#p0607910268)" style="fill: none; stroke-dasharray: 0.5,0.825; stroke-dashoffset: 0; stroke: #bfbfbf; stroke-width: 0.5"/>
     </g>
     <g id="line2d_108"/>
    </g>
    <g id="xtick_22">
     <g id="line2d_109">
      <path d="M 164.93487 600.690223 
L 164.93487 323.201416 
" clip-path="url(#p0607910268)" style="fill: none; stroke-dasharray: 0.5,0.825; stroke-dashoffset: 0; stroke: #bfbfbf; stroke-width: 0.5"/>
     </g>
     <g id="line2d_110"/>
    </g>
    <g id="xtick_23">
     <g id="line2d_111">
      <path d="M 233.00092 600.690223 
L 233.00092 323.201416 
" clip-path="url(#p0607910268)" style="fill: none; stroke-dasharray: 0.5,0.825; stroke-dashoffset: 0; stroke: #bfbfbf; stroke-width: 0.5"/>
     </g>
     <g id="line2d_112"/>
    </g>
    <g id="xtick_24">
     <g id="line2d_113">
      <path d="M 301.066969 600.690223 
L 301.066969 323.201416 
" clip-path="url(#p0607910268)" style="fill: none; stroke-dasharray: 0.5,0.825; stroke-dashoffset: 0; stroke: #bfbfbf; stroke-width: 0.5"/>
     </g>
     <g id="line2d_114"/>
    </g>
    <g id="xtick_25">
     <g id="line2d_115">
      <path d="M 369.133019 600.690223 
L 369.133019 323.201416 
" clip-path="url(#p0607910268)" style="fill: none; stroke-dasharray: 0.5,0.825; stroke-dashoffset: 0; stroke: #bfbfbf; stroke-width: 0.5"/>
     </g>
     <g id="line2d_116"/>
    </g>
    <g id="xtick_26">
     <g id="line2d_117">
      <path d="M 437.199068 600.690223 
L 437.199068 323.201416 
" clip-path="url(#p0607910268)" style="fill: none; stroke-dasharray: 0.5,0.825; stroke-dashoffset: 0; stroke: #bfbfbf; stroke-width: 0.5"/>
     </g>
     <g id="line2d_118"/>
    </g>
   </g>
   <g id="matplotlib.axis_4">
    <g id="ytick_27">
     <g id="line2d_119">
      <path d="M 55.178365 588.077095 
L 478.889524 588.077095 
" clip-path="url(#p0607910268)" style="fill: none; stroke: #b0b0b0; stroke-width: 0.8; stroke-linecap: square"/>
     </g>
     <g id="line2d_120"/>
     <g id="text_22">
      <!-- 0.0 -->
      <g transform="translate(26.678365 595.020845) scale(0.2 -0.2)">
       <defs>
        <path id="TimesNewRomanPSMT-2e" d="M 800 606 
Q 947 606 1047 504 
Q 1147 403 1147 259 
Q 1147 116 1045 14 
Q 944 -88 800 -88 
Q 656 -88 554 14 
Q 453 116 453 259 
Q 453 406 554 506 
Q 656 606 800 606 
z
" transform="scale(0.015625)"/>
       </defs>
       <use xlink:href="#TimesNewRomanPSMT-30"/>
       <use xlink:href="#TimesNewRomanPSMT-2e" transform="translate(50 0)"/>
       <use xlink:href="#TimesNewRomanPSMT-30" transform="translate(75 0)"/>
      </g>
     </g>
    </g>
    <g id="ytick_28">
     <g id="line2d_121">
      <path d="M 55.178365 503.989578 
L 478.889524 503.989578 
" clip-path="url(#p0607910268)" style="fill: none; stroke: #b0b0b0; stroke-width: 0.8; stroke-linecap: square"/>
     </g>
     <g id="line2d_122"/>
     <g id="text_23">
      <!-- 0.1 -->
      <g transform="translate(26.678365 510.933328) scale(0.2 -0.2)">
       <use xlink:href="#TimesNewRomanPSMT-30"/>
       <use xlink:href="#TimesNewRomanPSMT-2e" transform="translate(50 0)"/>
       <use xlink:href="#TimesNewRomanPSMT-31" transform="translate(75 0)"/>
      </g>
     </g>
    </g>
    <g id="ytick_29">
     <g id="line2d_123">
      <path d="M 55.178365 419.902061 
L 478.889524 419.902061 
" clip-path="url(#p0607910268)" style="fill: none; stroke: #b0b0b0; stroke-width: 0.8; stroke-linecap: square"/>
     </g>
     <g id="line2d_124"/>
     <g id="text_24">
      <!-- 0.2 -->
      <g transform="translate(26.678365 426.845811) scale(0.2 -0.2)">
       <use xlink:href="#TimesNewRomanPSMT-30"/>
       <use xlink:href="#TimesNewRomanPSMT-2e" transform="translate(50 0)"/>
       <use xlink:href="#TimesNewRomanPSMT-32" transform="translate(75 0)"/>
      </g>
     </g>
    </g>
    <g id="ytick_30">
     <g id="line2d_125">
      <path d="M 55.178365 335.814544 
L 478.889524 335.814544 
" clip-path="url(#p0607910268)" style="fill: none; stroke: #b0b0b0; stroke-width: 0.8; stroke-linecap: square"/>
     </g>
     <g id="line2d_126"/>
     <g id="text_25">
      <!-- 0.3 -->
      <g transform="translate(26.678365 342.758294) scale(0.2 -0.2)">
       <defs>
        <path id="TimesNewRomanPSMT-33" d="M 325 3431 
Q 506 3859 782 4092 
Q 1059 4325 1472 4325 
Q 1981 4325 2253 3994 
Q 2459 3747 2459 3466 
Q 2459 3003 1878 2509 
Q 2269 2356 2469 2072 
Q 2669 1788 2669 1403 
Q 2669 853 2319 450 
Q 1863 -75 997 -75 
Q 569 -75 414 31 
Q 259 138 259 259 
Q 259 350 332 419 
Q 406 488 509 488 
Q 588 488 669 463 
Q 722 447 909 348 
Q 1097 250 1169 231 
Q 1284 197 1416 197 
Q 1734 197 1970 444 
Q 2206 691 2206 1028 
Q 2206 1275 2097 1509 
Q 2016 1684 1919 1775 
Q 1784 1900 1550 2001 
Q 1316 2103 1072 2103 
L 972 2103 
L 972 2197 
Q 1219 2228 1467 2375 
Q 1716 2522 1828 2728 
Q 1941 2934 1941 3181 
Q 1941 3503 1739 3701 
Q 1538 3900 1238 3900 
Q 753 3900 428 3381 
L 325 3431 
z
" transform="scale(0.015625)"/>
       </defs>
       <use xlink:href="#TimesNewRomanPSMT-30"/>
       <use xlink:href="#TimesNewRomanPSMT-2e" transform="translate(50 0)"/>
       <use xlink:href="#TimesNewRomanPSMT-33" transform="translate(75 0)"/>
      </g>
     </g>
    </g>
    <g id="ytick_31">
     <g id="line2d_127">
      <path d="M 55.178365 571.259592 
L 478.889524 571.259592 
" clip-path="url(#p0607910268)" style="fill: none; stroke-dasharray: 0.5,0.825; stroke-dashoffset: 0; stroke: #bfbfbf; stroke-width: 0.5"/>
     </g>
     <g id="line2d_128"/>
    </g>
    <g id="ytick_32">
     <g id="line2d_129">
      <path d="M 55.178365 554.442088 
L 478.889524 554.442088 
" clip-path="url(#p0607910268)" style="fill: none; stroke-dasharray: 0.5,0.825; stroke-dashoffset: 0; stroke: #bfbfbf; stroke-width: 0.5"/>
     </g>
     <g id="line2d_130"/>
    </g>
    <g id="ytick_33">
     <g id="line2d_131">
      <path d="M 55.178365 537.624585 
L 478.889524 537.624585 
" clip-path="url(#p0607910268)" style="fill: none; stroke-dasharray: 0.5,0.825; stroke-dashoffset: 0; stroke: #bfbfbf; stroke-width: 0.5"/>
     </g>
     <g id="line2d_132"/>
    </g>
    <g id="ytick_34">
     <g id="line2d_133">
      <path d="M 55.178365 520.807081 
L 478.889524 520.807081 
" clip-path="url(#p0607910268)" style="fill: none; stroke-dasharray: 0.5,0.825; stroke-dashoffset: 0; stroke: #bfbfbf; stroke-width: 0.5"/>
     </g>
     <g id="line2d_134"/>
    </g>
    <g id="ytick_35">
     <g id="line2d_135">
      <path d="M 55.178365 487.172074 
L 478.889524 487.172074 
" clip-path="url(#p0607910268)" style="fill: none; stroke-dasharray: 0.5,0.825; stroke-dashoffset: 0; stroke: #bfbfbf; stroke-width: 0.5"/>
     </g>
     <g id="line2d_136"/>
    </g>
    <g id="ytick_36">
     <g id="line2d_137">
      <path d="M 55.178365 470.354571 
L 478.889524 470.354571 
" clip-path="url(#p0607910268)" style="fill: none; stroke-dasharray: 0.5,0.825; stroke-dashoffset: 0; stroke: #bfbfbf; stroke-width: 0.5"/>
     </g>
     <g id="line2d_138"/>
    </g>
    <g id="ytick_37">
     <g id="line2d_139">
      <path d="M 55.178365 453.537068 
L 478.889524 453.537068 
" clip-path="url(#p0607910268)" style="fill: none; stroke-dasharray: 0.5,0.825; stroke-dashoffset: 0; stroke: #bfbfbf; stroke-width: 0.5"/>
     </g>
     <g id="line2d_140"/>
    </g>
    <g id="ytick_38">
     <g id="line2d_141">
      <path d="M 55.178365 436.719564 
L 478.889524 436.719564 
" clip-path="url(#p0607910268)" style="fill: none; stroke-dasharray: 0.5,0.825; stroke-dashoffset: 0; stroke: #bfbfbf; stroke-width: 0.5"/>
     </g>
     <g id="line2d_142"/>
    </g>
    <g id="ytick_39">
     <g id="line2d_143">
      <path d="M 55.178365 403.084557 
L 478.889524 403.084557 
" clip-path="url(#p0607910268)" style="fill: none; stroke-dasharray: 0.5,0.825; stroke-dashoffset: 0; stroke: #bfbfbf; stroke-width: 0.5"/>
     </g>
     <g id="line2d_144"/>
    </g>
    <g id="ytick_40">
     <g id="line2d_145">
      <path d="M 55.178365 386.267054 
L 478.889524 386.267054 
" clip-path="url(#p0607910268)" style="fill: none; stroke-dasharray: 0.5,0.825; stroke-dashoffset: 0; stroke: #bfbfbf; stroke-width: 0.5"/>
     </g>
     <g id="line2d_146"/>
    </g>
    <g id="ytick_41">
     <g id="line2d_147">
      <path d="M 55.178365 369.449551 
L 478.889524 369.449551 
" clip-path="url(#p0607910268)" style="fill: none; stroke-dasharray: 0.5,0.825; stroke-dashoffset: 0; stroke: #bfbfbf; stroke-width: 0.5"/>
     </g>
     <g id="line2d_148"/>
    </g>
    <g id="ytick_42">
     <g id="line2d_149">
      <path d="M 55.178365 352.632047 
L 478.889524 352.632047 
" clip-path="url(#p0607910268)" style="fill: none; stroke-dasharray: 0.5,0.825; stroke-dashoffset: 0; stroke: #bfbfbf; stroke-width: 0.5"/>
     </g>
     <g id="line2d_150"/>
    </g>
   </g>
   <g id="line2d_151">
    <path d="M 62.835796 557.862135 
L 75.59818 555.828211 
L 87.509739 554.158526 
L 104.526251 552.118575 
L 122.10998 550.393904 
L 128.06576 549.898442 
L 131.185454 549.64984 
L 137.70845 549.172031 
L 155.29218 548.103378 
L 177.980863 547.194203 
L 200.953155 546.805459 
L 211.446671 546.791118 
L 215.41719 546.821514 
L 219.38771 546.852738 
L 254.838777 547.90347 
L 264.481468 548.412746 
L 268.735596 548.659995 
L 276.109418 549.149106 
L 301.350578 551.268765 
L 309.575225 552.115847 
L 322.054001 553.581531 
L 348.996812 557.492001 
L 351.832898 557.981483 
L 354.668983 558.46915 
L 364.028065 560.209599 
L 374.80519 562.430701 
L 386.43314 565.152812 
L 395.508613 567.545042 
L 410.256257 572.111678 
L 417.630079 574.819052 
L 422.735033 576.921598 
L 427.556378 579.131094 
L 432.661332 581.735146 
L 436.631851 583.771404 
L 438.049894 584.299123 
L 439.184328 584.513123 
L 440.318762 584.479101 
L 441.453196 584.209122 
L 443.154848 583.505804 
L 446.55815 581.741106 
L 452.51393 578.74553 
L 455.917232 577.195935 
L 460.738577 575.18722 
L 468.679616 572.256079 
L 470.948485 571.481109 
L 470.948485 571.481109 
" clip-path="url(#p0607910268)" style="fill: none; stroke: #ff0000; stroke-width: 2; stroke-linecap: square"/>
   </g>
   <g id="line2d_152">
    <path d="M 62.835796 584.931727 
L 203.78924 584.975087 
L 272.422507 584.96672 
L 360.057546 584.916668 
L 434.9302 584.722624 
L 441.169588 584.912423 
L 446.274542 584.668744 
L 453.931972 584.698902 
L 470.948485 584.811948 
L 470.948485 584.811948 
" clip-path="url(#p0607910268)" style="fill: none; stroke: #0000ff; stroke-width: 2; stroke-linecap: square"/>
   </g>
   <g id="line2d_153">
    <path d="M 62.835796 407.860701 
L 70.493226 408.231685 
L 88.927781 408.92878 
L 135.439582 409.920658 
L 136.857625 409.918766 
L 137.70845 409.972144 
L 144.231447 410.028931 
L 160.113525 410.189421 
L 161.247959 410.172962 
L 162.382393 410.209803 
L 164.93487 410.196223 
L 166.636521 410.245488 
L 167.770955 410.232275 
L 168.90539 410.256918 
L 170.890649 410.246178 
L 172.592301 410.277273 
L 174.57756 410.270565 
L 175.428386 410.269281 
L 177.697254 410.298481 
L 179.115297 410.278292 
L 180.816948 410.327081 
L 182.518599 410.297477 
L 184.787468 410.299217 
L 227.895966 410.296035 
L 228.746791 410.258247 
L 229.597617 410.249229 
L 234.986179 410.238329 
L 236.971439 410.222646 
L 238.67309 410.209978 
L 249.166606 410.138407 
L 250.584649 410.093876 
L 251.151866 410.105261 
L 252.2863 410.112641 
L 253.420734 410.080554 
L 254.838777 410.074014 
L 256.25682 410.06742 
L 257.958471 410.068421 
L 260.794557 410.020356 
L 261.645382 409.991424 
L 262.496208 410.007162 
L 263.630642 409.967866 
L 265.615902 409.958229 
L 273.556941 409.837116 
L 274.407766 409.849306 
L 277.811069 409.792307 
L 279.51272 409.795345 
L 280.079937 409.723364 
L 280.930763 409.741958 
L 281.781588 409.731 
L 283.48324 409.694378 
L 284.617674 409.666878 
L 285.752108 409.671345 
L 287.170151 409.594213 
L 287.737368 409.629347 
L 288.304585 409.594119 
L 289.722628 409.609109 
L 290.857062 409.531141 
L 291.991496 409.56022 
L 293.12593 409.517158 
L 295.962015 409.442583 
L 298.230884 409.402156 
L 301.634186 409.361216 
L 303.903055 409.28831 
L 307.873574 409.192835 
L 309.575225 409.107549 
L 328.293389 408.541885 
L 329.144215 408.503843 
L 331.129474 408.477602 
L 331.696692 408.39574 
L 332.263909 408.390031 
L 335.099994 408.290407 
L 340.204948 408.063209 
L 340.772165 408.026885 
L 341.906599 408.010971 
L 344.742684 407.857916 
L 347.011553 407.784445 
L 347.57877 407.718266 
L 349.847638 407.60145 
L 350.414855 407.562152 
L 351.265681 407.529022 
L 352.116506 407.443688 
L 353.534549 407.375782 
L 368.282193 406.393829 
L 373.103538 405.974731 
L 373.387147 406.00175 
L 373.954364 405.918524 
L 377.074058 405.598895 
L 377.641275 405.567351 
L 379.910143 405.358948 
L 380.47736 405.25055 
L 381.328186 405.197626 
L 382.746229 405.052621 
L 383.029837 404.928583 
L 384.44788 404.866613 
L 384.731488 404.73671 
L 385.582314 404.671156 
L 387.851182 404.385891 
L 388.702008 404.272776 
L 390.403659 404.065343 
L 390.970876 403.936148 
L 392.105311 403.826008 
L 394.657787 403.39396 
L 394.941396 403.39076 
L 395.508613 403.237963 
L 395.792222 403.249144 
L 396.359439 403.133312 
L 396.926656 403.00609 
L 398.06109 402.831078 
L 403.166044 401.784452 
L 403.733261 401.676975 
L 404.300478 401.499214 
L 406.002129 401.117351 
L 406.852955 400.962208 
L 409.68904 400.150032 
L 409.972649 400.147311 
L 410.823474 399.791509 
L 411.390691 399.711108 
L 414.226777 398.804993 
L 415.077602 398.509935 
L 418.197296 397.333218 
L 420.182556 396.5045 
L 421.884207 395.742534 
L 425.28751 394.148763 
L 428.407204 392.748967 
L 429.825246 392.328032 
L 431.243289 392.221505 
L 431.526898 392.368851 
L 432.094115 392.390221 
L 433.512157 393.473483 
L 434.362983 394.744644 
L 434.9302 395.87991 
L 435.781026 398.202523 
L 436.91546 402.435246 
L 438.617111 408.947298 
L 439.184328 410.104785 
L 439.467937 410.330557 
L 439.751545 410.271965 
L 440.035154 410.024508 
L 440.602371 408.741153 
L 441.453196 405.636567 
L 443.154848 398.770139 
L 444.005673 396.200987 
L 444.856499 394.441464 
L 445.707325 393.277019 
L 446.274542 392.792883 
L 447.125367 392.340268 
L 448.54341 392.316066 
L 449.110627 392.374088 
L 451.095887 393.005377 
L 451.663104 393.386524 
L 452.230321 393.660026 
L 452.51393 393.8203 
L 453.081147 393.986906 
L 453.931972 394.520766 
L 454.782798 394.727415 
L 455.350015 395.183204 
L 456.768058 395.845231 
L 459.320535 397.025431 
L 459.604143 397.211896 
L 460.17136 397.33109 
L 461.305794 397.845311 
L 461.589403 398.08468 
L 470.381268 400.897343 
L 470.948485 400.997827 
L 470.948485 400.997827 
" clip-path="url(#p0607910268)" style="fill: none; stroke: #008000; stroke-width: 2; stroke-linecap: square"/>
   </g>
   <g id="legend_2">
    <g id="patch_6">
     <path d="M 61.758944 389.537449 
L 472.308944 389.537449 
Q 475.308944 389.537449 475.308944 386.537449 
L 475.308944 333.037449 
Q 475.308944 330.037449 472.308944 330.037449 
L 61.758944 330.037449 
Q 58.758944 330.037449 58.758944 333.037449 
L 58.758944 386.537449 
Q 58.758944 389.537449 61.758944 389.537449 
z
" style="fill: #ffffff; opacity: 0.8; stroke: #cccccc; stroke-linejoin: miter"/>
    </g>
    <g id="line2d_154">
     <path d="M 64.758944 345.787449 
L 76.008944 345.787449 
L 87.258944 345.787449 
" style="fill: none; stroke: #ff0000; stroke-width: 2; stroke-linecap: square"/>
    </g>
    <g id="text_26">
     <!-- $|Δ\mathbf{r}|/R_E$ ($|Δ\mathbf{r}|_{\rm{max}} = 313.3$ [km]) -->
     <g transform="translate(94.758944 351.037449) scale(0.2 -0.2)">
      <defs>
       <path id="Cmsy10-6a" d="M 763 -1484 
L 763 4684 
Q 763 4734 800 4767 
Q 838 4800 891 4800 
Q 938 4800 978 4767 
Q 1019 4734 1019 4684 
L 1019 -1484 
Q 1019 -1534 978 -1567 
Q 938 -1600 891 -1600 
Q 838 -1600 800 -1567 
Q 763 -1534 763 -1484 
z
" transform="scale(0.015625)"/>
       <path id="STIXGeneral-Regular-394" d="M 4320 0 
L 307 0 
L 2221 4314 
L 2349 4314 
L 4320 0 
z
M 3354 589 
L 2118 3405 
L 870 589 
L 3354 589 
z
" transform="scale(0.015625)"/>
       <path id="Cmb10-72" d="M 91 0 
L 91 325 
L 531 325 
L 531 2322 
Q 531 2503 91 2503 
L 91 2828 
L 1178 2881 
L 1178 2356 
Q 1269 2594 1436 2737 
Q 1603 2881 1838 2881 
Q 2006 2881 2173 2822 
Q 2341 2763 2450 2641 
Q 2559 2519 2559 2344 
Q 2559 2178 2443 2059 
Q 2328 1941 2156 1941 
Q 1984 1941 1868 2059 
Q 1753 2178 1753 2344 
Q 1753 2513 1856 2625 
L 1838 2625 
Q 1488 2625 1367 2248 
Q 1247 1872 1247 1416 
L 1247 325 
L 1806 325 
L 1806 0 
L 91 0 
z
" transform="scale(0.015625)"/>
       <path id="Cmmi10-3d" d="M 359 -1472 
Q 359 -1453 366 -1447 
L 2591 4722 
Q 2603 4759 2634 4779 
Q 2666 4800 2706 4800 
Q 2763 4800 2798 4765 
Q 2834 4731 2834 4672 
L 2834 4647 
L 609 -1522 
Q 572 -1600 488 -1600 
Q 434 -1600 396 -1562 
Q 359 -1525 359 -1472 
z
" transform="scale(0.015625)"/>
       <path id="TimesNewRomanPSMT-20" transform="scale(0.015625)"/>
       <path id="TimesNewRomanPSMT-28" d="M 1988 -1253 
L 1988 -1369 
Q 1516 -1131 1200 -813 
Q 750 -359 506 256 
Q 263 872 263 1534 
Q 263 2503 741 3301 
Q 1219 4100 1988 4444 
L 1988 4313 
Q 1603 4100 1356 3731 
Q 1109 3363 987 2797 
Q 866 2231 866 1616 
Q 866 947 969 400 
Q 1050 -31 1165 -292 
Q 1281 -553 1476 -793 
Q 1672 -1034 1988 -1253 
z
" transform="scale(0.015625)"/>
       <path id="Cmr10-6d" d="M 191 0 
L 191 225 
Q 409 225 550 259 
Q 691 294 691 428 
L 691 2175 
Q 691 2347 639 2423 
Q 588 2500 491 2517 
Q 394 2534 191 2534 
L 191 2759 
L 1119 2828 
L 1119 2203 
Q 1247 2478 1498 2653 
Q 1750 2828 2047 2828 
Q 2784 2828 2913 2228 
Q 3041 2497 3287 2662 
Q 3534 2828 3828 2828 
Q 4119 2828 4317 2734 
Q 4516 2641 4616 2448 
Q 4716 2256 4716 1966 
L 4716 428 
Q 4716 294 4858 259 
Q 5000 225 5216 225 
L 5216 0 
L 3750 0 
L 3750 225 
Q 3969 225 4109 259 
Q 4250 294 4250 428 
L 4250 1947 
Q 4250 2269 4159 2466 
Q 4069 2663 3788 2663 
Q 3419 2663 3178 2366 
Q 2938 2069 2938 1691 
L 2938 428 
Q 2938 294 3078 259 
Q 3219 225 3438 225 
L 3438 0 
L 1972 0 
L 1972 225 
Q 2191 225 2331 259 
Q 2472 294 2472 428 
L 2472 1947 
Q 2472 2259 2381 2461 
Q 2291 2663 2009 2663 
Q 1638 2663 1398 2366 
Q 1159 2069 1159 1691 
L 1159 428 
Q 1159 294 1300 259 
Q 1441 225 1656 225 
L 1656 0 
L 191 0 
z
" transform="scale(0.015625)"/>
       <path id="Cmr10-61" d="M 256 628 
Q 256 1009 556 1248 
Q 856 1488 1276 1586 
Q 1697 1684 2075 1684 
L 2075 1947 
Q 2075 2131 1994 2304 
Q 1913 2478 1759 2589 
Q 1606 2700 1422 2700 
Q 997 2700 775 2509 
Q 897 2509 976 2417 
Q 1056 2325 1056 2203 
Q 1056 2075 965 1984 
Q 875 1894 750 1894 
Q 622 1894 531 1984 
Q 441 2075 441 2203 
Q 441 2541 747 2705 
Q 1053 2869 1422 2869 
Q 1681 2869 1943 2758 
Q 2206 2647 2373 2440 
Q 2541 2234 2541 1959 
L 2541 519 
Q 2541 394 2594 289 
Q 2647 184 2759 184 
Q 2866 184 2917 290 
Q 2969 397 2969 519 
L 2969 928 
L 3156 928 
L 3156 519 
Q 3156 375 3081 245 
Q 3006 116 2879 39 
Q 2753 -38 2606 -38 
Q 2419 -38 2283 107 
Q 2147 253 2131 453 
Q 2013 213 1781 70 
Q 1550 -72 1288 -72 
Q 1044 -72 808 0 
Q 572 72 414 226 
Q 256 381 256 628 
z
M 775 628 
Q 775 403 940 250 
Q 1106 97 1331 97 
Q 1538 97 1706 200 
Q 1875 303 1975 481 
Q 2075 659 2075 856 
L 2075 1522 
Q 1784 1522 1479 1426 
Q 1175 1331 975 1128 
Q 775 925 775 628 
z
" transform="scale(0.015625)"/>
       <path id="Cmr10-78" d="M 78 0 
L 78 225 
Q 322 225 537 320 
Q 753 416 903 603 
L 1484 1344 
L 728 2328 
Q 616 2469 483 2501 
Q 350 2534 109 2534 
L 109 2759 
L 1441 2759 
L 1441 2534 
Q 1356 2534 1282 2496 
Q 1209 2459 1209 2388 
Q 1209 2363 1228 2328 
L 1741 1663 
L 2125 2156 
Q 2203 2250 2203 2344 
Q 2203 2422 2151 2478 
Q 2100 2534 2016 2534 
L 2016 2759 
L 3194 2759 
L 3194 2534 
Q 2947 2534 2730 2439 
Q 2513 2344 2363 2156 
L 1856 1509 
L 2675 428 
Q 2797 288 2928 256 
Q 3059 225 3303 225 
L 3303 0 
L 1972 0 
L 1972 225 
Q 2050 225 2122 262 
Q 2194 300 2194 372 
Q 2194 400 2175 428 
L 1600 1191 
L 1141 603 
Q 1069 522 1069 416 
Q 1069 338 1122 281 
Q 1175 225 1247 225 
L 1247 0 
L 78 0 
z
" transform="scale(0.015625)"/>
       <path id="Cmr10-3d" d="M 481 850 
Q 428 850 393 890 
Q 359 931 359 978 
Q 359 1031 393 1068 
Q 428 1106 481 1106 
L 4500 1106 
Q 4547 1106 4581 1068 
Q 4616 1031 4616 978 
Q 4616 931 4581 890 
Q 4547 850 4500 850 
L 481 850 
z
M 481 2094 
Q 428 2094 393 2131 
Q 359 2169 359 2222 
Q 359 2269 393 2309 
Q 428 2350 481 2350 
L 4500 2350 
Q 4547 2350 4581 2309 
Q 4616 2269 4616 2222 
Q 4616 2169 4581 2131 
Q 4547 2094 4500 2094 
L 481 2094 
z
" transform="scale(0.015625)"/>
       <path id="Cmr10-33" d="M 609 494 
Q 759 275 1012 169 
Q 1266 63 1556 63 
Q 1928 63 2084 380 
Q 2241 697 2241 1100 
Q 2241 1281 2208 1462 
Q 2175 1644 2097 1800 
Q 2019 1956 1883 2050 
Q 1747 2144 1550 2144 
L 1125 2144 
Q 1069 2144 1069 2203 
L 1069 2259 
Q 1069 2309 1125 2309 
L 1478 2338 
Q 1703 2338 1851 2506 
Q 2000 2675 2069 2917 
Q 2138 3159 2138 3378 
Q 2138 3684 1994 3881 
Q 1850 4078 1556 4078 
Q 1313 4078 1091 3986 
Q 869 3894 738 3706 
Q 750 3709 759 3711 
Q 769 3713 781 3713 
Q 925 3713 1022 3613 
Q 1119 3513 1119 3372 
Q 1119 3234 1022 3134 
Q 925 3034 781 3034 
Q 641 3034 541 3134 
Q 441 3234 441 3372 
Q 441 3647 606 3850 
Q 772 4053 1033 4158 
Q 1294 4263 1556 4263 
Q 1750 4263 1965 4205 
Q 2181 4147 2356 4039 
Q 2531 3931 2642 3762 
Q 2753 3594 2753 3378 
Q 2753 3109 2633 2881 
Q 2513 2653 2303 2487 
Q 2094 2322 1844 2241 
Q 2122 2188 2372 2031 
Q 2622 1875 2773 1631 
Q 2925 1388 2925 1106 
Q 2925 753 2731 467 
Q 2538 181 2222 20 
Q 1906 -141 1556 -141 
Q 1256 -141 954 -26 
Q 653 88 461 316 
Q 269 544 269 863 
Q 269 1022 375 1128 
Q 481 1234 641 1234 
Q 744 1234 830 1186 
Q 916 1138 964 1050 
Q 1013 963 1013 863 
Q 1013 706 903 600 
Q 794 494 641 494 
L 609 494 
z
" transform="scale(0.015625)"/>
       <path id="Cmr10-31" d="M 594 0 
L 594 225 
Q 1394 225 1394 428 
L 1394 3788 
Q 1063 3628 556 3628 
L 556 3853 
Q 1341 3853 1741 4263 
L 1831 4263 
Q 1853 4263 1873 4245 
Q 1894 4228 1894 4206 
L 1894 428 
Q 1894 225 2694 225 
L 2694 0 
L 594 0 
z
" transform="scale(0.015625)"/>
       <path id="Cmmi10-3a" d="M 538 353 
Q 538 497 644 600 
Q 750 703 891 703 
Q 978 703 1062 656 
Q 1147 609 1194 525 
Q 1241 441 1241 353 
Q 1241 213 1137 106 
Q 1034 0 891 0 
Q 750 0 644 106 
Q 538 213 538 353 
z
" transform="scale(0.015625)"/>
       <path id="TimesNewRomanPSMT-5b" d="M 1900 -1269 
L 525 -1269 
L 525 4334 
L 1900 4334 
L 1900 4088 
L 994 4088 
L 994 -1025 
L 1900 -1025 
L 1900 -1269 
z
" transform="scale(0.015625)"/>
       <path id="TimesNewRomanPSMT-6b" d="M 1047 4444 
L 1047 1594 
L 1775 2259 
Q 2006 2472 2044 2528 
Q 2069 2566 2069 2603 
Q 2069 2666 2017 2711 
Q 1966 2756 1847 2763 
L 1847 2863 
L 3091 2863 
L 3091 2763 
Q 2834 2756 2664 2684 
Q 2494 2613 2291 2428 
L 1556 1750 
L 2291 822 
Q 2597 438 2703 334 
Q 2853 188 2966 144 
Q 3044 113 3238 113 
L 3238 0 
L 1847 0 
L 1847 113 
Q 1966 116 2008 148 
Q 2050 181 2050 241 
Q 2050 313 1925 472 
L 1047 1594 
L 1047 644 
Q 1047 366 1086 278 
Q 1125 191 1197 153 
Q 1269 116 1509 113 
L 1509 0 
L 53 0 
L 53 113 
Q 272 113 381 166 
Q 447 200 481 272 
Q 528 375 528 628 
L 528 3234 
Q 528 3731 506 3842 
Q 484 3953 434 3995 
Q 384 4038 303 4038 
Q 238 4038 106 3984 
L 53 4094 
L 903 4444 
L 1047 4444 
z
" transform="scale(0.015625)"/>
       <path id="TimesNewRomanPSMT-6d" d="M 1050 2338 
Q 1363 2650 1419 2697 
Q 1559 2816 1721 2881 
Q 1884 2947 2044 2947 
Q 2313 2947 2506 2790 
Q 2700 2634 2766 2338 
Q 3088 2713 3309 2830 
Q 3531 2947 3766 2947 
Q 3994 2947 4170 2830 
Q 4347 2713 4450 2447 
Q 4519 2266 4519 1878 
L 4519 647 
Q 4519 378 4559 278 
Q 4591 209 4675 161 
Q 4759 113 4950 113 
L 4950 0 
L 3538 0 
L 3538 113 
L 3597 113 
Q 3781 113 3884 184 
Q 3956 234 3988 344 
Q 4000 397 4000 647 
L 4000 1878 
Q 4000 2228 3916 2372 
Q 3794 2572 3525 2572 
Q 3359 2572 3192 2489 
Q 3025 2406 2788 2181 
L 2781 2147 
L 2788 2013 
L 2788 647 
Q 2788 353 2820 281 
Q 2853 209 2943 161 
Q 3034 113 3253 113 
L 3253 0 
L 1806 0 
L 1806 113 
Q 2044 113 2133 169 
Q 2222 225 2256 338 
Q 2272 391 2272 647 
L 2272 1878 
Q 2272 2228 2169 2381 
Q 2031 2581 1784 2581 
Q 1616 2581 1450 2491 
Q 1191 2353 1050 2181 
L 1050 647 
Q 1050 366 1089 281 
Q 1128 197 1204 155 
Q 1281 113 1516 113 
L 1516 0 
L 100 0 
L 100 113 
Q 297 113 375 155 
Q 453 197 493 289 
Q 534 381 534 647 
L 534 1741 
Q 534 2213 506 2350 
Q 484 2453 437 2492 
Q 391 2531 309 2531 
Q 222 2531 100 2484 
L 53 2597 
L 916 2947 
L 1050 2947 
L 1050 2338 
z
" transform="scale(0.015625)"/>
       <path id="TimesNewRomanPSMT-5d" d="M 234 4334 
L 1609 4334 
L 1609 -1272 
L 234 -1272 
L 234 -1025 
L 1141 -1025 
L 1141 4088 
L 234 4088 
L 234 4334 
z
" transform="scale(0.015625)"/>
       <path id="TimesNewRomanPSMT-29" d="M 144 4313 
L 144 4444 
Q 619 4209 934 3891 
Q 1381 3434 1625 2820 
Q 1869 2206 1869 1541 
Q 1869 572 1392 -226 
Q 916 -1025 144 -1369 
L 144 -1253 
Q 528 -1038 776 -670 
Q 1025 -303 1145 264 
Q 1266 831 1266 1447 
Q 1266 2113 1163 2663 
Q 1084 3094 967 3353 
Q 850 3613 656 3853 
Q 463 4094 144 4313 
z
" transform="scale(0.015625)"/>
      </defs>
      <use xlink:href="#Cmsy10-6a"/>
      <use xlink:href="#STIXGeneral-Regular-394" transform="translate(27.685547 0)"/>
      <use xlink:href="#Cmb10-72" transform="translate(99.885529 0)"/>
      <use xlink:href="#Cmsy10-6a" transform="translate(142.56131 0)"/>
      <use xlink:href="#Cmmi10-3d" transform="translate(170.246857 0)"/>
      <use xlink:href="#Cmmi10-52" transform="translate(220.246857 0)"/>
      <use xlink:href="#Cmmi10-45" transform="translate(296.125763 -17.00625) scale(0.7)"/>
      <use xlink:href="#TimesNewRomanPSMT-20" transform="translate(354.148615 0)"/>
      <use xlink:href="#TimesNewRomanPSMT-28" transform="translate(379.148615 0)"/>
      <use xlink:href="#Cmsy10-6a" transform="translate(412.449396 0)"/>
      <use xlink:href="#STIXGeneral-Regular-394" transform="translate(440.134943 0)"/>
      <use xlink:href="#Cmb10-72" transform="translate(512.334924 0)"/>
      <use xlink:href="#Cmsy10-6a" transform="translate(555.010706 0)"/>
      <use xlink:href="#Cmr10-6d" transform="translate(587.160393 -17.00625) scale(0.7)"/>
      <use xlink:href="#Cmr10-61" transform="translate(645.47094 -17.00625) scale(0.7)"/>
      <use xlink:href="#Cmr10-78" transform="translate(680.47094 -17.00625) scale(0.7)"/>
      <use xlink:href="#Cmr10-3d" transform="translate(741.28676 0)"/>
      <use xlink:href="#Cmr10-33" transform="translate(836.530901 0)"/>
      <use xlink:href="#Cmr10-31" transform="translate(886.530901 0)"/>
      <use xlink:href="#Cmr10-33" transform="translate(936.530901 0)"/>
      <use xlink:href="#Cmmi10-3a" transform="translate(986.530901 0)"/>
      <use xlink:href="#Cmr10-33" transform="translate(1014.216448 0)"/>
      <use xlink:href="#TimesNewRomanPSMT-20" transform="translate(1064.216448 0)"/>
      <use xlink:href="#TimesNewRomanPSMT-5b" transform="translate(1089.216448 0)"/>
      <use xlink:href="#TimesNewRomanPSMT-6b" transform="translate(1122.517229 0)"/>
      <use xlink:href="#TimesNewRomanPSMT-6d" transform="translate(1172.517229 0)"/>
      <use xlink:href="#TimesNewRomanPSMT-5d" transform="translate(1250.300432 0)"/>
      <use xlink:href="#TimesNewRomanPSMT-29" transform="translate(1283.601213 0)"/>
     </g>
    </g>
    <g id="line2d_155">
     <path d="M 64.758944 373.287449 
L 76.008944 373.287449 
L 87.258944 373.287449 
" style="fill: none; stroke: #0000ff; stroke-width: 2; stroke-linecap: square"/>
    </g>
    <g id="text_27">
     <!-- $|Δ\mathbf{r}|/\overline{r}$  (max= 1/246) -->
     <g transform="translate(94.758944 378.537449) scale(0.2 -0.2)">
      <defs>
       <path id="TimesNewRomanPSMT-61" d="M 1822 413 
Q 1381 72 1269 19 
Q 1100 -59 909 -59 
Q 613 -59 420 144 
Q 228 347 228 678 
Q 228 888 322 1041 
Q 450 1253 767 1440 
Q 1084 1628 1822 1897 
L 1822 2009 
Q 1822 2438 1686 2597 
Q 1550 2756 1291 2756 
Q 1094 2756 978 2650 
Q 859 2544 859 2406 
L 866 2225 
Q 866 2081 792 2003 
Q 719 1925 600 1925 
Q 484 1925 411 2006 
Q 338 2088 338 2228 
Q 338 2497 613 2722 
Q 888 2947 1384 2947 
Q 1766 2947 2009 2819 
Q 2194 2722 2281 2516 
Q 2338 2381 2338 1966 
L 2338 994 
Q 2338 584 2353 492 
Q 2369 400 2405 369 
Q 2441 338 2488 338 
Q 2538 338 2575 359 
Q 2641 400 2828 588 
L 2828 413 
Q 2478 -56 2159 -56 
Q 2006 -56 1915 50 
Q 1825 156 1822 413 
z
M 1822 616 
L 1822 1706 
Q 1350 1519 1213 1441 
Q 966 1303 859 1153 
Q 753 1003 753 825 
Q 753 600 887 451 
Q 1022 303 1197 303 
Q 1434 303 1822 616 
z
" transform="scale(0.015625)"/>
       <path id="TimesNewRomanPSMT-78" d="M 84 2863 
L 1431 2863 
L 1431 2747 
Q 1303 2747 1251 2703 
Q 1200 2659 1200 2588 
Q 1200 2513 1309 2356 
Q 1344 2306 1413 2200 
L 1616 1875 
L 1850 2200 
Q 2075 2509 2075 2591 
Q 2075 2656 2022 2701 
Q 1969 2747 1850 2747 
L 1850 2863 
L 2819 2863 
L 2819 2747 
Q 2666 2738 2553 2663 
Q 2400 2556 2134 2200 
L 1744 1678 
L 2456 653 
Q 2719 275 2831 198 
Q 2944 122 3122 113 
L 3122 0 
L 1772 0 
L 1772 113 
Q 1913 113 1991 175 
Q 2050 219 2050 291 
Q 2050 363 1850 653 
L 1431 1266 
L 972 653 
Q 759 369 759 316 
Q 759 241 829 180 
Q 900 119 1041 113 
L 1041 0 
L 106 0 
L 106 113 
Q 219 128 303 191 
Q 422 281 703 653 
L 1303 1450 
L 759 2238 
Q 528 2575 401 2661 
Q 275 2747 84 2747 
L 84 2863 
z
" transform="scale(0.015625)"/>
       <path id="TimesNewRomanPSMT-3d" d="M 116 2759 
L 3488 2759 
L 3488 2503 
L 116 2503 
L 116 2759 
z
M 116 1741 
L 3488 1741 
L 3488 1484 
L 116 1484 
L 116 1741 
z
" transform="scale(0.015625)"/>
      </defs>
      <use xlink:href="#Cmsy10-6a"/>
      <use xlink:href="#STIXGeneral-Regular-394" transform="translate(27.685547 0)"/>
      <use xlink:href="#Cmb10-72" transform="translate(99.885529 0)"/>
      <use xlink:href="#Cmsy10-6a" transform="translate(142.56131 0)"/>
      <use xlink:href="#Cmmi10-3d" transform="translate(170.246857 0)"/>
      <use xlink:href="#Cmmi10-72" transform="translate(220.246857 0.5)"/>
      <use xlink:href="#TimesNewRomanPSMT-20" transform="translate(265.364044 0)"/>
      <use xlink:href="#TimesNewRomanPSMT-20" transform="translate(290.364044 0)"/>
      <use xlink:href="#TimesNewRomanPSMT-28" transform="translate(315.364044 0)"/>
      <use xlink:href="#TimesNewRomanPSMT-6d" transform="translate(348.664825 0)"/>
      <use xlink:href="#TimesNewRomanPSMT-61" transform="translate(426.448029 0)"/>
      <use xlink:href="#TimesNewRomanPSMT-78" transform="translate(470.832794 0)"/>
      <use xlink:href="#TimesNewRomanPSMT-3d" transform="translate(520.832794 0)"/>
      <use xlink:href="#TimesNewRomanPSMT-20" transform="translate(577.229279 0)"/>
      <use xlink:href="#TimesNewRomanPSMT-31" transform="translate(602.229279 0)"/>
      <use xlink:href="#TimesNewRomanPSMT-2f" transform="translate(652.229279 0)"/>
      <use xlink:href="#TimesNewRomanPSMT-32" transform="translate(680.012482 0)"/>
      <use xlink:href="#TimesNewRomanPSMT-34" transform="translate(730.012482 0)"/>
      <use xlink:href="#TimesNewRomanPSMT-36" transform="translate(780.012482 0)"/>
      <use xlink:href="#TimesNewRomanPSMT-29" transform="translate(830.012482 0)"/>
      <path d="M 220.246857 56.4375 
L 220.246857 62.6875 
L 265.364044 62.6875 
L 265.364044 56.4375 
L 220.246857 56.4375 
z
"/>
     </g>
    </g>
    <g id="line2d_156">
     <path d="M 367.908944 345.787449 
L 379.158944 345.787449 
L 390.408944 345.787449 
" style="fill: none; stroke: #008000; stroke-width: 2; stroke-linecap: square"/>
    </g>
    <g id="text_28">
     <!-- $Δθ$ [deg] -->
     <g transform="translate(397.908944 351.037449) scale(0.2 -0.2)">
      <defs>
       <path id="STIXGeneral-Italic-3b8" d="M 3162 3270 
Q 3162 2534 2925 1862 
Q 2688 1190 2304 678 
Q 1741 -70 992 -70 
Q 608 -70 390 224 
Q 173 518 173 1030 
Q 173 1997 592 2813 
Q 1011 3629 1594 4070 
Q 1952 4339 2374 4339 
Q 2733 4339 2947 4076 
Q 3162 3814 3162 3270 
z
M 941 2221 
L 2432 2221 
Q 2624 2874 2624 3533 
Q 2624 4205 2285 4205 
Q 2029 4205 1728 3814 
Q 1427 3424 1232 2992 
Q 1037 2560 941 2221 
z
M 2387 2016 
L 896 2016 
Q 710 1530 710 960 
Q 710 64 1069 64 
Q 1286 64 1510 275 
Q 1734 486 1904 806 
Q 2074 1126 2198 1440 
Q 2323 1754 2387 2016 
z
" transform="scale(0.015625)"/>
       <path id="TimesNewRomanPSMT-64" d="M 2222 322 
Q 2013 103 1813 7 
Q 1613 -88 1381 -88 
Q 913 -88 563 304 
Q 213 697 213 1313 
Q 213 1928 600 2439 
Q 988 2950 1597 2950 
Q 1975 2950 2222 2709 
L 2222 3238 
Q 2222 3728 2198 3840 
Q 2175 3953 2125 3993 
Q 2075 4034 2000 4034 
Q 1919 4034 1784 3984 
L 1744 4094 
L 2597 4444 
L 2738 4444 
L 2738 1134 
Q 2738 631 2761 520 
Q 2784 409 2836 365 
Q 2888 322 2956 322 
Q 3041 322 3181 375 
L 3216 266 
L 2366 -88 
L 2222 -88 
L 2222 322 
z
M 2222 541 
L 2222 2016 
Q 2203 2228 2109 2403 
Q 2016 2578 1861 2667 
Q 1706 2756 1559 2756 
Q 1284 2756 1069 2509 
Q 784 2184 784 1559 
Q 784 928 1059 592 
Q 1334 256 1672 256 
Q 1956 256 2222 541 
z
" transform="scale(0.015625)"/>
       <path id="TimesNewRomanPSMT-67" d="M 966 1044 
Q 703 1172 562 1401 
Q 422 1631 422 1909 
Q 422 2334 742 2640 
Q 1063 2947 1563 2947 
Q 1972 2947 2272 2747 
L 2878 2747 
Q 3013 2747 3034 2739 
Q 3056 2731 3066 2713 
Q 3084 2684 3084 2613 
Q 3084 2531 3069 2500 
Q 3059 2484 3036 2475 
Q 3013 2466 2878 2466 
L 2506 2466 
Q 2681 2241 2681 1891 
Q 2681 1491 2375 1206 
Q 2069 922 1553 922 
Q 1341 922 1119 984 
Q 981 866 932 777 
Q 884 688 884 625 
Q 884 572 936 522 
Q 988 472 1138 450 
Q 1225 438 1575 428 
Q 2219 413 2409 384 
Q 2700 344 2873 169 
Q 3047 -6 3047 -263 
Q 3047 -616 2716 -925 
Q 2228 -1381 1444 -1381 
Q 841 -1381 425 -1109 
Q 191 -953 191 -784 
Q 191 -709 225 -634 
Q 278 -519 444 -313 
Q 466 -284 763 25 
Q 600 122 533 198 
Q 466 275 466 372 
Q 466 481 555 628 
Q 644 775 966 1044 
z
M 1509 2797 
Q 1278 2797 1122 2612 
Q 966 2428 966 2047 
Q 966 1553 1178 1281 
Q 1341 1075 1591 1075 
Q 1828 1075 1981 1253 
Q 2134 1431 2134 1813 
Q 2134 2309 1919 2591 
Q 1759 2797 1509 2797 
z
M 934 0 
Q 788 -159 713 -296 
Q 638 -434 638 -550 
Q 638 -700 819 -813 
Q 1131 -1006 1722 -1006 
Q 2284 -1006 2551 -807 
Q 2819 -609 2819 -384 
Q 2819 -222 2659 -153 
Q 2497 -84 2016 -72 
Q 1313 -53 934 0 
z
" transform="scale(0.015625)"/>
      </defs>
      <use xlink:href="#STIXGeneral-Regular-394" transform="translate(0 0.5625)"/>
      <use xlink:href="#STIXGeneral-Italic-3b8" transform="translate(72.199982 0.5625)"/>
      <use xlink:href="#TimesNewRomanPSMT-20" transform="translate(120.199966 0.5625)"/>
      <use xlink:href="#TimesNewRomanPSMT-5b" transform="translate(145.199966 0.5625)"/>
      <use xlink:href="#TimesNewRomanPSMT-64" transform="translate(178.500748 0.5625)"/>
      <use xlink:href="#TimesNewRomanPSMT-65" transform="translate(228.500748 0.5625)"/>
      <use xlink:href="#TimesNewRomanPSMT-67" transform="translate(272.885513 0.5625)"/>
      <use xlink:href="#TimesNewRomanPSMT-5d" transform="translate(322.885513 0.5625)"/>
     </g>
    </g>
   </g>
  </g>
 </g>
 <defs>
  <clipPath id="p97504ae962">
   <rect x="55.178365" y="35.89608" width="423.711159" height="277.488806"/>
  </clipPath>
  <clipPath id="p0607910268">
   <rect x="55.178365" y="323.201416" width="423.711159" height="277.488806"/>
  </clipPath>
 </defs>
</svg>
