<?xml version="1.0" encoding="utf-8" standalone="no"?>
<!DOCTYPE svg PUBLIC "-//W3C//DTD SVG 1.1//EN"
  "http://www.w3.org/Graphics/SVG/1.1/DTD/svg11.dtd">
<svg xmlns:xlink="http://www.w3.org/1999/xlink" width="481.889764pt" height="646.299213pt" viewBox="0 0 481.889764 646.299213" xmlns="http://www.w3.org/2000/svg" version="1.1">
 <metadata>
  <rdf:RDF xmlns:dc="http://purl.org/dc/elements/1.1/" xmlns:cc="http://creativecommons.org/ns#" xmlns:rdf="http://www.w3.org/1999/02/22-rdf-syntax-ns#">
   <cc:Work>
    <dc:type rdf:resource="http://purl.org/dc/dcmitype/StillImage"/>
    <dc:date>2026-05-17T14:27:26.743199</dc:date>
    <dc:format>image/svg+xml</dc:format>
    <dc:creator>
     <cc:Agent>
      <dc:title>Matplotlib v3.10.9, https://matplotlib.org/</dc:title>
     </cc:Agent>
    </dc:creator>
   </cc:Work>
  </rdf:RDF>
 </metadata>
 <defs>
  <style type="text/css">*{stroke-linejoin: round; stroke-linecap: butt}</style>
 </defs>
 <g id="figure_1">
  <g id="patch_1">
   <path d="M 0 646.299213 
L 481.889764 646.299213 
L 481.889764 0 
L 0 0 
z
" style="fill: #ffffff"/>
  </g>
  <g id="axes_1">
   <g id="patch_2">
    <path d="M 65.178365 290.454874 
L 465.814481 290.454874 
L 465.814481 4.020071 
L 65.178365 4.020071 
z
" style="fill: #ffffff"/>
   </g>
   <g id="matplotlib.axis_1">
    <g id="xtick_1">
     <g id="line2d_1">
      <path d="M 72.418777 290.454874 
L 72.418777 4.020071 
" clip-path="url(#p2f8ff56d70)" style="fill: none; stroke: #b0b0b0; stroke-width: 0.8; stroke-linecap: square"/>
     </g>
     <g id="line2d_2"/>
    </g>
    <g id="xtick_2">
     <g id="line2d_3">
      <path d="M 136.777992 290.454874 
L 136.777992 4.020071 
" clip-path="url(#p2f8ff56d70)" style="fill: none; stroke: #b0b0b0; stroke-width: 0.8; stroke-linecap: square"/>
     </g>
     <g id="line2d_4"/>
    </g>
    <g id="xtick_3">
     <g id="line2d_5">
      <path d="M 201.137208 290.454874 
L 201.137208 4.020071 
" clip-path="url(#p2f8ff56d70)" style="fill: none; stroke: #b0b0b0; stroke-width: 0.8; stroke-linecap: square"/>
     </g>
     <g id="line2d_6"/>
    </g>
    <g id="xtick_4">
     <g id="line2d_7">
      <path d="M 265.496423 290.454874 
L 265.496423 4.020071 
" clip-path="url(#p2f8ff56d70)" style="fill: none; stroke: #b0b0b0; stroke-width: 0.8; stroke-linecap: square"/>
     </g>
     <g id="line2d_8"/>
    </g>
    <g id="xtick_5">
     <g id="line2d_9">
      <path d="M 329.855639 290.454874 
L 329.855639 4.020071 
" clip-path="url(#p2f8ff56d70)" style="fill: none; stroke: #b0b0b0; stroke-width: 0.8; stroke-linecap: square"/>
     </g>
     <g id="line2d_10"/>
    </g>
    <g id="xtick_6">
     <g id="line2d_11">
      <path d="M 394.214854 290.454874 
L 394.214854 4.020071 
" clip-path="url(#p2f8ff56d70)" style="fill: none; stroke: #b0b0b0; stroke-width: 0.8; stroke-linecap: square"/>
     </g>
     <g id="line2d_12"/>
    </g>
    <g id="xtick_7">
     <g id="line2d_13">
      <path d="M 458.574069 290.454874 
L 458.574069 4.020071 
" clip-path="url(#p2f8ff56d70)" style="fill: none; stroke: #b0b0b0; stroke-width: 0.8; stroke-linecap: square"/>
     </g>
     <g id="line2d_14"/>
    </g>
    <g id="xtick_8">
     <g id="line2d_15">
      <path d="M 104.598384 290.454874 
L 104.598384 4.020071 
" clip-path="url(#p2f8ff56d70)" style="fill: none; stroke-dasharray: 0.5,0.825; stroke-dashoffset: 0; stroke: #bfbfbf; stroke-width: 0.5"/>
     </g>
     <g id="line2d_16"/>
    </g>
    <g id="xtick_9">
     <g id="line2d_17">
      <path d="M 168.9576 290.454874 
L 168.9576 4.020071 
" clip-path="url(#p2f8ff56d70)" style="fill: none; stroke-dasharray: 0.5,0.825; stroke-dashoffset: 0; stroke: #bfbfbf; stroke-width: 0.5"/>
     </g>
     <g id="line2d_18"/>
    </g>
    <g id="xtick_10">
     <g id="line2d_19">
      <path d="M 233.316815 290.454874 
L 233.316815 4.020071 
" clip-path="url(#p2f8ff56d70)" style="fill: none; stroke-dasharray: 0.5,0.825; stroke-dashoffset: 0; stroke: #bfbfbf; stroke-width: 0.5"/>
     </g>
     <g id="line2d_20"/>
    </g>
    <g id="xtick_11">
     <g id="line2d_21">
      <path d="M 297.676031 290.454874 
L 297.676031 4.020071 
" clip-path="url(#p2f8ff56d70)" style="fill: none; stroke-dasharray: 0.5,0.825; stroke-dashoffset: 0; stroke: #bfbfbf; stroke-width: 0.5"/>
     </g>
     <g id="line2d_22"/>
    </g>
    <g id="xtick_12">
     <g id="line2d_23">
      <path d="M 362.035246 290.454874 
L 362.035246 4.020071 
" clip-path="url(#p2f8ff56d70)" style="fill: none; stroke-dasharray: 0.5,0.825; stroke-dashoffset: 0; stroke: #bfbfbf; stroke-width: 0.5"/>
     </g>
     <g id="line2d_24"/>
    </g>
    <g id="xtick_13">
     <g id="line2d_25">
      <path d="M 426.394462 290.454874 
L 426.394462 4.020071 
" clip-path="url(#p2f8ff56d70)" style="fill: none; stroke-dasharray: 0.5,0.825; stroke-dashoffset: 0; stroke: #bfbfbf; stroke-width: 0.5"/>
     </g>
     <g id="line2d_26"/>
    </g>
   </g>
   <g id="matplotlib.axis_2">
    <g id="ytick_1">
     <g id="line2d_27">
      <path d="M 65.178365 280.462962 
L 465.814481 280.462962 
" clip-path="url(#p2f8ff56d70)" style="fill: none; stroke: #b0b0b0; stroke-width: 0.8; stroke-linecap: square"/>
     </g>
     <g id="line2d_28"/>
     <g id="text_1">
      <!-- −100 -->
      <g transform="translate(20.40024 287.406712) scale(0.2 -0.2)">
       <defs>
        <path id="TimesNewRomanPSMT-2212" d="M 3484 2000 
L 116 2000 
L 116 2256 
L 3484 2256 
L 3484 2000 
z
" transform="scale(0.015625)"/>
        <path id="TimesNewRomanPSMT-31" d="M 750 3822 
L 1781 4325 
L 1884 4325 
L 1884 747 
Q 1884 391 1914 303 
Q 1944 216 2037 169 
Q 2131 122 2419 116 
L 2419 0 
L 825 0 
L 825 116 
Q 1125 122 1212 167 
Q 1300 213 1334 289 
Q 1369 366 1369 747 
L 1369 3034 
Q 1369 3497 1338 3628 
Q 1316 3728 1258 3775 
Q 1200 3822 1119 3822 
Q 1003 3822 797 3725 
L 750 3822 
z
" transform="scale(0.015625)"/>
        <path id="TimesNewRomanPSMT-30" d="M 231 2094 
Q 231 2819 450 3342 
Q 669 3866 1031 4122 
Q 1313 4325 1613 4325 
Q 2100 4325 2488 3828 
Q 2972 3213 2972 2159 
Q 2972 1422 2759 906 
Q 2547 391 2217 158 
Q 1888 -75 1581 -75 
Q 975 -75 572 641 
Q 231 1244 231 2094 
z
M 844 2016 
Q 844 1141 1059 588 
Q 1238 122 1591 122 
Q 1759 122 1940 273 
Q 2122 425 2216 781 
Q 2359 1319 2359 2297 
Q 2359 3022 2209 3506 
Q 2097 3866 1919 4016 
Q 1791 4119 1609 4119 
Q 1397 4119 1231 3928 
Q 1006 3669 925 3112 
Q 844 2556 844 2016 
z
" transform="scale(0.015625)"/>
       </defs>
       <use xlink:href="#TimesNewRomanPSMT-2212"/>
       <use xlink:href="#TimesNewRomanPSMT-31" transform="translate(56.396484 0)"/>
       <use xlink:href="#TimesNewRomanPSMT-30" transform="translate(106.396484 0)"/>
       <use xlink:href="#TimesNewRomanPSMT-30" transform="translate(156.396484 0)"/>
      </g>
     </g>
    </g>
    <g id="ytick_2">
     <g id="line2d_29">
      <path d="M 65.178365 213.850217 
L 465.814481 213.850217 
" clip-path="url(#p2f8ff56d70)" style="fill: none; stroke: #b0b0b0; stroke-width: 0.8; stroke-linecap: square"/>
     </g>
     <g id="line2d_30"/>
     <g id="text_2">
      <!-- −50 -->
      <g transform="translate(30.40024 220.793967) scale(0.2 -0.2)">
       <defs>
        <path id="TimesNewRomanPSMT-35" d="M 2778 4238 
L 2534 3706 
L 1259 3706 
L 981 3138 
Q 1809 3016 2294 2522 
Q 2709 2097 2709 1522 
Q 2709 1188 2573 903 
Q 2438 619 2231 419 
Q 2025 219 1772 97 
Q 1413 -75 1034 -75 
Q 653 -75 479 54 
Q 306 184 306 341 
Q 306 428 378 495 
Q 450 563 559 563 
Q 641 563 702 538 
Q 763 513 909 409 
Q 1144 247 1384 247 
Q 1750 247 2026 523 
Q 2303 800 2303 1197 
Q 2303 1581 2056 1914 
Q 1809 2247 1375 2428 
Q 1034 2569 447 2591 
L 1259 4238 
L 2778 4238 
z
" transform="scale(0.015625)"/>
       </defs>
       <use xlink:href="#TimesNewRomanPSMT-2212"/>
       <use xlink:href="#TimesNewRomanPSMT-35" transform="translate(56.396484 0)"/>
       <use xlink:href="#TimesNewRomanPSMT-30" transform="translate(106.396484 0)"/>
      </g>
     </g>
    </g>
    <g id="ytick_3">
     <g id="line2d_31">
      <path d="M 65.178365 147.237472 
L 465.814481 147.237472 
" clip-path="url(#p2f8ff56d70)" style="fill: none; stroke: #b0b0b0; stroke-width: 0.8; stroke-linecap: square"/>
     </g>
     <g id="line2d_32"/>
     <g id="text_3">
      <!-- 0 -->
      <g transform="translate(51.678365 154.181222) scale(0.2 -0.2)">
       <use xlink:href="#TimesNewRomanPSMT-30"/>
      </g>
     </g>
    </g>
    <g id="ytick_4">
     <g id="line2d_33">
      <path d="M 65.178365 80.624728 
L 465.814481 80.624728 
" clip-path="url(#p2f8ff56d70)" style="fill: none; stroke: #b0b0b0; stroke-width: 0.8; stroke-linecap: square"/>
     </g>
     <g id="line2d_34"/>
     <g id="text_4">
      <!-- 50 -->
      <g transform="translate(41.678365 87.568478) scale(0.2 -0.2)">
       <use xlink:href="#TimesNewRomanPSMT-35"/>
       <use xlink:href="#TimesNewRomanPSMT-30" transform="translate(50 0)"/>
      </g>
     </g>
    </g>
    <g id="ytick_5">
     <g id="line2d_35">
      <path d="M 65.178365 14.011983 
L 465.814481 14.011983 
" clip-path="url(#p2f8ff56d70)" style="fill: none; stroke: #b0b0b0; stroke-width: 0.8; stroke-linecap: square"/>
     </g>
     <g id="line2d_36"/>
     <g id="text_5">
      <!-- 100 -->
      <g transform="translate(31.678365 20.955733) scale(0.2 -0.2)">
       <use xlink:href="#TimesNewRomanPSMT-31"/>
       <use xlink:href="#TimesNewRomanPSMT-30" transform="translate(50 0)"/>
       <use xlink:href="#TimesNewRomanPSMT-30" transform="translate(100 0)"/>
      </g>
     </g>
    </g>
    <g id="ytick_6">
     <g id="line2d_37">
      <path d="M 65.178365 267.140413 
L 465.814481 267.140413 
" clip-path="url(#p2f8ff56d70)" style="fill: none; stroke-dasharray: 0.5,0.825; stroke-dashoffset: 0; stroke: #bfbfbf; stroke-width: 0.5"/>
     </g>
     <g id="line2d_38"/>
    </g>
    <g id="ytick_7">
     <g id="line2d_39">
      <path d="M 65.178365 253.817864 
L 465.814481 253.817864 
" clip-path="url(#p2f8ff56d70)" style="fill: none; stroke-dasharray: 0.5,0.825; stroke-dashoffset: 0; stroke: #bfbfbf; stroke-width: 0.5"/>
     </g>
     <g id="line2d_40"/>
    </g>
    <g id="ytick_8">
     <g id="line2d_41">
      <path d="M 65.178365 240.495315 
L 465.814481 240.495315 
" clip-path="url(#p2f8ff56d70)" style="fill: none; stroke-dasharray: 0.5,0.825; stroke-dashoffset: 0; stroke: #bfbfbf; stroke-width: 0.5"/>
     </g>
     <g id="line2d_42"/>
    </g>
    <g id="ytick_9">
     <g id="line2d_43">
      <path d="M 65.178365 227.172766 
L 465.814481 227.172766 
" clip-path="url(#p2f8ff56d70)" style="fill: none; stroke-dasharray: 0.5,0.825; stroke-dashoffset: 0; stroke: #bfbfbf; stroke-width: 0.5"/>
     </g>
     <g id="line2d_44"/>
    </g>
    <g id="ytick_10">
     <g id="line2d_45">
      <path d="M 65.178365 200.527668 
L 465.814481 200.527668 
" clip-path="url(#p2f8ff56d70)" style="fill: none; stroke-dasharray: 0.5,0.825; stroke-dashoffset: 0; stroke: #bfbfbf; stroke-width: 0.5"/>
     </g>
     <g id="line2d_46"/>
    </g>
    <g id="ytick_11">
     <g id="line2d_47">
      <path d="M 65.178365 187.205119 
L 465.814481 187.205119 
" clip-path="url(#p2f8ff56d70)" style="fill: none; stroke-dasharray: 0.5,0.825; stroke-dashoffset: 0; stroke: #bfbfbf; stroke-width: 0.5"/>
     </g>
     <g id="line2d_48"/>
    </g>
    <g id="ytick_12">
     <g id="line2d_49">
      <path d="M 65.178365 173.88257 
L 465.814481 173.88257 
" clip-path="url(#p2f8ff56d70)" style="fill: none; stroke-dasharray: 0.5,0.825; stroke-dashoffset: 0; stroke: #bfbfbf; stroke-width: 0.5"/>
     </g>
     <g id="line2d_50"/>
    </g>
    <g id="ytick_13">
     <g id="line2d_51">
      <path d="M 65.178365 160.560021 
L 465.814481 160.560021 
" clip-path="url(#p2f8ff56d70)" style="fill: none; stroke-dasharray: 0.5,0.825; stroke-dashoffset: 0; stroke: #bfbfbf; stroke-width: 0.5"/>
     </g>
     <g id="line2d_52"/>
    </g>
    <g id="ytick_14">
     <g id="line2d_53">
      <path d="M 65.178365 133.914924 
L 465.814481 133.914924 
" clip-path="url(#p2f8ff56d70)" style="fill: none; stroke-dasharray: 0.5,0.825; stroke-dashoffset: 0; stroke: #bfbfbf; stroke-width: 0.5"/>
     </g>
     <g id="line2d_54"/>
    </g>
    <g id="ytick_15">
     <g id="line2d_55">
      <path d="M 65.178365 120.592375 
L 465.814481 120.592375 
" clip-path="url(#p2f8ff56d70)" style="fill: none; stroke-dasharray: 0.5,0.825; stroke-dashoffset: 0; stroke: #bfbfbf; stroke-width: 0.5"/>
     </g>
     <g id="line2d_56"/>
    </g>
    <g id="ytick_16">
     <g id="line2d_57">
      <path d="M 65.178365 107.269826 
L 465.814481 107.269826 
" clip-path="url(#p2f8ff56d70)" style="fill: none; stroke-dasharray: 0.5,0.825; stroke-dashoffset: 0; stroke: #bfbfbf; stroke-width: 0.5"/>
     </g>
     <g id="line2d_58"/>
    </g>
    <g id="ytick_17">
     <g id="line2d_59">
      <path d="M 65.178365 93.947277 
L 465.814481 93.947277 
" clip-path="url(#p2f8ff56d70)" style="fill: none; stroke-dasharray: 0.5,0.825; stroke-dashoffset: 0; stroke: #bfbfbf; stroke-width: 0.5"/>
     </g>
     <g id="line2d_60"/>
    </g>
    <g id="ytick_18">
     <g id="line2d_61">
      <path d="M 65.178365 67.302179 
L 465.814481 67.302179 
" clip-path="url(#p2f8ff56d70)" style="fill: none; stroke-dasharray: 0.5,0.825; stroke-dashoffset: 0; stroke: #bfbfbf; stroke-width: 0.5"/>
     </g>
     <g id="line2d_62"/>
    </g>
    <g id="ytick_19">
     <g id="line2d_63">
      <path d="M 65.178365 53.97963 
L 465.814481 53.97963 
" clip-path="url(#p2f8ff56d70)" style="fill: none; stroke-dasharray: 0.5,0.825; stroke-dashoffset: 0; stroke: #bfbfbf; stroke-width: 0.5"/>
     </g>
     <g id="line2d_64"/>
    </g>
    <g id="ytick_20">
     <g id="line2d_65">
      <path d="M 65.178365 40.657081 
L 465.814481 40.657081 
" clip-path="url(#p2f8ff56d70)" style="fill: none; stroke-dasharray: 0.5,0.825; stroke-dashoffset: 0; stroke: #bfbfbf; stroke-width: 0.5"/>
     </g>
     <g id="line2d_66"/>
    </g>
    <g id="ytick_21">
     <g id="line2d_67">
      <path d="M 65.178365 27.334532 
L 465.814481 27.334532 
" clip-path="url(#p2f8ff56d70)" style="fill: none; stroke-dasharray: 0.5,0.825; stroke-dashoffset: 0; stroke: #bfbfbf; stroke-width: 0.5"/>
     </g>
     <g id="line2d_68"/>
    </g>
    <g id="text_6">
     <!-- $R_E$ -->
     <g transform="translate(3.00024 142.959347) scale(0.2 -0.2)">
      <defs>
       <path id="Cmmi10-52" d="M 313 0 
Q 250 0 250 84 
Q 253 100 262 139 
Q 272 178 289 201 
Q 306 225 331 225 
Q 722 225 878 269 
Q 959 297 997 441 
L 1875 3956 
Q 1888 4019 1888 4044 
Q 1888 4113 1813 4122 
Q 1691 4147 1350 4147 
Q 1288 4147 1288 4231 
Q 1291 4247 1300 4286 
Q 1309 4325 1326 4348 
Q 1344 4372 1369 4372 
L 3309 4372 
Q 3541 4372 3791 4319 
Q 4041 4266 4250 4152 
Q 4459 4038 4593 3848 
Q 4728 3659 4728 3406 
Q 4728 3084 4515 2831 
Q 4303 2578 3978 2408 
Q 3653 2238 3347 2169 
Q 3597 2078 3756 1879 
Q 3916 1681 3916 1422 
Q 3916 1388 3914 1370 
Q 3913 1353 3909 1331 
L 3859 763 
Q 3853 638 3847 550 
Q 3841 463 3841 409 
Q 3841 234 3892 129 
Q 3944 25 4097 25 
Q 4297 25 4448 211 
Q 4600 397 4647 616 
Q 4675 672 4709 672 
L 4769 672 
Q 4831 672 4831 588 
Q 4784 403 4682 237 
Q 4581 72 4426 -34 
Q 4272 -141 4091 -141 
Q 3716 -141 3452 26 
Q 3188 194 3188 550 
Q 3188 684 3213 788 
L 3353 1356 
Q 3378 1434 3378 1538 
Q 3378 1803 3198 1954 
Q 3019 2106 2747 2106 
L 1959 2106 
L 1538 416 
Q 1522 363 1522 325 
Q 1522 259 1600 250 
Q 1722 225 2059 225 
Q 2125 225 2125 141 
Q 2103 50 2090 25 
Q 2078 0 2016 0 
L 313 0 
z
M 1997 2272 
L 2706 2272 
Q 3403 2272 3756 2625 
Q 3919 2788 4014 3039 
Q 4109 3291 4109 3541 
Q 4109 3778 3970 3912 
Q 3831 4047 3626 4097 
Q 3422 4147 3175 4147 
L 2747 4147 
Q 2572 4147 2515 4117 
Q 2459 4088 2413 3928 
L 1997 2272 
z
" transform="scale(0.015625)"/>
       <path id="Cmmi10-45" d="M 300 0 
Q 238 0 238 84 
Q 241 100 250 139 
Q 259 178 276 201 
Q 294 225 319 225 
Q 709 225 863 269 
Q 947 297 984 441 
L 1863 3956 
Q 1875 4019 1875 4044 
Q 1875 4113 1797 4122 
Q 1678 4147 1338 4147 
Q 1275 4147 1275 4231 
Q 1278 4247 1287 4286 
Q 1297 4325 1314 4348 
Q 1331 4372 1356 4372 
L 4825 4372 
Q 4891 4372 4891 4288 
L 4738 2963 
Q 4738 2947 4714 2926 
Q 4691 2906 4672 2906 
L 4616 2906 
Q 4550 2906 4550 2988 
Q 4588 3300 4588 3450 
Q 4588 3706 4500 3848 
Q 4413 3991 4267 4053 
Q 4122 4116 3945 4131 
Q 3769 4147 3481 4147 
L 2753 4147 
Q 2578 4147 2522 4117 
Q 2466 4088 2419 3928 
L 2034 2381 
L 2534 2381 
Q 2859 2381 3025 2426 
Q 3191 2472 3287 2615 
Q 3384 2759 3463 3072 
Q 3469 3094 3486 3111 
Q 3503 3128 3525 3128 
L 3584 3128 
Q 3647 3128 3647 3047 
L 3250 1466 
Q 3238 1409 3188 1409 
L 3128 1409 
Q 3066 1409 3066 1491 
Q 3128 1747 3128 1869 
Q 3128 2056 2959 2106 
Q 2791 2156 2509 2156 
L 1978 2156 
L 1544 416 
Q 1516 338 1516 275 
Q 1516 225 1734 225 
L 2509 225 
Q 2972 225 3259 297 
Q 3547 369 3736 526 
Q 3925 684 4062 928 
Q 4200 1172 4397 1638 
Q 4409 1678 4453 1678 
L 4513 1678 
Q 4538 1678 4556 1656 
Q 4575 1634 4575 1606 
Q 4575 1594 4569 1581 
L 3909 38 
Q 3897 0 3859 0 
L 300 0 
z
" transform="scale(0.015625)"/>
      </defs>
      <use xlink:href="#Cmmi10-52" transform="translate(0 0.6875)"/>
      <use xlink:href="#Cmmi10-45" transform="translate(75.878906 -16.31875) scale(0.7)"/>
     </g>
    </g>
   </g>
   <g id="line2d_69">
    <path d="M 72.418777 222.259034 
L 94.676339 221.874953 
L 118.006554 221.45342 
L 123.101659 221.67117 
L 133.828195 222.43959 
L 152.599633 223.704777 
L 172.443724 224.819699 
L 196.846593 225.969176 
L 225.271913 227.082412 
L 258.524175 228.143627 
L 293.921743 229.033728 
L 329.319312 229.702872 
L 366.325861 230.177233 
L 403.33241 230.419597 
L 437.389161 230.423824 
L 458.305906 230.310244 
L 458.305906 230.310244 
" clip-path="url(#p2f8ff56d70)" style="fill: none; stroke: #ff0000; stroke-width: 2; stroke-linecap: square"/>
   </g>
   <g id="line2d_70">
    <path d="M 72.418777 222.396478 
L 94.944502 222.00384 
L 118.006554 221.588951 
L 123.101659 221.807502 
L 133.828195 222.575839 
L 152.331469 223.82242 
L 172.980051 224.97769 
L 197.651083 226.129154 
L 226.344567 227.239795 
L 258.256011 228.24842 
L 292.580926 229.109139 
L 328.246658 229.782697 
L 364.71688 230.250322 
L 400.650776 230.491354 
L 435.243854 230.504161 
L 458.305906 230.379533 
L 458.305906 230.379533 
" clip-path="url(#p2f8ff56d70)" style="fill: none; stroke-dasharray: 11.1,4.8; stroke-dashoffset: 0; stroke: #ff0000; stroke-width: 3"/>
   </g>
   <g id="line2d_71">
    <path d="M 72.418777 115.813516 
L 91.726541 116.367399 
L 104.330221 116.523716 
L 112.375123 116.418291 
L 120.151862 116.080291 
L 127.12411 115.865443 
L 134.900848 115.876254 
L 146.431875 116.135634 
L 164.935149 116.803477 
L 194.96945 118.147573 
L 238.680083 120.32796 
L 316.983795 124.455218 
L 420.76303 129.915672 
L 458.305906 131.782313 
L 458.305906 131.782313 
" clip-path="url(#p2f8ff56d70)" style="fill: none; stroke: #008000; stroke-width: 2; stroke-linecap: square"/>
   </g>
   <g id="line2d_72">
    <path d="M 72.418777 116.093466 
L 92.262868 116.657319 
L 104.598384 116.801248 
L 112.643286 116.687168 
L 121.224515 116.309146 
L 127.9286 116.13533 
L 135.973502 116.172419 
L 148.040855 116.468924 
L 167.080456 117.180113 
L 197.114757 118.543852 
L 246.188658 121.016412 
L 350.50422 126.549275 
L 439.266305 131.159176 
L 458.305906 132.092126 
L 458.305906 132.092126 
" clip-path="url(#p2f8ff56d70)" style="fill: none; stroke-dasharray: 11.1,4.8; stroke-dashoffset: 0; stroke: #008000; stroke-width: 3"/>
   </g>
   <g id="line2d_73">
    <path d="M 72.418777 134.331267 
L 137.850646 134.988633 
L 211.863744 136.235852 
L 325.565024 137.907072 
L 449.992841 139.507732 
L 458.305906 139.604806 
L 458.305906 139.604806 
" clip-path="url(#p2f8ff56d70)" style="fill: none; stroke: #0000ff; stroke-width: 2; stroke-linecap: square"/>
   </g>
   <g id="line2d_74">
    <path d="M 72.418777 134.452895 
L 137.314319 135.101143 
L 212.131907 136.368702 
L 321.810737 137.988552 
L 441.947939 139.547208 
L 458.305906 139.739437 
L 458.305906 139.739437 
" clip-path="url(#p2f8ff56d70)" style="fill: none; stroke-dasharray: 11.1,4.8; stroke-dashoffset: 0; stroke: #0000ff; stroke-width: 3"/>
   </g>
   <g id="line2d_75">
    <path d="M 72.418777 64.882932 
L 115.32492 65.87734 
L 120.688188 65.684101 
L 133.828195 64.826927 
L 147.504528 64.114418 
L 165.203312 63.431706 
L 187.997201 62.786569 
L 217.227012 62.19893 
L 250.747436 61.749427 
L 290.435619 61.447675 
L 335.218907 61.354855 
L 377.32056 61.488519 
L 418.34956 61.831128 
L 457.769579 62.385961 
L 458.305906 62.395239 
L 458.305906 62.395239 
" clip-path="url(#p2f8ff56d70)" style="fill: none; stroke: #000000; stroke-width: 2; stroke-linecap: square"/>
   </g>
   <g id="line2d_76">
    <path d="M 73.191087 267.54009 
L 89.216532 267.54009 
" style="fill: none; stroke: #000000; stroke-width: 2"/>
   </g>
   <g id="text_7">
    <g id="patch_3">
     <path d="M 93.222893 277.352199 
L 100.122893 277.352199 
Q 103.122893 277.352199 103.122893 274.352199 
L 103.122893 260.72798 
Q 103.122893 257.72798 100.122893 257.72798 
L 93.222893 257.72798 
Q 90.222893 257.72798 90.222893 260.72798 
L 90.222893 274.352199 
Q 90.222893 277.352199 93.222893 277.352199 
z
" style="fill: #ffffff"/>
    </g>
    <!-- $\overline{r}$ -->
    <g transform="translate(93.222893 271.143605) scale(0.15 -0.15)">
     <defs>
      <path id="Cmmi10-72" d="M 494 109 
Q 494 147 500 166 
L 978 2075 
Q 1025 2253 1025 2388 
Q 1025 2663 838 2663 
Q 638 2663 541 2423 
Q 444 2184 353 1819 
Q 353 1800 334 1789 
Q 316 1778 300 1778 
L 225 1778 
Q 203 1778 187 1801 
Q 172 1825 172 1844 
Q 241 2122 305 2315 
Q 369 2509 505 2668 
Q 641 2828 844 2828 
Q 1066 2828 1233 2700 
Q 1400 2572 1441 2363 
Q 1603 2575 1811 2701 
Q 2019 2828 2266 2828 
Q 2469 2828 2623 2709 
Q 2778 2591 2778 2388 
Q 2778 2225 2676 2104 
Q 2575 1984 2406 1984 
Q 2303 1984 2233 2048 
Q 2163 2113 2163 2216 
Q 2163 2356 2266 2467 
Q 2369 2578 2503 2578 
Q 2400 2663 2253 2663 
Q 1978 2663 1775 2467 
Q 1572 2272 1409 1972 
L 953 141 
Q 931 53 854 -9 
Q 778 -72 684 -72 
Q 606 -72 550 -22 
Q 494 28 494 109 
z
" transform="scale(0.015625)"/>
     </defs>
     <use xlink:href="#Cmmi10-72" transform="translate(0 0.5625)"/>
     <path d="M 0 56.5 
L 0 62.75 
L 45.117188 62.75 
L 45.117188 56.5 
L 0 56.5 
z
"/>
    </g>
   </g>
   <g id="legend_1">
    <g id="patch_4">
     <path d="M 63.683923 58.617952 
L 467.308923 58.617952 
Q 470.308923 58.617952 470.308923 55.617952 
L 470.308923 5.786702 
Q 470.308923 2.786702 467.308923 2.786702 
L 63.683923 2.786702 
Q 60.683923 2.786702 60.683923 5.786702 
L 60.683923 55.617952 
Q 60.683923 58.617952 63.683923 58.617952 
z
" style="fill: #ffffff; opacity: 0.8; stroke: #cccccc; stroke-linejoin: miter"/>
    </g>
    <g id="line2d_77">
     <path d="M 66.683923 17.424202 
L 77.933923 17.424202 
L 89.183923 17.424202 
" style="fill: none; stroke: #ff0000; stroke-width: 2; stroke-linecap: square"/>
    </g>
    <g id="text_8">
     <!-- SSCWeb/X -->
     <g transform="translate(96.683923 22.674202) scale(0.2 -0.2)">
      <defs>
       <path id="TimesNewRomanPSMT-53" d="M 2934 4334 
L 2934 2869 
L 2819 2869 
Q 2763 3291 2617 3541 
Q 2472 3791 2203 3937 
Q 1934 4084 1647 4084 
Q 1322 4084 1109 3886 
Q 897 3688 897 3434 
Q 897 3241 1031 3081 
Q 1225 2847 1953 2456 
Q 2547 2138 2764 1967 
Q 2981 1797 3098 1565 
Q 3216 1334 3216 1081 
Q 3216 600 2842 251 
Q 2469 -97 1881 -97 
Q 1697 -97 1534 -69 
Q 1438 -53 1133 45 
Q 828 144 747 144 
Q 669 144 623 97 
Q 578 50 556 -97 
L 441 -97 
L 441 1356 
L 556 1356 
Q 638 900 775 673 
Q 913 447 1195 297 
Q 1478 147 1816 147 
Q 2206 147 2432 353 
Q 2659 559 2659 841 
Q 2659 997 2573 1156 
Q 2488 1316 2306 1453 
Q 2184 1547 1640 1851 
Q 1097 2156 867 2337 
Q 638 2519 519 2737 
Q 400 2956 400 3219 
Q 400 3675 750 4004 
Q 1100 4334 1641 4334 
Q 1978 4334 2356 4169 
Q 2531 4091 2603 4091 
Q 2684 4091 2736 4139 
Q 2788 4188 2819 4334 
L 2934 4334 
z
" transform="scale(0.015625)"/>
       <path id="TimesNewRomanPSMT-43" d="M 3853 4334 
L 3950 2894 
L 3853 2894 
Q 3659 3541 3300 3825 
Q 2941 4109 2438 4109 
Q 2016 4109 1675 3895 
Q 1334 3681 1139 3212 
Q 944 2744 944 2047 
Q 944 1472 1128 1050 
Q 1313 628 1683 403 
Q 2053 178 2528 178 
Q 2941 178 3256 354 
Q 3572 531 3950 1056 
L 4047 994 
Q 3728 428 3303 165 
Q 2878 -97 2294 -97 
Q 1241 -97 663 684 
Q 231 1266 231 2053 
Q 231 2688 515 3219 
Q 800 3750 1298 4042 
Q 1797 4334 2388 4334 
Q 2847 4334 3294 4109 
Q 3425 4041 3481 4041 
Q 3566 4041 3628 4100 
Q 3709 4184 3744 4334 
L 3853 4334 
z
" transform="scale(0.015625)"/>
       <path id="TimesNewRomanPSMT-57" d="M 5991 4238 
L 5991 4122 
Q 5825 4122 5722 4062 
Q 5619 4003 5525 3841 
Q 5463 3731 5328 3319 
L 4147 -97 
L 4022 -97 
L 3056 2613 
L 2097 -97 
L 1984 -97 
L 725 3422 
Q 584 3816 547 3888 
Q 484 4006 376 4064 
Q 269 4122 84 4122 
L 84 4238 
L 1653 4238 
L 1653 4122 
L 1578 4122 
Q 1413 4122 1325 4047 
Q 1238 3972 1238 3866 
Q 1238 3756 1375 3363 
L 2209 984 
L 2913 3006 
L 2788 3363 
L 2688 3647 
Q 2622 3803 2541 3922 
Q 2500 3981 2441 4022 
Q 2363 4078 2284 4103 
Q 2225 4122 2097 4122 
L 2097 4238 
L 3747 4238 
L 3747 4122 
L 3634 4122 
Q 3459 4122 3378 4047 
Q 3297 3972 3297 3844 
Q 3297 3684 3438 3288 
L 4250 984 
L 5056 3319 
Q 5194 3706 5194 3856 
Q 5194 3928 5148 3990 
Q 5103 4053 5034 4078 
Q 4916 4122 4725 4122 
L 4725 4238 
L 5991 4238 
z
" transform="scale(0.015625)"/>
       <path id="TimesNewRomanPSMT-65" d="M 681 1784 
Q 678 1147 991 784 
Q 1303 422 1725 422 
Q 2006 422 2214 576 
Q 2422 731 2563 1106 
L 2659 1044 
Q 2594 616 2278 264 
Q 1963 -88 1488 -88 
Q 972 -88 605 314 
Q 238 716 238 1394 
Q 238 2128 614 2539 
Q 991 2950 1559 2950 
Q 2041 2950 2350 2633 
Q 2659 2316 2659 1784 
L 681 1784 
z
M 681 1966 
L 2006 1966 
Q 1991 2241 1941 2353 
Q 1863 2528 1708 2628 
Q 1553 2728 1384 2728 
Q 1125 2728 920 2526 
Q 716 2325 681 1966 
z
" transform="scale(0.015625)"/>
       <path id="TimesNewRomanPSMT-62" d="M 984 2369 
Q 1400 2947 1881 2947 
Q 2322 2947 2650 2570 
Q 2978 2194 2978 1541 
Q 2978 778 2472 313 
Q 2038 -88 1503 -88 
Q 1253 -88 995 3 
Q 738 94 469 275 
L 469 3241 
Q 469 3728 445 3840 
Q 422 3953 372 3993 
Q 322 4034 247 4034 
Q 159 4034 28 3984 
L -16 4094 
L 844 4444 
L 984 4444 
L 984 2369 
z
M 984 2169 
L 984 456 
Q 1144 300 1314 220 
Q 1484 141 1663 141 
Q 1947 141 2192 453 
Q 2438 766 2438 1363 
Q 2438 1913 2192 2208 
Q 1947 2503 1634 2503 
Q 1469 2503 1303 2419 
Q 1178 2356 984 2169 
z
" transform="scale(0.015625)"/>
       <path id="TimesNewRomanPSMT-2f" d="M 1794 4444 
L 259 -88 
L 9 -88 
L 1544 4444 
L 1794 4444 
z
" transform="scale(0.015625)"/>
       <path id="TimesNewRomanPSMT-58" d="M 2613 2347 
L 3522 991 
Q 3900 428 4083 279 
Q 4266 131 4547 116 
L 4547 0 
L 2728 0 
L 2728 116 
Q 2909 119 2997 153 
Q 3063 181 3105 239 
Q 3147 297 3147 356 
Q 3147 428 3119 500 
Q 3097 553 2947 775 
L 2228 1863 
L 1341 725 
Q 1200 544 1172 483 
Q 1144 422 1144 356 
Q 1144 256 1228 190 
Q 1313 125 1550 116 
L 1550 0 
L 47 0 
L 47 116 
Q 206 131 322 181 
Q 516 263 691 400 
Q 866 538 1091 822 
L 2091 2084 
L 1256 3306 
Q 916 3803 678 3958 
Q 441 4113 131 4122 
L 131 4238 
L 2091 4238 
L 2091 4122 
Q 1841 4113 1748 4041 
Q 1656 3969 1656 3881 
Q 1656 3766 1806 3544 
L 2456 2572 
L 3209 3525 
Q 3341 3694 3370 3756 
Q 3400 3819 3400 3884 
Q 3400 3950 3363 4000 
Q 3316 4066 3244 4092 
Q 3172 4119 2947 4122 
L 2947 4238 
L 4450 4238 
L 4450 4122 
Q 4272 4113 4159 4066 
Q 3991 3994 3850 3872 
Q 3709 3750 3453 3422 
L 2613 2347 
z
" transform="scale(0.015625)"/>
      </defs>
      <use xlink:href="#TimesNewRomanPSMT-53"/>
      <use xlink:href="#TimesNewRomanPSMT-53" transform="translate(55.615234 0)"/>
      <use xlink:href="#TimesNewRomanPSMT-43" transform="translate(111.230469 0)"/>
      <use xlink:href="#TimesNewRomanPSMT-57" transform="translate(177.929688 0)"/>
      <use xlink:href="#TimesNewRomanPSMT-65" transform="translate(264.314453 0)"/>
      <use xlink:href="#TimesNewRomanPSMT-62" transform="translate(308.699219 0)"/>
      <use xlink:href="#TimesNewRomanPSMT-2f" transform="translate(358.699219 0)"/>
      <use xlink:href="#TimesNewRomanPSMT-58" transform="translate(386.482422 0)"/>
     </g>
    </g>
    <g id="line2d_78">
     <path d="M 66.683923 43.089827 
L 77.933923 43.089827 
L 89.183923 43.089827 
" style="fill: none; stroke-dasharray: 11.1,4.8; stroke-dashoffset: 0; stroke: #ff0000; stroke-width: 3"/>
    </g>
    <g id="text_9">
     <!-- CDAWeb/X -->
     <g transform="translate(96.683923 48.339827) scale(0.2 -0.2)">
      <defs>
       <path id="TimesNewRomanPSMT-44" d="M 109 0 
L 109 116 
L 269 116 
Q 538 116 650 288 
Q 719 391 719 750 
L 719 3488 
Q 719 3884 631 3984 
Q 509 4122 269 4122 
L 109 4122 
L 109 4238 
L 1834 4238 
Q 2784 4238 3279 4022 
Q 3775 3806 4076 3303 
Q 4378 2800 4378 2141 
Q 4378 1256 3841 663 
Q 3238 0 2003 0 
L 109 0 
z
M 1319 306 
Q 1716 219 1984 219 
Q 2709 219 3187 728 
Q 3666 1238 3666 2109 
Q 3666 2988 3187 3494 
Q 2709 4000 1959 4000 
Q 1678 4000 1319 3909 
L 1319 306 
z
" transform="scale(0.015625)"/>
       <path id="TimesNewRomanPSMT-41" d="M 2928 1419 
L 1288 1419 
L 1000 750 
Q 894 503 894 381 
Q 894 284 986 211 
Q 1078 138 1384 116 
L 1384 0 
L 50 0 
L 50 116 
Q 316 163 394 238 
Q 553 388 747 847 
L 2238 4334 
L 2347 4334 
L 3822 809 
Q 4000 384 4145 257 
Q 4291 131 4550 116 
L 4550 0 
L 2878 0 
L 2878 116 
Q 3131 128 3220 200 
Q 3309 272 3309 375 
Q 3309 513 3184 809 
L 2928 1419 
z
M 2841 1650 
L 2122 3363 
L 1384 1650 
L 2841 1650 
z
" transform="scale(0.015625)"/>
      </defs>
      <use xlink:href="#TimesNewRomanPSMT-43"/>
      <use xlink:href="#TimesNewRomanPSMT-44" transform="translate(66.699219 0)"/>
      <use xlink:href="#TimesNewRomanPSMT-41" transform="translate(138.916016 0)"/>
      <use xlink:href="#TimesNewRomanPSMT-57" transform="translate(203.132812 0)"/>
      <use xlink:href="#TimesNewRomanPSMT-65" transform="translate(289.517578 0)"/>
      <use xlink:href="#TimesNewRomanPSMT-62" transform="translate(333.902344 0)"/>
      <use xlink:href="#TimesNewRomanPSMT-2f" transform="translate(383.902344 0)"/>
      <use xlink:href="#TimesNewRomanPSMT-58" transform="translate(411.685547 0)"/>
     </g>
    </g>
    <g id="line2d_79">
     <path d="M 203.218298 17.424202 
L 214.468298 17.424202 
L 225.718298 17.424202 
" style="fill: none; stroke: #008000; stroke-width: 2; stroke-linecap: square"/>
    </g>
    <g id="text_10">
     <!-- SSCWeb/Y -->
     <g transform="translate(233.218298 22.674202) scale(0.2 -0.2)">
      <defs>
       <path id="TimesNewRomanPSMT-59" d="M 3050 4238 
L 4528 4238 
L 4528 4122 
L 4447 4122 
Q 4366 4122 4209 4050 
Q 4053 3978 3925 3843 
Q 3797 3709 3609 3406 
L 2588 1797 
L 2588 734 
Q 2588 344 2675 247 
Q 2794 116 3050 116 
L 3188 116 
L 3188 0 
L 1388 0 
L 1388 116 
L 1538 116 
Q 1806 116 1919 278 
Q 1988 378 1988 734 
L 1988 1738 
L 825 3513 
Q 619 3825 545 3903 
Q 472 3981 241 4091 
Q 178 4122 59 4122 
L 59 4238 
L 1872 4238 
L 1872 4122 
L 1778 4122 
Q 1631 4122 1507 4053 
Q 1384 3984 1384 3847 
Q 1384 3734 1575 3441 
L 2459 2075 
L 3291 3381 
Q 3478 3675 3478 3819 
Q 3478 3906 3433 3975 
Q 3388 4044 3303 4083 
Q 3219 4122 3050 4122 
L 3050 4238 
z
" transform="scale(0.015625)"/>
      </defs>
      <use xlink:href="#TimesNewRomanPSMT-53"/>
      <use xlink:href="#TimesNewRomanPSMT-53" transform="translate(55.615234 0)"/>
      <use xlink:href="#TimesNewRomanPSMT-43" transform="translate(111.230469 0)"/>
      <use xlink:href="#TimesNewRomanPSMT-57" transform="translate(177.929688 0)"/>
      <use xlink:href="#TimesNewRomanPSMT-65" transform="translate(264.314453 0)"/>
      <use xlink:href="#TimesNewRomanPSMT-62" transform="translate(308.699219 0)"/>
      <use xlink:href="#TimesNewRomanPSMT-2f" transform="translate(358.699219 0)"/>
      <use xlink:href="#TimesNewRomanPSMT-59" transform="translate(386.482422 0)"/>
     </g>
    </g>
    <g id="line2d_80">
     <path d="M 203.218298 43.089827 
L 214.468298 43.089827 
L 225.718298 43.089827 
" style="fill: none; stroke-dasharray: 11.1,4.8; stroke-dashoffset: 0; stroke: #008000; stroke-width: 3"/>
    </g>
    <g id="text_11">
     <!-- CDAWeb/Y -->
     <g transform="translate(233.218298 48.339827) scale(0.2 -0.2)">
      <use xlink:href="#TimesNewRomanPSMT-43"/>
      <use xlink:href="#TimesNewRomanPSMT-44" transform="translate(66.699219 0)"/>
      <use xlink:href="#TimesNewRomanPSMT-41" transform="translate(138.916016 0)"/>
      <use xlink:href="#TimesNewRomanPSMT-57" transform="translate(203.132812 0)"/>
      <use xlink:href="#TimesNewRomanPSMT-65" transform="translate(289.517578 0)"/>
      <use xlink:href="#TimesNewRomanPSMT-62" transform="translate(333.902344 0)"/>
      <use xlink:href="#TimesNewRomanPSMT-2f" transform="translate(383.902344 0)"/>
      <use xlink:href="#TimesNewRomanPSMT-59" transform="translate(411.685547 0)"/>
     </g>
    </g>
    <g id="line2d_81">
     <path d="M 339.752673 17.424202 
L 351.002673 17.424202 
L 362.252673 17.424202 
" style="fill: none; stroke: #0000ff; stroke-width: 2; stroke-linecap: square"/>
    </g>
    <g id="text_12">
     <!-- SSCWeb/Z -->
     <g transform="translate(369.752673 22.674202) scale(0.2 -0.2)">
      <defs>
       <path id="TimesNewRomanPSMT-5a" d="M 3681 4238 
L 897 256 
L 2634 256 
Q 3034 256 3248 431 
Q 3463 606 3628 1141 
L 3731 1122 
L 3531 0 
L 81 0 
L 81 116 
L 2800 3984 
L 1444 3984 
Q 1106 3984 954 3911 
Q 803 3838 723 3698 
Q 644 3559 578 3178 
L 459 3178 
L 547 4238 
L 3681 4238 
z
" transform="scale(0.015625)"/>
      </defs>
      <use xlink:href="#TimesNewRomanPSMT-53"/>
      <use xlink:href="#TimesNewRomanPSMT-53" transform="translate(55.615234 0)"/>
      <use xlink:href="#TimesNewRomanPSMT-43" transform="translate(111.230469 0)"/>
      <use xlink:href="#TimesNewRomanPSMT-57" transform="translate(177.929688 0)"/>
      <use xlink:href="#TimesNewRomanPSMT-65" transform="translate(264.314453 0)"/>
      <use xlink:href="#TimesNewRomanPSMT-62" transform="translate(308.699219 0)"/>
      <use xlink:href="#TimesNewRomanPSMT-2f" transform="translate(358.699219 0)"/>
      <use xlink:href="#TimesNewRomanPSMT-5a" transform="translate(386.482422 0)"/>
     </g>
    </g>
    <g id="line2d_82">
     <path d="M 339.752673 43.089827 
L 351.002673 43.089827 
L 362.252673 43.089827 
" style="fill: none; stroke-dasharray: 11.1,4.8; stroke-dashoffset: 0; stroke: #0000ff; stroke-width: 3"/>
    </g>
    <g id="text_13">
     <!-- CDAWeb/Z -->
     <g transform="translate(369.752673 48.339827) scale(0.2 -0.2)">
      <use xlink:href="#TimesNewRomanPSMT-43"/>
      <use xlink:href="#TimesNewRomanPSMT-44" transform="translate(66.699219 0)"/>
      <use xlink:href="#TimesNewRomanPSMT-41" transform="translate(138.916016 0)"/>
      <use xlink:href="#TimesNewRomanPSMT-57" transform="translate(203.132812 0)"/>
      <use xlink:href="#TimesNewRomanPSMT-65" transform="translate(289.517578 0)"/>
      <use xlink:href="#TimesNewRomanPSMT-62" transform="translate(333.902344 0)"/>
      <use xlink:href="#TimesNewRomanPSMT-2f" transform="translate(383.902344 0)"/>
      <use xlink:href="#TimesNewRomanPSMT-5a" transform="translate(411.685547 0)"/>
     </g>
    </g>
   </g>
  </g>
  <g id="axes_2">
   <g id="patch_5">
    <path d="M 65.178365 600.690223 
L 465.814481 600.690223 
L 465.814481 314.25542 
L 65.178365 314.25542 
z
" style="fill: #ffffff"/>
   </g>
   <g id="matplotlib.axis_3">
    <g id="xtick_14">
     <g id="line2d_83">
      <path d="M 72.418777 600.690223 
L 72.418777 314.25542 
" clip-path="url(#p1ae1e8b22f)" style="fill: none; stroke: #b0b0b0; stroke-width: 0.8; stroke-linecap: square"/>
     </g>
     <g id="line2d_84"/>
     <g id="text_14">
      <!-- 00 -->
      <g transform="translate(65.043777 618.077723) scale(0.2 -0.2)">
       <use xlink:href="#TimesNewRomanPSMT-30"/>
       <use xlink:href="#TimesNewRomanPSMT-30" transform="translate(50 0)"/>
      </g>
      <!-- 2016-09-01 -->
      <g transform="translate(65.043777 639.020848) scale(0.2 -0.2)">
       <defs>
        <path id="TimesNewRomanPSMT-32" d="M 2934 816 
L 2638 0 
L 138 0 
L 138 116 
Q 1241 1122 1691 1759 
Q 2141 2397 2141 2925 
Q 2141 3328 1894 3587 
Q 1647 3847 1303 3847 
Q 991 3847 742 3664 
Q 494 3481 375 3128 
L 259 3128 
Q 338 3706 661 4015 
Q 984 4325 1469 4325 
Q 1984 4325 2329 3994 
Q 2675 3663 2675 3213 
Q 2675 2891 2525 2569 
Q 2294 2063 1775 1497 
Q 997 647 803 472 
L 1909 472 
Q 2247 472 2383 497 
Q 2519 522 2628 598 
Q 2738 675 2819 816 
L 2934 816 
z
" transform="scale(0.015625)"/>
        <path id="TimesNewRomanPSMT-36" d="M 2869 4325 
L 2869 4209 
Q 2456 4169 2195 4045 
Q 1934 3922 1679 3669 
Q 1425 3416 1258 3105 
Q 1091 2794 978 2366 
Q 1428 2675 1881 2675 
Q 2316 2675 2634 2325 
Q 2953 1975 2953 1425 
Q 2953 894 2631 456 
Q 2244 -75 1606 -75 
Q 1172 -75 869 213 
Q 275 772 275 1663 
Q 275 2231 503 2743 
Q 731 3256 1154 3653 
Q 1578 4050 1965 4187 
Q 2353 4325 2688 4325 
L 2869 4325 
z
M 925 2138 
Q 869 1716 869 1456 
Q 869 1156 980 804 
Q 1091 453 1309 247 
Q 1469 100 1697 100 
Q 1969 100 2183 356 
Q 2397 613 2397 1088 
Q 2397 1622 2184 2012 
Q 1972 2403 1581 2403 
Q 1463 2403 1327 2353 
Q 1191 2303 925 2138 
z
" transform="scale(0.015625)"/>
        <path id="TimesNewRomanPSMT-2d" d="M 259 1672 
L 1875 1672 
L 1875 1200 
L 259 1200 
L 259 1672 
z
" transform="scale(0.015625)"/>
        <path id="TimesNewRomanPSMT-39" d="M 338 -88 
L 338 28 
Q 744 34 1094 217 
Q 1444 400 1770 856 
Q 2097 1313 2225 1859 
Q 1734 1544 1338 1544 
Q 891 1544 572 1889 
Q 253 2234 253 2806 
Q 253 3363 572 3797 
Q 956 4325 1575 4325 
Q 2097 4325 2469 3894 
Q 2925 3359 2925 2575 
Q 2925 1869 2578 1258 
Q 2231 647 1613 244 
Q 1109 -88 516 -88 
L 338 -88 
z
M 2275 2091 
Q 2331 2497 2331 2741 
Q 2331 3044 2228 3395 
Q 2125 3747 1936 3934 
Q 1747 4122 1506 4122 
Q 1228 4122 1018 3872 
Q 809 3622 809 3128 
Q 809 2469 1088 2097 
Q 1291 1828 1588 1828 
Q 1731 1828 1928 1897 
Q 2125 1966 2275 2091 
z
" transform="scale(0.015625)"/>
       </defs>
       <use xlink:href="#TimesNewRomanPSMT-32"/>
       <use xlink:href="#TimesNewRomanPSMT-30" transform="translate(50 0)"/>
       <use xlink:href="#TimesNewRomanPSMT-31" transform="translate(100 0)"/>
       <use xlink:href="#TimesNewRomanPSMT-36" transform="translate(150 0)"/>
       <use xlink:href="#TimesNewRomanPSMT-2d" transform="translate(200 0)"/>
       <use xlink:href="#TimesNewRomanPSMT-30" transform="translate(233.300781 0)"/>
       <use xlink:href="#TimesNewRomanPSMT-39" transform="translate(283.300781 0)"/>
       <use xlink:href="#TimesNewRomanPSMT-2d" transform="translate(333.300781 0)"/>
       <use xlink:href="#TimesNewRomanPSMT-30" transform="translate(366.601562 0)"/>
       <use xlink:href="#TimesNewRomanPSMT-31" transform="translate(416.601562 0)"/>
      </g>
     </g>
    </g>
    <g id="xtick_15">
     <g id="line2d_85">
      <path d="M 136.777992 600.690223 
L 136.777992 314.25542 
" clip-path="url(#p1ae1e8b22f)" style="fill: none; stroke: #b0b0b0; stroke-width: 0.8; stroke-linecap: square"/>
     </g>
     <g id="line2d_86"/>
     <g id="text_15">
      <!-- 04 -->
      <g transform="translate(128.077992 616.272348) scale(0.174 -0.174)">
       <defs>
        <path id="TimesNewRomanPSMT-34" d="M 2978 1563 
L 2978 1119 
L 2409 1119 
L 2409 0 
L 1894 0 
L 1894 1119 
L 100 1119 
L 100 1519 
L 2066 4325 
L 2409 4325 
L 2409 1563 
L 2978 1563 
z
M 1894 1563 
L 1894 3666 
L 406 1563 
L 1894 1563 
z
" transform="scale(0.015625)"/>
       </defs>
       <use xlink:href="#TimesNewRomanPSMT-30"/>
       <use xlink:href="#TimesNewRomanPSMT-34" transform="translate(50 0)"/>
      </g>
     </g>
    </g>
    <g id="xtick_16">
     <g id="line2d_87">
      <path d="M 201.137208 600.690223 
L 201.137208 314.25542 
" clip-path="url(#p1ae1e8b22f)" style="fill: none; stroke: #b0b0b0; stroke-width: 0.8; stroke-linecap: square"/>
     </g>
     <g id="line2d_88"/>
     <g id="text_16">
      <!-- 08 -->
      <g transform="translate(192.437208 616.272348) scale(0.174 -0.174)">
       <defs>
        <path id="TimesNewRomanPSMT-38" d="M 1228 2134 
Q 725 2547 579 2797 
Q 434 3047 434 3316 
Q 434 3728 753 4026 
Q 1072 4325 1600 4325 
Q 2113 4325 2425 4047 
Q 2738 3769 2738 3413 
Q 2738 3175 2569 2928 
Q 2400 2681 1866 2347 
Q 2416 1922 2594 1678 
Q 2831 1359 2831 1006 
Q 2831 559 2490 242 
Q 2150 -75 1597 -75 
Q 994 -75 656 303 
Q 388 606 388 966 
Q 388 1247 577 1523 
Q 766 1800 1228 2134 
z
M 1719 2469 
Q 2094 2806 2194 3001 
Q 2294 3197 2294 3444 
Q 2294 3772 2109 3958 
Q 1925 4144 1606 4144 
Q 1288 4144 1088 3959 
Q 888 3775 888 3528 
Q 888 3366 970 3203 
Q 1053 3041 1206 2894 
L 1719 2469 
z
M 1375 2016 
Q 1116 1797 991 1539 
Q 866 1281 866 981 
Q 866 578 1086 336 
Q 1306 94 1647 94 
Q 1984 94 2187 284 
Q 2391 475 2391 747 
Q 2391 972 2272 1150 
Q 2050 1481 1375 2016 
z
" transform="scale(0.015625)"/>
       </defs>
       <use xlink:href="#TimesNewRomanPSMT-30"/>
       <use xlink:href="#TimesNewRomanPSMT-38" transform="translate(50 0)"/>
      </g>
     </g>
    </g>
    <g id="xtick_17">
     <g id="line2d_89">
      <path d="M 265.496423 600.690223 
L 265.496423 314.25542 
" clip-path="url(#p1ae1e8b22f)" style="fill: none; stroke: #b0b0b0; stroke-width: 0.8; stroke-linecap: square"/>
     </g>
     <g id="line2d_90"/>
     <g id="text_17">
      <!-- 12 -->
      <g transform="translate(256.796423 616.272348) scale(0.174 -0.174)">
       <use xlink:href="#TimesNewRomanPSMT-31"/>
       <use xlink:href="#TimesNewRomanPSMT-32" transform="translate(50 0)"/>
      </g>
     </g>
    </g>
    <g id="xtick_18">
     <g id="line2d_91">
      <path d="M 329.855639 600.690223 
L 329.855639 314.25542 
" clip-path="url(#p1ae1e8b22f)" style="fill: none; stroke: #b0b0b0; stroke-width: 0.8; stroke-linecap: square"/>
     </g>
     <g id="line2d_92"/>
     <g id="text_18">
      <!-- 16 -->
      <g transform="translate(321.155639 616.272348) scale(0.174 -0.174)">
       <use xlink:href="#TimesNewRomanPSMT-31"/>
       <use xlink:href="#TimesNewRomanPSMT-36" transform="translate(50 0)"/>
      </g>
     </g>
    </g>
    <g id="xtick_19">
     <g id="line2d_93">
      <path d="M 394.214854 600.690223 
L 394.214854 314.25542 
" clip-path="url(#p1ae1e8b22f)" style="fill: none; stroke: #b0b0b0; stroke-width: 0.8; stroke-linecap: square"/>
     </g>
     <g id="line2d_94"/>
     <g id="text_19">
      <!-- 20 -->
      <g transform="translate(385.514854 616.272348) scale(0.174 -0.174)">
       <use xlink:href="#TimesNewRomanPSMT-32"/>
       <use xlink:href="#TimesNewRomanPSMT-30" transform="translate(50 0)"/>
      </g>
     </g>
    </g>
    <g id="xtick_20">
     <g id="line2d_95">
      <path d="M 458.574069 600.690223 
L 458.574069 314.25542 
" clip-path="url(#p1ae1e8b22f)" style="fill: none; stroke: #b0b0b0; stroke-width: 0.8; stroke-linecap: square"/>
     </g>
     <g id="line2d_96"/>
     <g id="text_20">
      <!-- 00 -->
      <g transform="translate(445.949069 618.077723) scale(0.2 -0.2)">
       <use xlink:href="#TimesNewRomanPSMT-30"/>
       <use xlink:href="#TimesNewRomanPSMT-30" transform="translate(50 0)"/>
      </g>
      <!-- 2016-09-02 -->
      <g transform="translate(372.630319 639.020848) scale(0.2 -0.2)">
       <use xlink:href="#TimesNewRomanPSMT-32"/>
       <use xlink:href="#TimesNewRomanPSMT-30" transform="translate(50 0)"/>
       <use xlink:href="#TimesNewRomanPSMT-31" transform="translate(100 0)"/>
       <use xlink:href="#TimesNewRomanPSMT-36" transform="translate(150 0)"/>
       <use xlink:href="#TimesNewRomanPSMT-2d" transform="translate(200 0)"/>
       <use xlink:href="#TimesNewRomanPSMT-30" transform="translate(233.300781 0)"/>
       <use xlink:href="#TimesNewRomanPSMT-39" transform="translate(283.300781 0)"/>
       <use xlink:href="#TimesNewRomanPSMT-2d" transform="translate(333.300781 0)"/>
       <use xlink:href="#TimesNewRomanPSMT-30" transform="translate(366.601562 0)"/>
       <use xlink:href="#TimesNewRomanPSMT-32" transform="translate(416.601562 0)"/>
      </g>
     </g>
    </g>
    <g id="xtick_21">
     <g id="line2d_97">
      <path d="M 104.598384 600.690223 
L 104.598384 314.25542 
" clip-path="url(#p1ae1e8b22f)" style="fill: none; stroke-dasharray: 0.5,0.825; stroke-dashoffset: 0; stroke: #bfbfbf; stroke-width: 0.5"/>
     </g>
     <g id="line2d_98"/>
    </g>
    <g id="xtick_22">
     <g id="line2d_99">
      <path d="M 168.9576 600.690223 
L 168.9576 314.25542 
" clip-path="url(#p1ae1e8b22f)" style="fill: none; stroke-dasharray: 0.5,0.825; stroke-dashoffset: 0; stroke: #bfbfbf; stroke-width: 0.5"/>
     </g>
     <g id="line2d_100"/>
    </g>
    <g id="xtick_23">
     <g id="line2d_101">
      <path d="M 233.316815 600.690223 
L 233.316815 314.25542 
" clip-path="url(#p1ae1e8b22f)" style="fill: none; stroke-dasharray: 0.5,0.825; stroke-dashoffset: 0; stroke: #bfbfbf; stroke-width: 0.5"/>
     </g>
     <g id="line2d_102"/>
    </g>
    <g id="xtick_24">
     <g id="line2d_103">
      <path d="M 297.676031 600.690223 
L 297.676031 314.25542 
" clip-path="url(#p1ae1e8b22f)" style="fill: none; stroke-dasharray: 0.5,0.825; stroke-dashoffset: 0; stroke: #bfbfbf; stroke-width: 0.5"/>
     </g>
     <g id="line2d_104"/>
    </g>
    <g id="xtick_25">
     <g id="line2d_105">
      <path d="M 362.035246 600.690223 
L 362.035246 314.25542 
" clip-path="url(#p1ae1e8b22f)" style="fill: none; stroke-dasharray: 0.5,0.825; stroke-dashoffset: 0; stroke: #bfbfbf; stroke-width: 0.5"/>
     </g>
     <g id="line2d_106"/>
    </g>
    <g id="xtick_26">
     <g id="line2d_107">
      <path d="M 426.394462 600.690223 
L 426.394462 314.25542 
" clip-path="url(#p1ae1e8b22f)" style="fill: none; stroke-dasharray: 0.5,0.825; stroke-dashoffset: 0; stroke: #bfbfbf; stroke-width: 0.5"/>
     </g>
     <g id="line2d_108"/>
    </g>
   </g>
   <g id="matplotlib.axis_4">
    <g id="ytick_22">
     <g id="line2d_109">
      <path d="M 65.178365 587.670459 
L 465.814481 587.670459 
" clip-path="url(#p1ae1e8b22f)" style="fill: none; stroke: #b0b0b0; stroke-width: 0.8; stroke-linecap: square"/>
     </g>
     <g id="line2d_110"/>
     <g id="text_21">
      <!-- 0.0 -->
      <g transform="translate(36.678365 594.614209) scale(0.2 -0.2)">
       <defs>
        <path id="TimesNewRomanPSMT-2e" d="M 800 606 
Q 947 606 1047 504 
Q 1147 403 1147 259 
Q 1147 116 1045 14 
Q 944 -88 800 -88 
Q 656 -88 554 14 
Q 453 116 453 259 
Q 453 406 554 506 
Q 656 606 800 606 
z
" transform="scale(0.015625)"/>
       </defs>
       <use xlink:href="#TimesNewRomanPSMT-30"/>
       <use xlink:href="#TimesNewRomanPSMT-2e" transform="translate(50 0)"/>
       <use xlink:href="#TimesNewRomanPSMT-30" transform="translate(75 0)"/>
      </g>
     </g>
    </g>
    <g id="ytick_23">
     <g id="line2d_111">
      <path d="M 65.178365 500.872034 
L 465.814481 500.872034 
" clip-path="url(#p1ae1e8b22f)" style="fill: none; stroke: #b0b0b0; stroke-width: 0.8; stroke-linecap: square"/>
     </g>
     <g id="line2d_112"/>
     <g id="text_22">
      <!-- 0.1 -->
      <g transform="translate(36.678365 507.815784) scale(0.2 -0.2)">
       <use xlink:href="#TimesNewRomanPSMT-30"/>
       <use xlink:href="#TimesNewRomanPSMT-2e" transform="translate(50 0)"/>
       <use xlink:href="#TimesNewRomanPSMT-31" transform="translate(75 0)"/>
      </g>
     </g>
    </g>
    <g id="ytick_24">
     <g id="line2d_113">
      <path d="M 65.178365 414.073609 
L 465.814481 414.073609 
" clip-path="url(#p1ae1e8b22f)" style="fill: none; stroke: #b0b0b0; stroke-width: 0.8; stroke-linecap: square"/>
     </g>
     <g id="line2d_114"/>
     <g id="text_23">
      <!-- 0.2 -->
      <g transform="translate(36.678365 421.017359) scale(0.2 -0.2)">
       <use xlink:href="#TimesNewRomanPSMT-30"/>
       <use xlink:href="#TimesNewRomanPSMT-2e" transform="translate(50 0)"/>
       <use xlink:href="#TimesNewRomanPSMT-32" transform="translate(75 0)"/>
      </g>
     </g>
    </g>
    <g id="ytick_25">
     <g id="line2d_115">
      <path d="M 65.178365 327.275183 
L 465.814481 327.275183 
" clip-path="url(#p1ae1e8b22f)" style="fill: none; stroke: #b0b0b0; stroke-width: 0.8; stroke-linecap: square"/>
     </g>
     <g id="line2d_116"/>
     <g id="text_24">
      <!-- 0.3 -->
      <g transform="translate(36.678365 334.218933) scale(0.2 -0.2)">
       <defs>
        <path id="TimesNewRomanPSMT-33" d="M 325 3431 
Q 506 3859 782 4092 
Q 1059 4325 1472 4325 
Q 1981 4325 2253 3994 
Q 2459 3747 2459 3466 
Q 2459 3003 1878 2509 
Q 2269 2356 2469 2072 
Q 2669 1788 2669 1403 
Q 2669 853 2319 450 
Q 1863 -75 997 -75 
Q 569 -75 414 31 
Q 259 138 259 259 
Q 259 350 332 419 
Q 406 488 509 488 
Q 588 488 669 463 
Q 722 447 909 348 
Q 1097 250 1169 231 
Q 1284 197 1416 197 
Q 1734 197 1970 444 
Q 2206 691 2206 1028 
Q 2206 1275 2097 1509 
Q 2016 1684 1919 1775 
Q 1784 1900 1550 2001 
Q 1316 2103 1072 2103 
L 972 2103 
L 972 2197 
Q 1219 2228 1467 2375 
Q 1716 2522 1828 2728 
Q 1941 2934 1941 3181 
Q 1941 3503 1739 3701 
Q 1538 3900 1238 3900 
Q 753 3900 428 3381 
L 325 3431 
z
" transform="scale(0.015625)"/>
       </defs>
       <use xlink:href="#TimesNewRomanPSMT-30"/>
       <use xlink:href="#TimesNewRomanPSMT-2e" transform="translate(50 0)"/>
       <use xlink:href="#TimesNewRomanPSMT-33" transform="translate(75 0)"/>
      </g>
     </g>
    </g>
    <g id="ytick_26">
     <g id="line2d_117">
      <path d="M 65.178365 570.310774 
L 465.814481 570.310774 
" clip-path="url(#p1ae1e8b22f)" style="fill: none; stroke-dasharray: 0.5,0.825; stroke-dashoffset: 0; stroke: #bfbfbf; stroke-width: 0.5"/>
     </g>
     <g id="line2d_118"/>
    </g>
    <g id="ytick_27">
     <g id="line2d_119">
      <path d="M 65.178365 552.951089 
L 465.814481 552.951089 
" clip-path="url(#p1ae1e8b22f)" style="fill: none; stroke-dasharray: 0.5,0.825; stroke-dashoffset: 0; stroke: #bfbfbf; stroke-width: 0.5"/>
     </g>
     <g id="line2d_120"/>
    </g>
    <g id="ytick_28">
     <g id="line2d_121">
      <path d="M 65.178365 535.591404 
L 465.814481 535.591404 
" clip-path="url(#p1ae1e8b22f)" style="fill: none; stroke-dasharray: 0.5,0.825; stroke-dashoffset: 0; stroke: #bfbfbf; stroke-width: 0.5"/>
     </g>
     <g id="line2d_122"/>
    </g>
    <g id="ytick_29">
     <g id="line2d_123">
      <path d="M 65.178365 518.231719 
L 465.814481 518.231719 
" clip-path="url(#p1ae1e8b22f)" style="fill: none; stroke-dasharray: 0.5,0.825; stroke-dashoffset: 0; stroke: #bfbfbf; stroke-width: 0.5"/>
     </g>
     <g id="line2d_124"/>
    </g>
    <g id="ytick_30">
     <g id="line2d_125">
      <path d="M 65.178365 483.512349 
L 465.814481 483.512349 
" clip-path="url(#p1ae1e8b22f)" style="fill: none; stroke-dasharray: 0.5,0.825; stroke-dashoffset: 0; stroke: #bfbfbf; stroke-width: 0.5"/>
     </g>
     <g id="line2d_126"/>
    </g>
    <g id="ytick_31">
     <g id="line2d_127">
      <path d="M 65.178365 466.152664 
L 465.814481 466.152664 
" clip-path="url(#p1ae1e8b22f)" style="fill: none; stroke-dasharray: 0.5,0.825; stroke-dashoffset: 0; stroke: #bfbfbf; stroke-width: 0.5"/>
     </g>
     <g id="line2d_128"/>
    </g>
    <g id="ytick_32">
     <g id="line2d_129">
      <path d="M 65.178365 448.792979 
L 465.814481 448.792979 
" clip-path="url(#p1ae1e8b22f)" style="fill: none; stroke-dasharray: 0.5,0.825; stroke-dashoffset: 0; stroke: #bfbfbf; stroke-width: 0.5"/>
     </g>
     <g id="line2d_130"/>
    </g>
    <g id="ytick_33">
     <g id="line2d_131">
      <path d="M 65.178365 431.433294 
L 465.814481 431.433294 
" clip-path="url(#p1ae1e8b22f)" style="fill: none; stroke-dasharray: 0.5,0.825; stroke-dashoffset: 0; stroke: #bfbfbf; stroke-width: 0.5"/>
     </g>
     <g id="line2d_132"/>
    </g>
    <g id="ytick_34">
     <g id="line2d_133">
      <path d="M 65.178365 396.713924 
L 465.814481 396.713924 
" clip-path="url(#p1ae1e8b22f)" style="fill: none; stroke-dasharray: 0.5,0.825; stroke-dashoffset: 0; stroke: #bfbfbf; stroke-width: 0.5"/>
     </g>
     <g id="line2d_134"/>
    </g>
    <g id="ytick_35">
     <g id="line2d_135">
      <path d="M 65.178365 379.354239 
L 465.814481 379.354239 
" clip-path="url(#p1ae1e8b22f)" style="fill: none; stroke-dasharray: 0.5,0.825; stroke-dashoffset: 0; stroke: #bfbfbf; stroke-width: 0.5"/>
     </g>
     <g id="line2d_136"/>
    </g>
    <g id="ytick_36">
     <g id="line2d_137">
      <path d="M 65.178365 361.994553 
L 465.814481 361.994553 
" clip-path="url(#p1ae1e8b22f)" style="fill: none; stroke-dasharray: 0.5,0.825; stroke-dashoffset: 0; stroke: #bfbfbf; stroke-width: 0.5"/>
     </g>
     <g id="line2d_138"/>
    </g>
    <g id="ytick_37">
     <g id="line2d_139">
      <path d="M 65.178365 344.634868 
L 465.814481 344.634868 
" clip-path="url(#p1ae1e8b22f)" style="fill: none; stroke-dasharray: 0.5,0.825; stroke-dashoffset: 0; stroke: #bfbfbf; stroke-width: 0.5"/>
     </g>
     <g id="line2d_140"/>
    </g>
   </g>
   <g id="line2d_141">
    <path d="M 72.418777 369.576595 
L 73.223267 369.689418 
L 76.441228 369.945495 
L 76.977554 369.915736 
L 77.513881 370.000742 
L 77.782045 369.943375 
L 78.318371 370.026738 
L 82.072659 370.317012 
L 82.608986 370.320608 
L 89.044907 370.834376 
L 89.313071 370.774432 
L 89.581234 370.87923 
L 90.385724 370.890751 
L 90.653888 370.951221 
L 90.922051 370.887036 
L 91.190215 370.986011 
L 91.458378 370.909341 
L 92.262868 371.093359 
L 92.799195 371.05956 
L 93.603685 371.178073 
L 94.676339 371.2265 
L 95.480829 371.353125 
L 95.748992 371.305855 
L 96.285319 371.346793 
L 100.30777 371.684173 
L 100.844097 371.722512 
L 102.184914 371.751502 
L 104.330221 371.898617 
L 105.134711 372.050067 
L 105.671038 371.962949 
L 108.352672 372.129392 
L 108.620835 372.240744 
L 109.425326 372.190297 
L 110.497979 372.300815 
L 110.766143 372.240504 
L 111.302469 372.265739 
L 111.838796 372.276419 
L 112.375123 372.25696 
L 112.643286 372.309166 
L 113.179613 372.222857 
L 113.71594 372.302419 
L 115.593084 372.220689 
L 115.861247 372.271972 
L 116.397574 372.210145 
L 121.224515 371.672566 
L 121.492679 371.550266 
L 121.760842 371.620371 
L 122.029005 371.49495 
L 122.297169 371.559284 
L 123.637986 371.218983 
L 123.906149 371.248173 
L 124.710639 371.082723 
L 125.515129 370.904246 
L 127.660437 370.512832 
L 128.196763 370.473218 
L 130.073907 370.074418 
L 130.610234 370.05184 
L 131.146561 369.948812 
L 131.682888 369.814262 
L 132.487378 369.756385 
L 133.291868 369.618399 
L 134.096358 369.486377 
L 134.364522 369.365076 
L 134.632685 369.38798 
L 135.169012 369.249802 
L 148.845345 367.412233 
L 149.113508 367.486664 
L 149.649835 367.355649 
L 151.258816 367.166915 
L 151.795142 367.164444 
L 153.404123 366.918775 
L 153.672286 366.952783 
L 154.208613 366.815974 
L 155.817593 366.672268 
L 156.35392 366.633494 
L 157.15841 366.607533 
L 157.962901 366.440305 
L 158.767391 366.415002 
L 159.571881 366.260368 
L 160.108208 366.24489 
L 161.449025 366.11064 
L 161.985352 366.105843 
L 163.862495 365.922705 
L 185.315567 364.25354 
L 185.583731 364.309753 
L 185.851894 364.20956 
L 186.120057 364.266816 
L 186.656384 364.167606 
L 186.924548 364.17555 
L 187.460874 364.069188 
L 188.533528 364.025558 
L 188.801691 363.972572 
L 189.338018 363.987503 
L 189.606182 363.930811 
L 189.874345 363.993554 
L 190.678835 363.891011 
L 190.946999 363.950409 
L 191.215162 363.83869 
L 192.019652 363.860324 
L 192.555979 363.754531 
L 194.164959 363.691379 
L 195.237613 363.615052 
L 196.042103 363.60451 
L 196.310266 363.498914 
L 197.114757 363.60101 
L 197.651083 363.469361 
L 198.9919 363.446222 
L 199.796391 363.344387 
L 200.064554 363.429943 
L 200.600881 363.311236 
L 200.869044 363.394287 
L 201.405371 363.227141 
L 201.673534 363.310575 
L 201.941698 363.230288 
L 202.209861 363.266735 
L 202.746188 363.218362 
L 206.768639 362.97447 
L 207.036802 362.916143 
L 207.304966 363.024084 
L 207.841293 362.911687 
L 208.109456 362.973689 
L 208.377619 362.918463 
L 208.645783 362.983312 
L 208.913946 362.875887 
L 209.18211 362.941474 
L 209.450273 362.838496 
L 209.718436 362.90483 
L 210.254763 362.819098 
L 210.522927 362.83583 
L 211.059253 362.756284 
L 212.131907 362.789259 
L 212.668234 362.670607 
L 213.472724 362.647512 
L 213.740887 362.623698 
L 214.277214 362.69733 
L 216.690685 362.532725 
L 216.958848 362.58781 
L 218.031502 362.419332 
L 218.567829 362.494187 
L 219.104155 362.451439 
L 219.372319 362.468946 
L 219.640482 362.366894 
L 220.176809 362.40371 
L 220.444972 362.303541 
L 222.053953 362.349888 
L 225.00375 362.12643 
L 225.271913 362.233071 
L 226.076404 362.072663 
L 226.61273 362.131753 
L 226.880894 362.033957 
L 227.149057 362.102716 
L 227.417221 362.053349 
L 227.685384 362.127354 
L 227.953547 362.031993 
L 228.221711 362.105674 
L 228.489874 362.014725 
L 228.758038 362.088987 
L 229.026201 362.000438 
L 230.098855 362.064528 
L 230.635181 361.972077 
L 231.171508 361.931364 
L 261.205809 361.032735 
L 261.473972 361.113522 
L 262.010299 360.994541 
L 262.814789 361.002517 
L 264.42377 360.943991 
L 264.691933 361.001317 
L 264.960096 360.936336 
L 265.22826 360.998684 
L 265.496423 360.895084 
L 266.03275 360.978049 
L 267.105404 360.884203 
L 267.373567 360.91349 
L 267.909894 360.863505 
L 268.178057 360.893956 
L 268.44622 360.810955 
L 269.250711 360.892132 
L 269.787037 360.818197 
L 270.323364 360.872163 
L 270.859691 360.811649 
L 273.273162 360.857481 
L 273.541325 360.725442 
L 274.613979 360.76832 
L 281.0499 360.580663 
L 281.586227 360.69409 
L 282.658881 360.620521 
L 283.463371 360.558939 
L 283.731534 360.532462 
L 283.999698 360.664898 
L 286.145005 360.595195 
L 290.435619 360.485353 
L 290.971946 360.525779 
L 291.508273 360.450282 
L 291.776436 360.521439 
L 292.312763 360.459856 
L 292.580926 360.532126 
L 293.385416 360.40215 
L 293.921743 360.44068 
L 294.189907 360.406795 
L 294.45807 360.493755 
L 295.798887 360.391335 
L 296.335214 360.43085 
L 296.603377 360.369713 
L 296.871541 360.432288 
L 297.139704 360.377983 
L 297.407867 360.485 
L 297.944194 360.387108 
L 298.212358 360.460368 
L 299.285011 360.372594 
L 299.553175 360.458048 
L 300.089501 360.350823 
L 300.893992 360.428798 
L 301.430318 360.301941 
L 301.698482 360.403128 
L 301.966645 360.345705 
L 302.234809 360.408898 
L 302.502972 360.355144 
L 302.771135 360.423383 
L 303.843789 360.318434 
L 304.111952 360.395726 
L 304.380116 360.315945 
L 304.648279 360.39813 
L 304.916443 360.326557 
L 305.184606 360.408853 
L 305.452769 360.342389 
L 305.720933 360.391075 
L 306.25726 360.300592 
L 306.525423 360.360826 
L 306.793586 360.300647 
L 307.06175 360.359862 
L 307.329913 360.303636 
L 307.598077 360.369207 
L 307.86624 360.277482 
L 308.134403 360.35084 
L 308.938894 360.293279 
L 309.207057 360.371341 
L 309.47522 360.295069 
L 310.279711 360.351781 
L 310.547874 360.279053 
L 311.352364 360.365254 
L 311.620528 360.301212 
L 311.888691 360.36618 
L 312.156854 360.269236 
L 312.425018 360.333374 
L 312.693181 360.279146 
L 312.961345 360.349947 
L 313.229508 360.262915 
L 313.497671 360.335655 
L 313.765835 360.252905 
L 314.033998 360.332057 
L 314.302162 360.254804 
L 314.570325 360.337327 
L 314.838488 360.263885 
L 315.106652 360.309431 
L 315.374815 360.241719 
L 315.642978 360.33491 
L 315.911142 360.266495 
L 316.179305 360.326773 
L 316.983795 360.229567 
L 317.520122 360.244898 
L 318.324612 360.302026 
L 318.592776 360.218658 
L 319.397266 360.266845 
L 319.665429 360.193875 
L 320.201756 360.329799 
L 320.46992 360.267485 
L 320.738083 360.325916 
L 321.006246 360.259056 
L 321.27441 360.321487 
L 321.542573 360.223168 
L 321.810737 360.291909 
L 322.0789 360.237077 
L 322.347063 360.306255 
L 322.615227 360.221414 
L 322.88339 360.296668 
L 323.151554 360.212464 
L 323.419717 360.290536 
L 323.68788 360.213209 
L 324.492371 360.272472 
L 324.760534 360.205185 
L 325.028697 360.261702 
L 325.296861 360.199325 
L 325.565024 360.258921 
L 325.833188 360.19548 
L 326.101351 360.26226 
L 326.905841 360.190516 
L 327.174005 360.261156 
L 327.442168 360.17498 
L 327.978495 360.296993 
L 328.782985 360.235875 
L 329.587475 360.314033 
L 329.855639 360.253694 
L 330.660129 360.317873 
L 331.196456 360.176098 
L 331.464619 360.251869 
L 332.269109 360.20679 
L 333.073599 360.263883 
L 333.341763 360.193325 
L 334.146253 360.282607 
L 334.414416 360.223116 
L 334.68258 360.286942 
L 334.950743 360.233184 
L 335.218907 360.301588 
L 336.023397 360.242137 
L 336.29156 360.320854 
L 336.827887 360.206508 
L 337.632377 360.277162 
L 338.705031 360.188739 
L 338.973194 360.254561 
L 339.241357 360.205394 
L 339.509521 360.275291 
L 339.777684 360.227036 
L 340.045848 360.304225 
L 341.118501 360.229665 
L 341.386665 360.317735 
L 341.922991 360.225795 
L 342.191155 360.282804 
L 342.459318 360.225846 
L 342.727482 360.321994 
L 343.263808 360.219445 
L 343.531972 360.292527 
L 343.800135 360.244845 
L 344.068299 360.318831 
L 344.604625 360.236566 
L 344.872789 360.325708 
L 346.213606 360.223228 
L 346.481769 360.324496 
L 347.018096 360.303518 
L 351.845037 360.308795 
L 354.258508 360.341066 
L 358.280959 360.390935 
L 359.085449 360.377355 
L 363.644227 360.429885 
L 364.71688 360.419716 
L 366.594024 360.466107 
L 368.739331 360.477019 
L 370.348312 360.500859 
L 372.225455 360.528663 
L 376.784233 360.579119 
L 386.974442 360.755529 
L 389.119749 360.822213 
L 390.996893 360.82775 
L 399.309959 361.030483 
L 400.114449 361.024439 
L 403.33241 361.104736 
L 409.500168 361.263945 
L 410.840985 361.290463 
L 415.399762 361.402565 
L 416.204253 361.461219 
L 417.008743 361.461565 
L 418.885887 361.533323 
L 424.249155 361.677257 
L 458.305906 363.005676 
L 458.305906 363.005676 
" clip-path="url(#p1ae1e8b22f)" style="fill: none; stroke: #ff0000; stroke-width: 2; stroke-linecap: square"/>
   </g>
   <g id="line2d_142">
    <path d="M 72.418777 584.14234 
L 106.743692 584.143529 
L 134.900848 584.142591 
L 241.629881 584.143096 
L 264.960096 584.142536 
L 292.84909 584.142889 
L 342.459318 584.141898 
L 362.571573 584.142479 
L 458.305906 584.142608 
L 458.305906 584.142608 
" clip-path="url(#p1ae1e8b22f)" style="fill: none; stroke: #0000ff; stroke-width: 2; stroke-linecap: square"/>
   </g>
   <g id="line2d_143">
    <path d="M 72.418777 385.523991 
L 73.223267 385.577823 
L 76.441228 385.609878 
L 76.977554 385.54745 
L 77.513881 385.59149 
L 77.782045 385.520752 
L 78.318371 385.563048 
L 82.072659 385.583671 
L 82.608986 385.550932 
L 90.653888 385.584333 
L 90.922051 385.505659 
L 91.190215 385.579056 
L 91.458378 385.4888 
L 92.262868 385.604152 
L 92.799195 385.534849 
L 93.603685 385.588983 
L 94.676339 385.558833 
L 95.480829 385.620838 
L 96.017156 385.608789 
L 96.553483 385.566191 
L 97.626136 385.582496 
L 98.430626 385.523697 
L 99.50328 385.631569 
L 100.039607 385.606838 
L 104.330221 385.538048 
L 105.134711 385.632079 
L 105.671038 385.519483 
L 108.352672 385.537148 
L 108.620835 385.629749 
L 109.425326 385.549305 
L 110.497979 385.616327 
L 110.766143 385.551875 
L 111.302469 385.562174 
L 111.838796 385.561558 
L 112.375123 385.536114 
L 112.91145 385.516411 
L 113.984103 385.55344 
L 114.52043 385.607038 
L 115.056757 385.511318 
L 116.397574 385.573583 
L 118.811045 385.58147 
L 119.883698 385.584485 
L 120.151862 385.518084 
L 120.420025 385.616561 
L 120.956352 385.572785 
L 126.587783 385.562463 
L 127.660437 385.553689 
L 128.196763 385.606238 
L 130.073907 385.542849 
L 130.878397 385.634834 
L 131.682888 385.556196 
L 132.487378 385.626356 
L 133.291868 385.620131 
L 134.096358 385.617343 
L 134.364522 385.544454 
L 134.632685 385.604765 
L 135.169012 385.554394 
L 141.604933 385.588034 
L 141.873097 385.516439 
L 142.409424 385.645542 
L 147.236365 385.564813 
L 148.040855 385.611661 
L 148.845345 385.550185 
L 149.113508 385.647059 
L 149.649835 385.58342 
L 151.258816 385.576474 
L 151.795142 385.628507 
L 153.404123 385.56308 
L 153.672286 385.620355 
L 154.208613 385.547085 
L 155.817593 385.568519 
L 156.35392 385.583016 
L 157.15841 385.633438 
L 158.231064 385.5947 
L 160.644535 385.51959 
L 161.180861 385.548159 
L 164.130659 385.590134 
L 164.398822 385.533392 
L 164.666986 385.624937 
L 165.203312 385.590156 
L 165.739639 385.5311 
L 168.689437 385.586774 
L 169.493927 385.548891 
L 169.76209 385.613031 
L 170.298417 385.528791 
L 170.834744 385.534922 
L 174.857195 385.550232 
L 175.125358 385.613952 
L 175.393521 385.526166 
L 176.198012 385.600361 
L 178.343319 385.591298 
L 178.879646 385.572859 
L 179.415972 385.607701 
L 179.952299 385.526702 
L 180.488626 385.598178 
L 182.097606 385.578947 
L 182.633933 385.535758 
L 184.242914 385.582398 
L 185.315567 385.573103 
L 185.583731 385.639973 
L 185.851894 385.565208 
L 186.120057 385.632969 
L 186.656384 385.574755 
L 187.460874 385.532808 
L 189.338018 385.566681 
L 190.142508 385.567976 
L 190.410672 385.634708 
L 190.678835 385.554883 
L 190.946999 385.623527 
L 191.483325 385.563344 
L 192.824142 385.555008 
L 193.360469 385.547086 
L 193.896796 385.595254 
L 194.701286 385.613733 
L 195.77394 385.551435 
L 196.042103 385.584538 
L 196.310266 385.503173 
L 197.114757 385.636709 
L 197.651083 385.545258 
L 198.9919 385.592075 
L 200.600881 385.549849 
L 200.869044 385.637809 
L 201.405371 385.513165 
L 201.673534 385.601394 
L 202.478025 385.527169 
L 203.282515 385.615748 
L 203.818842 385.555386 
L 204.623332 385.605744 
L 222.322116 385.588849 
L 223.126606 385.610654 
L 235.998449 385.517309 
L 236.534776 385.590384 
L 238.948247 385.515651 
L 239.21641 385.612822 
L 240.0209 385.587049 
L 240.825391 385.569991 
L 241.898044 385.495051 
L 242.434371 385.53217 
L 243.507025 385.618159 
L 244.043351 385.588742 
L 244.579678 385.571391 
L 245.116005 385.555465 
L 249.138456 385.594126 
L 249.674783 385.504477 
L 251.0156 385.542065 
L 256.647031 385.518049 
L 256.915194 385.608294 
L 257.719685 385.494808 
L 257.987848 385.590123 
L 258.524175 385.537179 
L 259.060502 385.555504 
L 260.133155 385.503971 
L 260.669482 385.540011 
L 261.473972 385.622357 
L 262.010299 385.527536 
L 262.814789 385.55098 
L 264.42377 385.531307 
L 265.22826 385.596167 
L 265.496423 385.508967 
L 266.03275 385.593322 
L 267.105404 385.530255 
L 268.178057 385.559101 
L 268.714384 385.530211 
L 269.250711 385.57725 
L 269.787037 385.521117 
L 270.323364 385.578863 
L 270.859691 385.534624 
L 273.273162 385.617352 
L 273.541325 385.504166 
L 275.150305 385.597468 
L 292.312763 385.527696 
L 292.84909 385.555477 
L 293.921743 385.527694 
L 294.994397 385.49522 
L 295.26256 385.576546 
L 295.798887 385.502918 
L 296.335214 385.543336 
L 296.871541 385.549611 
L 297.139704 385.503844 
L 297.407867 385.601708 
L 298.212358 385.58723 
L 299.285011 385.518775 
L 299.553175 385.597171 
L 300.089501 385.506469 
L 300.893992 385.582493 
L 301.430318 385.474045 
L 301.698482 385.566357 
L 302.502972 385.530073 
L 303.039299 385.548449 
L 303.307462 385.47504 
L 304.111952 385.578449 
L 304.380116 385.509367 
L 304.648279 385.584463 
L 304.916443 385.522672 
L 305.184606 385.597854 
L 305.989096 385.529653 
L 306.793586 385.512631 
L 307.598077 385.578806 
L 307.86624 385.498782 
L 308.402567 385.521671 
L 309.207057 385.590531 
L 309.743384 385.565929 
L 310.547874 385.51597 
L 311.352364 385.597056 
L 311.620528 385.541561 
L 311.888691 385.600674 
L 312.156854 385.515683 
L 312.961345 385.591524 
L 313.229508 385.515312 
L 313.497671 385.581294 
L 313.765835 385.508885 
L 314.033998 385.580546 
L 314.302162 385.513005 
L 314.570325 385.58765 
L 315.374815 385.505933 
L 315.642978 385.590031 
L 315.911142 385.53031 
L 316.447469 385.528757 
L 317.788286 385.54549 
L 318.592776 385.497252 
L 319.397266 385.542507 
L 319.665429 385.4784 
L 320.201756 385.600818 
L 321.006246 385.540059 
L 321.27441 385.596203 
L 321.542573 385.509287 
L 322.347063 385.585095 
L 322.615227 385.510125 
L 322.88339 385.577621 
L 323.151554 385.503209 
L 323.419717 385.573202 
L 323.956044 385.545679 
L 324.760534 385.49947 
L 325.565024 385.54822 
L 325.833188 385.492209 
L 326.369514 385.505454 
L 327.174005 385.55186 
L 327.442168 385.475356 
L 327.978495 385.584059 
L 328.782985 385.530086 
L 329.587475 385.599775 
L 330.391965 385.545494 
L 330.660129 385.603117 
L 331.196456 385.476867 
L 331.732782 385.504528 
L 332.537273 385.541041 
L 333.341763 385.490655 
L 334.146253 385.569182 
L 334.68258 385.572302 
L 335.218907 385.584571 
L 336.023397 385.530343 
L 336.29156 385.599874 
L 336.827887 385.497231 
L 337.632377 385.558232 
L 339.241357 385.490529 
L 340.045848 385.576146 
L 341.118501 385.506676 
L 341.386665 385.584163 
L 341.922991 385.500695 
L 342.727482 385.583295 
L 343.531972 385.553959 
L 344.068299 385.575208 
L 344.604625 385.49996 
L 345.140952 385.546224 
L 345.409116 385.484928 
L 345.945442 385.540141 
L 346.213606 385.480995 
L 346.481769 385.569847 
L 347.018096 385.548703 
L 352.917691 385.519533 
L 357.208305 385.52351 
L 368.203004 385.543401 
L 369.811985 385.524786 
L 373.029946 385.546508 
L 374.907089 385.530786 
L 376.247906 385.524744 
L 379.465867 385.540637 
L 415.399762 385.517553 
L 416.204253 385.549739 
L 417.008743 385.529259 
L 419.15405 385.539106 
L 429.344259 385.540912 
L 434.439364 385.546261 
L 436.048344 385.545626 
L 440.607122 385.532308 
L 443.288756 385.527085 
L 451.065494 385.537858 
L 456.965089 385.537093 
L 458.305906 385.539347 
L 458.305906 385.539347 
" clip-path="url(#p1ae1e8b22f)" style="fill: none; stroke: #008000; stroke-width: 2; stroke-linecap: square"/>
   </g>
   <g id="legend_2">
    <g id="patch_6">
     <path d="M 55.221423 357.439851 
L 475.771423 357.439851 
Q 478.771423 357.439851 478.771423 354.439851 
L 478.771423 300.939851 
Q 478.771423 297.939851 475.771423 297.939851 
L 55.221423 297.939851 
Q 52.221423 297.939851 52.221423 300.939851 
L 52.221423 354.439851 
Q 52.221423 357.439851 55.221423 357.439851 
z
" style="fill: #ffffff; opacity: 0.8; stroke: #cccccc; stroke-linejoin: miter"/>
    </g>
    <g id="line2d_144">
     <path d="M 58.221423 313.689851 
L 69.471423 313.689851 
L 80.721423 313.689851 
" style="fill: none; stroke: #ff0000; stroke-width: 2; stroke-linecap: square"/>
    </g>
    <g id="text_25">
     <!-- $|Δ\mathbf{r}|/R_E$ ($|Δ\mathbf{r}|_{\rm{max}} = 1671.7$ [km]) -->
     <g transform="translate(88.221423 318.939851) scale(0.2 -0.2)">
      <defs>
       <path id="Cmsy10-6a" d="M 763 -1484 
L 763 4684 
Q 763 4734 800 4767 
Q 838 4800 891 4800 
Q 938 4800 978 4767 
Q 1019 4734 1019 4684 
L 1019 -1484 
Q 1019 -1534 978 -1567 
Q 938 -1600 891 -1600 
Q 838 -1600 800 -1567 
Q 763 -1534 763 -1484 
z
" transform="scale(0.015625)"/>
       <path id="STIXGeneral-Regular-394" d="M 4320 0 
L 307 0 
L 2221 4314 
L 2349 4314 
L 4320 0 
z
M 3354 589 
L 2118 3405 
L 870 589 
L 3354 589 
z
" transform="scale(0.015625)"/>
       <path id="Cmb10-72" d="M 91 0 
L 91 325 
L 531 325 
L 531 2322 
Q 531 2503 91 2503 
L 91 2828 
L 1178 2881 
L 1178 2356 
Q 1269 2594 1436 2737 
Q 1603 2881 1838 2881 
Q 2006 2881 2173 2822 
Q 2341 2763 2450 2641 
Q 2559 2519 2559 2344 
Q 2559 2178 2443 2059 
Q 2328 1941 2156 1941 
Q 1984 1941 1868 2059 
Q 1753 2178 1753 2344 
Q 1753 2513 1856 2625 
L 1838 2625 
Q 1488 2625 1367 2248 
Q 1247 1872 1247 1416 
L 1247 325 
L 1806 325 
L 1806 0 
L 91 0 
z
" transform="scale(0.015625)"/>
       <path id="Cmmi10-3d" d="M 359 -1472 
Q 359 -1453 366 -1447 
L 2591 4722 
Q 2603 4759 2634 4779 
Q 2666 4800 2706 4800 
Q 2763 4800 2798 4765 
Q 2834 4731 2834 4672 
L 2834 4647 
L 609 -1522 
Q 572 -1600 488 -1600 
Q 434 -1600 396 -1562 
Q 359 -1525 359 -1472 
z
" transform="scale(0.015625)"/>
       <path id="TimesNewRomanPSMT-20" transform="scale(0.015625)"/>
       <path id="TimesNewRomanPSMT-28" d="M 1988 -1253 
L 1988 -1369 
Q 1516 -1131 1200 -813 
Q 750 -359 506 256 
Q 263 872 263 1534 
Q 263 2503 741 3301 
Q 1219 4100 1988 4444 
L 1988 4313 
Q 1603 4100 1356 3731 
Q 1109 3363 987 2797 
Q 866 2231 866 1616 
Q 866 947 969 400 
Q 1050 -31 1165 -292 
Q 1281 -553 1476 -793 
Q 1672 -1034 1988 -1253 
z
" transform="scale(0.015625)"/>
       <path id="Cmr10-6d" d="M 191 0 
L 191 225 
Q 409 225 550 259 
Q 691 294 691 428 
L 691 2175 
Q 691 2347 639 2423 
Q 588 2500 491 2517 
Q 394 2534 191 2534 
L 191 2759 
L 1119 2828 
L 1119 2203 
Q 1247 2478 1498 2653 
Q 1750 2828 2047 2828 
Q 2784 2828 2913 2228 
Q 3041 2497 3287 2662 
Q 3534 2828 3828 2828 
Q 4119 2828 4317 2734 
Q 4516 2641 4616 2448 
Q 4716 2256 4716 1966 
L 4716 428 
Q 4716 294 4858 259 
Q 5000 225 5216 225 
L 5216 0 
L 3750 0 
L 3750 225 
Q 3969 225 4109 259 
Q 4250 294 4250 428 
L 4250 1947 
Q 4250 2269 4159 2466 
Q 4069 2663 3788 2663 
Q 3419 2663 3178 2366 
Q 2938 2069 2938 1691 
L 2938 428 
Q 2938 294 3078 259 
Q 3219 225 3438 225 
L 3438 0 
L 1972 0 
L 1972 225 
Q 2191 225 2331 259 
Q 2472 294 2472 428 
L 2472 1947 
Q 2472 2259 2381 2461 
Q 2291 2663 2009 2663 
Q 1638 2663 1398 2366 
Q 1159 2069 1159 1691 
L 1159 428 
Q 1159 294 1300 259 
Q 1441 225 1656 225 
L 1656 0 
L 191 0 
z
" transform="scale(0.015625)"/>
       <path id="Cmr10-61" d="M 256 628 
Q 256 1009 556 1248 
Q 856 1488 1276 1586 
Q 1697 1684 2075 1684 
L 2075 1947 
Q 2075 2131 1994 2304 
Q 1913 2478 1759 2589 
Q 1606 2700 1422 2700 
Q 997 2700 775 2509 
Q 897 2509 976 2417 
Q 1056 2325 1056 2203 
Q 1056 2075 965 1984 
Q 875 1894 750 1894 
Q 622 1894 531 1984 
Q 441 2075 441 2203 
Q 441 2541 747 2705 
Q 1053 2869 1422 2869 
Q 1681 2869 1943 2758 
Q 2206 2647 2373 2440 
Q 2541 2234 2541 1959 
L 2541 519 
Q 2541 394 2594 289 
Q 2647 184 2759 184 
Q 2866 184 2917 290 
Q 2969 397 2969 519 
L 2969 928 
L 3156 928 
L 3156 519 
Q 3156 375 3081 245 
Q 3006 116 2879 39 
Q 2753 -38 2606 -38 
Q 2419 -38 2283 107 
Q 2147 253 2131 453 
Q 2013 213 1781 70 
Q 1550 -72 1288 -72 
Q 1044 -72 808 0 
Q 572 72 414 226 
Q 256 381 256 628 
z
M 775 628 
Q 775 403 940 250 
Q 1106 97 1331 97 
Q 1538 97 1706 200 
Q 1875 303 1975 481 
Q 2075 659 2075 856 
L 2075 1522 
Q 1784 1522 1479 1426 
Q 1175 1331 975 1128 
Q 775 925 775 628 
z
" transform="scale(0.015625)"/>
       <path id="Cmr10-78" d="M 78 0 
L 78 225 
Q 322 225 537 320 
Q 753 416 903 603 
L 1484 1344 
L 728 2328 
Q 616 2469 483 2501 
Q 350 2534 109 2534 
L 109 2759 
L 1441 2759 
L 1441 2534 
Q 1356 2534 1282 2496 
Q 1209 2459 1209 2388 
Q 1209 2363 1228 2328 
L 1741 1663 
L 2125 2156 
Q 2203 2250 2203 2344 
Q 2203 2422 2151 2478 
Q 2100 2534 2016 2534 
L 2016 2759 
L 3194 2759 
L 3194 2534 
Q 2947 2534 2730 2439 
Q 2513 2344 2363 2156 
L 1856 1509 
L 2675 428 
Q 2797 288 2928 256 
Q 3059 225 3303 225 
L 3303 0 
L 1972 0 
L 1972 225 
Q 2050 225 2122 262 
Q 2194 300 2194 372 
Q 2194 400 2175 428 
L 1600 1191 
L 1141 603 
Q 1069 522 1069 416 
Q 1069 338 1122 281 
Q 1175 225 1247 225 
L 1247 0 
L 78 0 
z
" transform="scale(0.015625)"/>
       <path id="Cmr10-3d" d="M 481 850 
Q 428 850 393 890 
Q 359 931 359 978 
Q 359 1031 393 1068 
Q 428 1106 481 1106 
L 4500 1106 
Q 4547 1106 4581 1068 
Q 4616 1031 4616 978 
Q 4616 931 4581 890 
Q 4547 850 4500 850 
L 481 850 
z
M 481 2094 
Q 428 2094 393 2131 
Q 359 2169 359 2222 
Q 359 2269 393 2309 
Q 428 2350 481 2350 
L 4500 2350 
Q 4547 2350 4581 2309 
Q 4616 2269 4616 2222 
Q 4616 2169 4581 2131 
Q 4547 2094 4500 2094 
L 481 2094 
z
" transform="scale(0.015625)"/>
       <path id="Cmr10-31" d="M 594 0 
L 594 225 
Q 1394 225 1394 428 
L 1394 3788 
Q 1063 3628 556 3628 
L 556 3853 
Q 1341 3853 1741 4263 
L 1831 4263 
Q 1853 4263 1873 4245 
Q 1894 4228 1894 4206 
L 1894 428 
Q 1894 225 2694 225 
L 2694 0 
L 594 0 
z
" transform="scale(0.015625)"/>
       <path id="Cmr10-36" d="M 1600 -141 
Q 1203 -141 937 70 
Q 672 281 526 617 
Q 381 953 325 1322 
Q 269 1691 269 2069 
Q 269 2575 466 3084 
Q 663 3594 1045 3928 
Q 1428 4263 1953 4263 
Q 2172 4263 2361 4180 
Q 2550 4097 2658 3936 
Q 2766 3775 2766 3547 
Q 2766 3416 2677 3327 
Q 2588 3238 2456 3238 
Q 2331 3238 2240 3328 
Q 2150 3419 2150 3547 
Q 2150 3672 2240 3762 
Q 2331 3853 2456 3853 
L 2491 3853 
Q 2409 3969 2261 4023 
Q 2113 4078 1953 4078 
Q 1759 4078 1595 3993 
Q 1431 3909 1300 3765 
Q 1169 3622 1081 3448 
Q 994 3275 945 3053 
Q 897 2831 884 2637 
Q 872 2444 872 2150 
Q 984 2413 1190 2580 
Q 1397 2747 1656 2747 
Q 1941 2747 2175 2631 
Q 2409 2516 2578 2311 
Q 2747 2106 2836 1843 
Q 2925 1581 2925 1313 
Q 2925 938 2758 598 
Q 2591 259 2287 59 
Q 1984 -141 1600 -141 
z
M 1600 63 
Q 1847 63 1997 175 
Q 2147 288 2217 473 
Q 2288 659 2305 848 
Q 2322 1038 2322 1313 
Q 2322 1675 2287 1931 
Q 2253 2188 2100 2383 
Q 1947 2578 1631 2578 
Q 1372 2578 1205 2403 
Q 1038 2228 961 1961 
Q 884 1694 884 1447 
Q 884 1363 891 1319 
Q 891 1309 889 1303 
Q 888 1297 884 1288 
Q 884 1013 940 731 
Q 997 450 1156 256 
Q 1316 63 1600 63 
z
" transform="scale(0.015625)"/>
       <path id="Cmr10-37" d="M 1113 166 
Q 1113 522 1175 862 
Q 1238 1203 1358 1536 
Q 1478 1869 1648 2189 
Q 1819 2509 2022 2791 
L 2606 3603 
L 1875 3603 
Q 738 3603 703 3572 
Q 619 3469 544 2981 
L 359 2981 
L 569 4325 
L 756 4325 
L 756 4306 
Q 756 4191 1147 4156 
Q 1538 4122 1913 4122 
L 3103 4122 
L 3103 3956 
Q 3103 3950 3101 3947 
Q 3100 3944 3097 3938 
L 2216 2700 
Q 1891 2219 1809 1631 
Q 1728 1044 1728 166 
Q 1728 41 1637 -50 
Q 1547 -141 1422 -141 
Q 1294 -141 1203 -50 
Q 1113 41 1113 166 
z
" transform="scale(0.015625)"/>
       <path id="Cmmi10-3a" d="M 538 353 
Q 538 497 644 600 
Q 750 703 891 703 
Q 978 703 1062 656 
Q 1147 609 1194 525 
Q 1241 441 1241 353 
Q 1241 213 1137 106 
Q 1034 0 891 0 
Q 750 0 644 106 
Q 538 213 538 353 
z
" transform="scale(0.015625)"/>
       <path id="TimesNewRomanPSMT-5b" d="M 1900 -1269 
L 525 -1269 
L 525 4334 
L 1900 4334 
L 1900 4088 
L 994 4088 
L 994 -1025 
L 1900 -1025 
L 1900 -1269 
z
" transform="scale(0.015625)"/>
       <path id="TimesNewRomanPSMT-6b" d="M 1047 4444 
L 1047 1594 
L 1775 2259 
Q 2006 2472 2044 2528 
Q 2069 2566 2069 2603 
Q 2069 2666 2017 2711 
Q 1966 2756 1847 2763 
L 1847 2863 
L 3091 2863 
L 3091 2763 
Q 2834 2756 2664 2684 
Q 2494 2613 2291 2428 
L 1556 1750 
L 2291 822 
Q 2597 438 2703 334 
Q 2853 188 2966 144 
Q 3044 113 3238 113 
L 3238 0 
L 1847 0 
L 1847 113 
Q 1966 116 2008 148 
Q 2050 181 2050 241 
Q 2050 313 1925 472 
L 1047 1594 
L 1047 644 
Q 1047 366 1086 278 
Q 1125 191 1197 153 
Q 1269 116 1509 113 
L 1509 0 
L 53 0 
L 53 113 
Q 272 113 381 166 
Q 447 200 481 272 
Q 528 375 528 628 
L 528 3234 
Q 528 3731 506 3842 
Q 484 3953 434 3995 
Q 384 4038 303 4038 
Q 238 4038 106 3984 
L 53 4094 
L 903 4444 
L 1047 4444 
z
" transform="scale(0.015625)"/>
       <path id="TimesNewRomanPSMT-6d" d="M 1050 2338 
Q 1363 2650 1419 2697 
Q 1559 2816 1721 2881 
Q 1884 2947 2044 2947 
Q 2313 2947 2506 2790 
Q 2700 2634 2766 2338 
Q 3088 2713 3309 2830 
Q 3531 2947 3766 2947 
Q 3994 2947 4170 2830 
Q 4347 2713 4450 2447 
Q 4519 2266 4519 1878 
L 4519 647 
Q 4519 378 4559 278 
Q 4591 209 4675 161 
Q 4759 113 4950 113 
L 4950 0 
L 3538 0 
L 3538 113 
L 3597 113 
Q 3781 113 3884 184 
Q 3956 234 3988 344 
Q 4000 397 4000 647 
L 4000 1878 
Q 4000 2228 3916 2372 
Q 3794 2572 3525 2572 
Q 3359 2572 3192 2489 
Q 3025 2406 2788 2181 
L 2781 2147 
L 2788 2013 
L 2788 647 
Q 2788 353 2820 281 
Q 2853 209 2943 161 
Q 3034 113 3253 113 
L 3253 0 
L 1806 0 
L 1806 113 
Q 2044 113 2133 169 
Q 2222 225 2256 338 
Q 2272 391 2272 647 
L 2272 1878 
Q 2272 2228 2169 2381 
Q 2031 2581 1784 2581 
Q 1616 2581 1450 2491 
Q 1191 2353 1050 2181 
L 1050 647 
Q 1050 366 1089 281 
Q 1128 197 1204 155 
Q 1281 113 1516 113 
L 1516 0 
L 100 0 
L 100 113 
Q 297 113 375 155 
Q 453 197 493 289 
Q 534 381 534 647 
L 534 1741 
Q 534 2213 506 2350 
Q 484 2453 437 2492 
Q 391 2531 309 2531 
Q 222 2531 100 2484 
L 53 2597 
L 916 2947 
L 1050 2947 
L 1050 2338 
z
" transform="scale(0.015625)"/>
       <path id="TimesNewRomanPSMT-5d" d="M 234 4334 
L 1609 4334 
L 1609 -1272 
L 234 -1272 
L 234 -1025 
L 1141 -1025 
L 1141 4088 
L 234 4088 
L 234 4334 
z
" transform="scale(0.015625)"/>
       <path id="TimesNewRomanPSMT-29" d="M 144 4313 
L 144 4444 
Q 619 4209 934 3891 
Q 1381 3434 1625 2820 
Q 1869 2206 1869 1541 
Q 1869 572 1392 -226 
Q 916 -1025 144 -1369 
L 144 -1253 
Q 528 -1038 776 -670 
Q 1025 -303 1145 264 
Q 1266 831 1266 1447 
Q 1266 2113 1163 2663 
Q 1084 3094 967 3353 
Q 850 3613 656 3853 
Q 463 4094 144 4313 
z
" transform="scale(0.015625)"/>
      </defs>
      <use xlink:href="#Cmsy10-6a"/>
      <use xlink:href="#STIXGeneral-Regular-394" transform="translate(27.685547 0)"/>
      <use xlink:href="#Cmb10-72" transform="translate(99.885529 0)"/>
      <use xlink:href="#Cmsy10-6a" transform="translate(142.56131 0)"/>
      <use xlink:href="#Cmmi10-3d" transform="translate(170.246857 0)"/>
      <use xlink:href="#Cmmi10-52" transform="translate(220.246857 0)"/>
      <use xlink:href="#Cmmi10-45" transform="translate(296.125763 -17.00625) scale(0.7)"/>
      <use xlink:href="#TimesNewRomanPSMT-20" transform="translate(354.148615 0)"/>
      <use xlink:href="#TimesNewRomanPSMT-28" transform="translate(379.148615 0)"/>
      <use xlink:href="#Cmsy10-6a" transform="translate(412.449396 0)"/>
      <use xlink:href="#STIXGeneral-Regular-394" transform="translate(440.134943 0)"/>
      <use xlink:href="#Cmb10-72" transform="translate(512.334924 0)"/>
      <use xlink:href="#Cmsy10-6a" transform="translate(555.010706 0)"/>
      <use xlink:href="#Cmr10-6d" transform="translate(587.160393 -17.00625) scale(0.7)"/>
      <use xlink:href="#Cmr10-61" transform="translate(645.47094 -17.00625) scale(0.7)"/>
      <use xlink:href="#Cmr10-78" transform="translate(680.47094 -17.00625) scale(0.7)"/>
      <use xlink:href="#Cmr10-3d" transform="translate(741.28676 0)"/>
      <use xlink:href="#Cmr10-31" transform="translate(836.530901 0)"/>
      <use xlink:href="#Cmr10-36" transform="translate(886.530901 0)"/>
      <use xlink:href="#Cmr10-37" transform="translate(936.530901 0)"/>
      <use xlink:href="#Cmr10-31" transform="translate(986.530901 0)"/>
      <use xlink:href="#Cmmi10-3a" transform="translate(1036.530901 0)"/>
      <use xlink:href="#Cmr10-37" transform="translate(1064.216448 0)"/>
      <use xlink:href="#TimesNewRomanPSMT-20" transform="translate(1114.216448 0)"/>
      <use xlink:href="#TimesNewRomanPSMT-5b" transform="translate(1139.216448 0)"/>
      <use xlink:href="#TimesNewRomanPSMT-6b" transform="translate(1172.517229 0)"/>
      <use xlink:href="#TimesNewRomanPSMT-6d" transform="translate(1222.517229 0)"/>
      <use xlink:href="#TimesNewRomanPSMT-5d" transform="translate(1300.300432 0)"/>
      <use xlink:href="#TimesNewRomanPSMT-29" transform="translate(1333.601213 0)"/>
     </g>
    </g>
    <g id="line2d_145">
     <path d="M 58.221423 341.189851 
L 69.471423 341.189851 
L 80.721423 341.189851 
" style="fill: none; stroke: #0000ff; stroke-width: 2; stroke-linecap: square"/>
    </g>
    <g id="text_26">
     <!-- $|Δ\mathbf{r}|/\overline{r}$  (max= 1/246) -->
     <g transform="translate(88.221423 346.439851) scale(0.2 -0.2)">
      <defs>
       <path id="TimesNewRomanPSMT-61" d="M 1822 413 
Q 1381 72 1269 19 
Q 1100 -59 909 -59 
Q 613 -59 420 144 
Q 228 347 228 678 
Q 228 888 322 1041 
Q 450 1253 767 1440 
Q 1084 1628 1822 1897 
L 1822 2009 
Q 1822 2438 1686 2597 
Q 1550 2756 1291 2756 
Q 1094 2756 978 2650 
Q 859 2544 859 2406 
L 866 2225 
Q 866 2081 792 2003 
Q 719 1925 600 1925 
Q 484 1925 411 2006 
Q 338 2088 338 2228 
Q 338 2497 613 2722 
Q 888 2947 1384 2947 
Q 1766 2947 2009 2819 
Q 2194 2722 2281 2516 
Q 2338 2381 2338 1966 
L 2338 994 
Q 2338 584 2353 492 
Q 2369 400 2405 369 
Q 2441 338 2488 338 
Q 2538 338 2575 359 
Q 2641 400 2828 588 
L 2828 413 
Q 2478 -56 2159 -56 
Q 2006 -56 1915 50 
Q 1825 156 1822 413 
z
M 1822 616 
L 1822 1706 
Q 1350 1519 1213 1441 
Q 966 1303 859 1153 
Q 753 1003 753 825 
Q 753 600 887 451 
Q 1022 303 1197 303 
Q 1434 303 1822 616 
z
" transform="scale(0.015625)"/>
       <path id="TimesNewRomanPSMT-78" d="M 84 2863 
L 1431 2863 
L 1431 2747 
Q 1303 2747 1251 2703 
Q 1200 2659 1200 2588 
Q 1200 2513 1309 2356 
Q 1344 2306 1413 2200 
L 1616 1875 
L 1850 2200 
Q 2075 2509 2075 2591 
Q 2075 2656 2022 2701 
Q 1969 2747 1850 2747 
L 1850 2863 
L 2819 2863 
L 2819 2747 
Q 2666 2738 2553 2663 
Q 2400 2556 2134 2200 
L 1744 1678 
L 2456 653 
Q 2719 275 2831 198 
Q 2944 122 3122 113 
L 3122 0 
L 1772 0 
L 1772 113 
Q 1913 113 1991 175 
Q 2050 219 2050 291 
Q 2050 363 1850 653 
L 1431 1266 
L 972 653 
Q 759 369 759 316 
Q 759 241 829 180 
Q 900 119 1041 113 
L 1041 0 
L 106 0 
L 106 113 
Q 219 128 303 191 
Q 422 281 703 653 
L 1303 1450 
L 759 2238 
Q 528 2575 401 2661 
Q 275 2747 84 2747 
L 84 2863 
z
" transform="scale(0.015625)"/>
       <path id="TimesNewRomanPSMT-3d" d="M 116 2759 
L 3488 2759 
L 3488 2503 
L 116 2503 
L 116 2759 
z
M 116 1741 
L 3488 1741 
L 3488 1484 
L 116 1484 
L 116 1741 
z
" transform="scale(0.015625)"/>
      </defs>
      <use xlink:href="#Cmsy10-6a"/>
      <use xlink:href="#STIXGeneral-Regular-394" transform="translate(27.685547 0)"/>
      <use xlink:href="#Cmb10-72" transform="translate(99.885529 0)"/>
      <use xlink:href="#Cmsy10-6a" transform="translate(142.56131 0)"/>
      <use xlink:href="#Cmmi10-3d" transform="translate(170.246857 0)"/>
      <use xlink:href="#Cmmi10-72" transform="translate(220.246857 0.5)"/>
      <use xlink:href="#TimesNewRomanPSMT-20" transform="translate(265.364044 0)"/>
      <use xlink:href="#TimesNewRomanPSMT-20" transform="translate(290.364044 0)"/>
      <use xlink:href="#TimesNewRomanPSMT-28" transform="translate(315.364044 0)"/>
      <use xlink:href="#TimesNewRomanPSMT-6d" transform="translate(348.664825 0)"/>
      <use xlink:href="#TimesNewRomanPSMT-61" transform="translate(426.448029 0)"/>
      <use xlink:href="#TimesNewRomanPSMT-78" transform="translate(470.832794 0)"/>
      <use xlink:href="#TimesNewRomanPSMT-3d" transform="translate(520.832794 0)"/>
      <use xlink:href="#TimesNewRomanPSMT-20" transform="translate(577.229279 0)"/>
      <use xlink:href="#TimesNewRomanPSMT-31" transform="translate(602.229279 0)"/>
      <use xlink:href="#TimesNewRomanPSMT-2f" transform="translate(652.229279 0)"/>
      <use xlink:href="#TimesNewRomanPSMT-32" transform="translate(680.012482 0)"/>
      <use xlink:href="#TimesNewRomanPSMT-34" transform="translate(730.012482 0)"/>
      <use xlink:href="#TimesNewRomanPSMT-36" transform="translate(780.012482 0)"/>
      <use xlink:href="#TimesNewRomanPSMT-29" transform="translate(830.012482 0)"/>
      <path d="M 220.246857 56.4375 
L 220.246857 62.6875 
L 265.364044 62.6875 
L 265.364044 56.4375 
L 220.246857 56.4375 
z
"/>
     </g>
    </g>
    <g id="line2d_146">
     <path d="M 371.371423 313.689851 
L 382.621423 313.689851 
L 393.871423 313.689851 
" style="fill: none; stroke: #008000; stroke-width: 2; stroke-linecap: square"/>
    </g>
    <g id="text_27">
     <!-- $Δθ$ [deg] -->
     <g transform="translate(401.371423 318.939851) scale(0.2 -0.2)">
      <defs>
       <path id="STIXGeneral-Italic-3b8" d="M 3162 3270 
Q 3162 2534 2925 1862 
Q 2688 1190 2304 678 
Q 1741 -70 992 -70 
Q 608 -70 390 224 
Q 173 518 173 1030 
Q 173 1997 592 2813 
Q 1011 3629 1594 4070 
Q 1952 4339 2374 4339 
Q 2733 4339 2947 4076 
Q 3162 3814 3162 3270 
z
M 941 2221 
L 2432 2221 
Q 2624 2874 2624 3533 
Q 2624 4205 2285 4205 
Q 2029 4205 1728 3814 
Q 1427 3424 1232 2992 
Q 1037 2560 941 2221 
z
M 2387 2016 
L 896 2016 
Q 710 1530 710 960 
Q 710 64 1069 64 
Q 1286 64 1510 275 
Q 1734 486 1904 806 
Q 2074 1126 2198 1440 
Q 2323 1754 2387 2016 
z
" transform="scale(0.015625)"/>
       <path id="TimesNewRomanPSMT-64" d="M 2222 322 
Q 2013 103 1813 7 
Q 1613 -88 1381 -88 
Q 913 -88 563 304 
Q 213 697 213 1313 
Q 213 1928 600 2439 
Q 988 2950 1597 2950 
Q 1975 2950 2222 2709 
L 2222 3238 
Q 2222 3728 2198 3840 
Q 2175 3953 2125 3993 
Q 2075 4034 2000 4034 
Q 1919 4034 1784 3984 
L 1744 4094 
L 2597 4444 
L 2738 4444 
L 2738 1134 
Q 2738 631 2761 520 
Q 2784 409 2836 365 
Q 2888 322 2956 322 
Q 3041 322 3181 375 
L 3216 266 
L 2366 -88 
L 2222 -88 
L 2222 322 
z
M 2222 541 
L 2222 2016 
Q 2203 2228 2109 2403 
Q 2016 2578 1861 2667 
Q 1706 2756 1559 2756 
Q 1284 2756 1069 2509 
Q 784 2184 784 1559 
Q 784 928 1059 592 
Q 1334 256 1672 256 
Q 1956 256 2222 541 
z
" transform="scale(0.015625)"/>
       <path id="TimesNewRomanPSMT-67" d="M 966 1044 
Q 703 1172 562 1401 
Q 422 1631 422 1909 
Q 422 2334 742 2640 
Q 1063 2947 1563 2947 
Q 1972 2947 2272 2747 
L 2878 2747 
Q 3013 2747 3034 2739 
Q 3056 2731 3066 2713 
Q 3084 2684 3084 2613 
Q 3084 2531 3069 2500 
Q 3059 2484 3036 2475 
Q 3013 2466 2878 2466 
L 2506 2466 
Q 2681 2241 2681 1891 
Q 2681 1491 2375 1206 
Q 2069 922 1553 922 
Q 1341 922 1119 984 
Q 981 866 932 777 
Q 884 688 884 625 
Q 884 572 936 522 
Q 988 472 1138 450 
Q 1225 438 1575 428 
Q 2219 413 2409 384 
Q 2700 344 2873 169 
Q 3047 -6 3047 -263 
Q 3047 -616 2716 -925 
Q 2228 -1381 1444 -1381 
Q 841 -1381 425 -1109 
Q 191 -953 191 -784 
Q 191 -709 225 -634 
Q 278 -519 444 -313 
Q 466 -284 763 25 
Q 600 122 533 198 
Q 466 275 466 372 
Q 466 481 555 628 
Q 644 775 966 1044 
z
M 1509 2797 
Q 1278 2797 1122 2612 
Q 966 2428 966 2047 
Q 966 1553 1178 1281 
Q 1341 1075 1591 1075 
Q 1828 1075 1981 1253 
Q 2134 1431 2134 1813 
Q 2134 2309 1919 2591 
Q 1759 2797 1509 2797 
z
M 934 0 
Q 788 -159 713 -296 
Q 638 -434 638 -550 
Q 638 -700 819 -813 
Q 1131 -1006 1722 -1006 
Q 2284 -1006 2551 -807 
Q 2819 -609 2819 -384 
Q 2819 -222 2659 -153 
Q 2497 -84 2016 -72 
Q 1313 -53 934 0 
z
" transform="scale(0.015625)"/>
      </defs>
      <use xlink:href="#STIXGeneral-Regular-394" transform="translate(0 0.5625)"/>
      <use xlink:href="#STIXGeneral-Italic-3b8" transform="translate(72.199982 0.5625)"/>
      <use xlink:href="#TimesNewRomanPSMT-20" transform="translate(120.199966 0.5625)"/>
      <use xlink:href="#TimesNewRomanPSMT-5b" transform="translate(145.199966 0.5625)"/>
      <use xlink:href="#TimesNewRomanPSMT-64" transform="translate(178.500748 0.5625)"/>
      <use xlink:href="#TimesNewRomanPSMT-65" transform="translate(228.500748 0.5625)"/>
      <use xlink:href="#TimesNewRomanPSMT-67" transform="translate(272.885513 0.5625)"/>
      <use xlink:href="#TimesNewRomanPSMT-5d" transform="translate(322.885513 0.5625)"/>
     </g>
    </g>
   </g>
  </g>
 </g>
 <defs>
  <clipPath id="p2f8ff56d70">
   <rect x="65.178365" y="4.020071" width="400.636116" height="286.434803"/>
  </clipPath>
  <clipPath id="p1ae1e8b22f">
   <rect x="65.178365" y="314.25542" width="400.636116" height="286.434803"/>
  </clipPath>
 </defs>
</svg>
