<?xml version="1.0" encoding="utf-8" standalone="no"?>
<!DOCTYPE svg PUBLIC "-//W3C//DTD SVG 1.1//EN"
  "http://www.w3.org/Graphics/SVG/1.1/DTD/svg11.dtd">
<svg xmlns:xlink="http://www.w3.org/1999/xlink" width="481.889764pt" height="646.299213pt" viewBox="0 0 481.889764 646.299213" xmlns="http://www.w3.org/2000/svg" version="1.1">
 <metadata>
  <rdf:RDF xmlns:dc="http://purl.org/dc/elements/1.1/" xmlns:cc="http://creativecommons.org/ns#" xmlns:rdf="http://www.w3.org/1999/02/22-rdf-syntax-ns#">
   <cc:Work>
    <dc:type rdf:resource="http://purl.org/dc/dcmitype/StillImage"/>
    <dc:date>2026-05-17T14:27:21.762026</dc:date>
    <dc:format>image/svg+xml</dc:format>
    <dc:creator>
     <cc:Agent>
      <dc:title>Matplotlib v3.10.9, https://matplotlib.org/</dc:title>
     </cc:Agent>
    </dc:creator>
   </cc:Work>
  </rdf:RDF>
 </metadata>
 <defs>
  <style type="text/css">*{stroke-linejoin: round; stroke-linecap: butt}</style>
 </defs>
 <g id="figure_1">
  <g id="patch_1">
   <path d="M 0 646.299213 
L 481.889764 646.299213 
L 481.889764 0 
L 0 0 
z
" style="fill: #ffffff"/>
  </g>
  <g id="axes_1">
   <g id="patch_2">
    <path d="M 65.178365 291.597933 
L 465.814481 291.597933 
L 465.814481 3.00024 
L 65.178365 3.00024 
z
" style="fill: #ffffff"/>
   </g>
   <g id="matplotlib.axis_1">
    <g id="xtick_1">
     <g id="line2d_1">
      <path d="M 72.418777 291.597933 
L 72.418777 3.00024 
" clip-path="url(#p60276c1353)" style="fill: none; stroke: #b0b0b0; stroke-width: 0.8; stroke-linecap: square"/>
     </g>
     <g id="line2d_2"/>
    </g>
    <g id="xtick_2">
     <g id="line2d_3">
      <path d="M 136.777992 291.597933 
L 136.777992 3.00024 
" clip-path="url(#p60276c1353)" style="fill: none; stroke: #b0b0b0; stroke-width: 0.8; stroke-linecap: square"/>
     </g>
     <g id="line2d_4"/>
    </g>
    <g id="xtick_3">
     <g id="line2d_5">
      <path d="M 201.137208 291.597933 
L 201.137208 3.00024 
" clip-path="url(#p60276c1353)" style="fill: none; stroke: #b0b0b0; stroke-width: 0.8; stroke-linecap: square"/>
     </g>
     <g id="line2d_6"/>
    </g>
    <g id="xtick_4">
     <g id="line2d_7">
      <path d="M 265.496423 291.597933 
L 265.496423 3.00024 
" clip-path="url(#p60276c1353)" style="fill: none; stroke: #b0b0b0; stroke-width: 0.8; stroke-linecap: square"/>
     </g>
     <g id="line2d_8"/>
    </g>
    <g id="xtick_5">
     <g id="line2d_9">
      <path d="M 329.855639 291.597933 
L 329.855639 3.00024 
" clip-path="url(#p60276c1353)" style="fill: none; stroke: #b0b0b0; stroke-width: 0.8; stroke-linecap: square"/>
     </g>
     <g id="line2d_10"/>
    </g>
    <g id="xtick_6">
     <g id="line2d_11">
      <path d="M 394.214854 291.597933 
L 394.214854 3.00024 
" clip-path="url(#p60276c1353)" style="fill: none; stroke: #b0b0b0; stroke-width: 0.8; stroke-linecap: square"/>
     </g>
     <g id="line2d_12"/>
    </g>
    <g id="xtick_7">
     <g id="line2d_13">
      <path d="M 458.574069 291.597933 
L 458.574069 3.00024 
" clip-path="url(#p60276c1353)" style="fill: none; stroke: #b0b0b0; stroke-width: 0.8; stroke-linecap: square"/>
     </g>
     <g id="line2d_14"/>
    </g>
    <g id="xtick_8">
     <g id="line2d_15">
      <path d="M 104.598384 291.597933 
L 104.598384 3.00024 
" clip-path="url(#p60276c1353)" style="fill: none; stroke-dasharray: 0.5,0.825; stroke-dashoffset: 0; stroke: #bfbfbf; stroke-width: 0.5"/>
     </g>
     <g id="line2d_16"/>
    </g>
    <g id="xtick_9">
     <g id="line2d_17">
      <path d="M 168.9576 291.597933 
L 168.9576 3.00024 
" clip-path="url(#p60276c1353)" style="fill: none; stroke-dasharray: 0.5,0.825; stroke-dashoffset: 0; stroke: #bfbfbf; stroke-width: 0.5"/>
     </g>
     <g id="line2d_18"/>
    </g>
    <g id="xtick_10">
     <g id="line2d_19">
      <path d="M 233.316815 291.597933 
L 233.316815 3.00024 
" clip-path="url(#p60276c1353)" style="fill: none; stroke-dasharray: 0.5,0.825; stroke-dashoffset: 0; stroke: #bfbfbf; stroke-width: 0.5"/>
     </g>
     <g id="line2d_20"/>
    </g>
    <g id="xtick_11">
     <g id="line2d_21">
      <path d="M 297.676031 291.597933 
L 297.676031 3.00024 
" clip-path="url(#p60276c1353)" style="fill: none; stroke-dasharray: 0.5,0.825; stroke-dashoffset: 0; stroke: #bfbfbf; stroke-width: 0.5"/>
     </g>
     <g id="line2d_22"/>
    </g>
    <g id="xtick_12">
     <g id="line2d_23">
      <path d="M 362.035246 291.597933 
L 362.035246 3.00024 
" clip-path="url(#p60276c1353)" style="fill: none; stroke-dasharray: 0.5,0.825; stroke-dashoffset: 0; stroke: #bfbfbf; stroke-width: 0.5"/>
     </g>
     <g id="line2d_24"/>
    </g>
    <g id="xtick_13">
     <g id="line2d_25">
      <path d="M 426.394462 291.597933 
L 426.394462 3.00024 
" clip-path="url(#p60276c1353)" style="fill: none; stroke-dasharray: 0.5,0.825; stroke-dashoffset: 0; stroke: #bfbfbf; stroke-width: 0.5"/>
     </g>
     <g id="line2d_26"/>
    </g>
   </g>
   <g id="matplotlib.axis_2">
    <g id="ytick_1">
     <g id="line2d_27">
      <path d="M 65.178365 281.530572 
L 465.814481 281.530572 
" clip-path="url(#p60276c1353)" style="fill: none; stroke: #b0b0b0; stroke-width: 0.8; stroke-linecap: square"/>
     </g>
     <g id="line2d_28"/>
     <g id="text_1">
      <!-- −100 -->
      <g transform="translate(20.40024 288.474322) scale(0.2 -0.2)">
       <defs>
        <path id="TimesNewRomanPSMT-2212" d="M 3484 2000 
L 116 2000 
L 116 2256 
L 3484 2256 
L 3484 2000 
z
" transform="scale(0.015625)"/>
        <path id="TimesNewRomanPSMT-31" d="M 750 3822 
L 1781 4325 
L 1884 4325 
L 1884 747 
Q 1884 391 1914 303 
Q 1944 216 2037 169 
Q 2131 122 2419 116 
L 2419 0 
L 825 0 
L 825 116 
Q 1125 122 1212 167 
Q 1300 213 1334 289 
Q 1369 366 1369 747 
L 1369 3034 
Q 1369 3497 1338 3628 
Q 1316 3728 1258 3775 
Q 1200 3822 1119 3822 
Q 1003 3822 797 3725 
L 750 3822 
z
" transform="scale(0.015625)"/>
        <path id="TimesNewRomanPSMT-30" d="M 231 2094 
Q 231 2819 450 3342 
Q 669 3866 1031 4122 
Q 1313 4325 1613 4325 
Q 2100 4325 2488 3828 
Q 2972 3213 2972 2159 
Q 2972 1422 2759 906 
Q 2547 391 2217 158 
Q 1888 -75 1581 -75 
Q 975 -75 572 641 
Q 231 1244 231 2094 
z
M 844 2016 
Q 844 1141 1059 588 
Q 1238 122 1591 122 
Q 1759 122 1940 273 
Q 2122 425 2216 781 
Q 2359 1319 2359 2297 
Q 2359 3022 2209 3506 
Q 2097 3866 1919 4016 
Q 1791 4119 1609 4119 
Q 1397 4119 1231 3928 
Q 1006 3669 925 3112 
Q 844 2556 844 2016 
z
" transform="scale(0.015625)"/>
       </defs>
       <use xlink:href="#TimesNewRomanPSMT-2212"/>
       <use xlink:href="#TimesNewRomanPSMT-31" transform="translate(56.396484 0)"/>
       <use xlink:href="#TimesNewRomanPSMT-30" transform="translate(106.396484 0)"/>
       <use xlink:href="#TimesNewRomanPSMT-30" transform="translate(156.396484 0)"/>
      </g>
     </g>
    </g>
    <g id="ytick_2">
     <g id="line2d_29">
      <path d="M 65.178365 214.414829 
L 465.814481 214.414829 
" clip-path="url(#p60276c1353)" style="fill: none; stroke: #b0b0b0; stroke-width: 0.8; stroke-linecap: square"/>
     </g>
     <g id="line2d_30"/>
     <g id="text_2">
      <!-- −50 -->
      <g transform="translate(30.40024 221.358579) scale(0.2 -0.2)">
       <defs>
        <path id="TimesNewRomanPSMT-35" d="M 2778 4238 
L 2534 3706 
L 1259 3706 
L 981 3138 
Q 1809 3016 2294 2522 
Q 2709 2097 2709 1522 
Q 2709 1188 2573 903 
Q 2438 619 2231 419 
Q 2025 219 1772 97 
Q 1413 -75 1034 -75 
Q 653 -75 479 54 
Q 306 184 306 341 
Q 306 428 378 495 
Q 450 563 559 563 
Q 641 563 702 538 
Q 763 513 909 409 
Q 1144 247 1384 247 
Q 1750 247 2026 523 
Q 2303 800 2303 1197 
Q 2303 1581 2056 1914 
Q 1809 2247 1375 2428 
Q 1034 2569 447 2591 
L 1259 4238 
L 2778 4238 
z
" transform="scale(0.015625)"/>
       </defs>
       <use xlink:href="#TimesNewRomanPSMT-2212"/>
       <use xlink:href="#TimesNewRomanPSMT-35" transform="translate(56.396484 0)"/>
       <use xlink:href="#TimesNewRomanPSMT-30" transform="translate(106.396484 0)"/>
      </g>
     </g>
    </g>
    <g id="ytick_3">
     <g id="line2d_31">
      <path d="M 65.178365 147.299086 
L 465.814481 147.299086 
" clip-path="url(#p60276c1353)" style="fill: none; stroke: #b0b0b0; stroke-width: 0.8; stroke-linecap: square"/>
     </g>
     <g id="line2d_32"/>
     <g id="text_3">
      <!-- 0 -->
      <g transform="translate(51.678365 154.242836) scale(0.2 -0.2)">
       <use xlink:href="#TimesNewRomanPSMT-30"/>
      </g>
     </g>
    </g>
    <g id="ytick_4">
     <g id="line2d_33">
      <path d="M 65.178365 80.183344 
L 465.814481 80.183344 
" clip-path="url(#p60276c1353)" style="fill: none; stroke: #b0b0b0; stroke-width: 0.8; stroke-linecap: square"/>
     </g>
     <g id="line2d_34"/>
     <g id="text_4">
      <!-- 50 -->
      <g transform="translate(41.678365 87.127094) scale(0.2 -0.2)">
       <use xlink:href="#TimesNewRomanPSMT-35"/>
       <use xlink:href="#TimesNewRomanPSMT-30" transform="translate(50 0)"/>
      </g>
     </g>
    </g>
    <g id="ytick_5">
     <g id="line2d_35">
      <path d="M 65.178365 13.067601 
L 465.814481 13.067601 
" clip-path="url(#p60276c1353)" style="fill: none; stroke: #b0b0b0; stroke-width: 0.8; stroke-linecap: square"/>
     </g>
     <g id="line2d_36"/>
     <g id="text_5">
      <!-- 100 -->
      <g transform="translate(31.678365 20.011351) scale(0.2 -0.2)">
       <use xlink:href="#TimesNewRomanPSMT-31"/>
       <use xlink:href="#TimesNewRomanPSMT-30" transform="translate(50 0)"/>
       <use xlink:href="#TimesNewRomanPSMT-30" transform="translate(100 0)"/>
      </g>
     </g>
    </g>
    <g id="ytick_6">
     <g id="line2d_37">
      <path d="M 65.178365 268.107423 
L 465.814481 268.107423 
" clip-path="url(#p60276c1353)" style="fill: none; stroke-dasharray: 0.5,0.825; stroke-dashoffset: 0; stroke: #bfbfbf; stroke-width: 0.5"/>
     </g>
     <g id="line2d_38"/>
    </g>
    <g id="ytick_7">
     <g id="line2d_39">
      <path d="M 65.178365 254.684275 
L 465.814481 254.684275 
" clip-path="url(#p60276c1353)" style="fill: none; stroke-dasharray: 0.5,0.825; stroke-dashoffset: 0; stroke: #bfbfbf; stroke-width: 0.5"/>
     </g>
     <g id="line2d_40"/>
    </g>
    <g id="ytick_8">
     <g id="line2d_41">
      <path d="M 65.178365 241.261126 
L 465.814481 241.261126 
" clip-path="url(#p60276c1353)" style="fill: none; stroke-dasharray: 0.5,0.825; stroke-dashoffset: 0; stroke: #bfbfbf; stroke-width: 0.5"/>
     </g>
     <g id="line2d_42"/>
    </g>
    <g id="ytick_9">
     <g id="line2d_43">
      <path d="M 65.178365 227.837978 
L 465.814481 227.837978 
" clip-path="url(#p60276c1353)" style="fill: none; stroke-dasharray: 0.5,0.825; stroke-dashoffset: 0; stroke: #bfbfbf; stroke-width: 0.5"/>
     </g>
     <g id="line2d_44"/>
    </g>
    <g id="ytick_10">
     <g id="line2d_45">
      <path d="M 65.178365 200.991681 
L 465.814481 200.991681 
" clip-path="url(#p60276c1353)" style="fill: none; stroke-dasharray: 0.5,0.825; stroke-dashoffset: 0; stroke: #bfbfbf; stroke-width: 0.5"/>
     </g>
     <g id="line2d_46"/>
    </g>
    <g id="ytick_11">
     <g id="line2d_47">
      <path d="M 65.178365 187.568532 
L 465.814481 187.568532 
" clip-path="url(#p60276c1353)" style="fill: none; stroke-dasharray: 0.5,0.825; stroke-dashoffset: 0; stroke: #bfbfbf; stroke-width: 0.5"/>
     </g>
     <g id="line2d_48"/>
    </g>
    <g id="ytick_12">
     <g id="line2d_49">
      <path d="M 65.178365 174.145384 
L 465.814481 174.145384 
" clip-path="url(#p60276c1353)" style="fill: none; stroke-dasharray: 0.5,0.825; stroke-dashoffset: 0; stroke: #bfbfbf; stroke-width: 0.5"/>
     </g>
     <g id="line2d_50"/>
    </g>
    <g id="ytick_13">
     <g id="line2d_51">
      <path d="M 65.178365 160.722235 
L 465.814481 160.722235 
" clip-path="url(#p60276c1353)" style="fill: none; stroke-dasharray: 0.5,0.825; stroke-dashoffset: 0; stroke: #bfbfbf; stroke-width: 0.5"/>
     </g>
     <g id="line2d_52"/>
    </g>
    <g id="ytick_14">
     <g id="line2d_53">
      <path d="M 65.178365 133.875938 
L 465.814481 133.875938 
" clip-path="url(#p60276c1353)" style="fill: none; stroke-dasharray: 0.5,0.825; stroke-dashoffset: 0; stroke: #bfbfbf; stroke-width: 0.5"/>
     </g>
     <g id="line2d_54"/>
    </g>
    <g id="ytick_15">
     <g id="line2d_55">
      <path d="M 65.178365 120.452789 
L 465.814481 120.452789 
" clip-path="url(#p60276c1353)" style="fill: none; stroke-dasharray: 0.5,0.825; stroke-dashoffset: 0; stroke: #bfbfbf; stroke-width: 0.5"/>
     </g>
     <g id="line2d_56"/>
    </g>
    <g id="ytick_16">
     <g id="line2d_57">
      <path d="M 65.178365 107.029641 
L 465.814481 107.029641 
" clip-path="url(#p60276c1353)" style="fill: none; stroke-dasharray: 0.5,0.825; stroke-dashoffset: 0; stroke: #bfbfbf; stroke-width: 0.5"/>
     </g>
     <g id="line2d_58"/>
    </g>
    <g id="ytick_17">
     <g id="line2d_59">
      <path d="M 65.178365 93.606492 
L 465.814481 93.606492 
" clip-path="url(#p60276c1353)" style="fill: none; stroke-dasharray: 0.5,0.825; stroke-dashoffset: 0; stroke: #bfbfbf; stroke-width: 0.5"/>
     </g>
     <g id="line2d_60"/>
    </g>
    <g id="ytick_18">
     <g id="line2d_61">
      <path d="M 65.178365 66.760195 
L 465.814481 66.760195 
" clip-path="url(#p60276c1353)" style="fill: none; stroke-dasharray: 0.5,0.825; stroke-dashoffset: 0; stroke: #bfbfbf; stroke-width: 0.5"/>
     </g>
     <g id="line2d_62"/>
    </g>
    <g id="ytick_19">
     <g id="line2d_63">
      <path d="M 65.178365 53.337047 
L 465.814481 53.337047 
" clip-path="url(#p60276c1353)" style="fill: none; stroke-dasharray: 0.5,0.825; stroke-dashoffset: 0; stroke: #bfbfbf; stroke-width: 0.5"/>
     </g>
     <g id="line2d_64"/>
    </g>
    <g id="ytick_20">
     <g id="line2d_65">
      <path d="M 65.178365 39.913898 
L 465.814481 39.913898 
" clip-path="url(#p60276c1353)" style="fill: none; stroke-dasharray: 0.5,0.825; stroke-dashoffset: 0; stroke: #bfbfbf; stroke-width: 0.5"/>
     </g>
     <g id="line2d_66"/>
    </g>
    <g id="ytick_21">
     <g id="line2d_67">
      <path d="M 65.178365 26.49075 
L 465.814481 26.49075 
" clip-path="url(#p60276c1353)" style="fill: none; stroke-dasharray: 0.5,0.825; stroke-dashoffset: 0; stroke: #bfbfbf; stroke-width: 0.5"/>
     </g>
     <g id="line2d_68"/>
    </g>
    <g id="text_6">
     <!-- $R_E$ -->
     <g transform="translate(3.00024 143.020961) scale(0.2 -0.2)">
      <defs>
       <path id="Cmmi10-52" d="M 313 0 
Q 250 0 250 84 
Q 253 100 262 139 
Q 272 178 289 201 
Q 306 225 331 225 
Q 722 225 878 269 
Q 959 297 997 441 
L 1875 3956 
Q 1888 4019 1888 4044 
Q 1888 4113 1813 4122 
Q 1691 4147 1350 4147 
Q 1288 4147 1288 4231 
Q 1291 4247 1300 4286 
Q 1309 4325 1326 4348 
Q 1344 4372 1369 4372 
L 3309 4372 
Q 3541 4372 3791 4319 
Q 4041 4266 4250 4152 
Q 4459 4038 4593 3848 
Q 4728 3659 4728 3406 
Q 4728 3084 4515 2831 
Q 4303 2578 3978 2408 
Q 3653 2238 3347 2169 
Q 3597 2078 3756 1879 
Q 3916 1681 3916 1422 
Q 3916 1388 3914 1370 
Q 3913 1353 3909 1331 
L 3859 763 
Q 3853 638 3847 550 
Q 3841 463 3841 409 
Q 3841 234 3892 129 
Q 3944 25 4097 25 
Q 4297 25 4448 211 
Q 4600 397 4647 616 
Q 4675 672 4709 672 
L 4769 672 
Q 4831 672 4831 588 
Q 4784 403 4682 237 
Q 4581 72 4426 -34 
Q 4272 -141 4091 -141 
Q 3716 -141 3452 26 
Q 3188 194 3188 550 
Q 3188 684 3213 788 
L 3353 1356 
Q 3378 1434 3378 1538 
Q 3378 1803 3198 1954 
Q 3019 2106 2747 2106 
L 1959 2106 
L 1538 416 
Q 1522 363 1522 325 
Q 1522 259 1600 250 
Q 1722 225 2059 225 
Q 2125 225 2125 141 
Q 2103 50 2090 25 
Q 2078 0 2016 0 
L 313 0 
z
M 1997 2272 
L 2706 2272 
Q 3403 2272 3756 2625 
Q 3919 2788 4014 3039 
Q 4109 3291 4109 3541 
Q 4109 3778 3970 3912 
Q 3831 4047 3626 4097 
Q 3422 4147 3175 4147 
L 2747 4147 
Q 2572 4147 2515 4117 
Q 2459 4088 2413 3928 
L 1997 2272 
z
" transform="scale(0.015625)"/>
       <path id="Cmmi10-45" d="M 300 0 
Q 238 0 238 84 
Q 241 100 250 139 
Q 259 178 276 201 
Q 294 225 319 225 
Q 709 225 863 269 
Q 947 297 984 441 
L 1863 3956 
Q 1875 4019 1875 4044 
Q 1875 4113 1797 4122 
Q 1678 4147 1338 4147 
Q 1275 4147 1275 4231 
Q 1278 4247 1287 4286 
Q 1297 4325 1314 4348 
Q 1331 4372 1356 4372 
L 4825 4372 
Q 4891 4372 4891 4288 
L 4738 2963 
Q 4738 2947 4714 2926 
Q 4691 2906 4672 2906 
L 4616 2906 
Q 4550 2906 4550 2988 
Q 4588 3300 4588 3450 
Q 4588 3706 4500 3848 
Q 4413 3991 4267 4053 
Q 4122 4116 3945 4131 
Q 3769 4147 3481 4147 
L 2753 4147 
Q 2578 4147 2522 4117 
Q 2466 4088 2419 3928 
L 2034 2381 
L 2534 2381 
Q 2859 2381 3025 2426 
Q 3191 2472 3287 2615 
Q 3384 2759 3463 3072 
Q 3469 3094 3486 3111 
Q 3503 3128 3525 3128 
L 3584 3128 
Q 3647 3128 3647 3047 
L 3250 1466 
Q 3238 1409 3188 1409 
L 3128 1409 
Q 3066 1409 3066 1491 
Q 3128 1747 3128 1869 
Q 3128 2056 2959 2106 
Q 2791 2156 2509 2156 
L 1978 2156 
L 1544 416 
Q 1516 338 1516 275 
Q 1516 225 1734 225 
L 2509 225 
Q 2972 225 3259 297 
Q 3547 369 3736 526 
Q 3925 684 4062 928 
Q 4200 1172 4397 1638 
Q 4409 1678 4453 1678 
L 4513 1678 
Q 4538 1678 4556 1656 
Q 4575 1634 4575 1606 
Q 4575 1594 4569 1581 
L 3909 38 
Q 3897 0 3859 0 
L 300 0 
z
" transform="scale(0.015625)"/>
      </defs>
      <use xlink:href="#Cmmi10-52" transform="translate(0 0.6875)"/>
      <use xlink:href="#Cmmi10-45" transform="translate(75.878906 -16.31875) scale(0.7)"/>
     </g>
    </g>
   </g>
   <g id="line2d_69">
    <path d="M 72.418777 223.030398 
L 124.710639 223.664022 
L 185.315567 224.182282 
L 302.771135 225.144103 
L 314.570325 225.49679 
L 321.006246 225.884509 
L 326.637678 226.451625 
L 334.146253 227.173255 
L 342.191155 227.687013 
L 353.990344 228.19897 
L 370.884638 228.699396 
L 393.1422 229.150309 
L 425.589972 229.576902 
L 458.305906 229.837101 
L 458.305906 229.837101 
" clip-path="url(#p60276c1353)" style="fill: none; stroke: #ff0000; stroke-width: 2; stroke-linecap: square"/>
   </g>
   <g id="line2d_70">
    <path d="M 72.418777 223.188134 
L 124.174313 223.808818 
L 187.460874 224.336231 
L 301.698482 225.230454 
L 314.033998 225.576487 
L 320.738083 225.962955 
L 326.369514 226.519799 
L 333.87809 227.24965 
L 341.922991 227.770111 
L 353.454018 228.276729 
L 370.348312 228.782932 
L 394.214854 229.263223 
L 426.394462 229.677273 
L 458.305906 229.925485 
L 458.305906 229.925485 
" clip-path="url(#p60276c1353)" style="fill: none; stroke-dasharray: 11.1,4.8; stroke-dashoffset: 0; stroke: #ff0000; stroke-width: 3"/>
   </g>
   <g id="line2d_71">
    <path d="M 72.418777 111.014424 
L 109.157162 112.188923 
L 148.845345 113.699359 
L 186.656384 115.381263 
L 219.908645 117.081981 
L 250.479273 118.871616 
L 275.150305 120.529539 
L 294.994397 122.071987 
L 310.011547 123.442972 
L 327.978495 125.121671 
L 333.87809 125.233677 
L 392.33771 125.739995 
L 421.299357 126.326345 
L 455.892436 127.242196 
L 458.305906 127.313843 
L 458.305906 127.313843 
" clip-path="url(#p60276c1353)" style="fill: none; stroke: #008000; stroke-width: 2; stroke-linecap: square"/>
   </g>
   <g id="line2d_72">
    <path d="M 72.418777 111.297055 
L 109.425326 112.482649 
L 146.700038 113.896896 
L 182.902097 115.489753 
L 216.690685 117.194875 
L 246.724985 118.926228 
L 272.468671 120.626526 
L 293.117253 122.204913 
L 308.938894 123.627793 
L 328.246658 125.427592 
L 334.414416 125.535254 
L 388.315259 125.978702 
L 419.15405 126.583461 
L 453.747128 127.487088 
L 458.305906 127.621709 
L 458.305906 127.621709 
" clip-path="url(#p60276c1353)" style="fill: none; stroke-dasharray: 11.1,4.8; stroke-dashoffset: 0; stroke: #008000; stroke-width: 3"/>
   </g>
   <g id="line2d_73">
    <path d="M 72.418777 133.068794 
L 138.655136 133.915516 
L 205.695985 134.99324 
L 266.03275 136.178213 
L 314.838488 137.353125 
L 327.174005 137.553793 
L 390.460566 137.628385 
L 440.875285 138.069289 
L 458.305906 138.263005 
L 458.305906 138.263005 
" clip-path="url(#p60276c1353)" style="fill: none; stroke: #0000ff; stroke-width: 2; stroke-linecap: square"/>
   </g>
   <g id="line2d_74">
    <path d="M 72.418777 133.191581 
L 138.118809 134.031817 
L 205.427822 135.113335 
L 265.764587 136.29787 
L 314.033998 137.459431 
L 326.905841 137.682097 
L 397.700978 137.811302 
L 450.797331 138.311041 
L 458.305906 138.39678 
L 458.305906 138.39678 
" clip-path="url(#p60276c1353)" style="fill: none; stroke-dasharray: 11.1,4.8; stroke-dashoffset: 0; stroke: #0000ff; stroke-width: 3"/>
   </g>
   <g id="line2d_75">
    <path d="M 72.418777 62.126835 
L 112.643286 62.29894 
L 156.890247 62.7084 
L 204.355168 63.355027 
L 268.178057 64.466647 
L 305.989096 65.064424 
L 316.983795 65.041235 
L 322.615227 64.826793 
L 327.978495 64.381482 
L 336.559724 63.692139 
L 345.945442 63.193381 
L 359.085449 62.73233 
L 376.784233 62.338518 
L 400.382612 62.040018 
L 430.416913 61.886653 
L 458.305906 61.896637 
L 458.305906 61.896637 
" clip-path="url(#p60276c1353)" style="fill: none; stroke: #000000; stroke-width: 2; stroke-linecap: square"/>
   </g>
   <g id="line2d_76">
    <path d="M 73.191087 268.510118 
L 89.216532 268.510118 
" style="fill: none; stroke: #000000; stroke-width: 2"/>
   </g>
   <g id="text_7">
    <g id="patch_3">
     <path d="M 93.222893 278.322227 
L 100.122893 278.322227 
Q 103.122893 278.322227 103.122893 275.322227 
L 103.122893 261.698008 
Q 103.122893 258.698008 100.122893 258.698008 
L 93.222893 258.698008 
Q 90.222893 258.698008 90.222893 261.698008 
L 90.222893 275.322227 
Q 90.222893 278.322227 93.222893 278.322227 
z
" style="fill: #ffffff"/>
    </g>
    <!-- $\overline{r}$ -->
    <g transform="translate(93.222893 272.113633) scale(0.15 -0.15)">
     <defs>
      <path id="Cmmi10-72" d="M 494 109 
Q 494 147 500 166 
L 978 2075 
Q 1025 2253 1025 2388 
Q 1025 2663 838 2663 
Q 638 2663 541 2423 
Q 444 2184 353 1819 
Q 353 1800 334 1789 
Q 316 1778 300 1778 
L 225 1778 
Q 203 1778 187 1801 
Q 172 1825 172 1844 
Q 241 2122 305 2315 
Q 369 2509 505 2668 
Q 641 2828 844 2828 
Q 1066 2828 1233 2700 
Q 1400 2572 1441 2363 
Q 1603 2575 1811 2701 
Q 2019 2828 2266 2828 
Q 2469 2828 2623 2709 
Q 2778 2591 2778 2388 
Q 2778 2225 2676 2104 
Q 2575 1984 2406 1984 
Q 2303 1984 2233 2048 
Q 2163 2113 2163 2216 
Q 2163 2356 2266 2467 
Q 2369 2578 2503 2578 
Q 2400 2663 2253 2663 
Q 1978 2663 1775 2467 
Q 1572 2272 1409 1972 
L 953 141 
Q 931 53 854 -9 
Q 778 -72 684 -72 
Q 606 -72 550 -22 
Q 494 28 494 109 
z
" transform="scale(0.015625)"/>
     </defs>
     <use xlink:href="#Cmmi10-72" transform="translate(0 0.5625)"/>
     <path d="M 0 56.5 
L 0 62.75 
L 45.117188 62.75 
L 45.117188 56.5 
L 0 56.5 
z
"/>
    </g>
   </g>
   <g id="legend_1">
    <g id="patch_4">
     <path d="M 63.683923 59.120032 
L 467.308923 59.120032 
Q 470.308923 59.120032 470.308923 56.120032 
L 470.308923 6.288782 
Q 470.308923 3.288782 467.308923 3.288782 
L 63.683923 3.288782 
Q 60.683923 3.288782 60.683923 6.288782 
L 60.683923 56.120032 
Q 60.683923 59.120032 63.683923 59.120032 
z
" style="fill: #ffffff; opacity: 0.8; stroke: #cccccc; stroke-linejoin: miter"/>
    </g>
    <g id="line2d_77">
     <path d="M 66.683923 17.926282 
L 77.933923 17.926282 
L 89.183923 17.926282 
" style="fill: none; stroke: #ff0000; stroke-width: 2; stroke-linecap: square"/>
    </g>
    <g id="text_8">
     <!-- SSCWeb/X -->
     <g transform="translate(96.683923 23.176282) scale(0.2 -0.2)">
      <defs>
       <path id="TimesNewRomanPSMT-53" d="M 2934 4334 
L 2934 2869 
L 2819 2869 
Q 2763 3291 2617 3541 
Q 2472 3791 2203 3937 
Q 1934 4084 1647 4084 
Q 1322 4084 1109 3886 
Q 897 3688 897 3434 
Q 897 3241 1031 3081 
Q 1225 2847 1953 2456 
Q 2547 2138 2764 1967 
Q 2981 1797 3098 1565 
Q 3216 1334 3216 1081 
Q 3216 600 2842 251 
Q 2469 -97 1881 -97 
Q 1697 -97 1534 -69 
Q 1438 -53 1133 45 
Q 828 144 747 144 
Q 669 144 623 97 
Q 578 50 556 -97 
L 441 -97 
L 441 1356 
L 556 1356 
Q 638 900 775 673 
Q 913 447 1195 297 
Q 1478 147 1816 147 
Q 2206 147 2432 353 
Q 2659 559 2659 841 
Q 2659 997 2573 1156 
Q 2488 1316 2306 1453 
Q 2184 1547 1640 1851 
Q 1097 2156 867 2337 
Q 638 2519 519 2737 
Q 400 2956 400 3219 
Q 400 3675 750 4004 
Q 1100 4334 1641 4334 
Q 1978 4334 2356 4169 
Q 2531 4091 2603 4091 
Q 2684 4091 2736 4139 
Q 2788 4188 2819 4334 
L 2934 4334 
z
" transform="scale(0.015625)"/>
       <path id="TimesNewRomanPSMT-43" d="M 3853 4334 
L 3950 2894 
L 3853 2894 
Q 3659 3541 3300 3825 
Q 2941 4109 2438 4109 
Q 2016 4109 1675 3895 
Q 1334 3681 1139 3212 
Q 944 2744 944 2047 
Q 944 1472 1128 1050 
Q 1313 628 1683 403 
Q 2053 178 2528 178 
Q 2941 178 3256 354 
Q 3572 531 3950 1056 
L 4047 994 
Q 3728 428 3303 165 
Q 2878 -97 2294 -97 
Q 1241 -97 663 684 
Q 231 1266 231 2053 
Q 231 2688 515 3219 
Q 800 3750 1298 4042 
Q 1797 4334 2388 4334 
Q 2847 4334 3294 4109 
Q 3425 4041 3481 4041 
Q 3566 4041 3628 4100 
Q 3709 4184 3744 4334 
L 3853 4334 
z
" transform="scale(0.015625)"/>
       <path id="TimesNewRomanPSMT-57" d="M 5991 4238 
L 5991 4122 
Q 5825 4122 5722 4062 
Q 5619 4003 5525 3841 
Q 5463 3731 5328 3319 
L 4147 -97 
L 4022 -97 
L 3056 2613 
L 2097 -97 
L 1984 -97 
L 725 3422 
Q 584 3816 547 3888 
Q 484 4006 376 4064 
Q 269 4122 84 4122 
L 84 4238 
L 1653 4238 
L 1653 4122 
L 1578 4122 
Q 1413 4122 1325 4047 
Q 1238 3972 1238 3866 
Q 1238 3756 1375 3363 
L 2209 984 
L 2913 3006 
L 2788 3363 
L 2688 3647 
Q 2622 3803 2541 3922 
Q 2500 3981 2441 4022 
Q 2363 4078 2284 4103 
Q 2225 4122 2097 4122 
L 2097 4238 
L 3747 4238 
L 3747 4122 
L 3634 4122 
Q 3459 4122 3378 4047 
Q 3297 3972 3297 3844 
Q 3297 3684 3438 3288 
L 4250 984 
L 5056 3319 
Q 5194 3706 5194 3856 
Q 5194 3928 5148 3990 
Q 5103 4053 5034 4078 
Q 4916 4122 4725 4122 
L 4725 4238 
L 5991 4238 
z
" transform="scale(0.015625)"/>
       <path id="TimesNewRomanPSMT-65" d="M 681 1784 
Q 678 1147 991 784 
Q 1303 422 1725 422 
Q 2006 422 2214 576 
Q 2422 731 2563 1106 
L 2659 1044 
Q 2594 616 2278 264 
Q 1963 -88 1488 -88 
Q 972 -88 605 314 
Q 238 716 238 1394 
Q 238 2128 614 2539 
Q 991 2950 1559 2950 
Q 2041 2950 2350 2633 
Q 2659 2316 2659 1784 
L 681 1784 
z
M 681 1966 
L 2006 1966 
Q 1991 2241 1941 2353 
Q 1863 2528 1708 2628 
Q 1553 2728 1384 2728 
Q 1125 2728 920 2526 
Q 716 2325 681 1966 
z
" transform="scale(0.015625)"/>
       <path id="TimesNewRomanPSMT-62" d="M 984 2369 
Q 1400 2947 1881 2947 
Q 2322 2947 2650 2570 
Q 2978 2194 2978 1541 
Q 2978 778 2472 313 
Q 2038 -88 1503 -88 
Q 1253 -88 995 3 
Q 738 94 469 275 
L 469 3241 
Q 469 3728 445 3840 
Q 422 3953 372 3993 
Q 322 4034 247 4034 
Q 159 4034 28 3984 
L -16 4094 
L 844 4444 
L 984 4444 
L 984 2369 
z
M 984 2169 
L 984 456 
Q 1144 300 1314 220 
Q 1484 141 1663 141 
Q 1947 141 2192 453 
Q 2438 766 2438 1363 
Q 2438 1913 2192 2208 
Q 1947 2503 1634 2503 
Q 1469 2503 1303 2419 
Q 1178 2356 984 2169 
z
" transform="scale(0.015625)"/>
       <path id="TimesNewRomanPSMT-2f" d="M 1794 4444 
L 259 -88 
L 9 -88 
L 1544 4444 
L 1794 4444 
z
" transform="scale(0.015625)"/>
       <path id="TimesNewRomanPSMT-58" d="M 2613 2347 
L 3522 991 
Q 3900 428 4083 279 
Q 4266 131 4547 116 
L 4547 0 
L 2728 0 
L 2728 116 
Q 2909 119 2997 153 
Q 3063 181 3105 239 
Q 3147 297 3147 356 
Q 3147 428 3119 500 
Q 3097 553 2947 775 
L 2228 1863 
L 1341 725 
Q 1200 544 1172 483 
Q 1144 422 1144 356 
Q 1144 256 1228 190 
Q 1313 125 1550 116 
L 1550 0 
L 47 0 
L 47 116 
Q 206 131 322 181 
Q 516 263 691 400 
Q 866 538 1091 822 
L 2091 2084 
L 1256 3306 
Q 916 3803 678 3958 
Q 441 4113 131 4122 
L 131 4238 
L 2091 4238 
L 2091 4122 
Q 1841 4113 1748 4041 
Q 1656 3969 1656 3881 
Q 1656 3766 1806 3544 
L 2456 2572 
L 3209 3525 
Q 3341 3694 3370 3756 
Q 3400 3819 3400 3884 
Q 3400 3950 3363 4000 
Q 3316 4066 3244 4092 
Q 3172 4119 2947 4122 
L 2947 4238 
L 4450 4238 
L 4450 4122 
Q 4272 4113 4159 4066 
Q 3991 3994 3850 3872 
Q 3709 3750 3453 3422 
L 2613 2347 
z
" transform="scale(0.015625)"/>
      </defs>
      <use xlink:href="#TimesNewRomanPSMT-53"/>
      <use xlink:href="#TimesNewRomanPSMT-53" transform="translate(55.615234 0)"/>
      <use xlink:href="#TimesNewRomanPSMT-43" transform="translate(111.230469 0)"/>
      <use xlink:href="#TimesNewRomanPSMT-57" transform="translate(177.929688 0)"/>
      <use xlink:href="#TimesNewRomanPSMT-65" transform="translate(264.314453 0)"/>
      <use xlink:href="#TimesNewRomanPSMT-62" transform="translate(308.699219 0)"/>
      <use xlink:href="#TimesNewRomanPSMT-2f" transform="translate(358.699219 0)"/>
      <use xlink:href="#TimesNewRomanPSMT-58" transform="translate(386.482422 0)"/>
     </g>
    </g>
    <g id="line2d_78">
     <path d="M 66.683923 43.591907 
L 77.933923 43.591907 
L 89.183923 43.591907 
" style="fill: none; stroke-dasharray: 11.1,4.8; stroke-dashoffset: 0; stroke: #ff0000; stroke-width: 3"/>
    </g>
    <g id="text_9">
     <!-- CDAWeb/X -->
     <g transform="translate(96.683923 48.841907) scale(0.2 -0.2)">
      <defs>
       <path id="TimesNewRomanPSMT-44" d="M 109 0 
L 109 116 
L 269 116 
Q 538 116 650 288 
Q 719 391 719 750 
L 719 3488 
Q 719 3884 631 3984 
Q 509 4122 269 4122 
L 109 4122 
L 109 4238 
L 1834 4238 
Q 2784 4238 3279 4022 
Q 3775 3806 4076 3303 
Q 4378 2800 4378 2141 
Q 4378 1256 3841 663 
Q 3238 0 2003 0 
L 109 0 
z
M 1319 306 
Q 1716 219 1984 219 
Q 2709 219 3187 728 
Q 3666 1238 3666 2109 
Q 3666 2988 3187 3494 
Q 2709 4000 1959 4000 
Q 1678 4000 1319 3909 
L 1319 306 
z
" transform="scale(0.015625)"/>
       <path id="TimesNewRomanPSMT-41" d="M 2928 1419 
L 1288 1419 
L 1000 750 
Q 894 503 894 381 
Q 894 284 986 211 
Q 1078 138 1384 116 
L 1384 0 
L 50 0 
L 50 116 
Q 316 163 394 238 
Q 553 388 747 847 
L 2238 4334 
L 2347 4334 
L 3822 809 
Q 4000 384 4145 257 
Q 4291 131 4550 116 
L 4550 0 
L 2878 0 
L 2878 116 
Q 3131 128 3220 200 
Q 3309 272 3309 375 
Q 3309 513 3184 809 
L 2928 1419 
z
M 2841 1650 
L 2122 3363 
L 1384 1650 
L 2841 1650 
z
" transform="scale(0.015625)"/>
      </defs>
      <use xlink:href="#TimesNewRomanPSMT-43"/>
      <use xlink:href="#TimesNewRomanPSMT-44" transform="translate(66.699219 0)"/>
      <use xlink:href="#TimesNewRomanPSMT-41" transform="translate(138.916016 0)"/>
      <use xlink:href="#TimesNewRomanPSMT-57" transform="translate(203.132812 0)"/>
      <use xlink:href="#TimesNewRomanPSMT-65" transform="translate(289.517578 0)"/>
      <use xlink:href="#TimesNewRomanPSMT-62" transform="translate(333.902344 0)"/>
      <use xlink:href="#TimesNewRomanPSMT-2f" transform="translate(383.902344 0)"/>
      <use xlink:href="#TimesNewRomanPSMT-58" transform="translate(411.685547 0)"/>
     </g>
    </g>
    <g id="line2d_79">
     <path d="M 203.218298 17.926282 
L 214.468298 17.926282 
L 225.718298 17.926282 
" style="fill: none; stroke: #008000; stroke-width: 2; stroke-linecap: square"/>
    </g>
    <g id="text_10">
     <!-- SSCWeb/Y -->
     <g transform="translate(233.218298 23.176282) scale(0.2 -0.2)">
      <defs>
       <path id="TimesNewRomanPSMT-59" d="M 3050 4238 
L 4528 4238 
L 4528 4122 
L 4447 4122 
Q 4366 4122 4209 4050 
Q 4053 3978 3925 3843 
Q 3797 3709 3609 3406 
L 2588 1797 
L 2588 734 
Q 2588 344 2675 247 
Q 2794 116 3050 116 
L 3188 116 
L 3188 0 
L 1388 0 
L 1388 116 
L 1538 116 
Q 1806 116 1919 278 
Q 1988 378 1988 734 
L 1988 1738 
L 825 3513 
Q 619 3825 545 3903 
Q 472 3981 241 4091 
Q 178 4122 59 4122 
L 59 4238 
L 1872 4238 
L 1872 4122 
L 1778 4122 
Q 1631 4122 1507 4053 
Q 1384 3984 1384 3847 
Q 1384 3734 1575 3441 
L 2459 2075 
L 3291 3381 
Q 3478 3675 3478 3819 
Q 3478 3906 3433 3975 
Q 3388 4044 3303 4083 
Q 3219 4122 3050 4122 
L 3050 4238 
z
" transform="scale(0.015625)"/>
      </defs>
      <use xlink:href="#TimesNewRomanPSMT-53"/>
      <use xlink:href="#TimesNewRomanPSMT-53" transform="translate(55.615234 0)"/>
      <use xlink:href="#TimesNewRomanPSMT-43" transform="translate(111.230469 0)"/>
      <use xlink:href="#TimesNewRomanPSMT-57" transform="translate(177.929688 0)"/>
      <use xlink:href="#TimesNewRomanPSMT-65" transform="translate(264.314453 0)"/>
      <use xlink:href="#TimesNewRomanPSMT-62" transform="translate(308.699219 0)"/>
      <use xlink:href="#TimesNewRomanPSMT-2f" transform="translate(358.699219 0)"/>
      <use xlink:href="#TimesNewRomanPSMT-59" transform="translate(386.482422 0)"/>
     </g>
    </g>
    <g id="line2d_80">
     <path d="M 203.218298 43.591907 
L 214.468298 43.591907 
L 225.718298 43.591907 
" style="fill: none; stroke-dasharray: 11.1,4.8; stroke-dashoffset: 0; stroke: #008000; stroke-width: 3"/>
    </g>
    <g id="text_11">
     <!-- CDAWeb/Y -->
     <g transform="translate(233.218298 48.841907) scale(0.2 -0.2)">
      <use xlink:href="#TimesNewRomanPSMT-43"/>
      <use xlink:href="#TimesNewRomanPSMT-44" transform="translate(66.699219 0)"/>
      <use xlink:href="#TimesNewRomanPSMT-41" transform="translate(138.916016 0)"/>
      <use xlink:href="#TimesNewRomanPSMT-57" transform="translate(203.132812 0)"/>
      <use xlink:href="#TimesNewRomanPSMT-65" transform="translate(289.517578 0)"/>
      <use xlink:href="#TimesNewRomanPSMT-62" transform="translate(333.902344 0)"/>
      <use xlink:href="#TimesNewRomanPSMT-2f" transform="translate(383.902344 0)"/>
      <use xlink:href="#TimesNewRomanPSMT-59" transform="translate(411.685547 0)"/>
     </g>
    </g>
    <g id="line2d_81">
     <path d="M 339.752673 17.926282 
L 351.002673 17.926282 
L 362.252673 17.926282 
" style="fill: none; stroke: #0000ff; stroke-width: 2; stroke-linecap: square"/>
    </g>
    <g id="text_12">
     <!-- SSCWeb/Z -->
     <g transform="translate(369.752673 23.176282) scale(0.2 -0.2)">
      <defs>
       <path id="TimesNewRomanPSMT-5a" d="M 3681 4238 
L 897 256 
L 2634 256 
Q 3034 256 3248 431 
Q 3463 606 3628 1141 
L 3731 1122 
L 3531 0 
L 81 0 
L 81 116 
L 2800 3984 
L 1444 3984 
Q 1106 3984 954 3911 
Q 803 3838 723 3698 
Q 644 3559 578 3178 
L 459 3178 
L 547 4238 
L 3681 4238 
z
" transform="scale(0.015625)"/>
      </defs>
      <use xlink:href="#TimesNewRomanPSMT-53"/>
      <use xlink:href="#TimesNewRomanPSMT-53" transform="translate(55.615234 0)"/>
      <use xlink:href="#TimesNewRomanPSMT-43" transform="translate(111.230469 0)"/>
      <use xlink:href="#TimesNewRomanPSMT-57" transform="translate(177.929688 0)"/>
      <use xlink:href="#TimesNewRomanPSMT-65" transform="translate(264.314453 0)"/>
      <use xlink:href="#TimesNewRomanPSMT-62" transform="translate(308.699219 0)"/>
      <use xlink:href="#TimesNewRomanPSMT-2f" transform="translate(358.699219 0)"/>
      <use xlink:href="#TimesNewRomanPSMT-5a" transform="translate(386.482422 0)"/>
     </g>
    </g>
    <g id="line2d_82">
     <path d="M 339.752673 43.591907 
L 351.002673 43.591907 
L 362.252673 43.591907 
" style="fill: none; stroke-dasharray: 11.1,4.8; stroke-dashoffset: 0; stroke: #0000ff; stroke-width: 3"/>
    </g>
    <g id="text_13">
     <!-- CDAWeb/Z -->
     <g transform="translate(369.752673 48.841907) scale(0.2 -0.2)">
      <use xlink:href="#TimesNewRomanPSMT-43"/>
      <use xlink:href="#TimesNewRomanPSMT-44" transform="translate(66.699219 0)"/>
      <use xlink:href="#TimesNewRomanPSMT-41" transform="translate(138.916016 0)"/>
      <use xlink:href="#TimesNewRomanPSMT-57" transform="translate(203.132812 0)"/>
      <use xlink:href="#TimesNewRomanPSMT-65" transform="translate(289.517578 0)"/>
      <use xlink:href="#TimesNewRomanPSMT-62" transform="translate(333.902344 0)"/>
      <use xlink:href="#TimesNewRomanPSMT-2f" transform="translate(383.902344 0)"/>
      <use xlink:href="#TimesNewRomanPSMT-5a" transform="translate(411.685547 0)"/>
     </g>
    </g>
   </g>
  </g>
  <g id="axes_2">
   <g id="patch_5">
    <path d="M 65.178365 600.690223 
L 465.814481 600.690223 
L 465.814481 312.09253 
L 65.178365 312.09253 
z
" style="fill: #ffffff"/>
   </g>
   <g id="matplotlib.axis_3">
    <g id="xtick_14">
     <g id="line2d_83">
      <path d="M 72.418777 600.690223 
L 72.418777 312.09253 
" clip-path="url(#pedaa62161d)" style="fill: none; stroke: #b0b0b0; stroke-width: 0.8; stroke-linecap: square"/>
     </g>
     <g id="line2d_84"/>
     <g id="text_14">
      <!-- 00 -->
      <g transform="translate(65.043777 618.077723) scale(0.2 -0.2)">
       <use xlink:href="#TimesNewRomanPSMT-30"/>
       <use xlink:href="#TimesNewRomanPSMT-30" transform="translate(50 0)"/>
      </g>
      <!-- 2016-09-01 -->
      <g transform="translate(65.043777 639.020848) scale(0.2 -0.2)">
       <defs>
        <path id="TimesNewRomanPSMT-32" d="M 2934 816 
L 2638 0 
L 138 0 
L 138 116 
Q 1241 1122 1691 1759 
Q 2141 2397 2141 2925 
Q 2141 3328 1894 3587 
Q 1647 3847 1303 3847 
Q 991 3847 742 3664 
Q 494 3481 375 3128 
L 259 3128 
Q 338 3706 661 4015 
Q 984 4325 1469 4325 
Q 1984 4325 2329 3994 
Q 2675 3663 2675 3213 
Q 2675 2891 2525 2569 
Q 2294 2063 1775 1497 
Q 997 647 803 472 
L 1909 472 
Q 2247 472 2383 497 
Q 2519 522 2628 598 
Q 2738 675 2819 816 
L 2934 816 
z
" transform="scale(0.015625)"/>
        <path id="TimesNewRomanPSMT-36" d="M 2869 4325 
L 2869 4209 
Q 2456 4169 2195 4045 
Q 1934 3922 1679 3669 
Q 1425 3416 1258 3105 
Q 1091 2794 978 2366 
Q 1428 2675 1881 2675 
Q 2316 2675 2634 2325 
Q 2953 1975 2953 1425 
Q 2953 894 2631 456 
Q 2244 -75 1606 -75 
Q 1172 -75 869 213 
Q 275 772 275 1663 
Q 275 2231 503 2743 
Q 731 3256 1154 3653 
Q 1578 4050 1965 4187 
Q 2353 4325 2688 4325 
L 2869 4325 
z
M 925 2138 
Q 869 1716 869 1456 
Q 869 1156 980 804 
Q 1091 453 1309 247 
Q 1469 100 1697 100 
Q 1969 100 2183 356 
Q 2397 613 2397 1088 
Q 2397 1622 2184 2012 
Q 1972 2403 1581 2403 
Q 1463 2403 1327 2353 
Q 1191 2303 925 2138 
z
" transform="scale(0.015625)"/>
        <path id="TimesNewRomanPSMT-2d" d="M 259 1672 
L 1875 1672 
L 1875 1200 
L 259 1200 
L 259 1672 
z
" transform="scale(0.015625)"/>
        <path id="TimesNewRomanPSMT-39" d="M 338 -88 
L 338 28 
Q 744 34 1094 217 
Q 1444 400 1770 856 
Q 2097 1313 2225 1859 
Q 1734 1544 1338 1544 
Q 891 1544 572 1889 
Q 253 2234 253 2806 
Q 253 3363 572 3797 
Q 956 4325 1575 4325 
Q 2097 4325 2469 3894 
Q 2925 3359 2925 2575 
Q 2925 1869 2578 1258 
Q 2231 647 1613 244 
Q 1109 -88 516 -88 
L 338 -88 
z
M 2275 2091 
Q 2331 2497 2331 2741 
Q 2331 3044 2228 3395 
Q 2125 3747 1936 3934 
Q 1747 4122 1506 4122 
Q 1228 4122 1018 3872 
Q 809 3622 809 3128 
Q 809 2469 1088 2097 
Q 1291 1828 1588 1828 
Q 1731 1828 1928 1897 
Q 2125 1966 2275 2091 
z
" transform="scale(0.015625)"/>
       </defs>
       <use xlink:href="#TimesNewRomanPSMT-32"/>
       <use xlink:href="#TimesNewRomanPSMT-30" transform="translate(50 0)"/>
       <use xlink:href="#TimesNewRomanPSMT-31" transform="translate(100 0)"/>
       <use xlink:href="#TimesNewRomanPSMT-36" transform="translate(150 0)"/>
       <use xlink:href="#TimesNewRomanPSMT-2d" transform="translate(200 0)"/>
       <use xlink:href="#TimesNewRomanPSMT-30" transform="translate(233.300781 0)"/>
       <use xlink:href="#TimesNewRomanPSMT-39" transform="translate(283.300781 0)"/>
       <use xlink:href="#TimesNewRomanPSMT-2d" transform="translate(333.300781 0)"/>
       <use xlink:href="#TimesNewRomanPSMT-30" transform="translate(366.601562 0)"/>
       <use xlink:href="#TimesNewRomanPSMT-31" transform="translate(416.601562 0)"/>
      </g>
     </g>
    </g>
    <g id="xtick_15">
     <g id="line2d_85">
      <path d="M 136.777992 600.690223 
L 136.777992 312.09253 
" clip-path="url(#pedaa62161d)" style="fill: none; stroke: #b0b0b0; stroke-width: 0.8; stroke-linecap: square"/>
     </g>
     <g id="line2d_86"/>
     <g id="text_15">
      <!-- 04 -->
      <g transform="translate(128.077992 616.272348) scale(0.174 -0.174)">
       <defs>
        <path id="TimesNewRomanPSMT-34" d="M 2978 1563 
L 2978 1119 
L 2409 1119 
L 2409 0 
L 1894 0 
L 1894 1119 
L 100 1119 
L 100 1519 
L 2066 4325 
L 2409 4325 
L 2409 1563 
L 2978 1563 
z
M 1894 1563 
L 1894 3666 
L 406 1563 
L 1894 1563 
z
" transform="scale(0.015625)"/>
       </defs>
       <use xlink:href="#TimesNewRomanPSMT-30"/>
       <use xlink:href="#TimesNewRomanPSMT-34" transform="translate(50 0)"/>
      </g>
     </g>
    </g>
    <g id="xtick_16">
     <g id="line2d_87">
      <path d="M 201.137208 600.690223 
L 201.137208 312.09253 
" clip-path="url(#pedaa62161d)" style="fill: none; stroke: #b0b0b0; stroke-width: 0.8; stroke-linecap: square"/>
     </g>
     <g id="line2d_88"/>
     <g id="text_16">
      <!-- 08 -->
      <g transform="translate(192.437208 616.272348) scale(0.174 -0.174)">
       <defs>
        <path id="TimesNewRomanPSMT-38" d="M 1228 2134 
Q 725 2547 579 2797 
Q 434 3047 434 3316 
Q 434 3728 753 4026 
Q 1072 4325 1600 4325 
Q 2113 4325 2425 4047 
Q 2738 3769 2738 3413 
Q 2738 3175 2569 2928 
Q 2400 2681 1866 2347 
Q 2416 1922 2594 1678 
Q 2831 1359 2831 1006 
Q 2831 559 2490 242 
Q 2150 -75 1597 -75 
Q 994 -75 656 303 
Q 388 606 388 966 
Q 388 1247 577 1523 
Q 766 1800 1228 2134 
z
M 1719 2469 
Q 2094 2806 2194 3001 
Q 2294 3197 2294 3444 
Q 2294 3772 2109 3958 
Q 1925 4144 1606 4144 
Q 1288 4144 1088 3959 
Q 888 3775 888 3528 
Q 888 3366 970 3203 
Q 1053 3041 1206 2894 
L 1719 2469 
z
M 1375 2016 
Q 1116 1797 991 1539 
Q 866 1281 866 981 
Q 866 578 1086 336 
Q 1306 94 1647 94 
Q 1984 94 2187 284 
Q 2391 475 2391 747 
Q 2391 972 2272 1150 
Q 2050 1481 1375 2016 
z
" transform="scale(0.015625)"/>
       </defs>
       <use xlink:href="#TimesNewRomanPSMT-30"/>
       <use xlink:href="#TimesNewRomanPSMT-38" transform="translate(50 0)"/>
      </g>
     </g>
    </g>
    <g id="xtick_17">
     <g id="line2d_89">
      <path d="M 265.496423 600.690223 
L 265.496423 312.09253 
" clip-path="url(#pedaa62161d)" style="fill: none; stroke: #b0b0b0; stroke-width: 0.8; stroke-linecap: square"/>
     </g>
     <g id="line2d_90"/>
     <g id="text_17">
      <!-- 12 -->
      <g transform="translate(256.796423 616.272348) scale(0.174 -0.174)">
       <use xlink:href="#TimesNewRomanPSMT-31"/>
       <use xlink:href="#TimesNewRomanPSMT-32" transform="translate(50 0)"/>
      </g>
     </g>
    </g>
    <g id="xtick_18">
     <g id="line2d_91">
      <path d="M 329.855639 600.690223 
L 329.855639 312.09253 
" clip-path="url(#pedaa62161d)" style="fill: none; stroke: #b0b0b0; stroke-width: 0.8; stroke-linecap: square"/>
     </g>
     <g id="line2d_92"/>
     <g id="text_18">
      <!-- 16 -->
      <g transform="translate(321.155639 616.272348) scale(0.174 -0.174)">
       <use xlink:href="#TimesNewRomanPSMT-31"/>
       <use xlink:href="#TimesNewRomanPSMT-36" transform="translate(50 0)"/>
      </g>
     </g>
    </g>
    <g id="xtick_19">
     <g id="line2d_93">
      <path d="M 394.214854 600.690223 
L 394.214854 312.09253 
" clip-path="url(#pedaa62161d)" style="fill: none; stroke: #b0b0b0; stroke-width: 0.8; stroke-linecap: square"/>
     </g>
     <g id="line2d_94"/>
     <g id="text_19">
      <!-- 20 -->
      <g transform="translate(385.514854 616.272348) scale(0.174 -0.174)">
       <use xlink:href="#TimesNewRomanPSMT-32"/>
       <use xlink:href="#TimesNewRomanPSMT-30" transform="translate(50 0)"/>
      </g>
     </g>
    </g>
    <g id="xtick_20">
     <g id="line2d_95">
      <path d="M 458.574069 600.690223 
L 458.574069 312.09253 
" clip-path="url(#pedaa62161d)" style="fill: none; stroke: #b0b0b0; stroke-width: 0.8; stroke-linecap: square"/>
     </g>
     <g id="line2d_96"/>
     <g id="text_20">
      <!-- 00 -->
      <g transform="translate(445.949069 618.077723) scale(0.2 -0.2)">
       <use xlink:href="#TimesNewRomanPSMT-30"/>
       <use xlink:href="#TimesNewRomanPSMT-30" transform="translate(50 0)"/>
      </g>
      <!-- 2016-09-02 -->
      <g transform="translate(372.630319 639.020848) scale(0.2 -0.2)">
       <use xlink:href="#TimesNewRomanPSMT-32"/>
       <use xlink:href="#TimesNewRomanPSMT-30" transform="translate(50 0)"/>
       <use xlink:href="#TimesNewRomanPSMT-31" transform="translate(100 0)"/>
       <use xlink:href="#TimesNewRomanPSMT-36" transform="translate(150 0)"/>
       <use xlink:href="#TimesNewRomanPSMT-2d" transform="translate(200 0)"/>
       <use xlink:href="#TimesNewRomanPSMT-30" transform="translate(233.300781 0)"/>
       <use xlink:href="#TimesNewRomanPSMT-39" transform="translate(283.300781 0)"/>
       <use xlink:href="#TimesNewRomanPSMT-2d" transform="translate(333.300781 0)"/>
       <use xlink:href="#TimesNewRomanPSMT-30" transform="translate(366.601562 0)"/>
       <use xlink:href="#TimesNewRomanPSMT-32" transform="translate(416.601562 0)"/>
      </g>
     </g>
    </g>
    <g id="xtick_21">
     <g id="line2d_97">
      <path d="M 104.598384 600.690223 
L 104.598384 312.09253 
" clip-path="url(#pedaa62161d)" style="fill: none; stroke-dasharray: 0.5,0.825; stroke-dashoffset: 0; stroke: #bfbfbf; stroke-width: 0.5"/>
     </g>
     <g id="line2d_98"/>
    </g>
    <g id="xtick_22">
     <g id="line2d_99">
      <path d="M 168.9576 600.690223 
L 168.9576 312.09253 
" clip-path="url(#pedaa62161d)" style="fill: none; stroke-dasharray: 0.5,0.825; stroke-dashoffset: 0; stroke: #bfbfbf; stroke-width: 0.5"/>
     </g>
     <g id="line2d_100"/>
    </g>
    <g id="xtick_23">
     <g id="line2d_101">
      <path d="M 233.316815 600.690223 
L 233.316815 312.09253 
" clip-path="url(#pedaa62161d)" style="fill: none; stroke-dasharray: 0.5,0.825; stroke-dashoffset: 0; stroke: #bfbfbf; stroke-width: 0.5"/>
     </g>
     <g id="line2d_102"/>
    </g>
    <g id="xtick_24">
     <g id="line2d_103">
      <path d="M 297.676031 600.690223 
L 297.676031 312.09253 
" clip-path="url(#pedaa62161d)" style="fill: none; stroke-dasharray: 0.5,0.825; stroke-dashoffset: 0; stroke: #bfbfbf; stroke-width: 0.5"/>
     </g>
     <g id="line2d_104"/>
    </g>
    <g id="xtick_25">
     <g id="line2d_105">
      <path d="M 362.035246 600.690223 
L 362.035246 312.09253 
" clip-path="url(#pedaa62161d)" style="fill: none; stroke-dasharray: 0.5,0.825; stroke-dashoffset: 0; stroke: #bfbfbf; stroke-width: 0.5"/>
     </g>
     <g id="line2d_106"/>
    </g>
    <g id="xtick_26">
     <g id="line2d_107">
      <path d="M 426.394462 600.690223 
L 426.394462 312.09253 
" clip-path="url(#pedaa62161d)" style="fill: none; stroke-dasharray: 0.5,0.825; stroke-dashoffset: 0; stroke: #bfbfbf; stroke-width: 0.5"/>
     </g>
     <g id="line2d_108"/>
    </g>
   </g>
   <g id="matplotlib.axis_4">
    <g id="ytick_22">
     <g id="line2d_109">
      <path d="M 65.178365 587.572146 
L 465.814481 587.572146 
" clip-path="url(#pedaa62161d)" style="fill: none; stroke: #b0b0b0; stroke-width: 0.8; stroke-linecap: square"/>
     </g>
     <g id="line2d_110"/>
     <g id="text_21">
      <!-- 0.0 -->
      <g transform="translate(36.678365 594.515896) scale(0.2 -0.2)">
       <defs>
        <path id="TimesNewRomanPSMT-2e" d="M 800 606 
Q 947 606 1047 504 
Q 1147 403 1147 259 
Q 1147 116 1045 14 
Q 944 -88 800 -88 
Q 656 -88 554 14 
Q 453 116 453 259 
Q 453 406 554 506 
Q 656 606 800 606 
z
" transform="scale(0.015625)"/>
       </defs>
       <use xlink:href="#TimesNewRomanPSMT-30"/>
       <use xlink:href="#TimesNewRomanPSMT-2e" transform="translate(50 0)"/>
       <use xlink:href="#TimesNewRomanPSMT-30" transform="translate(75 0)"/>
      </g>
     </g>
    </g>
    <g id="ytick_23">
     <g id="line2d_111">
      <path d="M 65.178365 500.118299 
L 465.814481 500.118299 
" clip-path="url(#pedaa62161d)" style="fill: none; stroke: #b0b0b0; stroke-width: 0.8; stroke-linecap: square"/>
     </g>
     <g id="line2d_112"/>
     <g id="text_22">
      <!-- 0.1 -->
      <g transform="translate(36.678365 507.062049) scale(0.2 -0.2)">
       <use xlink:href="#TimesNewRomanPSMT-30"/>
       <use xlink:href="#TimesNewRomanPSMT-2e" transform="translate(50 0)"/>
       <use xlink:href="#TimesNewRomanPSMT-31" transform="translate(75 0)"/>
      </g>
     </g>
    </g>
    <g id="ytick_24">
     <g id="line2d_113">
      <path d="M 65.178365 412.664453 
L 465.814481 412.664453 
" clip-path="url(#pedaa62161d)" style="fill: none; stroke: #b0b0b0; stroke-width: 0.8; stroke-linecap: square"/>
     </g>
     <g id="line2d_114"/>
     <g id="text_23">
      <!-- 0.2 -->
      <g transform="translate(36.678365 419.608203) scale(0.2 -0.2)">
       <use xlink:href="#TimesNewRomanPSMT-30"/>
       <use xlink:href="#TimesNewRomanPSMT-2e" transform="translate(50 0)"/>
       <use xlink:href="#TimesNewRomanPSMT-32" transform="translate(75 0)"/>
      </g>
     </g>
    </g>
    <g id="ytick_25">
     <g id="line2d_115">
      <path d="M 65.178365 325.210607 
L 465.814481 325.210607 
" clip-path="url(#pedaa62161d)" style="fill: none; stroke: #b0b0b0; stroke-width: 0.8; stroke-linecap: square"/>
     </g>
     <g id="line2d_116"/>
     <g id="text_24">
      <!-- 0.3 -->
      <g transform="translate(36.678365 332.154357) scale(0.2 -0.2)">
       <defs>
        <path id="TimesNewRomanPSMT-33" d="M 325 3431 
Q 506 3859 782 4092 
Q 1059 4325 1472 4325 
Q 1981 4325 2253 3994 
Q 2459 3747 2459 3466 
Q 2459 3003 1878 2509 
Q 2269 2356 2469 2072 
Q 2669 1788 2669 1403 
Q 2669 853 2319 450 
Q 1863 -75 997 -75 
Q 569 -75 414 31 
Q 259 138 259 259 
Q 259 350 332 419 
Q 406 488 509 488 
Q 588 488 669 463 
Q 722 447 909 348 
Q 1097 250 1169 231 
Q 1284 197 1416 197 
Q 1734 197 1970 444 
Q 2206 691 2206 1028 
Q 2206 1275 2097 1509 
Q 2016 1684 1919 1775 
Q 1784 1900 1550 2001 
Q 1316 2103 1072 2103 
L 972 2103 
L 972 2197 
Q 1219 2228 1467 2375 
Q 1716 2522 1828 2728 
Q 1941 2934 1941 3181 
Q 1941 3503 1739 3701 
Q 1538 3900 1238 3900 
Q 753 3900 428 3381 
L 325 3431 
z
" transform="scale(0.015625)"/>
       </defs>
       <use xlink:href="#TimesNewRomanPSMT-30"/>
       <use xlink:href="#TimesNewRomanPSMT-2e" transform="translate(50 0)"/>
       <use xlink:href="#TimesNewRomanPSMT-33" transform="translate(75 0)"/>
      </g>
     </g>
    </g>
    <g id="ytick_26">
     <g id="line2d_117">
      <path d="M 65.178365 570.081376 
L 465.814481 570.081376 
" clip-path="url(#pedaa62161d)" style="fill: none; stroke-dasharray: 0.5,0.825; stroke-dashoffset: 0; stroke: #bfbfbf; stroke-width: 0.5"/>
     </g>
     <g id="line2d_118"/>
    </g>
    <g id="ytick_27">
     <g id="line2d_119">
      <path d="M 65.178365 552.590607 
L 465.814481 552.590607 
" clip-path="url(#pedaa62161d)" style="fill: none; stroke-dasharray: 0.5,0.825; stroke-dashoffset: 0; stroke: #bfbfbf; stroke-width: 0.5"/>
     </g>
     <g id="line2d_120"/>
    </g>
    <g id="ytick_28">
     <g id="line2d_121">
      <path d="M 65.178365 535.099838 
L 465.814481 535.099838 
" clip-path="url(#pedaa62161d)" style="fill: none; stroke-dasharray: 0.5,0.825; stroke-dashoffset: 0; stroke: #bfbfbf; stroke-width: 0.5"/>
     </g>
     <g id="line2d_122"/>
    </g>
    <g id="ytick_29">
     <g id="line2d_123">
      <path d="M 65.178365 517.609069 
L 465.814481 517.609069 
" clip-path="url(#pedaa62161d)" style="fill: none; stroke-dasharray: 0.5,0.825; stroke-dashoffset: 0; stroke: #bfbfbf; stroke-width: 0.5"/>
     </g>
     <g id="line2d_124"/>
    </g>
    <g id="ytick_30">
     <g id="line2d_125">
      <path d="M 65.178365 482.62753 
L 465.814481 482.62753 
" clip-path="url(#pedaa62161d)" style="fill: none; stroke-dasharray: 0.5,0.825; stroke-dashoffset: 0; stroke: #bfbfbf; stroke-width: 0.5"/>
     </g>
     <g id="line2d_126"/>
    </g>
    <g id="ytick_31">
     <g id="line2d_127">
      <path d="M 65.178365 465.136761 
L 465.814481 465.136761 
" clip-path="url(#pedaa62161d)" style="fill: none; stroke-dasharray: 0.5,0.825; stroke-dashoffset: 0; stroke: #bfbfbf; stroke-width: 0.5"/>
     </g>
     <g id="line2d_128"/>
    </g>
    <g id="ytick_32">
     <g id="line2d_129">
      <path d="M 65.178365 447.645991 
L 465.814481 447.645991 
" clip-path="url(#pedaa62161d)" style="fill: none; stroke-dasharray: 0.5,0.825; stroke-dashoffset: 0; stroke: #bfbfbf; stroke-width: 0.5"/>
     </g>
     <g id="line2d_130"/>
    </g>
    <g id="ytick_33">
     <g id="line2d_131">
      <path d="M 65.178365 430.155222 
L 465.814481 430.155222 
" clip-path="url(#pedaa62161d)" style="fill: none; stroke-dasharray: 0.5,0.825; stroke-dashoffset: 0; stroke: #bfbfbf; stroke-width: 0.5"/>
     </g>
     <g id="line2d_132"/>
    </g>
    <g id="ytick_34">
     <g id="line2d_133">
      <path d="M 65.178365 395.173684 
L 465.814481 395.173684 
" clip-path="url(#pedaa62161d)" style="fill: none; stroke-dasharray: 0.5,0.825; stroke-dashoffset: 0; stroke: #bfbfbf; stroke-width: 0.5"/>
     </g>
     <g id="line2d_134"/>
    </g>
    <g id="ytick_35">
     <g id="line2d_135">
      <path d="M 65.178365 377.682914 
L 465.814481 377.682914 
" clip-path="url(#pedaa62161d)" style="fill: none; stroke-dasharray: 0.5,0.825; stroke-dashoffset: 0; stroke: #bfbfbf; stroke-width: 0.5"/>
     </g>
     <g id="line2d_136"/>
    </g>
    <g id="ytick_36">
     <g id="line2d_137">
      <path d="M 65.178365 360.192145 
L 465.814481 360.192145 
" clip-path="url(#pedaa62161d)" style="fill: none; stroke-dasharray: 0.5,0.825; stroke-dashoffset: 0; stroke: #bfbfbf; stroke-width: 0.5"/>
     </g>
     <g id="line2d_138"/>
    </g>
    <g id="ytick_37">
     <g id="line2d_139">
      <path d="M 65.178365 342.701376 
L 465.814481 342.701376 
" clip-path="url(#pedaa62161d)" style="fill: none; stroke-dasharray: 0.5,0.825; stroke-dashoffset: 0; stroke: #bfbfbf; stroke-width: 0.5"/>
     </g>
     <g id="line2d_140"/>
    </g>
   </g>
   <g id="line2d_141">
    <path d="M 72.418777 362.033444 
L 74.027757 362.04961 
L 74.295921 362.127561 
L 74.564084 362.031216 
L 74.832247 362.103799 
L 75.368574 362.126501 
L 79.659188 362.056431 
L 80.195515 362.19896 
L 80.731842 362.147217 
L 81.268169 362.193398 
L 81.804496 362.108066 
L 87.972254 362.19625 
L 88.776744 362.170395 
L 89.581234 362.277081 
L 90.117561 362.247685 
L 90.385724 362.2847 
L 90.922051 362.230797 
L 92.262868 362.238512 
L 96.285319 362.311381 
L 96.821646 362.342626 
L 98.162463 362.243506 
L 98.430626 362.367241 
L 99.235117 362.320009 
L 99.50328 362.367905 
L 100.039607 362.338018 
L 100.30777 362.376639 
L 100.844097 362.317162 
L 102.184914 362.384697 
L 102.721241 362.320514 
L 103.257567 362.413074 
L 103.525731 362.334457 
L 103.793894 362.425502 
L 104.866548 362.388469 
L 105.134711 362.458261 
L 105.671038 362.405768 
L 106.207365 362.447035 
L 107.816345 362.401045 
L 108.084509 362.533177 
L 109.157162 362.430317 
L 109.425326 362.531872 
L 109.961652 362.499328 
L 110.229816 362.53011 
L 110.766143 362.470218 
L 112.91145 362.546195 
L 113.984103 362.499212 
L 114.252267 362.577592 
L 114.788594 362.601905 
L 124.978803 362.798258 
L 125.246966 362.850145 
L 125.783293 362.757807 
L 127.12411 362.823639 
L 127.392273 362.768178 
L 127.9286 362.889414 
L 128.196763 362.822461 
L 128.464927 362.929743 
L 128.73309 362.857433 
L 129.001254 362.950574 
L 129.269417 362.868242 
L 129.53758 362.948892 
L 130.073907 362.869096 
L 130.610234 362.946933 
L 133.560031 362.968541 
L 133.828195 363.026249 
L 134.364522 363.017145 
L 134.900848 362.988201 
L 136.509829 363.117565 
L 137.314319 363.059015 
L 137.582482 363.044655 
L 138.118809 363.122528 
L 138.386973 363.034579 
L 138.655136 363.117813 
L 139.191463 363.096673 
L 139.459626 363.16396 
L 139.995953 363.110043 
L 141.068607 363.231022 
L 142.409424 363.158806 
L 142.677587 363.27547 
L 143.213914 363.213955 
L 143.482077 363.261145 
L 143.750241 363.187241 
L 144.286567 363.308136 
L 144.554731 363.220743 
L 145.091058 363.309702 
L 147.236365 363.294838 
L 148.040855 363.294093 
L 148.309018 363.415204 
L 148.845345 363.413985 
L 149.113508 363.467261 
L 149.649835 363.377298 
L 151.258816 363.493606 
L 157.426574 363.560907 
L 157.694737 363.667399 
L 158.231064 363.62576 
L 158.499227 363.713998 
L 159.035554 363.63918 
L 159.571881 363.718226 
L 165.471476 363.815389 
L 166.007803 363.901208 
L 166.812293 363.936545 
L 167.080456 364.008546 
L 167.34862 363.910696 
L 167.616783 363.973853 
L 168.15311 363.970533 
L 168.9576 364.032972 
L 170.030254 364.059001 
L 170.56658 364.00648 
L 170.834744 364.115526 
L 171.102907 364.044365 
L 171.371071 364.140402 
L 171.639234 364.056863 
L 171.907397 364.143233 
L 172.175561 364.047386 
L 172.980051 364.191023 
L 173.248214 364.070234 
L 174.052704 364.136924 
L 174.320868 364.110812 
L 174.589031 364.246329 
L 175.125358 364.16296 
L 175.393521 364.281198 
L 175.929848 364.16188 
L 176.466175 364.301619 
L 176.734338 364.215516 
L 177.270665 364.319036 
L 177.538829 364.332632 
L 177.806992 364.225504 
L 178.879646 364.364304 
L 179.415972 364.314573 
L 179.684136 364.443231 
L 180.756789 364.3516 
L 181.56128 364.468978 
L 182.097606 364.404701 
L 190.142508 364.829954 
L 190.410672 364.70991 
L 192.019652 364.8465 
L 192.287816 364.791911 
L 192.555979 364.896774 
L 192.824142 364.827764 
L 193.092306 364.920265 
L 193.360469 364.838323 
L 193.896796 364.933278 
L 194.701286 364.88088 
L 195.77394 365.018606 
L 196.57843 364.935424 
L 196.846593 365.04436 
L 197.38292 365.018541 
L 198.18741 365.037087 
L 203.550678 365.245758 
L 203.818842 365.337644 
L 204.891495 365.29546 
L 205.159659 365.355747 
L 205.427822 365.283737 
L 206.768639 365.41342 
L 209.450273 365.548056 
L 209.9866 365.617776 
L 210.522927 365.490254 
L 210.79109 365.609369 
L 212.936397 365.666212 
L 213.472724 365.755648 
L 214.009051 365.644685 
L 214.545378 365.784068 
L 218.299665 365.834326 
L 218.567829 365.944429 
L 219.372319 365.940924 
L 219.640482 366.01777 
L 219.908645 365.91415 
L 220.981299 366.043674 
L 222.322116 366.078633 
L 223.126606 366.045499 
L 224.19926 366.205599 
L 225.271913 366.161177 
L 225.540077 366.27023 
L 225.80824 366.19567 
L 226.076404 366.287834 
L 226.61273 366.268758 
L 227.149057 366.330157 
L 227.685384 366.284943 
L 228.221711 366.386401 
L 228.758038 366.329472 
L 229.026201 366.429402 
L 229.294364 366.349376 
L 229.830691 366.449348 
L 230.367018 366.393498 
L 231.707835 366.504259 
L 232.512325 366.505055 
L 233.048652 366.595903 
L 233.584979 366.525442 
L 235.193959 366.706543 
L 235.730286 366.701607 
L 235.998449 366.76882 
L 236.266613 366.660923 
L 237.875593 366.781633 
L 238.41192 366.792882 
L 238.680083 366.866567 
L 239.21641 366.815138 
L 240.557227 366.971568 
L 240.825391 366.904786 
L 241.093554 366.998738 
L 241.629881 366.972816 
L 241.898044 367.026885 
L 242.434371 366.936506 
L 247.261312 367.294958 
L 247.529475 367.165745 
L 253.697234 367.602001 
L 254.501724 367.528029 
L 255.038051 367.619797 
L 256.378868 367.633932 
L 256.647031 367.726363 
L 256.915194 367.639095 
L 257.719685 367.729846 
L 258.256011 367.774265 
L 259.328665 367.820697 
L 261.205809 367.888834 
L 262.010299 367.999222 
L 262.814789 367.912628 
L 263.351116 368.042535 
L 263.887443 367.983351 
L 264.960096 368.020312 
L 265.496423 368.158962 
L 265.764587 368.179978 
L 266.03275 368.062369 
L 266.300913 368.215334 
L 267.373567 368.142063 
L 268.44622 368.298366 
L 269.518874 368.323781 
L 270.323364 368.314902 
L 270.859691 368.353741 
L 271.664181 368.45367 
L 273.004998 368.494617 
L 273.809488 368.555072 
L 274.077652 368.500338 
L 274.345815 368.594408 
L 274.613979 368.497436 
L 275.150305 368.573999 
L 275.418469 368.527083 
L 275.686632 368.632434 
L 276.222959 368.649112 
L 277.295613 368.699224 
L 277.831939 368.67992 
L 278.368266 368.739032 
L 278.904593 368.703439 
L 279.709083 368.843836 
L 299.553175 369.663938 
L 300.089501 369.636609 
L 301.966645 369.663302 
L 302.502972 369.781161 
L 303.307462 369.726721 
L 303.575626 369.835199 
L 304.380116 369.721224 
L 306.25726 369.874795 
L 306.793586 369.84204 
L 311.352364 369.898861 
L 311.620528 369.809849 
L 312.693181 369.902843 
L 312.961345 369.804139 
L 313.229508 369.897419 
L 314.033998 369.808484 
L 315.106652 369.831195 
L 315.911142 369.822394 
L 317.251959 369.706015 
L 318.056449 369.659786 
L 318.592776 369.69043 
L 319.397266 369.531028 
L 319.665429 369.609777 
L 320.201756 369.469049 
L 320.46992 369.512735 
L 321.006246 369.36602 
L 321.27441 369.4166 
L 321.542573 369.273897 
L 321.810737 369.325234 
L 322.0789 369.227318 
L 322.347063 369.251603 
L 322.615227 369.133697 
L 322.88339 369.190797 
L 323.151554 369.045332 
L 323.956044 368.967778 
L 324.760534 368.731605 
L 325.296861 368.660298 
L 325.565024 368.539812 
L 325.833188 368.54601 
L 326.369514 368.348246 
L 326.637678 368.387321 
L 327.442168 368.151758 
L 327.978495 367.991776 
L 332.000946 367.019901 
L 332.269109 367.034697 
L 332.537273 366.897552 
L 332.805436 366.922694 
L 333.073599 366.808575 
L 333.341763 366.836235 
L 333.87809 366.654577 
L 334.950743 366.489731 
L 335.755233 366.325349 
L 336.023397 366.208932 
L 336.29156 366.266967 
L 336.827887 366.12454 
L 340.850338 365.479455 
L 341.118501 365.491413 
L 341.386665 365.379238 
L 341.922991 365.398859 
L 342.459318 365.29021 
L 343.800135 365.116912 
L 354.794835 363.946435 
L 355.062998 364.020925 
L 355.867488 363.871773 
L 356.671978 363.867242 
L 357.476469 363.714916 
L 358.012795 363.770836 
L 358.549122 363.650794 
L 360.158103 363.611076 
L 360.694429 363.509986 
L 361.49892 363.427317 
L 361.767083 363.496702 
L 362.571573 363.359637 
L 363.1079 363.377388 
L 364.448717 363.284275 
L 364.985044 363.228218 
L 365.52137 363.231716 
L 366.862187 363.140356 
L 367.398514 363.104227 
L 370.080148 362.971539 
L 370.616475 362.831439 
L 371.152802 362.911885 
L 371.957292 362.821101 
L 372.225455 362.872825 
L 372.761782 362.759943 
L 381.879338 362.402677 
L 382.147501 362.337617 
L 382.951991 362.393801 
L 383.220155 362.301565 
L 384.292808 362.320065 
L 385.097299 362.217196 
L 385.365462 362.274735 
L 386.169952 362.17691 
L 395.823834 361.952386 
L 396.091998 361.837128 
L 396.896488 361.855005 
L 398.773632 361.835897 
L 399.041795 361.892583 
L 399.578122 361.788171 
L 402.527919 361.798134 
L 403.064246 361.699059 
L 448.652024 361.370186 
L 455.087945 361.406805 
L 456.160599 361.405059 
L 458.305906 361.421515 
L 458.305906 361.421515 
" clip-path="url(#pedaa62161d)" style="fill: none; stroke: #ff0000; stroke-width: 2; stroke-linecap: square"/>
   </g>
   <g id="line2d_142">
    <path d="M 72.418777 584.017655 
L 458.305906 584.017618 
L 458.305906 584.017618 
" clip-path="url(#pedaa62161d)" style="fill: none; stroke: #0000ff; stroke-width: 2; stroke-linecap: square"/>
   </g>
   <g id="line2d_143">
    <path d="M 72.418777 383.914711 
L 75.100411 383.927013 
L 75.636738 383.980963 
L 76.173064 383.975663 
L 78.318371 383.915789 
L 78.854698 383.973347 
L 79.659188 383.899983 
L 80.195515 384.025433 
L 80.731842 383.975262 
L 81.268169 384.013373 
L 81.804496 383.932781 
L 87.972254 383.963816 
L 88.776744 383.933025 
L 89.581234 384.022008 
L 90.117561 383.99035 
L 90.653888 383.942545 
L 91.994705 383.956752 
L 97.8943 383.934969 
L 98.162463 383.89916 
L 98.430626 384.007864 
L 99.235117 383.955198 
L 99.771443 383.928016 
L 100.30777 383.992789 
L 100.844097 383.932205 
L 102.184914 383.975791 
L 102.721241 383.910468 
L 103.257567 383.986964 
L 103.525731 383.91209 
L 104.062058 383.958792 
L 105.402875 383.951915 
L 107.816345 383.910771 
L 108.084509 384.026345 
L 109.157162 383.91686 
L 109.425326 384.004742 
L 109.961652 383.966948 
L 110.766143 383.927967 
L 112.91145 383.961964 
L 114.52043 383.925689 
L 115.056757 383.979375 
L 115.593084 383.914699 
L 116.665737 383.990719 
L 117.738391 383.886614 
L 118.006554 383.999342 
L 118.542881 383.939233 
L 119.079208 383.91687 
L 120.420025 383.980731 
L 121.492679 383.946624 
L 124.978803 383.971698 
L 125.515129 383.943453 
L 126.587783 383.927136 
L 129.001254 384.028197 
L 129.269417 383.947954 
L 129.53758 384.015514 
L 130.073907 383.931773 
L 130.610234 383.990983 
L 134.364522 383.973151 
L 135.169012 383.96053 
L 136.509829 384.016019 
L 137.314319 383.94444 
L 138.386973 383.897499 
L 138.923299 383.928556 
L 143.482077 383.981458 
L 143.750241 383.907769 
L 144.286567 384.004287 
L 144.554731 383.918319 
L 145.091058 383.985815 
L 147.236365 383.918274 
L 148.040855 383.89702 
L 148.309018 384.000295 
L 148.845345 383.985389 
L 149.381672 383.955896 
L 150.186162 383.972683 
L 151.526979 383.988702 
L 152.063306 383.909529 
L 152.599633 383.967888 
L 152.867796 383.886088 
L 153.672286 383.972231 
L 166.275966 383.924359 
L 166.812293 383.958767 
L 167.080456 384.016263 
L 167.34862 383.918965 
L 167.884946 383.911227 
L 169.225763 384.001584 
L 170.56658 383.908227 
L 170.834744 383.999327 
L 171.102907 383.92609 
L 171.371071 384.00533 
L 171.639234 383.920812 
L 171.907397 383.991226 
L 172.175561 383.895476 
L 172.980051 384.001232 
L 173.248214 383.882714 
L 174.052704 383.918286 
L 174.320868 383.885908 
L 174.589031 384.000998 
L 175.125358 383.907837 
L 175.393521 384.007167 
L 175.929848 383.881175 
L 176.466175 383.991388 
L 176.734338 383.90426 
L 177.270665 383.981423 
L 180.488626 383.964068 
L 181.024953 383.929036 
L 181.56128 383.977622 
L 182.097606 383.90118 
L 190.678835 383.919729 
L 191.215162 383.902836 
L 191.751489 383.972545 
L 195.505776 383.921221 
L 196.042103 383.945957 
L 203.550678 383.908464 
L 204.087005 383.948372 
L 204.891495 383.903308 
L 205.159659 383.948339 
L 205.695985 383.902401 
L 207.304966 383.918254 
L 208.377619 383.88837 
L 208.645783 383.945017 
L 209.18211 383.923907 
L 209.9866 384.003566 
L 210.522927 383.865672 
L 211.059253 383.950771 
L 212.936397 383.932739 
L 213.472724 383.993753 
L 214.009051 383.870689 
L 214.545378 383.977433 
L 218.835992 383.94053 
L 219.640482 383.988132 
L 219.908645 383.881955 
L 220.981299 383.957455 
L 222.322116 383.93483 
L 223.39477 383.923629 
L 224.19926 383.974614 
L 225.271913 383.889398 
L 225.540077 383.978653 
L 225.80824 383.898841 
L 226.076404 383.972556 
L 226.61273 383.93269 
L 227.149057 383.966784 
L 227.685384 383.903084 
L 228.221711 383.973924 
L 228.758038 383.899063 
L 229.026201 383.979867 
L 229.294364 383.894829 
L 229.830691 383.964229 
L 230.367018 383.890216 
L 232.244162 383.945548 
L 232.780489 383.96201 
L 242.166208 383.901024 
L 242.702534 383.878136 
L 243.238861 383.966621 
L 243.507025 383.896133 
L 243.775188 383.967217 
L 244.311515 383.964131 
L 248.870292 383.896757 
L 249.138456 383.953964 
L 249.674783 383.926911 
L 250.747436 383.943783 
L 251.551926 383.936556 
L 251.82009 383.978024 
L 252.356417 383.92127 
L 256.110704 383.962415 
L 256.378868 383.89622 
L 256.647031 383.969852 
L 256.915194 383.876912 
L 257.719685 383.924869 
L 258.256011 383.94153 
L 259.596828 383.921247 
L 262.010299 383.980473 
L 262.814789 383.86367 
L 263.351116 383.959816 
L 263.887443 383.880675 
L 265.22826 383.947062 
L 265.764587 383.978009 
L 266.03275 383.856741 
L 266.300913 383.986648 
L 267.373567 383.870006 
L 268.44622 383.966474 
L 269.518874 383.941678 
L 270.323364 383.896992 
L 270.859691 383.908886 
L 271.932345 383.946511 
L 274.345815 383.975831 
L 274.613979 383.873558 
L 275.686632 383.951057 
L 276.222959 383.942685 
L 277.295613 383.941737 
L 277.831939 383.899832 
L 278.368266 383.931108 
L 278.904593 383.874294 
L 279.709083 383.969416 
L 333.073599 383.890879 
L 333.341763 383.966857 
L 333.87809 383.897992 
L 336.023397 383.856502 
L 336.29156 383.95325 
L 336.827887 383.90724 
L 345.677279 383.905411 
L 345.945442 383.964881 
L 346.213606 383.88567 
L 347.018096 383.967477 
L 347.286259 383.851135 
L 347.554423 383.959209 
L 349.163403 383.912692 
L 379.197704 383.87393 
L 379.465867 383.961173 
L 379.734031 383.889796 
L 380.002194 383.965806 
L 380.538521 383.907486 
L 381.879338 383.938557 
L 382.415665 383.946104 
L 383.488318 383.928122 
L 384.560972 383.920474 
L 390.996893 383.873496 
L 391.801383 383.879294 
L 393.1422 383.911695 
L 402.259756 383.901521 
L 402.527919 383.953147 
L 403.064246 383.874087 
L 416.204253 383.922999 
L 417.276906 383.896404 
L 421.835684 383.914806 
L 423.176501 383.894841 
L 458.305906 383.912588 
L 458.305906 383.912588 
" clip-path="url(#pedaa62161d)" style="fill: none; stroke: #008000; stroke-width: 2; stroke-linecap: square"/>
   </g>
   <g id="legend_2">
    <g id="patch_6">
     <path d="M 55.221423 358.580908 
L 475.771423 358.580908 
Q 478.771423 358.580908 478.771423 355.580908 
L 478.771423 302.080908 
Q 478.771423 299.080908 475.771423 299.080908 
L 55.221423 299.080908 
Q 52.221423 299.080908 52.221423 302.080908 
L 52.221423 355.580908 
Q 52.221423 358.580908 55.221423 358.580908 
z
" style="fill: #ffffff; opacity: 0.8; stroke: #cccccc; stroke-linejoin: miter"/>
    </g>
    <g id="line2d_144">
     <path d="M 58.221423 314.830908 
L 69.471423 314.830908 
L 80.721423 314.830908 
" style="fill: none; stroke: #ff0000; stroke-width: 2; stroke-linecap: square"/>
    </g>
    <g id="text_25">
     <!-- $|Δ\mathbf{r}|/R_E$ ($|Δ\mathbf{r}|_{\rm{max}} = 1650.0$ [km]) -->
     <g transform="translate(88.221423 320.080908) scale(0.2 -0.2)">
      <defs>
       <path id="Cmsy10-6a" d="M 763 -1484 
L 763 4684 
Q 763 4734 800 4767 
Q 838 4800 891 4800 
Q 938 4800 978 4767 
Q 1019 4734 1019 4684 
L 1019 -1484 
Q 1019 -1534 978 -1567 
Q 938 -1600 891 -1600 
Q 838 -1600 800 -1567 
Q 763 -1534 763 -1484 
z
" transform="scale(0.015625)"/>
       <path id="STIXGeneral-Regular-394" d="M 4320 0 
L 307 0 
L 2221 4314 
L 2349 4314 
L 4320 0 
z
M 3354 589 
L 2118 3405 
L 870 589 
L 3354 589 
z
" transform="scale(0.015625)"/>
       <path id="Cmb10-72" d="M 91 0 
L 91 325 
L 531 325 
L 531 2322 
Q 531 2503 91 2503 
L 91 2828 
L 1178 2881 
L 1178 2356 
Q 1269 2594 1436 2737 
Q 1603 2881 1838 2881 
Q 2006 2881 2173 2822 
Q 2341 2763 2450 2641 
Q 2559 2519 2559 2344 
Q 2559 2178 2443 2059 
Q 2328 1941 2156 1941 
Q 1984 1941 1868 2059 
Q 1753 2178 1753 2344 
Q 1753 2513 1856 2625 
L 1838 2625 
Q 1488 2625 1367 2248 
Q 1247 1872 1247 1416 
L 1247 325 
L 1806 325 
L 1806 0 
L 91 0 
z
" transform="scale(0.015625)"/>
       <path id="Cmmi10-3d" d="M 359 -1472 
Q 359 -1453 366 -1447 
L 2591 4722 
Q 2603 4759 2634 4779 
Q 2666 4800 2706 4800 
Q 2763 4800 2798 4765 
Q 2834 4731 2834 4672 
L 2834 4647 
L 609 -1522 
Q 572 -1600 488 -1600 
Q 434 -1600 396 -1562 
Q 359 -1525 359 -1472 
z
" transform="scale(0.015625)"/>
       <path id="TimesNewRomanPSMT-20" transform="scale(0.015625)"/>
       <path id="TimesNewRomanPSMT-28" d="M 1988 -1253 
L 1988 -1369 
Q 1516 -1131 1200 -813 
Q 750 -359 506 256 
Q 263 872 263 1534 
Q 263 2503 741 3301 
Q 1219 4100 1988 4444 
L 1988 4313 
Q 1603 4100 1356 3731 
Q 1109 3363 987 2797 
Q 866 2231 866 1616 
Q 866 947 969 400 
Q 1050 -31 1165 -292 
Q 1281 -553 1476 -793 
Q 1672 -1034 1988 -1253 
z
" transform="scale(0.015625)"/>
       <path id="Cmr10-6d" d="M 191 0 
L 191 225 
Q 409 225 550 259 
Q 691 294 691 428 
L 691 2175 
Q 691 2347 639 2423 
Q 588 2500 491 2517 
Q 394 2534 191 2534 
L 191 2759 
L 1119 2828 
L 1119 2203 
Q 1247 2478 1498 2653 
Q 1750 2828 2047 2828 
Q 2784 2828 2913 2228 
Q 3041 2497 3287 2662 
Q 3534 2828 3828 2828 
Q 4119 2828 4317 2734 
Q 4516 2641 4616 2448 
Q 4716 2256 4716 1966 
L 4716 428 
Q 4716 294 4858 259 
Q 5000 225 5216 225 
L 5216 0 
L 3750 0 
L 3750 225 
Q 3969 225 4109 259 
Q 4250 294 4250 428 
L 4250 1947 
Q 4250 2269 4159 2466 
Q 4069 2663 3788 2663 
Q 3419 2663 3178 2366 
Q 2938 2069 2938 1691 
L 2938 428 
Q 2938 294 3078 259 
Q 3219 225 3438 225 
L 3438 0 
L 1972 0 
L 1972 225 
Q 2191 225 2331 259 
Q 2472 294 2472 428 
L 2472 1947 
Q 2472 2259 2381 2461 
Q 2291 2663 2009 2663 
Q 1638 2663 1398 2366 
Q 1159 2069 1159 1691 
L 1159 428 
Q 1159 294 1300 259 
Q 1441 225 1656 225 
L 1656 0 
L 191 0 
z
" transform="scale(0.015625)"/>
       <path id="Cmr10-61" d="M 256 628 
Q 256 1009 556 1248 
Q 856 1488 1276 1586 
Q 1697 1684 2075 1684 
L 2075 1947 
Q 2075 2131 1994 2304 
Q 1913 2478 1759 2589 
Q 1606 2700 1422 2700 
Q 997 2700 775 2509 
Q 897 2509 976 2417 
Q 1056 2325 1056 2203 
Q 1056 2075 965 1984 
Q 875 1894 750 1894 
Q 622 1894 531 1984 
Q 441 2075 441 2203 
Q 441 2541 747 2705 
Q 1053 2869 1422 2869 
Q 1681 2869 1943 2758 
Q 2206 2647 2373 2440 
Q 2541 2234 2541 1959 
L 2541 519 
Q 2541 394 2594 289 
Q 2647 184 2759 184 
Q 2866 184 2917 290 
Q 2969 397 2969 519 
L 2969 928 
L 3156 928 
L 3156 519 
Q 3156 375 3081 245 
Q 3006 116 2879 39 
Q 2753 -38 2606 -38 
Q 2419 -38 2283 107 
Q 2147 253 2131 453 
Q 2013 213 1781 70 
Q 1550 -72 1288 -72 
Q 1044 -72 808 0 
Q 572 72 414 226 
Q 256 381 256 628 
z
M 775 628 
Q 775 403 940 250 
Q 1106 97 1331 97 
Q 1538 97 1706 200 
Q 1875 303 1975 481 
Q 2075 659 2075 856 
L 2075 1522 
Q 1784 1522 1479 1426 
Q 1175 1331 975 1128 
Q 775 925 775 628 
z
" transform="scale(0.015625)"/>
       <path id="Cmr10-78" d="M 78 0 
L 78 225 
Q 322 225 537 320 
Q 753 416 903 603 
L 1484 1344 
L 728 2328 
Q 616 2469 483 2501 
Q 350 2534 109 2534 
L 109 2759 
L 1441 2759 
L 1441 2534 
Q 1356 2534 1282 2496 
Q 1209 2459 1209 2388 
Q 1209 2363 1228 2328 
L 1741 1663 
L 2125 2156 
Q 2203 2250 2203 2344 
Q 2203 2422 2151 2478 
Q 2100 2534 2016 2534 
L 2016 2759 
L 3194 2759 
L 3194 2534 
Q 2947 2534 2730 2439 
Q 2513 2344 2363 2156 
L 1856 1509 
L 2675 428 
Q 2797 288 2928 256 
Q 3059 225 3303 225 
L 3303 0 
L 1972 0 
L 1972 225 
Q 2050 225 2122 262 
Q 2194 300 2194 372 
Q 2194 400 2175 428 
L 1600 1191 
L 1141 603 
Q 1069 522 1069 416 
Q 1069 338 1122 281 
Q 1175 225 1247 225 
L 1247 0 
L 78 0 
z
" transform="scale(0.015625)"/>
       <path id="Cmr10-3d" d="M 481 850 
Q 428 850 393 890 
Q 359 931 359 978 
Q 359 1031 393 1068 
Q 428 1106 481 1106 
L 4500 1106 
Q 4547 1106 4581 1068 
Q 4616 1031 4616 978 
Q 4616 931 4581 890 
Q 4547 850 4500 850 
L 481 850 
z
M 481 2094 
Q 428 2094 393 2131 
Q 359 2169 359 2222 
Q 359 2269 393 2309 
Q 428 2350 481 2350 
L 4500 2350 
Q 4547 2350 4581 2309 
Q 4616 2269 4616 2222 
Q 4616 2169 4581 2131 
Q 4547 2094 4500 2094 
L 481 2094 
z
" transform="scale(0.015625)"/>
       <path id="Cmr10-31" d="M 594 0 
L 594 225 
Q 1394 225 1394 428 
L 1394 3788 
Q 1063 3628 556 3628 
L 556 3853 
Q 1341 3853 1741 4263 
L 1831 4263 
Q 1853 4263 1873 4245 
Q 1894 4228 1894 4206 
L 1894 428 
Q 1894 225 2694 225 
L 2694 0 
L 594 0 
z
" transform="scale(0.015625)"/>
       <path id="Cmr10-36" d="M 1600 -141 
Q 1203 -141 937 70 
Q 672 281 526 617 
Q 381 953 325 1322 
Q 269 1691 269 2069 
Q 269 2575 466 3084 
Q 663 3594 1045 3928 
Q 1428 4263 1953 4263 
Q 2172 4263 2361 4180 
Q 2550 4097 2658 3936 
Q 2766 3775 2766 3547 
Q 2766 3416 2677 3327 
Q 2588 3238 2456 3238 
Q 2331 3238 2240 3328 
Q 2150 3419 2150 3547 
Q 2150 3672 2240 3762 
Q 2331 3853 2456 3853 
L 2491 3853 
Q 2409 3969 2261 4023 
Q 2113 4078 1953 4078 
Q 1759 4078 1595 3993 
Q 1431 3909 1300 3765 
Q 1169 3622 1081 3448 
Q 994 3275 945 3053 
Q 897 2831 884 2637 
Q 872 2444 872 2150 
Q 984 2413 1190 2580 
Q 1397 2747 1656 2747 
Q 1941 2747 2175 2631 
Q 2409 2516 2578 2311 
Q 2747 2106 2836 1843 
Q 2925 1581 2925 1313 
Q 2925 938 2758 598 
Q 2591 259 2287 59 
Q 1984 -141 1600 -141 
z
M 1600 63 
Q 1847 63 1997 175 
Q 2147 288 2217 473 
Q 2288 659 2305 848 
Q 2322 1038 2322 1313 
Q 2322 1675 2287 1931 
Q 2253 2188 2100 2383 
Q 1947 2578 1631 2578 
Q 1372 2578 1205 2403 
Q 1038 2228 961 1961 
Q 884 1694 884 1447 
Q 884 1363 891 1319 
Q 891 1309 889 1303 
Q 888 1297 884 1288 
Q 884 1013 940 731 
Q 997 450 1156 256 
Q 1316 63 1600 63 
z
" transform="scale(0.015625)"/>
       <path id="Cmr10-35" d="M 556 728 
Q 622 541 758 387 
Q 894 234 1080 148 
Q 1266 63 1466 63 
Q 1928 63 2103 422 
Q 2278 781 2278 1294 
Q 2278 1516 2270 1667 
Q 2263 1819 2228 1959 
Q 2169 2184 2020 2353 
Q 1872 2522 1656 2522 
Q 1441 2522 1286 2456 
Q 1131 2391 1034 2303 
Q 938 2216 863 2119 
Q 788 2022 769 2016 
L 697 2016 
Q 681 2016 657 2036 
Q 634 2056 634 2075 
L 634 4213 
Q 634 4228 654 4245 
Q 675 4263 697 4263 
L 716 4263 
Q 1147 4056 1631 4056 
Q 2106 4056 2547 4263 
L 2566 4263 
Q 2588 4263 2606 4247 
Q 2625 4231 2625 4213 
L 2625 4153 
Q 2625 4122 2613 4122 
Q 2394 3831 2064 3668 
Q 1734 3506 1381 3506 
Q 1125 3506 856 3578 
L 856 2369 
Q 1069 2541 1236 2614 
Q 1403 2688 1663 2688 
Q 2016 2688 2295 2484 
Q 2575 2281 2725 1954 
Q 2875 1628 2875 1288 
Q 2875 903 2686 575 
Q 2497 247 2172 53 
Q 1847 -141 1466 -141 
Q 1150 -141 886 21 
Q 622 184 470 459 
Q 319 734 319 1044 
Q 319 1188 412 1278 
Q 506 1369 647 1369 
Q 788 1369 883 1276 
Q 978 1184 978 1044 
Q 978 906 883 811 
Q 788 716 647 716 
Q 625 716 597 720 
Q 569 725 556 728 
z
" transform="scale(0.015625)"/>
       <path id="Cmr10-30" d="M 1600 -141 
Q 816 -141 533 504 
Q 250 1150 250 2041 
Q 250 2597 351 3087 
Q 453 3578 754 3920 
Q 1056 4263 1600 4263 
Q 2022 4263 2290 4056 
Q 2559 3850 2700 3523 
Q 2841 3197 2892 2823 
Q 2944 2450 2944 2041 
Q 2944 1491 2842 1011 
Q 2741 531 2444 195 
Q 2147 -141 1600 -141 
z
M 1600 25 
Q 1956 25 2131 390 
Q 2306 756 2347 1200 
Q 2388 1644 2388 2144 
Q 2388 2625 2347 3031 
Q 2306 3438 2132 3767 
Q 1959 4097 1600 4097 
Q 1238 4097 1063 3765 
Q 888 3434 847 3029 
Q 806 2625 806 2144 
Q 806 1788 823 1472 
Q 841 1156 916 820 
Q 991 484 1158 254 
Q 1325 25 1600 25 
z
" transform="scale(0.015625)"/>
       <path id="Cmmi10-3a" d="M 538 353 
Q 538 497 644 600 
Q 750 703 891 703 
Q 978 703 1062 656 
Q 1147 609 1194 525 
Q 1241 441 1241 353 
Q 1241 213 1137 106 
Q 1034 0 891 0 
Q 750 0 644 106 
Q 538 213 538 353 
z
" transform="scale(0.015625)"/>
       <path id="TimesNewRomanPSMT-5b" d="M 1900 -1269 
L 525 -1269 
L 525 4334 
L 1900 4334 
L 1900 4088 
L 994 4088 
L 994 -1025 
L 1900 -1025 
L 1900 -1269 
z
" transform="scale(0.015625)"/>
       <path id="TimesNewRomanPSMT-6b" d="M 1047 4444 
L 1047 1594 
L 1775 2259 
Q 2006 2472 2044 2528 
Q 2069 2566 2069 2603 
Q 2069 2666 2017 2711 
Q 1966 2756 1847 2763 
L 1847 2863 
L 3091 2863 
L 3091 2763 
Q 2834 2756 2664 2684 
Q 2494 2613 2291 2428 
L 1556 1750 
L 2291 822 
Q 2597 438 2703 334 
Q 2853 188 2966 144 
Q 3044 113 3238 113 
L 3238 0 
L 1847 0 
L 1847 113 
Q 1966 116 2008 148 
Q 2050 181 2050 241 
Q 2050 313 1925 472 
L 1047 1594 
L 1047 644 
Q 1047 366 1086 278 
Q 1125 191 1197 153 
Q 1269 116 1509 113 
L 1509 0 
L 53 0 
L 53 113 
Q 272 113 381 166 
Q 447 200 481 272 
Q 528 375 528 628 
L 528 3234 
Q 528 3731 506 3842 
Q 484 3953 434 3995 
Q 384 4038 303 4038 
Q 238 4038 106 3984 
L 53 4094 
L 903 4444 
L 1047 4444 
z
" transform="scale(0.015625)"/>
       <path id="TimesNewRomanPSMT-6d" d="M 1050 2338 
Q 1363 2650 1419 2697 
Q 1559 2816 1721 2881 
Q 1884 2947 2044 2947 
Q 2313 2947 2506 2790 
Q 2700 2634 2766 2338 
Q 3088 2713 3309 2830 
Q 3531 2947 3766 2947 
Q 3994 2947 4170 2830 
Q 4347 2713 4450 2447 
Q 4519 2266 4519 1878 
L 4519 647 
Q 4519 378 4559 278 
Q 4591 209 4675 161 
Q 4759 113 4950 113 
L 4950 0 
L 3538 0 
L 3538 113 
L 3597 113 
Q 3781 113 3884 184 
Q 3956 234 3988 344 
Q 4000 397 4000 647 
L 4000 1878 
Q 4000 2228 3916 2372 
Q 3794 2572 3525 2572 
Q 3359 2572 3192 2489 
Q 3025 2406 2788 2181 
L 2781 2147 
L 2788 2013 
L 2788 647 
Q 2788 353 2820 281 
Q 2853 209 2943 161 
Q 3034 113 3253 113 
L 3253 0 
L 1806 0 
L 1806 113 
Q 2044 113 2133 169 
Q 2222 225 2256 338 
Q 2272 391 2272 647 
L 2272 1878 
Q 2272 2228 2169 2381 
Q 2031 2581 1784 2581 
Q 1616 2581 1450 2491 
Q 1191 2353 1050 2181 
L 1050 647 
Q 1050 366 1089 281 
Q 1128 197 1204 155 
Q 1281 113 1516 113 
L 1516 0 
L 100 0 
L 100 113 
Q 297 113 375 155 
Q 453 197 493 289 
Q 534 381 534 647 
L 534 1741 
Q 534 2213 506 2350 
Q 484 2453 437 2492 
Q 391 2531 309 2531 
Q 222 2531 100 2484 
L 53 2597 
L 916 2947 
L 1050 2947 
L 1050 2338 
z
" transform="scale(0.015625)"/>
       <path id="TimesNewRomanPSMT-5d" d="M 234 4334 
L 1609 4334 
L 1609 -1272 
L 234 -1272 
L 234 -1025 
L 1141 -1025 
L 1141 4088 
L 234 4088 
L 234 4334 
z
" transform="scale(0.015625)"/>
       <path id="TimesNewRomanPSMT-29" d="M 144 4313 
L 144 4444 
Q 619 4209 934 3891 
Q 1381 3434 1625 2820 
Q 1869 2206 1869 1541 
Q 1869 572 1392 -226 
Q 916 -1025 144 -1369 
L 144 -1253 
Q 528 -1038 776 -670 
Q 1025 -303 1145 264 
Q 1266 831 1266 1447 
Q 1266 2113 1163 2663 
Q 1084 3094 967 3353 
Q 850 3613 656 3853 
Q 463 4094 144 4313 
z
" transform="scale(0.015625)"/>
      </defs>
      <use xlink:href="#Cmsy10-6a"/>
      <use xlink:href="#STIXGeneral-Regular-394" transform="translate(27.685547 0)"/>
      <use xlink:href="#Cmb10-72" transform="translate(99.885529 0)"/>
      <use xlink:href="#Cmsy10-6a" transform="translate(142.56131 0)"/>
      <use xlink:href="#Cmmi10-3d" transform="translate(170.246857 0)"/>
      <use xlink:href="#Cmmi10-52" transform="translate(220.246857 0)"/>
      <use xlink:href="#Cmmi10-45" transform="translate(296.125763 -17.00625) scale(0.7)"/>
      <use xlink:href="#TimesNewRomanPSMT-20" transform="translate(354.148615 0)"/>
      <use xlink:href="#TimesNewRomanPSMT-28" transform="translate(379.148615 0)"/>
      <use xlink:href="#Cmsy10-6a" transform="translate(412.449396 0)"/>
      <use xlink:href="#STIXGeneral-Regular-394" transform="translate(440.134943 0)"/>
      <use xlink:href="#Cmb10-72" transform="translate(512.334924 0)"/>
      <use xlink:href="#Cmsy10-6a" transform="translate(555.010706 0)"/>
      <use xlink:href="#Cmr10-6d" transform="translate(587.160393 -17.00625) scale(0.7)"/>
      <use xlink:href="#Cmr10-61" transform="translate(645.47094 -17.00625) scale(0.7)"/>
      <use xlink:href="#Cmr10-78" transform="translate(680.47094 -17.00625) scale(0.7)"/>
      <use xlink:href="#Cmr10-3d" transform="translate(741.28676 0)"/>
      <use xlink:href="#Cmr10-31" transform="translate(836.530901 0)"/>
      <use xlink:href="#Cmr10-36" transform="translate(886.530901 0)"/>
      <use xlink:href="#Cmr10-35" transform="translate(936.530901 0)"/>
      <use xlink:href="#Cmr10-30" transform="translate(986.530901 0)"/>
      <use xlink:href="#Cmmi10-3a" transform="translate(1036.530901 0)"/>
      <use xlink:href="#Cmr10-30" transform="translate(1064.216448 0)"/>
      <use xlink:href="#TimesNewRomanPSMT-20" transform="translate(1114.216448 0)"/>
      <use xlink:href="#TimesNewRomanPSMT-5b" transform="translate(1139.216448 0)"/>
      <use xlink:href="#TimesNewRomanPSMT-6b" transform="translate(1172.517229 0)"/>
      <use xlink:href="#TimesNewRomanPSMT-6d" transform="translate(1222.517229 0)"/>
      <use xlink:href="#TimesNewRomanPSMT-5d" transform="translate(1300.300432 0)"/>
      <use xlink:href="#TimesNewRomanPSMT-29" transform="translate(1333.601213 0)"/>
     </g>
    </g>
    <g id="line2d_145">
     <path d="M 58.221423 342.330908 
L 69.471423 342.330908 
L 80.721423 342.330908 
" style="fill: none; stroke: #0000ff; stroke-width: 2; stroke-linecap: square"/>
    </g>
    <g id="text_26">
     <!-- $|Δ\mathbf{r}|/\overline{r}$  (max= 1/246) -->
     <g transform="translate(88.221423 347.580908) scale(0.2 -0.2)">
      <defs>
       <path id="TimesNewRomanPSMT-61" d="M 1822 413 
Q 1381 72 1269 19 
Q 1100 -59 909 -59 
Q 613 -59 420 144 
Q 228 347 228 678 
Q 228 888 322 1041 
Q 450 1253 767 1440 
Q 1084 1628 1822 1897 
L 1822 2009 
Q 1822 2438 1686 2597 
Q 1550 2756 1291 2756 
Q 1094 2756 978 2650 
Q 859 2544 859 2406 
L 866 2225 
Q 866 2081 792 2003 
Q 719 1925 600 1925 
Q 484 1925 411 2006 
Q 338 2088 338 2228 
Q 338 2497 613 2722 
Q 888 2947 1384 2947 
Q 1766 2947 2009 2819 
Q 2194 2722 2281 2516 
Q 2338 2381 2338 1966 
L 2338 994 
Q 2338 584 2353 492 
Q 2369 400 2405 369 
Q 2441 338 2488 338 
Q 2538 338 2575 359 
Q 2641 400 2828 588 
L 2828 413 
Q 2478 -56 2159 -56 
Q 2006 -56 1915 50 
Q 1825 156 1822 413 
z
M 1822 616 
L 1822 1706 
Q 1350 1519 1213 1441 
Q 966 1303 859 1153 
Q 753 1003 753 825 
Q 753 600 887 451 
Q 1022 303 1197 303 
Q 1434 303 1822 616 
z
" transform="scale(0.015625)"/>
       <path id="TimesNewRomanPSMT-78" d="M 84 2863 
L 1431 2863 
L 1431 2747 
Q 1303 2747 1251 2703 
Q 1200 2659 1200 2588 
Q 1200 2513 1309 2356 
Q 1344 2306 1413 2200 
L 1616 1875 
L 1850 2200 
Q 2075 2509 2075 2591 
Q 2075 2656 2022 2701 
Q 1969 2747 1850 2747 
L 1850 2863 
L 2819 2863 
L 2819 2747 
Q 2666 2738 2553 2663 
Q 2400 2556 2134 2200 
L 1744 1678 
L 2456 653 
Q 2719 275 2831 198 
Q 2944 122 3122 113 
L 3122 0 
L 1772 0 
L 1772 113 
Q 1913 113 1991 175 
Q 2050 219 2050 291 
Q 2050 363 1850 653 
L 1431 1266 
L 972 653 
Q 759 369 759 316 
Q 759 241 829 180 
Q 900 119 1041 113 
L 1041 0 
L 106 0 
L 106 113 
Q 219 128 303 191 
Q 422 281 703 653 
L 1303 1450 
L 759 2238 
Q 528 2575 401 2661 
Q 275 2747 84 2747 
L 84 2863 
z
" transform="scale(0.015625)"/>
       <path id="TimesNewRomanPSMT-3d" d="M 116 2759 
L 3488 2759 
L 3488 2503 
L 116 2503 
L 116 2759 
z
M 116 1741 
L 3488 1741 
L 3488 1484 
L 116 1484 
L 116 1741 
z
" transform="scale(0.015625)"/>
      </defs>
      <use xlink:href="#Cmsy10-6a"/>
      <use xlink:href="#STIXGeneral-Regular-394" transform="translate(27.685547 0)"/>
      <use xlink:href="#Cmb10-72" transform="translate(99.885529 0)"/>
      <use xlink:href="#Cmsy10-6a" transform="translate(142.56131 0)"/>
      <use xlink:href="#Cmmi10-3d" transform="translate(170.246857 0)"/>
      <use xlink:href="#Cmmi10-72" transform="translate(220.246857 0.5)"/>
      <use xlink:href="#TimesNewRomanPSMT-20" transform="translate(265.364044 0)"/>
      <use xlink:href="#TimesNewRomanPSMT-20" transform="translate(290.364044 0)"/>
      <use xlink:href="#TimesNewRomanPSMT-28" transform="translate(315.364044 0)"/>
      <use xlink:href="#TimesNewRomanPSMT-6d" transform="translate(348.664825 0)"/>
      <use xlink:href="#TimesNewRomanPSMT-61" transform="translate(426.448029 0)"/>
      <use xlink:href="#TimesNewRomanPSMT-78" transform="translate(470.832794 0)"/>
      <use xlink:href="#TimesNewRomanPSMT-3d" transform="translate(520.832794 0)"/>
      <use xlink:href="#TimesNewRomanPSMT-20" transform="translate(577.229279 0)"/>
      <use xlink:href="#TimesNewRomanPSMT-31" transform="translate(602.229279 0)"/>
      <use xlink:href="#TimesNewRomanPSMT-2f" transform="translate(652.229279 0)"/>
      <use xlink:href="#TimesNewRomanPSMT-32" transform="translate(680.012482 0)"/>
      <use xlink:href="#TimesNewRomanPSMT-34" transform="translate(730.012482 0)"/>
      <use xlink:href="#TimesNewRomanPSMT-36" transform="translate(780.012482 0)"/>
      <use xlink:href="#TimesNewRomanPSMT-29" transform="translate(830.012482 0)"/>
      <path d="M 220.246857 56.4375 
L 220.246857 62.6875 
L 265.364044 62.6875 
L 265.364044 56.4375 
L 220.246857 56.4375 
z
"/>
     </g>
    </g>
    <g id="line2d_146">
     <path d="M 371.371423 314.830908 
L 382.621423 314.830908 
L 393.871423 314.830908 
" style="fill: none; stroke: #008000; stroke-width: 2; stroke-linecap: square"/>
    </g>
    <g id="text_27">
     <!-- $Δθ$ [deg] -->
     <g transform="translate(401.371423 320.080908) scale(0.2 -0.2)">
      <defs>
       <path id="STIXGeneral-Italic-3b8" d="M 3162 3270 
Q 3162 2534 2925 1862 
Q 2688 1190 2304 678 
Q 1741 -70 992 -70 
Q 608 -70 390 224 
Q 173 518 173 1030 
Q 173 1997 592 2813 
Q 1011 3629 1594 4070 
Q 1952 4339 2374 4339 
Q 2733 4339 2947 4076 
Q 3162 3814 3162 3270 
z
M 941 2221 
L 2432 2221 
Q 2624 2874 2624 3533 
Q 2624 4205 2285 4205 
Q 2029 4205 1728 3814 
Q 1427 3424 1232 2992 
Q 1037 2560 941 2221 
z
M 2387 2016 
L 896 2016 
Q 710 1530 710 960 
Q 710 64 1069 64 
Q 1286 64 1510 275 
Q 1734 486 1904 806 
Q 2074 1126 2198 1440 
Q 2323 1754 2387 2016 
z
" transform="scale(0.015625)"/>
       <path id="TimesNewRomanPSMT-64" d="M 2222 322 
Q 2013 103 1813 7 
Q 1613 -88 1381 -88 
Q 913 -88 563 304 
Q 213 697 213 1313 
Q 213 1928 600 2439 
Q 988 2950 1597 2950 
Q 1975 2950 2222 2709 
L 2222 3238 
Q 2222 3728 2198 3840 
Q 2175 3953 2125 3993 
Q 2075 4034 2000 4034 
Q 1919 4034 1784 3984 
L 1744 4094 
L 2597 4444 
L 2738 4444 
L 2738 1134 
Q 2738 631 2761 520 
Q 2784 409 2836 365 
Q 2888 322 2956 322 
Q 3041 322 3181 375 
L 3216 266 
L 2366 -88 
L 2222 -88 
L 2222 322 
z
M 2222 541 
L 2222 2016 
Q 2203 2228 2109 2403 
Q 2016 2578 1861 2667 
Q 1706 2756 1559 2756 
Q 1284 2756 1069 2509 
Q 784 2184 784 1559 
Q 784 928 1059 592 
Q 1334 256 1672 256 
Q 1956 256 2222 541 
z
" transform="scale(0.015625)"/>
       <path id="TimesNewRomanPSMT-67" d="M 966 1044 
Q 703 1172 562 1401 
Q 422 1631 422 1909 
Q 422 2334 742 2640 
Q 1063 2947 1563 2947 
Q 1972 2947 2272 2747 
L 2878 2747 
Q 3013 2747 3034 2739 
Q 3056 2731 3066 2713 
Q 3084 2684 3084 2613 
Q 3084 2531 3069 2500 
Q 3059 2484 3036 2475 
Q 3013 2466 2878 2466 
L 2506 2466 
Q 2681 2241 2681 1891 
Q 2681 1491 2375 1206 
Q 2069 922 1553 922 
Q 1341 922 1119 984 
Q 981 866 932 777 
Q 884 688 884 625 
Q 884 572 936 522 
Q 988 472 1138 450 
Q 1225 438 1575 428 
Q 2219 413 2409 384 
Q 2700 344 2873 169 
Q 3047 -6 3047 -263 
Q 3047 -616 2716 -925 
Q 2228 -1381 1444 -1381 
Q 841 -1381 425 -1109 
Q 191 -953 191 -784 
Q 191 -709 225 -634 
Q 278 -519 444 -313 
Q 466 -284 763 25 
Q 600 122 533 198 
Q 466 275 466 372 
Q 466 481 555 628 
Q 644 775 966 1044 
z
M 1509 2797 
Q 1278 2797 1122 2612 
Q 966 2428 966 2047 
Q 966 1553 1178 1281 
Q 1341 1075 1591 1075 
Q 1828 1075 1981 1253 
Q 2134 1431 2134 1813 
Q 2134 2309 1919 2591 
Q 1759 2797 1509 2797 
z
M 934 0 
Q 788 -159 713 -296 
Q 638 -434 638 -550 
Q 638 -700 819 -813 
Q 1131 -1006 1722 -1006 
Q 2284 -1006 2551 -807 
Q 2819 -609 2819 -384 
Q 2819 -222 2659 -153 
Q 2497 -84 2016 -72 
Q 1313 -53 934 0 
z
" transform="scale(0.015625)"/>
      </defs>
      <use xlink:href="#STIXGeneral-Regular-394" transform="translate(0 0.5625)"/>
      <use xlink:href="#STIXGeneral-Italic-3b8" transform="translate(72.199982 0.5625)"/>
      <use xlink:href="#TimesNewRomanPSMT-20" transform="translate(120.199966 0.5625)"/>
      <use xlink:href="#TimesNewRomanPSMT-5b" transform="translate(145.199966 0.5625)"/>
      <use xlink:href="#TimesNewRomanPSMT-64" transform="translate(178.500748 0.5625)"/>
      <use xlink:href="#TimesNewRomanPSMT-65" transform="translate(228.500748 0.5625)"/>
      <use xlink:href="#TimesNewRomanPSMT-67" transform="translate(272.885513 0.5625)"/>
      <use xlink:href="#TimesNewRomanPSMT-5d" transform="translate(322.885513 0.5625)"/>
     </g>
    </g>
   </g>
  </g>
 </g>
 <defs>
  <clipPath id="p60276c1353">
   <rect x="65.178365" y="3.00024" width="400.636116" height="288.597693"/>
  </clipPath>
  <clipPath id="pedaa62161d">
   <rect x="65.178365" y="312.09253" width="400.636116" height="288.597693"/>
  </clipPath>
 </defs>
</svg>
